<?xml version="1.0" encoding="UTF-8"?>
<svg version="1.1" xmlns="http://www.w3.org/2000/svg" width="512" height="512">
<path d="M0 0 C1.45108658 0.00273422 1.45108658 0.00273422 2.93148804 0.00552368 C17.26440977 0.05095174 31.21023917 0.55983928 45.3125 3.3125 C46.65803955 3.55395752 46.65803955 3.55395752 48.03076172 3.80029297 C107.84088904 14.62287989 165.35495829 48.68064457 202.3125 97.3125 C202.72918945 97.85277832 203.14587891 98.39305664 203.57519531 98.94970703 C211.2584873 108.9447116 218.00092968 119.40459036 224.3125 130.3125 C224.70679199 130.98974121 225.10108398 131.66698242 225.50732422 132.36474609 C238.68961173 155.2833756 247.29510918 180.85822563 252.625 206.6875 C252.77243652 207.39817627 252.91987305 208.10885254 253.07177734 208.84106445 C256.05713787 224.48358366 256.6873098 240.11919606 256.625 256 C256.62226578 257.45108658 256.62226578 257.45108658 256.61947632 258.93148804 C256.57404826 273.26440977 256.06516072 287.21023917 253.3125 301.3125 C253.15152832 302.20952637 252.99055664 303.10655273 252.82470703 304.03076172 C244.01471851 352.71843124 220.57143453 397.74255908 186.3125 433.3125 C185.68037598 433.97185547 185.04825195 434.63121094 184.39697266 435.31054688 C175.25252521 444.79880305 165.95515991 453.5387044 155.3125 461.3125 C154.16144983 462.17056152 153.01040823 463.02863451 151.859375 463.88671875 C143.66819386 469.92486829 135.15445895 475.28345521 126.3125 480.3125 C125.68069824 480.67698242 125.04889648 481.04146484 124.39794922 481.41699219 C98.31285999 496.34723018 68.97664886 505.82635054 39.3125 510.3125 C38.19004883 510.48910156 37.06759766 510.66570312 35.91113281 510.84765625 C24.29802257 512.5045586 12.78070055 512.71123513 1.0625 512.6875 C-0.45552216 512.68668427 -0.45552216 512.68668427 -2.00421143 512.68585205 C-18.53280572 512.64511956 -34.46663999 511.74174222 -50.6875 508.3125 C-51.72938477 508.09287598 -52.77126953 507.87325195 -53.84472656 507.64697266 C-111.28584798 495.11774997 -165.87158154 462.44211111 -201.6875 415.3125 C-202.10418945 414.77222168 -202.52087891 414.23194336 -202.95019531 413.67529297 C-210.63314457 403.68073425 -217.39327934 393.230481 -223.6875 382.3125 C-224.11417969 381.57580078 -224.54085937 380.83910156 -224.98046875 380.08007812 C-246.45174547 342.52186022 -256.16792179 299.68053899 -256 256.6875 C-255.99817719 255.71761139 -255.99635437 254.74772278 -255.99447632 253.7484436 C-255.94908309 239.39693945 -255.4437347 225.43307082 -252.6875 211.3125 C-252.44604248 209.96696045 -252.44604248 209.96696045 -252.19970703 208.59423828 C-241.37712011 148.78411096 -207.31935543 91.27004171 -158.6875 54.3125 C-158.14722168 53.89581055 -157.60694336 53.47912109 -157.05029297 53.04980469 C-147.0552884 45.3665127 -136.59540964 38.62407032 -125.6875 32.3125 C-125.01025879 31.91820801 -124.33301758 31.52391602 -123.63525391 31.11767578 C-100.7166244 17.93538827 -75.14177437 9.32989082 -49.3125 4 C-48.60182373 3.85256348 -47.89114746 3.70512695 -47.15893555 3.55322266 C-31.51641634 0.56786213 -15.88080394 -0.0623098 0 0 Z " fill="#CBCBCB" transform="translate(255.6875,-0.3125)"/>
<path d="M0 0 C1.45108658 0.00273422 1.45108658 0.00273422 2.93148804 0.00552368 C17.26440977 0.05095174 31.21023917 0.55983928 45.3125 3.3125 C46.65803955 3.55395752 46.65803955 3.55395752 48.03076172 3.80029297 C107.84088904 14.62287989 165.35495829 48.68064457 202.3125 97.3125 C202.72918945 97.85277832 203.14587891 98.39305664 203.57519531 98.94970703 C211.2584873 108.9447116 218.00092968 119.40459036 224.3125 130.3125 C224.70679199 130.98974121 225.10108398 131.66698242 225.50732422 132.36474609 C238.68961173 155.2833756 247.29510918 180.85822563 252.625 206.6875 C252.77243652 207.39817627 252.91987305 208.10885254 253.07177734 208.84106445 C256.05713787 224.48358366 256.6873098 240.11919606 256.625 256 C256.62226578 257.45108658 256.62226578 257.45108658 256.61947632 258.93148804 C256.57404826 273.26440977 256.06516072 287.21023917 253.3125 301.3125 C253.15152832 302.20952637 252.99055664 303.10655273 252.82470703 304.03076172 C244.48177436 350.13728589 222.54021932 396.729404 189.3125 430.3125 C188.9825 430.3125 188.6525 430.3125 188.3125 430.3125 C188.3125 426.6825 188.3125 423.0525 188.3125 419.3125 C176.7625 419.3125 165.2125 419.3125 153.3125 419.3125 C153.3125 407.1025 153.3125 394.8925 153.3125 382.3125 C164.5325 382.3125 175.7525 382.3125 187.3125 382.3125 C186.673125 379.38375 186.03375 376.455 185.375 373.4375 C185.17527588 372.51598145 184.97555176 371.59446289 184.76977539 370.64501953 C184.60985107 369.91911621 184.44992676 369.19321289 184.28515625 368.4453125 C184.04164429 367.32987061 184.04164429 367.32987061 183.79321289 366.19189453 C183.36474081 364.24062876 183.36474081 364.24062876 182.3125 362.3125 C182.37662979 359.71232851 182.50172148 357.15411041 182.6875 354.5625 C182.73132813 353.85867188 182.77515625 353.15484375 182.8203125 352.4296875 C183.09419721 348.33663271 183.56305144 344.35190074 184.3125 340.3125 C191.01269789 339.61117087 197.57507354 339.20205039 204.3125 339.3125 C204.3125 338.6525 204.3125 337.9925 204.3125 337.3125 C202.4253125 337.3434375 202.4253125 337.3434375 200.5 337.375 C195.06735053 337.38365072 189.71145124 336.87762387 184.3125 336.3125 C184.17972656 335.18070312 184.04695313 334.04890625 183.91015625 332.8828125 C183.7319658 331.40101821 183.55356971 329.91924864 183.375 328.4375 C183.28798828 327.69113281 183.20097656 326.94476563 183.11132812 326.17578125 C182.67923937 322.1171769 182.67923937 322.1171769 181.3125 318.3125 C180.6525 324.2525 179.9925 330.1925 179.3125 336.3125 C168.47265625 337.19140625 168.47265625 337.19140625 165.3125 337.3125 C163.36008742 335.36008742 164.19468324 332.38316663 164.19126892 329.78486633 C164.19677513 328.37384895 164.19677513 328.37384895 164.20239258 326.93432617 C164.20184956 324.89055887 164.20126252 322.84679157 164.20063782 320.80302429 C164.20206598 319.71248938 164.20349415 318.62195446 164.20496559 317.49837303 C164.20847669 311.73128947 164.18267673 305.96430445 164.16210938 300.19726562 C164.13782207 292.8544914 164.12200502 285.51199809 164.13745117 278.16918945 C164.14915614 272.24146804 164.13159067 266.31444731 164.09500694 260.3868351 C164.08642228 258.1331972 164.0884245 255.87949173 164.101511 253.62587547 C164.5130103 236.46334518 164.5130103 236.46334518 157.3125 221.3125 C151.01301382 215.1772074 144.73426858 213.1163455 135.9453125 212.8984375 C135.26572479 212.87907135 134.58613708 212.8597052 133.88595581 212.8397522 C131.73659421 212.78044901 129.58717759 212.73377109 127.4375 212.6875 C125.9713321 212.64927468 124.50518557 212.61022036 123.0390625 212.5703125 C119.46373836 212.47478956 115.88825252 212.39057874 112.3125 212.3125 C112.10850586 211.22324219 111.90451172 210.13398438 111.69433594 209.01171875 C108.16160516 190.86943685 99.82108567 174.68362728 88.3125 160.3125 C87.68472656 159.52617187 87.05695313 158.73984375 86.41015625 157.9296875 C73.5182096 142.55289853 55.96782576 132.07777221 37.3125 125.3125 C36.61326416 125.05412354 35.91402832 124.79574707 35.19360352 124.52954102 C29.64746479 122.56681772 24.19726217 121.42372584 18.375 120.625 C17.00746582 120.43719971 17.00746582 120.43719971 15.61230469 120.24560547 C-15.14604563 116.31934852 -45.36105271 124.04718948 -70.09765625 143.046875 C-93.20200125 161.43952311 -104.44364577 184.51179678 -112.6875 212.3125 C-113.5846875 212.3218457 -114.481875 212.33119141 -115.40625 212.34082031 C-118.76898339 212.38511251 -122.13049347 212.44684662 -125.49267578 212.52001953 C-126.94145216 212.54806036 -128.39037672 212.56935811 -129.83935547 212.58349609 C-140.82260939 212.69703766 -148.06325513 213.8501524 -156.6875 221.3125 C-164.36675152 230.75865895 -163.4601124 241.92776325 -163.29311943 253.4424839 C-163.24527639 256.82735932 -163.2363915 260.21043386 -163.23731995 263.59562683 C-163.23228611 271.99225844 -163.16639889 280.38814525 -163.09301758 288.78442383 C-163.03211398 295.90348354 -162.99891867 303.02154518 -163.00480843 310.14087486 C-162.99622356 313.46920606 -162.94663283 316.79533054 -162.89585876 320.12324524 C-162.89386355 322.1665538 -162.8938828 324.20986565 -162.89624023 326.25317383 C-162.87099777 327.17228043 -162.84575531 328.09138702 -162.81974792 329.03834534 C-162.87456162 334.06529135 -163.48567003 336.65587152 -167.10731506 340.26567078 C-167.7257985 340.7920045 -168.34428194 341.31833822 -168.9815073 341.86062145 C-180.15299559 351.36807375 -183.98305184 368.79025918 -186.6875 382.3125 C-175.4675 382.3125 -164.2475 382.3125 -152.6875 382.3125 C-152.6875 394.5225 -152.6875 406.7325 -152.6875 419.3125 C-164.2375 419.3125 -175.7875 419.3125 -187.6875 419.3125 C-187.6875 422.9425 -187.6875 426.5725 -187.6875 430.3125 C-193.31819754 426.04533375 -197.38685697 420.86447867 -201.6875 415.3125 C-202.11869141 414.75626953 -202.54988281 414.20003906 -202.99414062 413.62695312 C-210.66014929 403.64879544 -217.40507438 393.21002128 -223.6875 382.3125 C-224.11417969 381.57580078 -224.54085937 380.83910156 -224.98046875 380.08007812 C-246.45174547 342.52186022 -256.16792179 299.68053899 -256 256.6875 C-255.99817719 255.71761139 -255.99635437 254.74772278 -255.99447632 253.7484436 C-255.94908309 239.39693945 -255.4437347 225.43307082 -252.6875 211.3125 C-252.44604248 209.96696045 -252.44604248 209.96696045 -252.19970703 208.59423828 C-241.37712011 148.78411096 -207.31935543 91.27004171 -158.6875 54.3125 C-158.14722168 53.89581055 -157.60694336 53.47912109 -157.05029297 53.04980469 C-147.0552884 45.3665127 -136.59540964 38.62407032 -125.6875 32.3125 C-125.01025879 31.91820801 -124.33301758 31.52391602 -123.63525391 31.11767578 C-100.7166244 17.93538827 -75.14177437 9.32989082 -49.3125 4 C-48.60182373 3.85256348 -47.89114746 3.70512695 -47.15893555 3.55322266 C-31.51641634 0.56786213 -15.88080394 -0.0623098 0 0 Z " fill="#27536B" transform="translate(255.6875,-0.3125)"/>
<path d="M0 0 C0.81065918 0.00270905 1.62131836 0.00541809 2.45654297 0.00820923 C28.16819339 0.13840202 53.34309457 5.3286853 72.8125 23.4375 C85.0385534 36.14300648 90.35161694 52.52473447 90.1640625 69.92431641 C89.40664915 93.41990958 79.90066271 114.14416987 63.3984375 130.88671875 C45.08828609 148.00525713 21.05864402 156.42203227 -3.7890625 155.80859375 C-23.83388843 154.78560136 -41.68822098 146.90818427 -57.1875 134.4375 C-57.87972656 133.90898437 -58.57195312 133.38046875 -59.28515625 132.8359375 C-73.37323503 121.46464528 -81.78625265 104.68788655 -86.1875 87.4375 C-86.36410156 86.75453857 -86.54070312 86.07157715 -86.72265625 85.36791992 C-90.78557529 68.64646877 -88.82403789 49.84917313 -79.94921875 34.9609375 C-76.7586473 30.39085068 -73.11637849 26.37992634 -69.1875 22.4375 C-68.58421875 21.81101563 -67.9809375 21.18453125 -67.359375 20.5390625 C-49.78668219 3.6539968 -23.32002374 -0.18300869 0 0 Z " fill="#51BEE4" transform="translate(255.1875,168.5625)"/>
<path d="M0 0 C0.33 0 0.66 0 1 0 C1.33885038 2.52019972 1.67120335 5.04098516 2 7.5625 C2.14308594 8.61920898 2.14308594 8.61920898 2.2890625 9.69726562 C2.86666417 14.17367855 3.09489383 18.48661238 3 23 C3.68964844 22.98839844 4.37929688 22.97679687 5.08984375 22.96484375 C11.15772652 22.90657876 16.98357396 23.21096052 23 24 C23 24.66 23 25.32 23 26 C18.01741233 26.65345412 13.20355808 27.06160639 8.17578125 27.03125 C6.71458862 27.02448242 6.71458862 27.02448242 5.22387695 27.01757812 C4.48999756 27.01177734 3.75611816 27.00597656 3 27 C2.74167726 30.47763025 2.52379329 33.95672098 2.3125 37.4375 C2.23966797 38.41138672 2.16683594 39.38527344 2.09179688 40.38867188 C1.82273608 45.12097648 1.77444222 49.05217537 3.41796875 53.53515625 C5 58 5 58 6 69 C-5.22 69 -16.44 69 -28 69 C-28 81.21 -28 93.42 -28 106 C-16.45 106 -4.9 106 7 106 C7 118 7 118 5.47802734 120.93188477 C4.7711377 121.59502686 4.06424805 122.25816895 3.3359375 122.94140625 C2.55049561 123.70396729 1.76505371 124.46652832 0.95581055 125.25219727 C0.10414307 126.01459717 -0.74752441 126.77699707 -1.625 127.5625 C-2.4914917 128.37968506 -3.3579834 129.19687012 -4.25073242 130.03881836 C-11.16808651 136.47836463 -18.35371132 142.45475897 -26 148 C-27.14884745 148.85491814 -28.29727984 149.71039429 -29.4453125 150.56640625 C-37.63748622 156.60951198 -46.15486012 161.96914599 -55 167 C-55.63180176 167.36448242 -56.26360352 167.72896484 -56.91455078 168.10449219 C-83.14377941 183.11723078 -112.27617781 192.15868485 -142 197 C-143.11375 197.19722656 -144.2275 197.39445313 -145.375 197.59765625 C-150.4042372 198.15585822 -155.38259908 198.10492137 -160.4375 198.0625 C-163.923125 198.041875 -167.40875 198.02125 -171 198 C-171 188.1 -171 178.2 -171 168 C-166.2665625 167.94392578 -166.2665625 167.94392578 -161.4375 167.88671875 C-158.36272467 167.84043507 -155.28806777 167.78922625 -152.21337891 167.73754883 C-150.08552316 167.70440718 -147.95758177 167.67634213 -145.82958984 167.65356445 C-142.76102392 167.61982028 -139.69323518 167.56749432 -136.625 167.51171875 C-135.68197021 167.50532883 -134.73894043 167.4989389 -133.76733398 167.49235535 C-127.39882073 167.35234066 -121.18647967 167.12338806 -116.41784668 162.44917297 C-112.17588153 156.68435134 -112.30298684 150.75907276 -112.40625 143.8359375 C-112.40620972 142.68509674 -112.40616943 141.53425598 -112.40612793 140.34854126 C-112.41146879 137.92631541 -112.42898955 135.50408916 -112.45800781 133.08203125 C-112.49994711 129.37966896 -112.4990641 125.67912293 -112.4921875 121.9765625 C-112.50267803 119.61717489 -112.51561538 117.25779663 -112.53125 114.8984375 C-112.53145142 113.79519135 -112.53165283 112.69194519 -112.53186035 111.55526733 C-112.61741771 105.99106091 -112.77018981 101.75478344 -116 97 C-119.99177853 93.39766327 -122.40383937 91.8901875 -127.72509766 91.79467773 C-128.70596344 91.77473251 -129.68682922 91.75478729 -130.69741821 91.73423767 C-131.75891083 91.71752518 -132.82040344 91.70081268 -133.9140625 91.68359375 C-135.54122696 91.6524221 -135.54122696 91.6524221 -137.20126343 91.62062073 C-140.67577621 91.55509366 -144.15036624 91.49622553 -147.625 91.4375 C-149.97657058 91.39431779 -152.32813326 91.3507036 -154.6796875 91.30664062 C-160.4530427 91.19940907 -166.2264752 91.09764856 -172 91 C-172.02465622 86.74585377 -172.04283899 82.49174502 -172.05493164 78.23754883 C-172.05997101 76.78929927 -172.06680253 75.34105483 -172.07543945 73.89282227 C-172.08752247 71.81525412 -172.09323211 69.73775303 -172.09765625 67.66015625 C-172.10289307 66.40855713 -172.10812988 65.15695801 -172.11352539 63.86743164 C-172 61 -172 61 -171 60 C-169.34660682 59.84110247 -167.69256656 59.68748403 -166.03662109 59.55786133 C-133.38364571 56.79559811 -104.51326404 40.39573781 -81.5625 17.8125 C-80.79679687 17.06214478 -80.79679687 17.06214478 -80.015625 16.29663086 C-77.2072441 13.46630949 -75.20641787 10.73653062 -73.3125 7.25 C-71.9921875 5.375 -71.9921875 5.375 -70 4 C-54.19285455 1.31513453 -39.50749582 7.17216206 -26 15 C-23.52146866 16.78298907 -21.17242399 18.61692393 -18.8671875 20.6171875 C-15.22981935 23.31097061 -11.65995347 23.11499945 -7.25 23.0625 C-6.26515625 23.05347656 -5.2803125 23.04445313 -4.265625 23.03515625 C-3.51796875 23.02355469 -2.7703125 23.01195312 -2 23 C-2.04125 21.80375 -2.0825 20.6075 -2.125 19.375 C-2.14592234 12.83676721 -1.02622968 6.44142377 0 0 Z " fill="#F1F1F1" transform="translate(437,313)"/>
<path d="M0 0 C12.55808871 -1.55746164 12.55808871 -1.55746164 17.60302734 2.28808594 C19.72412109 4.97167969 19.72412109 4.97167969 21.76318359 8.01464844 C24.23778688 11.67408827 26.97852045 14.67704391 30.09912109 17.78417969 C30.64383057 18.32719727 31.18854004 18.87021484 31.74975586 19.4296875 C37.95232936 25.4502806 44.83035024 30.44709762 51.97412109 35.28417969 C52.80041016 35.85652344 53.62669922 36.42886719 54.47802734 37.01855469 C71.36509068 47.94375045 93.94260607 55.56996958 114.06005859 56.17871094 C115.97412109 56.28417969 115.97412109 56.28417969 116.97412109 57.28417969 C117.06195651 59.50273233 117.08106718 61.72406465 117.07177734 63.94433594 C117.06965492 64.94103554 117.06965492 64.94103554 117.06748962 65.95787048 C117.06187628 68.08751868 117.04932163 70.21706308 117.03662109 72.34667969 C117.03160781 73.78743338 117.0270446 75.22818872 117.02294922 76.66894531 C117.01190254 80.20739071 116.99462901 83.74577508 116.97412109 87.28417969 C116.37356903 87.28782532 115.77301697 87.29147095 115.15426636 87.29522705 C108.89200427 87.3371042 102.63047153 87.40648647 96.36865234 87.49169922 C94.03311464 87.51988898 91.69748189 87.54111339 89.36181641 87.55517578 C86.0003195 87.57663214 82.63996303 87.62329875 79.27880859 87.67480469 C78.23796112 87.67603333 77.19711365 87.67726196 76.12472534 87.67852783 C70.10083145 87.79966522 66.57396982 88.28812526 61.97412109 92.28417969 C58.60517665 96.11780612 57.85220095 99.33843768 57.78125 104.36303711 C57.75715561 105.9156147 57.75715561 105.9156147 57.73257446 107.4995575 C57.68799897 112.23806029 57.64704932 116.97642425 57.62402344 121.71508789 C57.60748059 124.21062557 57.58021305 126.7061162 57.54199219 129.20141602 C57.48708313 132.80607604 57.46532548 136.40962587 57.45068359 140.01464844 C57.41667953 141.67756172 57.41667953 141.67756172 57.38198853 143.37406921 C57.4005381 150.21332516 58.1809235 155.17299494 62.97412109 160.28417969 C68.10079254 164.115637 73.68592284 163.7564516 79.84130859 163.79589844 C80.87603302 163.81384964 81.91075745 163.83180084 82.97683716 163.85029602 C86.26755756 163.90428938 89.55813381 163.93826011 92.84912109 163.97167969 C95.08612027 164.00486238 97.32310045 164.03935292 99.56005859 164.07519531 C105.03143227 164.16246129 110.50215651 164.22262539 115.97412109 164.28417969 C115.97412109 174.18417969 115.97412109 184.08417969 115.97412109 194.28417969 C53.8630992 195.90799725 -5.9488446 167.80645417 -50.55175781 125.63964844 C-51.99732002 124.31043986 -53.501776 123.04620571 -55.00634766 121.78417969 C-55.92029297 120.97980469 -56.83423828 120.17542969 -57.77587891 119.34667969 C-58.59572266 118.65703125 -59.41556641 117.96738281 -60.26025391 117.25683594 C-62.02587891 114.28417969 -62.02587891 114.28417969 -62.02587891 102.28417969 C-50.47587891 102.28417969 -38.92587891 102.28417969 -27.02587891 102.28417969 C-27.02587891 90.07417969 -27.02587891 77.86417969 -27.02587891 65.28417969 C-38.24587891 65.28417969 -49.46587891 65.28417969 -61.02587891 65.28417969 C-58.93695724 44.39496298 -50.40935864 28.80879403 -34.40087891 15.15917969 C-24.07178694 7.25197109 -12.91282875 1.81134402 0 0 Z " fill="#F1F1F1" transform="translate(130.02587890625,316.7158203125)"/>
<path d="M0 0 C1.10859375 0.474375 2.2171875 0.94875 3.359375 1.4375 C26.72202788 12.31534896 44.26819969 31.41306138 56 54 C56.55558594 55.04671875 57.11117187 56.0934375 57.68359375 57.171875 C69.73567666 81.33615097 71.14549482 114.09803733 62.82568359 139.63574219 C51.98368588 170.68065818 30.38564371 194.87437378 0.75 209.25 C-22.47097025 220.12143028 -51.27392945 223.28273812 -76 216 C-77.20914063 215.6596875 -78.41828125 215.319375 -79.6640625 214.96875 C-93.77049834 210.64628105 -106.4292731 204.17060708 -118 195 C-118.87398437 194.34 -119.74796875 193.68 -120.6484375 193 C-126.11856948 188.79473337 -130.72602262 184.41057356 -135 179 C-135.72058594 178.0925 -136.44117188 177.185 -137.18359375 176.25 C-156.27265161 151.52757768 -165.10031655 121.56277014 -161.5390625 90.3984375 C-157.28712331 59.52053867 -141.25374367 32.01842612 -116.53979492 12.94433594 C-82.40548246 -12.38810484 -38.84804005 -16.79310089 0 0 Z M-119 65 C-119.63550781 65.61359375 -120.27101563 66.2271875 -120.92578125 66.859375 C-132.64104992 79.01623917 -136.51236716 95.37473071 -136.42431641 111.7668457 C-135.74272365 134.70084104 -124.92552655 155.85912505 -109 172 C-95.43650519 184.63377415 -79.89031628 191.06340057 -62 195 C-61.18789062 195.20238281 -60.37578125 195.40476562 -59.5390625 195.61328125 C-47.77777159 197.40461633 -35.31076912 196.50732442 -24 193 C-22.78957031 192.64808594 -21.57914062 192.29617188 -20.33203125 191.93359375 C1.81260605 185.24344805 19.47460904 171.47678009 31.18359375 151.44140625 C41.54048611 131.81899299 45.75560686 109.39595307 39.3203125 87.7890625 C33.32053557 69.66070424 21.34690712 59.46257726 5.32421875 50.50390625 C-7.48526321 44.10912598 -22.91758388 40.90834709 -37.14453125 40.76171875 C-37.91319016 40.753647 -38.68184906 40.74557526 -39.47380066 40.73725891 C-41.09831545 40.72349384 -42.72285823 40.71273818 -44.34741211 40.70483398 C-45.97119939 40.69341585 -47.59495224 40.67312924 -49.21850586 40.64331055 C-74.60639011 40.17888221 -100.68076185 46.45379784 -119 65 Z " fill="#F1F1F1" transform="translate(303,128)"/>
<path d="M0 0 C1.23363281 0.00676758 1.23363281 0.00676758 2.4921875 0.01367188 C4.49482396 0.02531511 6.49742227 0.04324444 8.5 0.0625 C8.5 0.3925 8.5 0.7225 8.5 1.0625 C7.41203125 1.05347656 6.3240625 1.04445313 5.203125 1.03515625 C-5.15970824 1.15822747 -11.96972173 2.7764134 -20.5 9.0625 C-21.51835937 9.78308594 -22.53671875 10.50367188 -23.5859375 11.24609375 C-26.61824068 13.44966924 -29.568412 15.72702878 -32.5 18.0625 C-33.28117187 18.67609375 -34.06234375 19.2896875 -34.8671875 19.921875 C-48.40268779 31.1934304 -57.83597043 46.95776188 -64.5 63.0625 C-63.54480469 62.53140625 -62.58960938 62.0003125 -61.60546875 61.453125 C-47.57763342 53.74155462 -34.23543985 49.83224095 -18.5 47.0625 C-16.84484375 46.76666016 -16.84484375 46.76666016 -15.15625 46.46484375 C14.96380448 43.15035058 46.89064483 48.078609 71.62109375 66.37109375 C84.35344216 77.12560163 92.69286253 92.45143844 94.5 109.0625 C95.75577965 136.13477284 89.60454631 158.57632216 71.84375 179.5 C53.25561127 199.82303168 28.53556621 209.45223117 1.5 211.0625 C16.07745705 217.96576692 31.66135913 218.59188465 47.5 219.0625 C44.67340452 221.38809267 42.27789265 222.64270357 38.76171875 223.6328125 C37.40723633 224.01759766 37.40723633 224.01759766 36.02539062 224.41015625 C35.08888672 224.66667969 34.15238281 224.92320312 33.1875 225.1875 C32.26259766 225.45175781 31.33769531 225.71601563 30.38476562 225.98828125 C12.27684547 231.05901369 -9.38536585 231.39792668 -27.5 226.0625 C-28.70914063 225.7221875 -29.91828125 225.381875 -31.1640625 225.03125 C-45.27049834 220.70878105 -57.9292731 214.23310708 -69.5 205.0625 C-70.37398437 204.4025 -71.24796875 203.7425 -72.1484375 203.0625 C-77.61856948 198.85723337 -82.22602262 194.47307356 -86.5 189.0625 C-87.22058594 188.155 -87.94117188 187.2475 -88.68359375 186.3125 C-107.77265161 161.59007768 -116.60031655 131.62527014 -113.0390625 100.4609375 C-108.78712331 69.58303867 -92.75374367 42.08092612 -68.03979492 23.00683594 C-48.23811336 8.31121476 -24.76320957 -0.26215124 0 0 Z M-70.5 75.0625 C-71.13550781 75.67609375 -71.77101563 76.2896875 -72.42578125 76.921875 C-84.14104992 89.07873917 -88.01236716 105.43723071 -87.92431641 121.8293457 C-87.24272365 144.76334104 -76.42552655 165.92162505 -60.5 182.0625 C-46.93650519 194.69627415 -31.39031628 201.12590057 -13.5 205.0625 C-12.68789062 205.26488281 -11.87578125 205.46726562 -11.0390625 205.67578125 C0.72222841 207.46711633 13.18923088 206.56982442 24.5 203.0625 C25.71042969 202.71058594 26.92085938 202.35867188 28.16796875 201.99609375 C50.31260605 195.30594805 67.97460904 181.53928009 79.68359375 161.50390625 C90.04048611 141.88149299 94.25560686 119.45845307 87.8203125 97.8515625 C81.82053557 79.72320424 69.84690712 69.52507726 53.82421875 60.56640625 C41.01473679 54.17162598 25.58241612 50.97084709 11.35546875 50.82421875 C10.58680984 50.816147 9.81815094 50.80807526 9.02619934 50.79975891 C7.40168455 50.78599384 5.77714177 50.77523818 4.15258789 50.76733398 C2.52880061 50.75591585 0.90504776 50.73562924 -0.71850586 50.70581055 C-26.10639011 50.24138221 -52.18076185 56.51629784 -70.5 75.0625 Z " fill="#E5E5E5" transform="translate(254.5,117.9375)"/>
<path d="M0 0 C0.33 0 0.66 0 1 0 C1.33885038 2.52019972 1.67120335 5.04098516 2 7.5625 C2.09539062 8.26697266 2.19078125 8.97144531 2.2890625 9.69726562 C2.86666417 14.17367855 3.09489383 18.48661238 3 23 C3.68964844 22.98839844 4.37929688 22.97679687 5.08984375 22.96484375 C11.15772652 22.90657876 16.98357396 23.21096052 23 24 C23 24.66 23 25.32 23 26 C18.01741233 26.65345412 13.20355808 27.06160639 8.17578125 27.03125 C6.71458862 27.02448242 6.71458862 27.02448242 5.22387695 27.01757812 C4.48999756 27.01177734 3.75611816 27.00597656 3 27 C2.74167726 30.47763025 2.52379329 33.95672098 2.3125 37.4375 C2.20325195 38.89833008 2.20325195 38.89833008 2.09179688 40.38867188 C1.82273608 45.12097648 1.77444222 49.05217537 3.41796875 53.53515625 C5 58 5 58 6 69 C-5.22 69 -16.44 69 -28 69 C-28 81.21 -28 93.42 -28 106 C-16.45 106 -4.9 106 7 106 C7 118 7 118 5.47802734 120.93188477 C4.7711377 121.59502686 4.06424805 122.25816895 3.3359375 122.94140625 C2.55049561 123.70396729 1.76505371 124.46652832 0.95581055 125.25219727 C0.10414307 126.01459717 -0.74752441 126.77699707 -1.625 127.5625 C-2.4914917 128.37968506 -3.3579834 129.19687012 -4.25073242 130.03881836 C-11.16808651 136.47836463 -18.35371132 142.45475897 -26 148 C-27.14884745 148.85491814 -28.29727984 149.71039429 -29.4453125 150.56640625 C-61.21816844 174 -61.21816844 174 -70 174 C-70.15374614 151.98244561 -70.30178349 129.9648595 -70.4429636 107.9472208 C-70.50864527 97.72480325 -70.57621812 87.50240464 -70.64819336 77.2800293 C-70.71089838 68.37359432 -70.77010579 59.46714425 -70.82505554 50.56065792 C-70.85429348 45.84169657 -70.88532186 41.12276188 -70.92053413 36.40384102 C-70.95358219 31.96756412 -70.98197444 27.53128245 -71.00670624 23.09495163 C-71.01664769 21.46183941 -71.02832937 19.82873677 -71.04183006 18.1956501 C-71.05992806 15.97581485 -71.07191649 13.75603081 -71.08229065 11.53614807 C-71.09058679 10.29080575 -71.09888292 9.04546343 -71.10743046 7.76238346 C-71 5 -71 5 -70 4 C-51.89117464 2.71553681 -35.23858167 7.40768152 -20.875 18.875 C-20.21242188 19.44992187 -19.54984375 20.02484375 -18.8671875 20.6171875 C-15.22981935 23.31097061 -11.65995347 23.11499945 -7.25 23.0625 C-6.26515625 23.05347656 -5.2803125 23.04445313 -4.265625 23.03515625 C-3.51796875 23.02355469 -2.7703125 23.01195312 -2 23 C-2.04125 21.80375 -2.0825 20.6075 -2.125 19.375 C-2.14592234 12.83676721 -1.02622968 6.44142377 0 0 Z " fill="#E4E4E4" transform="translate(437,313)"/>
<path d="M0 0 C1.44800682 2.89601364 1.10399535 5.38202682 1.08229065 8.61843872 C1.07906152 9.30618437 1.07583239 9.99393001 1.07250541 10.70251644 C1.0603956 13.01804161 1.04103007 15.3334502 1.02172852 17.64892578 C1.0115894 19.30436955 1.00189533 20.95981609 0.99261475 22.61526489 C0.96609695 27.11917317 0.933325 31.62301714 0.89946485 36.1268754 C0.86515818 40.83007468 0.83655515 45.53330848 0.80735779 50.23654175 C0.75116909 59.14716264 0.68982023 68.05774031 0.62663645 76.96831405 C0.55496697 87.11082647 0.48902113 97.25337354 0.42356598 107.39592767 C0.28876478 128.26399679 0.14674354 149.13201166 0 170 C-5.17401328 168.30656903 -9.63927589 166.21419865 -14.375 163.5625 C-15.16229492 163.12220459 -15.94958984 162.68190918 -16.76074219 162.22827148 C-34.54073885 152.11692361 -50.74029597 139.56941313 -65.47607422 125.42138672 C-66.95128736 124.04543496 -68.49277071 122.74161543 -70.03515625 121.44140625 C-70.95167969 120.63574219 -71.86820312 119.83007812 -72.8125 119 C-73.62332031 118.319375 -74.43414062 117.63875 -75.26953125 116.9375 C-77 114 -77 114 -77 102 C-65.45 102 -53.9 102 -42 102 C-42 89.79 -42 77.58 -42 65 C-53.22 65 -64.44 65 -76 65 C-73.91107833 44.11078329 -65.38347973 28.52461434 -49.375 14.875 C-34.00663806 3.11008938 -19.11313708 -0.61143922 0 0 Z " fill="#E4E4E4" transform="translate(145,317)"/>
<path d="M0 0 C35.64 0 71.28 0 108 0 C108 15.84 108 31.68 108 48 C72.36 48 36.72 48 0 48 C0 32.16 0 16.32 0 0 Z " fill="#B3B2B2" transform="translate(202,418)"/>
<path d="M0 0 C-1.23363281 0.60134766 -1.23363281 0.60134766 -2.4921875 1.21484375 C-17.82170172 9.021213 -29.38343992 20.20778731 -34.94140625 36.8125 C-40.83235005 58.2134166 -38.05179615 81.00081997 -27.1875 100.3125 C-14.56275302 121.71103045 4.88591157 135.6172024 28.8125 141.8125 C37.54128944 143.96834082 46.01514097 144.86196446 55 145 C47.25109615 152.74890385 31.03974096 153.23328939 20.625 153.4375 C-1.37875999 153.42919356 -20.97272971 145.70010253 -38 132 C-38.69222656 131.47148437 -39.38445312 130.94296875 -40.09765625 130.3984375 C-54.18573503 119.02714528 -62.59875265 102.25038655 -67 85 C-67.17660156 84.31703857 -67.35320312 83.63407715 -67.53515625 82.93041992 C-71.59807529 66.20896877 -69.63653789 47.41167313 -60.76171875 32.5234375 C-57.5711473 27.95335068 -53.92887849 23.94242634 -50 20 C-49.39671875 19.37351563 -48.7934375 18.74703125 -48.171875 18.1015625 C-37.99003933 8.31814649 -14.31373722 -4.51158611 0 0 Z " fill="#47B5D3" transform="translate(236,171)"/>
<path d="M0 0 C11.99875979 11.67398133 19.45111858 27.13225414 20.23046875 43.93359375 C20.37542009 72.2570849 13.0081912 95.13374788 -7.34375 115.75 C-24.66707099 131.97690827 -47.47949732 141.79729988 -71.25 141.5625 C-72.26400879 141.55428223 -73.27801758 141.54606445 -74.32275391 141.53759766 C-101.11279974 141.1385148 -123.33884078 130.7175082 -142.28125 111.99609375 C-159.84291284 93.1173062 -166.66954698 69.77032271 -166.02197266 44.50439453 C-165.33590598 26.70235232 -157.79748429 12.18772384 -145.41015625 -0.21875 C-108.17853969 -32.9153877 -37.25556531 -31.46829303 0 0 Z M-144.9375 6.3125 C-145.57300781 6.92609375 -146.20851562 7.5396875 -146.86328125 8.171875 C-158.57854992 20.32873917 -162.44986716 36.68723071 -162.36181641 53.0793457 C-161.68022365 76.01334104 -150.86302655 97.17162505 -134.9375 113.3125 C-121.37400519 125.94627415 -105.82781628 132.37590057 -87.9375 136.3125 C-87.12539062 136.51488281 -86.31328125 136.71726562 -85.4765625 136.92578125 C-73.71527159 138.71711633 -61.24826912 137.81982442 -49.9375 134.3125 C-48.72707031 133.96058594 -47.51664062 133.60867188 -46.26953125 133.24609375 C-24.12489395 126.55594805 -6.46289096 112.78928009 5.24609375 92.75390625 C15.60298611 73.13149299 19.81810686 50.70845307 13.3828125 29.1015625 C7.38303557 10.97320424 -4.59059288 0.77507726 -20.61328125 -8.18359375 C-33.42276321 -14.57837402 -48.85508388 -17.77915291 -63.08203125 -17.92578125 C-63.85069016 -17.933853 -64.61934906 -17.94192474 -65.41130066 -17.95024109 C-67.03581545 -17.96400616 -68.66035823 -17.97476182 -70.28491211 -17.98266602 C-71.90869939 -17.99408415 -73.53245224 -18.01437076 -75.15600586 -18.04418945 C-100.54389011 -18.50861779 -126.61826185 -12.23370216 -144.9375 6.3125 Z " fill="#CACCCD" transform="translate(328.9375,186.6875)"/>
<path d="M0 0 C6.99564654 4.29506841 10.2561292 10.41068161 12.42578125 18.125 C14.63494225 29.18583329 13.06475567 39.52570507 7 49 C5.07992081 51.80011549 3.8907167 53.07285554 1 55 C-3.4407489 55.72743696 -7.11058067 55.37629279 -11.25 53.625 C-17.3486433 47.80356776 -19.77194333 40.36816228 -20.203125 32.109375 C-20.40668392 20.83246867 -19.58297398 12.84952565 -12.59765625 3.62890625 C-8.89200515 -0.14922703 -5.16973408 -0.70098089 0 0 Z " fill="#72D4EE" transform="translate(318,204)"/>
<path d="M0 0 C0.33 0 0.66 0 1 0 C1 12.87 1 25.74 1 39 C-10.55 39 -22.1 39 -34 39 C-34 26.79 -34 14.58 -34 2 C-22.78 2 -11.56 2 0 2 C0 1.34 0 0.68 0 0 Z " fill="#F57659" transform="translate(443,380)"/>
<path d="M0 0 C11.55 0 23.1 0 35 0 C35 12.21 35 24.42 35 37 C23.45 37 11.9 37 0 37 C0 24.79 0 12.58 0 0 Z " fill="#F67759" transform="translate(68,382)"/>
<path d="M0 0 C0.66 0.33 1.32 0.66 2 1 C2.50244141 3.95922852 2.50244141 3.95922852 2.8515625 7.87890625 C2.94719986 8.90889992 2.94719986 8.90889992 3.04476929 9.95970154 C3.24701463 12.15993636 3.43613567 14.3610801 3.625 16.5625 C3.75955595 18.05151032 3.89496158 19.54044413 4.03125 21.02929688 C4.36404228 24.68536023 4.68507161 28.34234969 5 32 C5.5983667 32.0501123 6.1967334 32.10022461 6.81323242 32.15185547 C17.93868539 33.09420153 28.99782574 34.04867098 40 36 C40 36.33 40 36.66 40 37 C35.9802369 37.43126239 31.96005503 37.85836544 27.93945312 38.28173828 C26.57377402 38.42612299 25.20821131 38.5716133 23.84277344 38.71826172 C21.87206015 38.92971782 19.90087647 39.13677516 17.9296875 39.34375 C16.74616699 39.46943359 15.56264648 39.59511719 14.34326172 39.72460938 C11.20959938 39.98273491 8.14234003 40.05021049 5 40 C4.95101562 40.63421875 4.90203125 41.2684375 4.8515625 41.921875 C4.63899552 44.57529728 4.41536838 47.22754121 4.18408203 49.87939453 C4.0499618 51.42444534 3.91848351 52.96972616 3.78857422 54.51513672 C3.55643153 57.24022568 3.31059271 59.96382078 3.0625 62.6875 C2.98789551 63.58500977 2.91329102 64.48251953 2.83642578 65.40722656 C2.75763184 66.24608398 2.67883789 67.08494141 2.59765625 67.94921875 C2.53070557 68.70549561 2.46375488 69.46177246 2.39477539 70.2409668 C2.26449951 70.82144775 2.13422363 71.40192871 2 72 C1.01 72.495 1.01 72.495 0 73 C-0.50943785 69.18870032 -1.0058065 65.37580386 -1.5 61.5625 C-1.64308594 60.49322266 -1.78617188 59.42394531 -1.93359375 58.32226562 C-2.7257749 52.15456951 -3.15691598 46.2177959 -3 40 C-3.92296875 39.95101562 -4.8459375 39.90203125 -5.796875 39.8515625 C-16.90105453 39.21515695 -27.93994582 38.16719834 -39 37 C-35.65171153 35.04005091 -32.71727478 34.55851348 -28.87890625 34.1484375 C-27.69619141 34.01953125 -26.51347656 33.890625 -25.29492188 33.7578125 C-24.06322266 33.63148438 -22.83152344 33.50515625 -21.5625 33.375 C-19.72075195 33.17390625 -19.72075195 33.17390625 -17.84179688 32.96875 C-7.95576129 31.91395252 -7.95576129 31.91395252 -3 32 C-2.95101562 30.94683594 -2.90203125 29.89367187 -2.8515625 28.80859375 C-2.36210193 19.1132051 -1.43963986 9.60225813 0 0 Z " fill="#F0F3F4" transform="translate(79,136)"/>
<path d="M0 0 C2.7866511 2.7866511 2.49127328 4.86013822 2.8515625 8.7578125 C2.94719986 9.75238968 2.94719986 9.75238968 3.04476929 10.76705933 C3.24655333 12.88568259 3.43591296 15.0052095 3.625 17.125 C3.75960019 18.56127467 3.89500694 19.99747399 4.03125 21.43359375 C4.36353122 24.95490288 4.68467917 28.47712702 5 32 C6.34626465 32.09196655 6.34626465 32.09196655 7.71972656 32.18579102 C14.74107102 32.67470746 21.75096606 33.19200431 28.75 33.9375 C29.91789062 34.04868164 29.91789062 34.04868164 31.109375 34.16210938 C36.76608054 34.76608054 36.76608054 34.76608054 39 37 C34.96185386 37.43057272 30.92336029 37.85771069 26.88452148 38.28173828 C25.51202709 38.42631351 24.13962934 38.57180928 22.76733398 38.71826172 C20.78915965 38.92920958 18.81059836 39.13651853 16.83203125 39.34375 C15.64327393 39.46943359 14.4545166 39.59511719 13.22973633 39.72460938 C10.46264144 39.96055185 7.77428295 40.05489101 5 40 C4.95101562 40.77859375 4.90203125 41.5571875 4.8515625 42.359375 C4.3522726 49.83150667 3.74909472 57.29285577 3.0625 64.75 C2.98789551 65.63139648 2.91329102 66.51279297 2.83642578 67.42089844 C2.75763184 68.2462207 2.67883789 69.07154297 2.59765625 69.921875 C2.53070557 70.66018555 2.46375488 71.39849609 2.39477539 72.15917969 C2 74 2 74 0 76 C-0.50710729 71.50077152 -1.00440809 67.00051028 -1.5 62.5 C-1.64308594 61.2315625 -1.78617187 59.963125 -1.93359375 58.65625 C-2.61782242 52.40044504 -3.19071959 46.29374663 -3 40 C-3.87398438 39.95101562 -4.74796875 39.90203125 -5.6484375 39.8515625 C-15.80997548 39.23377508 -25.89089092 38.19271275 -36 37 C-33.45459959 34.45459959 -32.08697016 34.55682215 -28.546875 34.1484375 C-27.45246094 34.01953125 -26.35804688 33.890625 -25.23046875 33.7578125 C-24.08191406 33.63148438 -22.93335938 33.50515625 -21.75 33.375 C-20.61691406 33.2409375 -19.48382813 33.106875 -18.31640625 32.96875 C-13.17442032 32.37799429 -8.18160146 31.92773892 -3 32 C-3.0309375 30.76378906 -3.061875 29.52757812 -3.09375 28.25390625 C-3.09375 22.40809367 -2.30962572 16.71793587 -1.5 10.9375 C-1.35691406 9.88111328 -1.21382813 8.82472656 -1.06640625 7.73632812 C-0.71624103 5.15677765 -0.36067163 2.57809875 0 0 Z " fill="#F2F4F6" transform="translate(454,170)"/>
<path d="M0 0 C4.09206332 1.808121 6.69807584 4.16345973 9 8 C9.62870677 12.95106583 9.55398784 14.96843643 7.1875 19.375 C4.89735405 22.12317514 3.31161645 23.80881523 -0.3046875 24.3359375 C-4.57276853 24.40080195 -7.24596584 24.43985326 -11 22.25 C-14.47240802 18.34354097 -15.56188974 15.49241232 -15.4609375 10.1015625 C-14.60803882 6.21292275 -11.90176501 3.59354645 -9 1 C-5.93570224 -0.53214888 -3.3834358 -0.22938548 0 0 Z " fill="#F5785A" transform="translate(259,431)"/>
<path d="M0 0 C3.98264271 0.97291272 6.23592988 3.13335965 8.53515625 6.41796875 C9.48650897 9.35851352 9.59248768 11.46104014 9.22265625 14.54296875 C7.15770583 18.30412844 5.13540033 21.63947163 1.22265625 23.54296875 C-2.63379525 24.20660285 -6.16975506 24.44348524 -9.66015625 22.48828125 C-12.61698297 20.07425364 -14.5759202 18.16874458 -15.05078125 14.3359375 C-15.32677099 7.25573922 -15.32677099 7.25573922 -12.46484375 3.54296875 C-7.67014898 -0.02517619 -5.78907222 -0.80011567 0 0 Z " fill="#F5785A" transform="translate(293.77734375,431.45703125)"/>
<path d="M0 0 C2.9375 2.5 2.9375 2.5 5 5 C5.33 5.33 5.66 5.66 6 6 C6.53798008 10.08096316 6.93436984 14.24979978 4.953125 17.9609375 C2.64588318 20.7431997 0.68479503 22.7641287 -2.953125 23.2734375 C-7.15148712 23.45907936 -10.07490427 23.45668199 -13.4375 20.75 C-16.5885381 17.36839813 -17.78147047 15.67539309 -18.375 11.125 C-17.88822519 7.06854321 -16.6272346 5.11119887 -14 2 C-9.39198804 -1.24655388 -5.28146281 -1.82569085 0 0 Z " fill="#F5785A" transform="translate(227,432)"/>
<path d="M0 0 C0.33 0 0.66 0 1 0 C1.33885038 2.52019972 1.67120335 5.04098516 2 7.5625 C2.09539062 8.26697266 2.19078125 8.97144531 2.2890625 9.69726562 C2.86666417 14.17367855 3.09489383 18.48661238 3 23 C3.68964844 22.98839844 4.37929688 22.97679687 5.08984375 22.96484375 C11.15772652 22.90657876 16.98357396 23.21096052 23 24 C23 24.66 23 25.32 23 26 C16.28837062 26.88021369 9.76594019 27.11381955 3 27 C2.95101563 28.03640625 2.90203125 29.0728125 2.8515625 30.140625 C2.77650403 31.51044208 2.70095753 32.88023248 2.625 34.25 C2.57859375 35.27287109 2.57859375 35.27287109 2.53125 36.31640625 C2.31740626 39.98739038 1.98922945 42.86251616 0 46 C-1.32388229 39.56971459 -2.24794402 33.5705166 -2 27 C-3.546875 27.061875 -3.546875 27.061875 -5.125 27.125 C-8.86829627 27.00424851 -11.53734547 26.35127982 -15 25 C-13 23 -13 23 -10.3984375 22.8046875 C-9.40070313 22.82789063 -8.40296875 22.85109375 -7.375 22.875 C-5.87066406 22.90207031 -5.87066406 22.90207031 -4.3359375 22.9296875 C-3.56507813 22.95289063 -2.79421875 22.97609375 -2 23 C-2.04125 21.80375 -2.0825 20.6075 -2.125 19.375 C-2.14592234 12.83676721 -1.02622968 6.44142377 0 0 Z " fill="#EEF2F3" transform="translate(437,313)"/>
<path d="M0 0 C3.36591866 1.44253657 5.51047079 3.33264727 8 6 C6.55746343 9.36591866 4.66735273 11.51047079 2 14 C-1.36591866 12.55746343 -3.51047079 10.66735273 -6 8 C-4.55746343 4.63408134 -2.66735273 2.48952921 0 0 Z " fill="#F0F3F5" transform="translate(53,244)"/>
<path d="M0 0 C5.46875 4.39453125 5.46875 4.39453125 7 6 C7 9 7 9 4.75 11.75 C2 14 2 14 0 14.1875 C-3.07954532 12.35901997 -4.82740334 9.83644564 -7 7 C-4.69 4.69 -2.38 2.38 0 0 Z " fill="#F1F4F5" transform="translate(321,35)"/>
<path d="M0 0 C3.36591866 1.44253657 5.51047079 3.33264727 8 6 C6.55922954 9.36179774 4.75249979 11.59156268 2 14 C1.34 14 0.68 14 0 14 C-1.5078125 12.25 -1.5078125 12.25 -3.125 10 C-3.66382813 9.2575 -4.20265625 8.515 -4.7578125 7.75 C-5.16773438 7.1725 -5.57765625 6.595 -6 6 C-4.02 4.02 -2.04 2.04 0 0 Z " fill="#F6F8F9" transform="translate(48,319)"/>
<path d="M0 0 C1.5078125 1.75 1.5078125 1.75 3.125 4 C3.66382813 4.7425 4.20265625 5.485 4.7578125 6.25 C5.16773438 6.8275 5.57765625 7.405 6 8 C4.02 9.98 2.04 11.96 0 14 C-3.36591866 12.55746343 -5.51047079 10.66735273 -8 8 C-6.48291727 4.46014029 -4.24676932 0 0 0 Z " fill="#F6F7F8" transform="translate(450,280)"/>
<path d="M0 0 C2.31 1.98 4.62 3.96 7 6 C5.21844267 9.56311466 3.83236991 11.35645475 1 14 C-1.84383123 12.7251791 -4.13754018 11.54862922 -6 9 C-6 5.70982308 -4.7074789 4.68607492 -2.4375 2.25 C-1.633125 1.5075 -0.82875 0.765 0 0 Z " fill="#F7F9FA" transform="translate(206,53)"/>
<path d="M0 0 C3.3 0 6.6 0 10 0 C10.33 4.95 10.66 9.9 11 15 C8.24688026 12.24688026 6.0902507 9.51987255 3.8125 6.375 C3.09707031 5.39273437 2.38164062 4.41046875 1.64453125 3.3984375 C0 1 0 1 0 0 Z " fill="#335D73" transform="translate(425,340)"/>
<path d="M0 0 C0.33 0 0.66 0 1 0 C1.33 3.63 1.66 7.26 2 11 C1.01 11 0.02 11 -1 11 C-0.67 7.37 -0.34 3.74 0 0 Z " fill="#C4D0D6" transform="translate(437,313)"/>
</svg>
