<?xml version="1.0" encoding="UTF-8"?>
<svg version="1.1" xmlns="http://www.w3.org/2000/svg" width="512" height="512">
<path d="M0 0 C1.51427582 0.00081573 1.51427582 0.00081573 3.05914307 0.00164795 C19.57458953 0.04242844 35.47683935 0.97005679 51.6875 4.375 C52.70279785 4.58398926 53.7180957 4.79297852 54.76416016 5.00830078 C88.97750046 12.27788686 120.20775355 26.61918424 148.80859375 46.5390625 C149.40178909 46.94804779 149.99498444 47.35703308 150.6061554 47.77841187 C152.6875 49.375 152.6875 49.375 154.60766602 51.37420654 C161.30652164 57.93480374 167.03620701 58.35202486 175.93934631 58.27993774 C176.77465441 58.26103107 177.6099625 58.2421244 178.47058296 58.22264481 C181.11703316 58.16291996 183.7598849 58.1525922 186.40696716 58.15390015 C192.02208166 58.14724676 197.63545621 58.0750993 203.25 58 C209.76557269 57.9218265 216.28019588 57.87101725 222.79624748 57.86506271 C225.39007774 57.85182447 227.98132684 57.80116431 230.57460022 57.74795532 C238.16360795 57.66892626 244.65159501 57.63105122 250.96958923 62.39730835 C256.96244104 69.29639369 257.26666404 74.87586468 257.20889282 83.77316284 C257.21654392 85.02236075 257.22419501 86.27155865 257.23207796 87.55861104 C257.2526102 91.01442887 257.24828188 94.46983108 257.23971677 97.92568278 C257.23477712 101.65723675 257.25281695 105.38869132 257.26779175 109.12020874 C257.29327589 116.42623704 257.29687439 123.73211829 257.29219122 131.03818356 C257.28862342 136.97760171 257.29212726 142.91697527 257.30064011 148.85638809 C257.30183048 149.7021017 257.30302086 150.5478153 257.30424731 151.41915659 C257.30667085 153.13729628 257.30909911 154.85543596 257.31153207 156.57357563 C257.33327941 172.6823975 257.32895986 188.79113562 257.31676237 204.8999622 C257.30642468 219.6307565 257.3289336 234.36128627 257.36695881 249.09202825 C257.40572054 264.22431442 257.42222675 279.35647547 257.41471231 294.48881161 C257.41088889 302.98177427 257.41585703 311.4745118 257.44414139 319.96743393 C257.4679775 327.19775421 257.47076992 334.42771078 257.44656105 341.6580361 C257.43478876 345.34542138 257.43256746 349.03214157 257.45656586 352.71948242 C257.48230674 356.72113773 257.46134324 360.72121263 257.4359436 364.72286987 C257.45069217 365.88250964 257.46544074 367.04214941 257.48063624 368.23692977 C257.37953685 375.80914399 255.78808132 380.68898177 250.6875 386.375 C245.79214462 390.74027178 241.47066231 390.5919956 235.09643555 390.26635742 C225.98118965 389.67463915 225.98118965 389.67463915 217.67919922 392.74951172 C214.27709929 396.41607136 212.08345638 400.76794461 209.85302734 405.21044922 C208.00293489 408.6463352 205.64116482 411.60385858 203.1875 414.625 C202.72835205 415.2010498 202.2692041 415.77709961 201.79614258 416.37060547 C197.03409515 422.29435356 191.95778766 427.9030312 186.6875 433.375 C186.05537598 434.03435547 185.42325195 434.69371094 184.77197266 435.37304688 C175.62752521 444.86130305 166.33015991 453.6012044 155.6875 461.375 C154.53644983 462.23306152 153.38540823 463.09113451 152.234375 463.94921875 C144.04319386 469.98736829 135.52945895 475.34595521 126.6875 480.375 C126.05569824 480.73948242 125.42389648 481.10396484 124.77294922 481.47949219 C98.6872492 496.41007977 69.35191333 505.88740561 39.6875 510.375 C38.56287354 510.55232666 37.43824707 510.72965332 36.27954102 510.91235352 C24.72559556 512.56375708 13.28284453 512.73170897 1.625 512.6875 C0.62893738 512.68567719 -0.36712524 512.68385437 -1.39337158 512.68197632 C-15.90580287 512.63723255 -30.03559519 512.17969043 -44.3125 509.375 C-45.20807617 509.21402832 -46.10365234 509.05305664 -47.02636719 508.88720703 C-90.63313051 500.99797508 -131.77106217 481.30850867 -165.3125 452.375 C-166.05757813 451.74078125 -166.80265625 451.1065625 -167.5703125 450.453125 C-181.06451306 438.65141739 -193.78982011 425.91123047 -204.3125 411.375 C-204.76093262 410.76076172 -205.20936523 410.14652344 -205.67138672 409.51367188 C-213.96601237 398.12717414 -213.96601237 398.12717414 -215.8671875 394 C-218.77750237 390.87582813 -219.51853801 390.96109832 -223.63671875 390.78125 C-226.82295458 390.78524028 -230.0007092 390.87502 -233.18554688 390.96484375 C-239.75873445 390.97302444 -243.95595833 390.12800793 -249.38598633 386.35351562 C-255.78175419 379.78510823 -255.8910132 373.77390057 -255.83389282 364.97683716 C-255.84536946 363.1030403 -255.84536946 363.1030403 -255.85707796 361.19138896 C-255.8776102 357.73557113 -255.87328188 354.28016892 -255.86471677 350.82431722 C-255.85977712 347.09276325 -255.87781695 343.36130868 -255.89279175 339.62979126 C-255.91827589 332.32376296 -255.92187439 325.01788171 -255.91719122 317.71181644 C-255.91362342 311.77239829 -255.91712726 305.83302473 -255.92564011 299.89361191 C-255.92742567 298.6250415 -255.92742567 298.6250415 -255.92924731 297.33084341 C-255.93167085 295.61270372 -255.93409911 293.89456404 -255.93653207 292.17642437 C-255.95827941 276.0676025 -255.95395986 259.95886438 -255.94176237 243.8500378 C-255.93142468 229.1192435 -255.9539336 214.38871373 -255.99195881 199.65797175 C-256.03072054 184.52568558 -256.04722675 169.39352453 -256.03971231 154.26118839 C-256.03588889 145.76822573 -256.04085703 137.2754882 -256.06914139 128.78256607 C-256.0929775 121.55224579 -256.09576992 114.32228922 -256.07156105 107.0919639 C-256.05978876 103.40457862 -256.05756746 99.71785843 -256.08156586 96.03051758 C-256.10730674 92.02886227 -256.08634324 88.02878737 -256.0609436 84.02713013 C-256.07569217 82.86749036 -256.09044074 81.70785059 -256.10563624 80.51307023 C-256.00495597 72.97224791 -254.45151159 68.00849672 -249.3125 62.375 C-244.82480539 58.54077852 -240.18180615 57.82258816 -234.42797852 58.01953125 C-233.67237137 58.02846909 -232.91676422 58.03740692 -232.13825989 58.0466156 C-230.50729981 58.06731553 -228.8764303 58.09660605 -227.24575996 58.13366699 C-224.6486809 58.18840044 -222.05315758 58.21078718 -219.45555115 58.22363281 C-212.07428099 58.26261251 -204.69450676 58.3323653 -197.31469727 58.48779297 C-192.78670304 58.58083638 -188.26142852 58.61354227 -183.73252678 58.60995483 C-182.0233748 58.61983126 -180.31418311 58.65138091 -178.6058979 58.70669556 C-165.21182358 59.12940133 -157.89155458 55.62365438 -147.91204071 46.75598049 C-144.59074567 43.88850508 -140.84466461 41.62103311 -137.125 39.3125 C-136.3422168 38.82483154 -135.55943359 38.33716309 -134.75292969 37.8347168 C-108.17545336 21.52485474 -79.43559641 10.31798031 -48.875 4.0625 C-48.15610596 3.91514404 -47.43721191 3.76778809 -46.6965332 3.6159668 C-31.16987908 0.66484793 -15.76936592 -0.03207988 0 0 Z " fill="#8B95DC" transform="translate(255.3125,-0.375)"/>
<path d="M0 0 C1.03726103 -0.00382555 2.07452206 -0.00765109 3.14321524 -0.01159257 C6.62389425 -0.0219232 10.10440833 -0.01793025 13.58509827 -0.01396179 C16.07853346 -0.01830821 18.57196731 -0.02349112 21.06539917 -0.02944946 C27.13809359 -0.04146476 33.21072301 -0.04399 39.28342336 -0.0416492 C44.21937549 -0.0398661 49.1553142 -0.04161551 54.09126472 -0.04587364 C54.79379669 -0.04646883 55.49632866 -0.04706402 56.22014948 -0.04767724 C57.64734542 -0.048889 59.07454136 -0.05010313 60.5017373 -0.05131962 C73.88547439 -0.06219563 87.26918628 -0.06003233 100.65292478 -0.05393478 C112.89618639 -0.04876511 125.13936844 -0.06002224 137.38261431 -0.07903299 C149.95532708 -0.09840562 162.5280022 -0.10666844 175.10073 -0.10290974 C182.15883379 -0.10099688 189.21686986 -0.10349357 196.27496147 -0.11762428 C202.91106044 -0.13077574 209.5470263 -0.12828589 216.18313408 -0.11521339 C218.62041782 -0.1128418 221.05771269 -0.11560306 223.49498367 -0.12383652 C226.81870112 -0.13425601 230.14187843 -0.12624146 233.46557617 -0.11352539 C234.43298939 -0.12089968 235.40040261 -0.12827396 236.39713138 -0.13587171 C241.59685294 -0.09394006 245.33922954 0.26915268 249.79627991 3.26069641 C251.87860236 6.3841801 252.04678086 7.06523787 252.0507555 10.6111269 C252.05658769 11.50514912 252.06241989 12.39917134 252.06842881 13.32028514 C252.06464949 14.30353666 252.06087017 15.28678818 252.05697632 16.29983521 C252.06080187 17.34355449 252.06462741 18.38727377 252.06856889 19.46262091 C252.07892809 22.97715037 252.07490115 26.49151734 252.07093811 30.00605774 C252.07528301 32.5189021 252.08046541 35.03174513 252.08642578 37.54458618 C252.09845602 43.67236324 252.10096408 49.80007991 252.09862552 55.9278665 C252.09684396 60.90867955 252.09858851 65.88947929 252.10284996 70.87029076 C252.10344515 71.57864443 252.10404034 72.2869981 252.10465356 73.01681703 C252.1058653 74.45577004 252.10707943 75.89472305 252.10829594 77.33367606 C252.11917908 90.83662749 252.11700557 104.33955395 252.11091109 117.84250679 C252.10574358 130.19582623 252.1169916 142.54906678 252.13600931 154.90237061 C252.15538214 167.58350119 252.16364454 180.26459444 252.15988606 192.94573992 C252.15797287 200.06647155 252.16047285 207.18713605 252.1746006 214.30785561 C252.18775263 221.00468247 252.18526186 227.70132581 252.17218971 234.39816093 C252.16981801 236.85801878 252.17257975 239.31788764 252.18081284 241.77773285 C252.19123168 245.13220906 252.18321821 248.48615001 252.17050171 251.84060669 C252.17787599 252.81716605 252.18525028 253.7937254 252.19284803 254.79987746 C252.15155135 259.96785067 251.93458259 263.9214698 248.79627991 268.26069641 C244.35151113 271.20695062 238.73883123 270.54145114 233.59255981 270.52139282 C232.55529879 270.52521837 231.51803776 270.52904392 230.44934458 270.53298539 C226.96866556 270.54331602 223.48815149 270.53932307 220.00746155 270.53535461 C217.51402636 270.53970103 215.0205925 270.54488394 212.52716064 270.55084229 C206.45446623 270.56285759 200.3818368 270.56538282 194.30913646 270.56304202 C189.37318433 270.56125892 184.43724562 270.56300833 179.50129509 270.56726646 C178.79876312 270.56786165 178.09623115 270.56845684 177.37241034 270.56907007 C175.94521439 270.57028182 174.51801845 270.57149595 173.09082251 270.57271244 C159.70708543 270.58358845 146.32337354 270.58142516 132.93963503 270.5753276 C120.69637343 270.57015793 108.45319137 270.58141506 96.20994551 270.60042582 C83.63723274 270.61979844 71.06455761 270.62806126 58.49182981 270.62430257 C51.43372603 270.6223897 44.37568996 270.62488639 37.31759834 270.63901711 C30.68149937 270.65216857 24.04553351 270.64967871 17.40942574 270.63660622 C14.972142 270.63423462 12.53484713 270.63699588 10.09757614 270.64522934 C6.77385869 270.65564884 3.45068139 270.64763429 0.12698364 270.63491821 C-0.84042958 270.6422925 -1.8078428 270.64966678 -2.80457157 270.65726453 C-7.95356289 270.61574198 -11.87802916 270.38216013 -16.20372009 267.26069641 C-19.1499743 262.81592764 -18.48447482 257.20324773 -18.4644165 252.05697632 C-18.46824205 251.01971529 -18.4720676 249.98245426 -18.47600907 248.91376108 C-18.4863397 245.43308207 -18.48234675 241.95256799 -18.4783783 238.47187805 C-18.48272471 235.97844286 -18.48790762 233.48500901 -18.49386597 230.99157715 C-18.50588127 224.91888273 -18.5084065 218.84625331 -18.5060657 212.77355296 C-18.5042826 207.83760083 -18.50603201 202.90166212 -18.51029015 197.96571159 C-18.51088533 197.26317963 -18.51148052 196.56064766 -18.51209375 195.83682684 C-18.5133055 194.4096309 -18.51451963 192.98243495 -18.51573613 191.55523901 C-18.52661213 178.17150193 -18.52444884 164.78779004 -18.51835128 151.40405153 C-18.51318161 139.16078993 -18.52443875 126.91760788 -18.5434495 114.67436201 C-18.56282212 102.10164924 -18.57108494 89.52897411 -18.56732625 76.95624632 C-18.56541338 69.89814253 -18.56791007 62.84010646 -18.58204079 55.78201485 C-18.59519225 49.14591587 -18.59270239 42.50995001 -18.5796299 35.87384224 C-18.5772583 33.4365585 -18.58001956 30.99926363 -18.58825302 28.56199265 C-18.59867252 25.23827519 -18.59065797 21.91509789 -18.57794189 18.59140015 C-18.58900332 17.14028032 -18.58900332 17.14028032 -18.60028821 15.65984493 C-18.55876567 10.51085361 -18.32518381 6.58638734 -15.20372009 2.26069641 C-10.75895132 -0.6855578 -5.14627141 -0.02005832 0 0 Z " fill="#232E7A" transform="translate(108.20372009277344,89.73930358886719)"/>
<path d="M0 0 C1.51427582 0.00081573 1.51427582 0.00081573 3.05914307 0.00164795 C19.57458953 0.04242844 35.47683935 0.97005679 51.6875 4.375 C52.70279785 4.58398926 53.7180957 4.79297852 54.76416016 5.00830078 C88.97750046 12.27788686 120.20775355 26.61918424 148.80859375 46.5390625 C149.40178909 46.94804779 149.99498444 47.35703308 150.6061554 47.77841187 C152.6875 49.375 152.6875 49.375 154.60766602 51.37420654 C161.30652164 57.93480374 167.03620701 58.35202486 175.93934631 58.27993774 C176.77465441 58.26103107 177.6099625 58.2421244 178.47058296 58.22264481 C181.11703316 58.16291996 183.7598849 58.1525922 186.40696716 58.15390015 C192.02208166 58.14724676 197.63545621 58.0750993 203.25 58 C209.76557269 57.9218265 216.28019588 57.87101725 222.79624748 57.86506271 C225.39007774 57.85182447 227.98132684 57.80116431 230.57460022 57.74795532 C238.16360795 57.66892626 244.65159501 57.63105122 250.96958923 62.39730835 C256.96244104 69.29639369 257.26666404 74.87586468 257.20889282 83.77316284 C257.21654392 85.02236075 257.22419501 86.27155865 257.23207796 87.55861104 C257.2526102 91.01442887 257.24828188 94.46983108 257.23971677 97.92568278 C257.23477712 101.65723675 257.25281695 105.38869132 257.26779175 109.12020874 C257.29327589 116.42623704 257.29687439 123.73211829 257.29219122 131.03818356 C257.28862342 136.97760171 257.29212726 142.91697527 257.30064011 148.85638809 C257.30183048 149.7021017 257.30302086 150.5478153 257.30424731 151.41915659 C257.30667085 153.13729628 257.30909911 154.85543596 257.31153207 156.57357563 C257.33327941 172.6823975 257.32895986 188.79113562 257.31676237 204.8999622 C257.30642468 219.6307565 257.3289336 234.36128627 257.36695881 249.09202825 C257.40572054 264.22431442 257.42222675 279.35647547 257.41471231 294.48881161 C257.41088889 302.98177427 257.41585703 311.4745118 257.44414139 319.96743393 C257.4679775 327.19775421 257.47076992 334.42771078 257.44656105 341.6580361 C257.43478876 345.34542138 257.43256746 349.03214157 257.45656586 352.71948242 C257.48230674 356.72113773 257.46134324 360.72121263 257.4359436 364.72286987 C257.45069217 365.88250964 257.46544074 367.04214941 257.48063624 368.23692977 C257.37953685 375.80914399 255.78808132 380.68898177 250.6875 386.375 C245.79214462 390.74027178 241.47066231 390.5919956 235.09643555 390.26635742 C225.98118965 389.67463915 225.98118965 389.67463915 217.67919922 392.74951172 C214.27709929 396.41607136 212.08345638 400.76794461 209.85302734 405.21044922 C208.00293489 408.6463352 205.64116482 411.60385858 203.1875 414.625 C202.72835205 415.2010498 202.2692041 415.77709961 201.79614258 416.37060547 C197.03409515 422.29435356 191.95778766 427.9030312 186.6875 433.375 C186.05537598 434.03435547 185.42325195 434.69371094 184.77197266 435.37304688 C175.62752521 444.86130305 166.33015991 453.6012044 155.6875 461.375 C154.53644983 462.23306152 153.38540823 463.09113451 152.234375 463.94921875 C144.04319386 469.98736829 135.52945895 475.34595521 126.6875 480.375 C126.05569824 480.73948242 125.42389648 481.10396484 124.77294922 481.47949219 C98.6872492 496.41007977 69.35191333 505.88740561 39.6875 510.375 C38.56287354 510.55232666 37.43824707 510.72965332 36.27954102 510.91235352 C24.72559556 512.56375708 13.28284453 512.73170897 1.625 512.6875 C0.62893738 512.68567719 -0.36712524 512.68385437 -1.39337158 512.68197632 C-15.90580287 512.63723255 -30.03559519 512.17969043 -44.3125 509.375 C-45.20807617 509.21402832 -46.10365234 509.05305664 -47.02636719 508.88720703 C-90.63313051 500.99797508 -131.77106217 481.30850867 -165.3125 452.375 C-166.05757813 451.74078125 -166.80265625 451.1065625 -167.5703125 450.453125 C-181.06451306 438.65141739 -193.78982011 425.91123047 -204.3125 411.375 C-204.76093262 410.76076172 -205.20936523 410.14652344 -205.67138672 409.51367188 C-213.96601237 398.12717414 -213.96601237 398.12717414 -215.8671875 394 C-218.77750237 390.87582813 -219.51853801 390.96109832 -223.63671875 390.78125 C-226.82295458 390.78524028 -230.0007092 390.87502 -233.18554688 390.96484375 C-239.75873445 390.97302444 -243.95595833 390.12800793 -249.38598633 386.35351562 C-255.78175419 379.78510823 -255.8910132 373.77390057 -255.83389282 364.97683716 C-255.84536946 363.1030403 -255.84536946 363.1030403 -255.85707796 361.19138896 C-255.8776102 357.73557113 -255.87328188 354.28016892 -255.86471677 350.82431722 C-255.85977712 347.09276325 -255.87781695 343.36130868 -255.89279175 339.62979126 C-255.91827589 332.32376296 -255.92187439 325.01788171 -255.91719122 317.71181644 C-255.91362342 311.77239829 -255.91712726 305.83302473 -255.92564011 299.89361191 C-255.92742567 298.6250415 -255.92742567 298.6250415 -255.92924731 297.33084341 C-255.93167085 295.61270372 -255.93409911 293.89456404 -255.93653207 292.17642437 C-255.95827941 276.0676025 -255.95395986 259.95886438 -255.94176237 243.8500378 C-255.93142468 229.1192435 -255.9539336 214.38871373 -255.99195881 199.65797175 C-256.03072054 184.52568558 -256.04722675 169.39352453 -256.03971231 154.26118839 C-256.03588889 145.76822573 -256.04085703 137.2754882 -256.06914139 128.78256607 C-256.0929775 121.55224579 -256.09576992 114.32228922 -256.07156105 107.0919639 C-256.05978876 103.40457862 -256.05756746 99.71785843 -256.08156586 96.03051758 C-256.10730674 92.02886227 -256.08634324 88.02878737 -256.0609436 84.02713013 C-256.07569217 82.86749036 -256.09044074 81.70785059 -256.10563624 80.51307023 C-256.00495597 72.97224791 -254.45151159 68.00849672 -249.3125 62.375 C-244.82480539 58.54077852 -240.18180615 57.82258816 -234.42797852 58.01953125 C-233.67237137 58.02846909 -232.91676422 58.03740692 -232.13825989 58.0466156 C-230.50729981 58.06731553 -228.8764303 58.09660605 -227.24575996 58.13366699 C-224.6486809 58.18840044 -222.05315758 58.21078718 -219.45555115 58.22363281 C-212.07428099 58.26261251 -204.69450676 58.3323653 -197.31469727 58.48779297 C-192.78670304 58.58083638 -188.26142852 58.61354227 -183.73252678 58.60995483 C-182.0233748 58.61983126 -180.31418311 58.65138091 -178.6058979 58.70669556 C-165.21182358 59.12940133 -157.89155458 55.62365438 -147.91204071 46.75598049 C-144.59074567 43.88850508 -140.84466461 41.62103311 -137.125 39.3125 C-136.3422168 38.82483154 -135.55943359 38.33716309 -134.75292969 37.8347168 C-108.17545336 21.52485474 -79.43559641 10.31798031 -48.875 4.0625 C-48.15610596 3.91514404 -47.43721191 3.76778809 -46.6965332 3.6159668 C-31.16987908 0.66484793 -15.76936592 -0.03207988 0 0 Z M-243.3125 71.375 C-245.2681988 74.77266067 -245.56321925 77.7217878 -245.56697559 81.59622097 C-245.57280779 82.63356111 -245.57863998 83.67090125 -245.58464891 84.73967594 C-245.58086958 85.87273971 -245.57709026 87.00580348 -245.57319641 88.17320251 C-245.57702196 89.38197274 -245.58084751 90.59074297 -245.58478898 91.8361426 C-245.59332418 95.18820317 -245.59288462 98.54004446 -245.58860838 101.89209878 C-245.58614302 105.5083948 -245.59515294 109.12466497 -245.60264587 112.74095154 C-245.61540002 119.82430137 -245.61718569 126.90761331 -245.61484561 133.99097269 C-245.61306316 139.74786246 -245.61481053 145.50474071 -245.61907005 151.2616291 C-245.61966524 152.08072624 -245.62026043 152.89982338 -245.62087366 153.74374165 C-245.6220854 155.40769159 -245.62329953 157.07164154 -245.62451603 158.73559148 C-245.63539425 174.34260262 -245.6332277 189.94959215 -245.62713119 205.55660451 C-245.6219613 219.83681742 -245.63321886 234.11696212 -245.65222941 248.39716154 C-245.67159734 263.05813615 -245.67986567 277.71907848 -245.67610615 292.38006598 C-245.67419258 300.61188441 -245.67669688 308.84364479 -245.69082069 317.0754528 C-245.70272213 324.08293802 -245.7041533 331.09032944 -245.69203053 338.09781592 C-245.68613321 341.67325044 -245.68506579 345.24851328 -245.69703293 348.82393646 C-245.70985334 352.69931443 -245.69944754 356.57443099 -245.6867218 360.44981384 C-245.69409609 361.58064689 -245.70147037 362.71147994 -245.70906812 363.87658066 C-245.69965679 371.58650745 -245.69965679 371.58650745 -242.3125 378.375 C-238.07721874 380.64907231 -233.97363759 380.65703213 -229.28015232 380.62947559 C-228.4725148 380.63268207 -227.66487729 380.63588855 -226.83276591 380.63919219 C-224.11537274 380.64752065 -221.39819834 380.64155796 -218.68080139 380.63569641 C-216.71735582 380.63871579 -214.75391142 380.6426042 -212.79046911 380.64728898 C-207.38618024 380.65760515 -201.98195744 380.65537797 -196.57766306 380.65110838 C-190.75276188 380.64864773 -184.92787688 380.65764707 -179.10298157 380.66514587 C-167.68821109 380.67791312 -156.27346412 380.67968406 -144.85868771 380.67734561 C-135.58349236 380.67556463 -126.30830416 380.67730737 -117.03310966 380.68157005 C-115.7144475 380.68216524 -114.39578534 380.68276043 -113.03716372 380.68337366 C-111.03006277 380.6842809 -109.02296183 380.68518956 -107.01586089 380.68610601 C-88.35211903 380.69453701 -69.68837977 380.6988702 -51.02463627 380.69469929 C-50.32087618 380.69454291 -49.61711608 380.69438654 -48.89202993 380.69422542 C-45.32499437 380.69341962 -41.75795882 380.69257385 -38.19092328 380.69171212 C-37.12826268 380.69145549 -37.12826268 380.69145549 -36.0441342 380.69119367 C-34.61149553 380.69084702 -33.17885687 380.69049849 -31.74621821 380.69014808 C-9.45066955 380.68478999 12.84483957 380.69272319 35.14038086 380.71118164 C60.18247041 380.73188961 85.22453546 380.7426267 110.26663405 380.73860615 C123.52866521 380.73664183 136.79066187 380.7392126 150.05268669 380.75332069 C161.34210306 380.76520851 172.63146122 380.76666863 183.92087834 380.75453053 C189.68357752 380.74862367 195.4461701 380.74759218 201.2088623 380.75953293 C206.48090022 380.7703303 211.75274172 380.76736203 217.02477021 380.75327124 C218.93521274 380.7506073 220.84567036 380.75304363 222.75609814 380.76100711 C225.34740837 380.77106172 227.93802906 380.76273543 230.52931118 380.74973011 C231.27578829 380.75703946 232.0222654 380.7643488 232.79136303 380.77187964 C237.47689004 380.72293809 240.79834687 380.03568927 244.6875 377.375 C246.64941515 373.96873455 246.93914734 371.00448392 246.94756222 367.11975098 C246.95462781 366.07482735 246.9616934 365.02990372 246.9689731 363.95331573 C246.96655802 362.81178795 246.96414293 361.67026016 246.96165466 360.49414062 C246.96689134 359.27649773 246.97212802 358.05885483 246.97752339 356.80431366 C246.98993261 353.42752791 246.99336687 350.0509504 246.99292648 346.67415619 C246.99457546 343.03128661 247.00764321 339.38845488 247.01911926 335.74560547 C247.04195897 327.7830104 247.04988825 319.82044199 247.05494571 311.8578186 C247.05820288 306.88689782 247.06472535 301.91598477 247.0719471 296.94506836 C247.091509 283.18347422 247.1079165 269.42188726 247.11082363 255.66027832 C247.11110499 254.33965621 247.11110499 254.33965621 247.11139202 252.99235487 C247.11175828 251.20754496 247.11212197 249.42273506 247.11248314 247.63792515 C247.11266595 246.7519411 247.11284876 245.86595705 247.11303711 244.953125 C247.11321766 244.06606086 247.11339821 243.17899672 247.11358423 242.26505184 C247.11712844 227.88065907 247.14416801 213.49641576 247.181535 199.11207485 C247.21958705 184.34601234 247.23898086 169.58002408 247.23928314 154.81391144 C247.23986829 146.52226918 247.24839762 138.23080539 247.27728081 129.93920898 C247.30175289 122.88151614 247.30910576 115.82406688 247.29403328 108.76634312 C247.28684797 105.16458672 247.28779063 101.56331176 247.31044388 97.96160889 C247.3347521 94.05947692 247.32044395 90.15803727 247.30223083 86.25585938 C247.32203079 84.5435677 247.32203079 84.5435677 247.34223074 82.79668427 C247.43080294 76.40779549 247.43080294 76.40779549 244.21157932 71.19494629 C243.37863315 70.59436401 242.54568697 69.99378174 241.6875 69.375 C241.3575 69.045 241.0275 68.715 240.6875 68.375 C238.15486534 68.27340753 235.64937004 68.23769377 233.11610889 68.24357224 C232.30971001 68.2415196 231.50331112 68.23946697 230.6724759 68.23735213 C227.93526629 68.23163943 225.19810631 68.2331446 222.46089172 68.23455811 C220.49264966 68.2319769 218.52440811 68.22896443 216.5561673 68.2255547 C211.12005544 68.2174525 205.68395676 68.21569335 200.24783957 68.21495724 C194.39560503 68.21311223 188.54337741 68.20556767 182.69114685 68.19882202 C169.21281306 68.18450475 155.73448178 68.17870891 142.2561417 68.17413008 C134.93184545 68.1715624 127.60755014 68.16743891 120.28325462 68.16330719 C98.17079025 68.15105576 76.05832666 68.14077722 53.94585896 68.1374321 C52.51507746 68.13721046 51.08429596 68.13698868 49.65351446 68.13676675 C48.2192273 68.1365461 46.78494015 68.13632562 45.35065299 68.1361053 C42.47310785 68.13566274 39.59556272 68.13521563 36.71801758 68.13476562 C36.00455021 68.13465623 35.29108284 68.13454684 34.55599525 68.13443414 C11.42073763 68.13080335 -11.71448866 68.11488378 -34.84973429 68.09157526 C-59.29678685 68.06699006 -83.74382151 68.05325985 -108.1908868 68.05206418 C-110.8736498 68.05189272 -113.5564128 68.05167729 -116.2391758 68.05142975 C-116.89977069 68.05137398 -117.56036558 68.05131821 -118.2409785 68.05126075 C-128.22234668 68.05018045 -138.20367669 68.04080908 -148.1850338 68.02724457 C-159.53675933 68.01187263 -170.88843118 68.00670586 -182.24016514 68.01498267 C-188.03524337 68.01889964 -193.83021343 68.01790871 -199.62527847 68.00392532 C-204.92707769 67.99124887 -210.22868676 67.99232863 -215.53048549 68.00451604 C-217.45181658 68.00648394 -219.37316085 68.00334454 -221.29447337 67.99467167 C-223.90051628 67.98364975 -226.50587973 67.99101699 -229.11190319 68.0030632 C-230.23814698 67.99167041 -230.23814698 67.99167041 -231.38714316 67.98004746 C-236.08375951 68.02710842 -239.4148103 68.70550478 -243.3125 71.375 Z " fill="#3342AE" transform="translate(255.3125,-0.375)"/>
<path d="M0 0 C1.05864258 -0.00274933 2.11728516 -0.00549866 3.20800781 -0.0083313 C4.35887375 -0.00114075 5.50973969 0.0060498 6.69548035 0.01345825 C8.52537003 0.01302017 8.52537003 0.01302017 10.39222717 0.01257324 C13.72869914 0.01372621 17.06492231 0.023743 20.40135026 0.03772116 C23.89136917 0.05024042 27.38139154 0.05139996 30.87142944 0.05377197 C37.47637268 0.05998323 44.08124956 0.07638924 50.6861636 0.09647095 C58.20728793 0.11884099 65.72841545 0.12982616 73.24956477 0.13986182 C88.71749626 0.1607558 104.18536157 0.19592487 119.65324402 0.24050903 C119.33178406 1.14623657 119.0103241 2.05196411 118.67912292 2.98513794 C117.85280519 5.6072514 117.37215515 7.62264946 117.23918152 10.32644653 C117.18117371 11.38025513 117.18117371 11.38025513 117.12199402 12.45535278 C117.09105652 13.16820435 117.06011902 13.88105591 117.02824402 14.61550903 C116.97023621 15.71959106 116.97023621 15.71959106 116.91105652 16.84597778 C116.81766404 18.64378309 116.73440692 20.44211012 116.65324402 22.24050903 C115.40712341 22.26032837 114.16100281 22.28014771 112.87712097 22.30056763 C108.24573351 22.37674558 103.61465521 22.46544435 98.98356628 22.55789185 C96.98069877 22.59613121 94.97776377 22.63099285 92.97477722 22.66238403 C90.09261484 22.70814399 87.21091508 22.76612058 84.32902527 22.82644653 C83.43613297 22.83799774 82.54324066 22.84954895 81.62329102 22.8614502 C75.35492987 22.91895201 75.35492987 22.91895201 69.65324402 25.24050903 C66.92457243 30.01340403 67.37477275 35.12154984 67.39927673 40.45095825 C67.39615675 41.48892485 67.39303677 42.52689144 67.38982224 43.59631157 C67.38183586 47.07933074 67.38816848 50.56217601 67.39445496 54.04519653 C67.39174538 56.54025373 67.38818464 59.03531012 67.38383484 61.53036499 C67.37565313 67.60673842 67.37686276 73.68304343 67.38266012 79.7594142 C67.38717668 84.69775771 67.38778954 89.63608738 67.38561249 94.57443237 C67.38515279 95.62866341 67.38515279 95.62866341 67.3846838 96.70419204 C67.38404435 98.13195372 67.38339593 99.55971539 67.38273862 100.98747706 C67.37703538 114.37595548 67.38359312 127.76440651 67.39433935 141.15288043 C67.40327486 152.64108806 67.40172282 164.12925526 67.39250183 175.61746216 C67.38179909 188.95799742 67.3775847 202.29850867 67.38372636 215.63904762 C67.38436346 217.06156031 67.3849922 218.484073 67.38561249 219.90658569 C67.38592104 220.6064912 67.38622959 221.30639671 67.38654749 222.02751148 C67.38827442 226.95998706 67.38535937 231.89244743 67.38065338 236.82492065 C67.3744589 243.46346003 67.37886847 250.10193482 67.39044189 256.74047089 C67.39309093 259.17978539 67.39231926 261.61910631 67.38791656 264.05841827 C67.3824694 267.38238628 67.3892854 270.70610762 67.39927673 274.03005981 C67.39481529 275.00038588 67.39035385 275.97071194 67.38575721 276.97044182 C67.39280418 283.34539207 67.39280418 283.34539207 69.65324402 289.24050903 C74.0347604 292.03091282 79.29786284 291.58948417 84.32902527 291.65457153 C85.25418442 291.67393768 86.17934357 291.69330383 87.13253784 291.71325684 C90.07684719 291.77286158 93.02119604 291.81936152 95.96574402 291.86550903 C97.96641176 291.90370639 99.96706338 291.94275915 101.96769714 291.98269653 C106.86274782 292.07854745 111.75787546 292.16264903 116.65324402 292.24050903 C116.70222839 293.0977356 116.75121277 293.95496216 116.80168152 294.83816528 C116.87644714 295.98156372 116.95121277 297.12496216 117.02824402 298.30300903 C117.09785339 299.4283606 117.16746277 300.55371216 117.23918152 301.71316528 C117.67119455 305.39342724 118.59999361 308.69456598 119.65324402 312.24050903 C103.45891413 312.31062717 87.26463358 312.36351091 71.07018852 312.39594555 C63.55062151 312.41140661 56.03114888 312.43248149 48.51164246 312.46682739 C41.95672578 312.49675315 35.40187747 312.51608957 28.84689438 312.52277452 C25.37688172 312.52668143 21.90706463 312.5358471 18.43711472 312.5576992 C14.56104143 312.5819103 10.68515852 312.58247698 6.80900574 312.58108521 C5.66173508 312.59187103 4.51446442 312.60265686 3.33242798 312.61376953 C-6.94522767 312.57378435 -6.94522767 312.57378435 -11.34675598 309.24050903 C-13.08067518 305.73931359 -13.59746667 302.90255219 -13.60123158 299.01928806 C-13.60706377 297.98194792 -13.61289596 296.94460778 -13.61890489 295.87583309 C-13.61512556 294.74276932 -13.61134624 293.60970555 -13.60745239 292.44230652 C-13.61127794 291.23353629 -13.61510349 290.02476606 -13.61904496 288.77936643 C-13.62758016 285.42730587 -13.6271406 282.07546457 -13.62286437 278.72341025 C-13.62039901 275.10711423 -13.62940892 271.49084407 -13.63690186 267.8745575 C-13.649656 260.79120766 -13.65144167 253.70789572 -13.64910159 246.62453634 C-13.64731914 240.86764657 -13.64906651 235.11076832 -13.65332603 229.35387993 C-13.65392122 228.53478279 -13.65451641 227.71568565 -13.65512964 226.87176738 C-13.65634138 225.20781744 -13.65755551 223.5438675 -13.65877201 221.87991755 C-13.66965023 206.27290642 -13.66748368 190.66591688 -13.66138717 175.05890452 C-13.65621728 160.77869162 -13.66747484 146.49854691 -13.68648539 132.2183475 C-13.70585332 117.55737288 -13.71412166 102.89643055 -13.71036214 88.23544306 C-13.70844856 80.00362462 -13.71095286 71.77186424 -13.72507668 63.54005623 C-13.73697811 56.53257101 -13.73840928 49.52517959 -13.72628651 42.51769311 C-13.72038919 38.94225859 -13.71932177 35.36699575 -13.73128891 31.79157257 C-13.74410932 27.9161946 -13.73370352 24.04107804 -13.72097778 20.16569519 C-13.72835207 19.03486214 -13.73572635 17.90402909 -13.7433241 16.73892838 C-13.67351738 6.66539559 -13.67351738 6.66539559 -10.34675598 2.24050903 C-6.90992887 0.25439574 -3.92154736 -0.00788251 0 0 Z " fill="#707DD5" transform="translate(23.346755981445313,67.75949096679688)"/>
<path d="M0 0 C40.59 0 81.18 0 123 0 C123 22.11 123 44.22 123 67 C186.36 67 249.72 67 315 67 C315 44.89 315 22.78 315 0 C355.59 0 396.18 0 438 0 C420.75877763 27.09334944 400.26123828 52.09724864 374 71 C372.85335128 71.85176801 371.70753275 72.70465463 370.5625 73.55859375 C362.36932634 79.60664558 353.84832238 84.96733588 345 90 C344.36819824 90.36448242 343.73639648 90.72896484 343.08544922 91.10449219 C316.9997492 106.03507977 287.66441333 115.51240561 258 120 C256.87537354 120.17732666 255.75074707 120.35465332 254.59204102 120.53735352 C243.03809556 122.18875708 231.59534453 122.35670897 219.9375 122.3125 C218.94143738 122.31067719 217.94537476 122.30885437 216.91912842 122.30697632 C202.40669713 122.26223255 188.27690481 121.80469043 174 119 C173.10442383 118.83902832 172.20884766 118.67805664 171.28613281 118.51220703 C127.67936949 110.62297508 86.54143783 90.93350867 53 62 C52.25492188 61.36578125 51.50984375 60.7315625 50.7421875 60.078125 C37.24290483 48.2719727 24.54291179 35.52698351 14 21 C13.32735107 20.08661865 13.32735107 20.08661865 12.64111328 19.15478516 C8.05249938 12.91872804 3.85658204 6.74901856 0 0 Z " fill="#717DD5" transform="translate(37,390)"/>
<path d="M0 0 C0.94875 0.268125 1.8975 0.53625 2.875 0.8125 C4.3028535 3.66820699 3.99441486 6.08964356 3.98852539 9.28173828 C3.98867142 9.94527313 3.98881744 10.60880798 3.9889679 11.29244995 C3.98827031 13.48927053 3.98048514 15.6860067 3.97265625 17.8828125 C3.97079152 19.40453037 3.96936788 20.92624884 3.96836853 22.44796753 C3.96454767 26.45601047 3.95472104 30.46401726 3.94366455 34.4720459 C3.93344118 38.56078604 3.92886892 42.64953201 3.92382812 46.73828125 C3.9130984 54.76303744 3.89602713 62.78776422 3.875 70.8125 C4.97730957 70.79952881 6.07961914 70.78655762 7.21533203 70.77319336 C17.16221261 70.88002777 24.94158436 77.03790659 31.81640625 83.69140625 C37.63998274 89.91747615 41.31664246 96.62182501 42.94018555 104.99267578 C43.11639938 105.8947879 43.29261322 106.79690002 43.47416687 107.72634888 C43.6064418 108.41477875 43.73871674 109.10320862 43.875 109.8125 C44.70771927 109.80583817 45.54043854 109.79917633 46.39839172 109.79231262 C54.24113089 109.73223307 62.08379291 109.68654172 69.92670918 109.65706348 C73.95897033 109.64139898 77.99104153 109.6201467 82.02319336 109.58618164 C85.9135392 109.55361571 89.8037022 109.53565289 93.69417381 109.52786827 C95.17937283 109.52231974 96.6645617 109.51148489 98.149683 109.49530983 C100.22802072 109.47357149 102.30560032 109.47053144 104.3840332 109.47192383 C105.56761917 109.46526199 106.75120514 109.45860016 107.97065735 109.45173645 C110.875 109.8125 110.875 109.8125 112.79240417 111.13847351 C113.875 112.8125 113.875 112.8125 113.6875 115.9375 C113.419375 116.88625 113.15125 117.835 112.875 118.8125 C109.64896455 120.42551773 106.12789962 119.93303599 102.5859375 119.91015625 C101.35830185 119.90803383 101.35830185 119.90803383 100.10586548 119.90586853 C97.48720675 119.9002629 94.86863296 119.88770948 92.25 119.875 C90.47656373 119.86998572 88.70312613 119.86542269 86.9296875 119.86132812 C82.57809218 119.85029164 78.2265605 119.83302325 73.875 119.8125 C73.75020264 120.84165527 73.62540527 121.87081055 73.49682617 122.93115234 C73.32499027 124.2952831 73.15285534 125.65937622 72.98046875 127.0234375 C72.89921753 127.70011475 72.81796631 128.37679199 72.73425293 129.07397461 C72.26388085 132.74533486 71.62309717 136.02463263 70.1875 139.4375 C68.79020618 143.03054125 68.48109587 144.28127621 69.875 147.8125 C70.555625 148.76125 71.23625 149.71 71.9375 150.6875 C74.29731861 154.49365904 74.50478324 156.40401734 73.875 160.8125 C71.43964662 165.68320677 68.99805898 167.96819877 63.875 169.8125 C59.0108451 170.42051936 56.08827788 169.22008736 51.875 166.8125 C51.545 167.8025 51.215 168.7925 50.875 169.8125 C37.55535041 181.6848532 21.60066105 188.37319925 3.875 189.8125 C3.89071045 190.91762939 3.9064209 192.02275879 3.92260742 193.16137695 C3.97688557 197.25944741 4.01134224 201.35748607 4.03979492 205.45581055 C4.05488641 207.22995343 4.07536191 209.00405898 4.10131836 210.77807617 C4.13768641 213.32740487 4.15472238 215.87624059 4.16796875 218.42578125 C4.18345261 219.21962723 4.19893646 220.01347321 4.21488953 220.83137512 C4.21655882 226.28689398 4.21655882 226.28689398 2.55200195 228.84838867 C0.875 229.8125 0.875 229.8125 -2.25 229.625 C-3.19875 229.356875 -4.1475 229.08875 -5.125 228.8125 C-6.73801773 225.58646455 -6.24553599 222.06539962 -6.22265625 218.5234375 C-6.2212413 217.70501373 -6.21982635 216.88658997 -6.21836853 216.04336548 C-6.2127629 213.42470675 -6.20020948 210.80613296 -6.1875 208.1875 C-6.18248572 206.41406373 -6.17792269 204.64062613 -6.17382812 202.8671875 C-6.16279164 198.51559218 -6.14552325 194.1640605 -6.125 189.8125 C-7.66329468 189.61986572 -7.66329468 189.61986572 -9.23266602 189.42333984 C-10.59393715 189.24856225 -11.95518256 189.0735842 -13.31640625 188.8984375 C-14.32749451 188.77263306 -14.32749451 188.77263306 -15.35900879 188.64428711 C-19.03429885 188.16709309 -22.52143197 187.53102899 -26.0625 186.4375 C-30.32121142 185.38280974 -32.54351715 186.69402286 -36.22265625 188.8359375 C-39.3392935 190.43585395 -41.70847227 190.30944949 -45.125 189.8125 C-50.4560405 187.64394115 -53.14331344 185.39663906 -55.515625 180.13671875 C-56.22372098 177.43596807 -56.05272315 175.33707734 -55.8125 172.5625 C-55.53193036 166.00079074 -58.71682251 162.74273271 -62.73828125 157.84375 C-71.34112238 146.91771936 -75.01784909 133.44758063 -76.125 119.8125 C-77.78269409 119.83606567 -77.78269409 119.83606567 -79.47387695 119.86010742 C-83.57194741 119.91438557 -87.66998607 119.94884224 -91.76831055 119.97729492 C-93.54245343 119.99238641 -95.31655898 120.01286191 -97.09057617 120.03881836 C-99.63990487 120.07518641 -102.18874059 120.09222238 -104.73828125 120.10546875 C-105.53212723 120.12095261 -106.32597321 120.13643646 -107.14387512 120.15238953 C-112.59939398 120.15405882 -112.59939398 120.15405882 -115.16088867 118.48950195 C-116.125 116.8125 -116.125 116.8125 -115.9375 113.6875 C-115.669375 112.73875 -115.40125 111.79 -115.125 110.8125 C-111.89896455 109.19948227 -108.37789962 109.69196401 -104.8359375 109.71484375 C-103.60830185 109.71696617 -103.60830185 109.71696617 -102.35586548 109.71913147 C-99.73720675 109.7247371 -97.11863296 109.73729052 -94.5 109.75 C-92.72656373 109.75501428 -90.95312613 109.75957731 -89.1796875 109.76367188 C-84.82809218 109.77470836 -80.4765605 109.79197675 -76.125 109.8125 C-76.05829605 109.19693741 -75.9915921 108.58137482 -75.92286682 107.94715881 C-75.83431931 107.13838791 -75.74577179 106.329617 -75.65454102 105.49633789 C-75.56721207 104.6951503 -75.47988312 103.89396271 -75.38990784 103.0684967 C-74.41135852 94.73501715 -71.77842195 87.92433674 -67.8125 80.625 C-64.40505256 74.59308048 -64.40505256 74.59308048 -64.625 67.875 C-65.12451193 66.52065322 -65.62450074 65.16648222 -66.125 63.8125 C-66.99112436 57.39429641 -66.08473091 52.03364103 -62.125 46.8125 C-56.35483234 41.47190216 -51.6045724 39.46982731 -43.76171875 39.515625 C-40.32059042 39.90307056 -37.8653531 41.08790742 -34.9140625 42.83984375 C-32.94702094 43.90926154 -31.34190534 44.48892802 -29.125 44.8125 C-27.3284406 44.10065571 -25.5335549 43.38420462 -23.7487793 42.64331055 C-20.32732922 41.55992034 -16.88118506 41.13352176 -13.33203125 40.70703125 C-12.63775024 40.61925415 -11.94346924 40.53147705 -11.22814941 40.44104004 C-9.52769523 40.22674624 -7.8264227 40.01896328 -6.125 39.8125 C-6.14071045 38.70737061 -6.1564209 37.60224121 -6.17260742 36.46362305 C-6.22688557 32.36555259 -6.26134224 28.26751393 -6.28979492 24.16918945 C-6.30488641 22.39504657 -6.32536191 20.62094102 -6.35131836 18.84692383 C-6.38768641 16.29759513 -6.40472238 13.74875941 -6.41796875 11.19921875 C-6.43345261 10.40537277 -6.44893646 9.61152679 -6.46488953 8.79362488 C-6.46655882 3.33810602 -6.46655882 3.33810602 -4.80200195 0.77661133 C-3.125 -0.1875 -3.125 -0.1875 0 0 Z " fill="#7EBDD6" transform="translate(226.125,110.1875)"/>
<path d="M0 0 C1.51427582 0.00081573 1.51427582 0.00081573 3.05914307 0.00164795 C19.57458953 0.04242844 35.47683935 0.97005679 51.6875 4.375 C52.70279785 4.58398926 53.7180957 4.79297852 54.76416016 5.00830078 C93.44777678 13.22772274 132.99924967 30.6841211 162.6875 57.375 C162.6875 57.705 162.6875 58.035 162.6875 58.375 C55.4375 58.375 -51.8125 58.375 -162.3125 58.375 C-156.67656397 52.73906397 -156.67656397 52.73906397 -153.6328125 50.578125 C-152.62275146 49.85955322 -152.62275146 49.85955322 -151.59228516 49.12646484 C-150.5256665 48.38323975 -150.5256665 48.38323975 -149.4375 47.625 C-148.68645996 47.09986816 -147.93541992 46.57473633 -147.16162109 46.03369141 C-140.07142917 41.12716508 -132.82489269 36.60324645 -125.3125 32.375 C-124.60963867 31.97571289 -123.90677734 31.57642578 -123.18261719 31.16503906 C-100.04260066 18.13542976 -74.86907463 9.38325421 -48.875 4.0625 C-48.15610596 3.91514404 -47.43721191 3.76778809 -46.6965332 3.6159668 C-31.16987908 0.66484793 -15.76936592 -0.03207988 0 0 Z " fill="#FFC14F" transform="translate(255.3125,-0.375)"/>
<path d="M0 0 C53.46 0 106.92 0 162 0 C162 22.11 162 44.22 162 67 C108.54 67 55.08 67 0 67 C0 44.89 0 22.78 0 0 Z " fill="#3D4EC6" transform="translate(190,390)"/>
<path d="M0 0 C0.82131409 -0.0049649 1.64262817 -0.00992981 2.48883057 -0.01504517 C5.21350942 -0.02968331 7.93813003 -0.03647189 10.6628418 -0.04199219 C12.55372622 -0.04774274 14.44461062 -0.05350048 16.335495 -0.05926514 C20.30423251 -0.06978014 24.27294973 -0.07561939 28.24169922 -0.07910156 C33.32613571 -0.0845842 38.41030412 -0.1086052 43.49465656 -0.13707352 C47.40230592 -0.15570252 51.30989078 -0.16090566 55.2175808 -0.16243744 C57.09186454 -0.16546443 58.96614713 -0.1734945 60.84038734 -0.18662262 C63.46411099 -0.20368694 66.08718079 -0.20180188 68.7109375 -0.1953125 C69.87147896 -0.20913467 69.87147896 -0.20913467 71.0554657 -0.22323608 C76.71092796 -0.17944195 79.74312766 1.02725828 83.83779907 4.81558228 C85.65760895 8.33810394 85.46683883 11.81680119 85.43774414 15.68994141 C85.4430011 16.54895554 85.44825806 17.40796967 85.45367432 18.29301453 C85.46687524 21.13205158 85.45813435 23.97052756 85.44799805 26.80957031 C85.45001913 28.78488269 85.45293085 30.76019433 85.45669556 32.73550415 C85.46111935 36.87647604 85.45468741 41.0172538 85.44067383 45.15820312 C85.42360437 50.45999851 85.43340865 55.76133753 85.45139122 61.06311607 C85.46224664 65.14325378 85.45877424 69.22328384 85.45100784 73.30342484 C85.44900954 75.25780924 85.45145211 77.21220348 85.4584465 79.16657639 C85.46608734 81.90249137 85.45441891 84.6376745 85.43774414 87.37353516 C85.44381683 88.17789505 85.44988953 88.98225494 85.45614624 89.81098938 C85.40210877 94.61032095 84.87286521 98.0944505 82.04956055 102.16113281 C77.97534727 104.70341287 73.53314237 104.45104303 68.86621094 104.43579102 C68.05581863 104.44090195 67.24542633 104.44601288 66.41047668 104.45127869 C63.73931433 104.46514591 61.06841081 104.46422014 58.3972168 104.46191406 C56.53543502 104.46580247 54.67365413 104.47013744 52.81187439 104.47489929 C48.91231407 104.48235525 45.0128443 104.48207467 41.11328125 104.47680664 C36.12204603 104.47101174 31.13118186 104.48794652 26.14000797 104.51115131 C22.29579002 104.52589982 18.4516612 104.52675885 14.60741997 104.52364159 C12.7674632 104.5241542 10.92750136 104.52938068 9.0875721 104.53945351 C6.51223926 104.55182278 3.93762644 104.54502358 1.36230469 104.53344727 C0.60626953 104.541091 -0.14976562 104.54873474 -0.92871094 104.55661011 C-5.66068936 104.50971684 -9.02514607 103.85673036 -12.95043945 101.16113281 C-15.58263038 96.9923493 -15.25288267 92.30557477 -15.25683594 87.51879883 C-15.26515945 86.65963867 -15.27348297 85.80047852 -15.28205872 84.9152832 C-15.30610819 82.0818221 -15.31492378 79.24859132 -15.3215332 76.41503906 C-15.33050197 74.44115633 -15.33962386 72.46727429 -15.34889221 70.49339294 C-15.36537002 66.35845285 -15.37308038 62.22359362 -15.37597656 58.08862305 C-15.38136521 52.7945357 -15.41907048 47.50120959 -15.46472073 42.20733738 C-15.49448249 38.1314975 -15.5016999 34.05584136 -15.50270271 29.97990227 C-15.50690521 28.02827396 -15.51934068 26.07664512 -15.54022026 24.12512398 C-15.56712205 21.39380141 -15.56231362 18.66424939 -15.54980469 15.93286133 C-15.56463898 15.13007248 -15.57947327 14.32728363 -15.59475708 13.50016785 C-15.54155695 9.41421132 -15.14786057 6.9062025 -12.53797913 3.67539978 C-8.4554622 -0.29151039 -5.44248714 0.00780224 0 0 Z " fill="#5766CD" transform="translate(394.950439453125,255.8388671875)"/>
<path d="M0 0 C0.81999985 -0.00511093 1.63999969 -0.01022186 2.48484802 -0.01548767 C5.19391187 -0.02938055 7.90272118 -0.02842697 10.61181641 -0.02612305 C12.49744766 -0.03001047 14.38307803 -0.03434524 16.26870728 -0.03910828 C20.221322 -0.04657007 24.17384741 -0.04627974 28.12646484 -0.04101562 C33.18610821 -0.03522458 38.24538509 -0.05214336 43.30496788 -0.0753603 C47.19979991 -0.09010952 51.09454395 -0.09096765 54.98939896 -0.08785057 C56.8544754 -0.0883633 58.71955684 -0.09359197 60.58460617 -0.10366249 C63.19596741 -0.11603103 65.80661845 -0.10923259 68.41796875 -0.09765625 C69.18492569 -0.10529999 69.95188263 -0.11294373 70.74208069 -0.12081909 C75.50048842 -0.07431173 78.89258285 0.55796453 82.83837891 3.2746582 C85.03054781 6.97304252 85.09540804 10.38352148 85.11303711 14.62207031 C85.12256912 15.88365463 85.13210114 17.14523895 85.141922 18.4450531 C85.14166055 19.81403634 85.14072341 21.18301959 85.13916016 22.55200195 C85.14305056 23.96537908 85.14738595 25.37875505 85.15214539 26.79212952 C85.1595937 29.75013016 85.1593264 32.70801141 85.15405273 35.66601562 C85.1482591 39.44661389 85.16519275 43.22672207 85.18839741 47.00723934 C85.20316715 49.92500134 85.20400209 52.84264616 85.20088768 55.76043892 C85.20139924 57.15382419 85.20660588 58.5472163 85.2166996 59.94056511 C85.22910857 61.89295552 85.2203089 63.8454454 85.21069336 65.79785156 C85.21132278 66.90639999 85.21195221 68.01494843 85.21260071 69.15708923 C84.7703305 72.84155623 83.87759228 75.17440486 81.83837891 78.2746582 C77.76416563 80.81693826 73.32196073 80.56456842 68.6550293 80.54931641 C67.84463699 80.55442734 67.03424469 80.55953827 66.19929504 80.56480408 C63.52813269 80.5786713 60.85722917 80.57774553 58.18603516 80.57543945 C56.32425338 80.57932786 54.46247249 80.58366283 52.60069275 80.58842468 C48.70113243 80.59588064 44.80166266 80.59560006 40.90209961 80.59033203 C35.91086439 80.58453714 30.92000022 80.60147191 25.92882633 80.6246767 C22.08460838 80.63942521 18.24047956 80.64028424 14.39623833 80.63716698 C12.55628156 80.63767959 10.71631972 80.64290607 8.87639046 80.6529789 C6.30105762 80.66534817 3.7264448 80.65854897 1.15112305 80.64697266 C0.39508789 80.65461639 -0.36094727 80.66226013 -1.13989258 80.6701355 C-5.871871 80.62324223 -9.23632771 79.97025575 -13.16162109 77.2746582 C-15.37641734 73.54907559 -15.41883959 70.09125944 -15.4362793 65.81958008 C-15.44581131 64.53474731 -15.45534332 63.24991455 -15.46516418 61.92614746 C-15.46490277 60.53190076 -15.46396577 59.13765405 -15.46240234 57.7434082 C-15.46629223 56.30521522 -15.4706275 54.86702338 -15.47538757 53.42883301 C-15.48283562 50.4195584 -15.48256842 47.41040116 -15.47729492 44.40112305 C-15.47149598 40.5509278 -15.48844792 36.70121293 -15.5116396 32.85109711 C-15.5263917 29.88276375 -15.52724676 26.91454578 -15.52412987 23.94618225 C-15.52464214 22.52685086 -15.52986222 21.10751285 -15.53994179 19.68821716 C-15.55231882 17.70209444 -15.54356422 15.71587428 -15.53393555 13.72973633 C-15.53456497 12.60120239 -15.5351944 11.47266846 -15.5358429 10.30993652 C-15.10932169 6.85046256 -14.29364841 5.0176583 -12.16162109 2.2746582 C-8.59315377 -0.4810114 -4.31337266 -0.01385985 0 0 Z " fill="#5766CD" transform="translate(395.16162109375,89.725341796875)"/>
<path d="M0 0 C40.59 0 81.18 0 123 0 C81.06598985 65.89630167 81.06598985 65.89630167 54 73 C52.0859375 72.35546875 52.0859375 72.35546875 50.375 71.1875 C46.7883081 68.80989655 43.93382055 67.88119411 39.62036133 67.79467773 C38.72740356 67.77449585 37.8344458 67.75431396 36.91442871 67.73352051 C35.97973755 67.71704468 35.04504639 67.70056885 34.08203125 67.68359375 C33.22009155 67.66494263 32.35815186 67.6462915 31.47009277 67.6270752 C28.25099923 67.55878839 25.03173735 67.49863272 21.8125 67.4375 C14.614375 67.293125 7.41625 67.14875 0 67 C0 44.89 0 22.78 0 0 Z " fill="#FEC04F" transform="translate(352,390)"/>
<path d="M0 0 C40.59 0 81.18 0 123 0 C123 22.11 123 44.22 123 67 C101 67.25 101 67.25 94.1015625 67.29785156 C92.27601637 67.32724488 90.45049257 67.35807486 88.625 67.390625 C87.69429688 67.39175293 86.76359375 67.39288086 85.8046875 67.39404297 C80.33447101 67.51283475 76.42895005 68.29374411 71.66943359 71.04876709 C70 72 70 72 67 73 C64.86857158 71.66287368 63.00932024 70.32271752 61.0625 68.75 C60.4840332 68.29181885 59.90556641 67.8336377 59.30957031 67.36157227 C53.27669395 62.52259983 47.56680807 57.36354788 42 52 C41.33919434 51.36642578 40.67838867 50.73285156 39.99755859 50.08007812 C30.51400004 40.94023642 21.75618913 31.64975195 14 21 C13.55011719 20.38962891 13.10023437 19.77925781 12.63671875 19.15039062 C8.04978849 12.91604175 3.85533955 6.74684421 0 0 Z " fill="#FEC14F" transform="translate(37,390)"/>
<path d="M0 0 C19.94155 2.34606471 19.94155 2.34606471 27.125 4.625 C27.95918457 4.88514893 28.79336914 5.14529785 29.65283203 5.41333008 C57.4333107 14.48466961 77.80379845 35.4022069 91 61 C94.37108978 68.20715746 96.53473319 75.58349243 98.3125 83.3125 C98.57015137 84.42383301 98.57015137 84.42383301 98.83300781 85.55761719 C98.98737305 86.27723633 99.14173828 86.99685547 99.30078125 87.73828125 C99.50441284 88.68247925 99.50441284 88.68247925 99.7121582 89.64575195 C100.13118775 93.07298008 100 96.5472506 100 100 C80.2 100 60.4 100 40 100 C38.35 95.05 36.7 90.1 35 85 C29.15364136 75.29283848 22.45903179 68.4824422 12 64 C11.154375 63.608125 10.30875 63.21625 9.4375 62.8125 C6.30588723 61.68788218 6.30588723 61.68788218 0 61 C0 40.87 0 20.74 0 0 Z " fill="#3342AD" transform="translate(230,120)"/>
<path d="M0 0 C0.81999985 -0.00511093 1.63999969 -0.01022186 2.48484802 -0.01548767 C5.19391187 -0.02938055 7.90272118 -0.02842697 10.61181641 -0.02612305 C12.49744766 -0.03001047 14.38307803 -0.03434524 16.26870728 -0.03910828 C20.221322 -0.04657007 24.17384741 -0.04627974 28.12646484 -0.04101562 C33.18610821 -0.03522458 38.24538509 -0.05214336 43.30496788 -0.0753603 C47.19979991 -0.09010952 51.09454395 -0.09096765 54.98939896 -0.08785057 C56.8544754 -0.0883633 58.71955684 -0.09359197 60.58460617 -0.10366249 C63.19596741 -0.11603103 65.80661845 -0.10923259 68.41796875 -0.09765625 C69.18492569 -0.10529999 69.95188263 -0.11294373 70.74208069 -0.12081909 C75.50984541 -0.07422028 78.79313278 0.73693713 82.83837891 3.2746582 C85.7664357 7.70653966 85.14412099 13.29904856 85.13916016 18.4309082 C85.14344528 19.41079712 85.14773041 20.39068604 85.15214539 21.40026855 C85.15787745 23.46792835 85.15839724 25.53560831 85.15405273 27.60327148 C85.15088996 30.76361476 85.17437602 33.92302412 85.19970703 37.08325195 C85.20197988 39.09496952 85.20268359 41.10668961 85.20166016 43.1184082 C85.2108699 44.06123657 85.22007965 45.00406494 85.22956848 45.97546387 C85.16985748 54.45375085 85.16985748 54.45375085 81.83837891 58.2746582 C77.60192007 61.50795417 73.80393993 61.70928715 68.6550293 61.67871094 C67.84463699 61.68557419 67.03424469 61.69243744 66.19929504 61.69950867 C63.52802875 61.71776736 60.8573503 61.71394052 58.18603516 61.70825195 C56.32425241 61.71281426 54.46247136 61.71811999 52.60069275 61.72413635 C48.70109205 61.73306567 44.80169617 61.73064644 40.90209961 61.72070312 C35.91074167 61.70921472 30.92009132 61.72942381 25.92882633 61.75862026 C22.08458483 61.77698791 18.24051271 61.77668866 14.39623833 61.77098274 C12.55627894 61.77082959 10.71630803 61.77686881 8.87639046 61.78927422 C6.30085301 61.80419296 3.72662035 61.79350129 1.15112305 61.77636719 C0.39508789 61.78603516 -0.36094727 61.79570312 -1.13989258 61.80566406 C-6.27855505 61.73426887 -9.25565089 60.60074106 -13.16162109 57.2746582 C-15.13980356 54.41532235 -15.41632275 52.11302215 -15.4362793 48.67724609 C-15.44581131 47.77273209 -15.45534332 46.86821808 -15.46516418 45.93629456 C-15.46425278 44.96643112 -15.46334137 43.99656769 -15.46240234 42.99731445 C-15.46668747 41.99381454 -15.4709726 40.99031464 -15.47538757 39.95640564 C-15.48112645 37.83569086 -15.4816344 35.71495639 -15.47729492 33.59423828 C-15.47413614 30.35260375 -15.49759599 27.11188297 -15.52294922 23.87036133 C-15.52522239 21.80851352 -15.52592562 19.74666326 -15.52490234 17.68481445 C-15.53411209 16.71697525 -15.54332184 15.74913605 -15.55281067 14.75196838 C-15.49331998 6.08291953 -15.49331998 6.08291953 -12.16162109 2.2746582 C-8.41470982 -0.3194151 -4.38100004 -0.01407716 0 0 Z " fill="#5867CE" transform="translate(395.16162109375,179.725341796875)"/>
<path d="M0 0 C9.9 0 19.8 0 30 0 C27.15091011 31.33998881 15.00559509 56.34783585 -8.6875 77.1875 C-25.62091222 90.76474043 -48.04617197 100 -70 100 C-70 90.1 -70 80.2 -70 70 C-67.834375 69.62875 -65.66875 69.2575 -63.4375 68.875 C-48.03780159 65.91821719 -35.00465965 59.15130869 -23 49 C-22.505 48.01 -22.505 48.01 -22 47 C-20.7934375 47.5259375 -20.7934375 47.5259375 -19.5625 48.0625 C-15.10283046 49.23609725 -11.44209338 49.29254282 -7 48 C-4.29447612 45.80176185 -2.55221667 44.10443333 -1 41 C-0.44000924 35.17609609 -1.64756975 32.67308459 -5 28 C-6.38571754 23.71886214 -5.6331562 21.00643547 -4.1875 16.8125 C-2.24717335 11.13161585 -1.21058988 6.05294938 0 0 Z " fill="#3342AD" transform="translate(300,230)"/>
<path d="M0 0 C9.9 0 19.8 0 30 0 C30.37125 2.165625 30.7425 4.33125 31.125 6.5625 C33.83972642 20.70150542 39.54593367 33.67585973 49.2421875 44.50390625 C51.33898545 47.48135935 51.33026899 48.74662704 51 52.3125 C50.80883 57.76084506 51.57123386 61.66892698 55 66 C59.29193364 69.0520417 62.80424688 69.62707365 68 69 C69.31219395 68.33045842 70.60363279 67.61915342 71.875 66.875 C75.89484091 64.69214184 78.12576611 65.01585135 82.421875 66.28515625 C86.6347593 67.45327417 90.95465154 67.92340683 95.27734375 68.53515625 C98 69 98 69 100 70 C100 79.9 100 89.8 100 100 C73.87358339 100 49.20937496 87.79664891 30.70703125 69.76953125 C11.40388177 50.02071021 2.48001986 27.28021851 0 0 Z " fill="#3342AD" transform="translate(120,230)"/>
<path d="M0 0 C0 9.9 0 19.8 0 30 C-2.97 30.66 -5.94 31.32 -9 32 C-11.08561686 32.51161259 -13.16931103 33.03120108 -15.25 33.5625 C-17.16425982 34.05119331 -19.08083717 34.53093087 -21 35 C-22.30130859 35.34998047 -22.30130859 35.34998047 -23.62890625 35.70703125 C-26.41895679 36.05176567 -27.36650905 35.6375559 -29.6875 34.125 C-35.01815616 30.70533378 -38.71666581 30.35602724 -45 31 C-50.61254193 32.60912256 -53.92016386 35.492046 -57.08984375 40.31640625 C-59.47846822 44.73484894 -59.40043882 49.10836502 -59 54 C-58.51067902 55.35806198 -58.01054608 56.71227407 -57.5 58.0625 C-56.08210263 63.65639647 -59.14473953 67.87164015 -61.75610352 72.61865234 C-66.44838711 81.30206205 -68.0738647 90.36932348 -70 100 C-79.9 100 -89.8 100 -100 100 C-100 73.73407173 -87.79002334 49.42730778 -69.8046875 30.77734375 C-54.90332519 16.02125935 -36.96731265 6.29658941 -16.5625 1.625 C-15.82926514 1.45701904 -15.09603027 1.28903809 -14.34057617 1.1159668 C-9.2843907 0.05280659 -5.44223171 0 0 0 Z " fill="#3342AD" transform="translate(220,120)"/>
<path d="M0 0 C7.3047802 5.63363945 11.38306283 14.42606281 12.6015625 23.40234375 C13.08840728 32.3321019 9.99864429 40.53242728 4.6875 47.6875 C-1.15669259 53.89695462 -9.98204788 57.2794014 -18.328125 58.05078125 C-27.69993022 58.31110917 -34.5604492 55.41615871 -41.89453125 49.6484375 C-48.35361457 43.25734453 -51.76053212 35.01474236 -52.125 26.0625 C-51.96464603 17.43545625 -48.80702164 9.08474576 -42.75 2.8125 C-29.34785189 -8.07353601 -14.76940393 -9.30763311 0 0 Z " fill="#3542AE" transform="translate(449.75,282.1875)"/>
<path d="M0 0 C1.32543445 0.68634129 2.63447865 1.40606718 3.91796875 2.16796875 C5.88501031 3.23738654 7.49012591 3.81705302 9.70703125 4.140625 C11.49927759 3.43048966 13.28989683 2.71585891 15.0703125 1.9765625 C20.7325678 0.18141786 26.8360685 -0.17792397 32.70703125 -0.859375 C32.70703125 9.040625 32.70703125 18.940625 32.70703125 29.140625 C30.43828125 29.82125 28.16953125 30.501875 25.83203125 31.203125 C13.49110661 35.18406843 4.0626015 42.43859418 -2.04296875 54.015625 C-4.49751225 58.97656856 -5.64343087 63.64216541 -7.29296875 69.140625 C-17.19296875 69.140625 -27.09296875 69.140625 -37.29296875 69.140625 C-36.06433537 58.08292454 -34.2523323 49.65606615 -28.98046875 39.953125 C-25.57302131 33.92120548 -25.57302131 33.92120548 -25.79296875 27.203125 C-26.29248068 25.84877822 -26.79246949 24.49460722 -27.29296875 23.140625 C-28.15909311 16.72242141 -27.25269966 11.36176603 -23.29296875 6.140625 C-16.69409173 0.03301247 -8.92392285 -3.34457074 0 0 Z " fill="#5766CD" transform="translate(187.29296875,150.859375)"/>
<path d="M0 0 C10.23 0 20.46 0 31 0 C31.66 2.97 32.32 5.94 33 9 C37.17094484 21.455958 45.50345486 30.0249662 57.08203125 35.82421875 C61.27945903 37.51555176 65.6654781 38.69964343 70 40 C70 49.9 70 59.8 70 70 C67.710625 69.71125 65.42125 69.4225 63.0625 69.125 C62.31419922 69.03154297 61.56589844 68.93808594 60.79492188 68.84179688 C57.10582808 68.35729335 53.62591334 67.67896733 50.0625 66.625 C45.80378858 65.57030974 43.58148285 66.88152286 39.90234375 69.0234375 C36.7857065 70.62335395 34.41652773 70.49694949 31 70 C25.6689595 67.83144115 22.98168656 65.58413906 20.609375 60.32421875 C19.90127902 57.62346807 20.07227685 55.52457734 20.3125 52.75 C20.59306964 46.18829074 17.40817749 42.93023271 13.38671875 38.03125 C4.68485869 26.97946046 1.3726072 13.72607205 0 0 Z " fill="#5766CD" transform="translate(150,230)"/>
<path d="M0 0 C10.23 0 20.46 0 31 0 C28.94202899 15.43478261 28.94202899 15.43478261 26 23 C26.08551923 26.59180771 26.94507536 27.92343838 29.0625 30.875 C31.42231861 34.68115904 31.62978324 36.59151734 31 41 C28.56464662 45.87070677 26.12305898 48.15569877 21 50 C16.1358451 50.60801936 13.21327788 49.40758736 9 47 C8.67 47.99 8.34 48.98 8 50 C-5.48333999 62.01825721 -21.12668779 68.21266878 -39 70 C-39 59.77 -39 49.54 -39 39 C-35.04 38.01 -31.08 37.02 -27 36 C-16.15422275 31.72742108 -7.88610206 23.52646866 -3.07421875 12.96875 C-1.2558063 8.48735438 -0.7164177 5.01492387 0 0 Z " fill="#5766CD" transform="translate(269,230)"/>
<path d="M0 0 C14 2 14 2 18.625 2.8125 C22.60399783 3.03355544 23.00736601 2.3379953 26 0 C30.84821706 -0.61564661 32.8465284 -0.76080042 36.9375 1.9375 C39.08158116 5.12113566 39.16248093 5.67852708 39.1875 9.25 C39.37551987 12.51080176 39.73035 13.70236238 41.95703125 16.16015625 C43.70764997 17.64186272 45.46873772 19.11125949 47.23828125 20.5703125 C61.7666712 33.35200776 67.93005176 51.3704658 70 70 C60.1 70 50.2 70 40 70 C39.319375 67.73125 38.63875 65.4625 37.9375 63.125 C34.10565918 51.24629345 27.11028583 41.48504799 15.8125 35.6875 C14.54764943 35.11167308 13.27738794 34.54745197 12 34 C11.154375 33.608125 10.30875 33.21625 9.4375 32.8125 C6.30588723 31.68788218 6.30588723 31.68788218 0 31 C0 20.77 0 10.54 0 0 Z " fill="#5666CD" transform="translate(230,150)"/>
<path d="M0 0 C1.08374153 -0.00043808 1.08374153 -0.00043808 2.18937683 -0.00088501 C4.56477084 0.00050239 6.93984669 0.01603553 9.31518555 0.03173828 C10.96713591 0.03547051 12.6190885 0.03831649 14.27104187 0.04031372 C18.60952921 0.04793364 22.94788169 0.06756797 27.28631592 0.08972168 C31.71714453 0.11021552 36.14799503 0.119323 40.57885742 0.12939453 C49.26576812 0.15081547 57.95256941 0.18493152 66.6394043 0.22705078 C66.0199292 0.53626465 65.4004541 0.84547852 64.76220703 1.1640625 C57.76386524 4.66846505 53.01676344 7.93601367 49.6394043 15.22705078 C47.78150479 21.16994729 47.62596295 27.75273667 50.2019043 33.47705078 C52.5375949 37.62564203 55.85283219 40.41903101 59.6394043 43.22705078 C56.3403508 44.33436009 54.49850703 44.12763273 51.24487305 42.96142578 C50.38345703 42.65422607 49.52204102 42.34702637 48.63452148 42.03051758 C47.70800781 41.68287354 46.78149414 41.33522949 45.8269043 40.97705078 C44.85785156 40.61716064 43.88879883 40.25727051 42.89038086 39.88647461 C21.37397241 31.69757455 1.18296011 20.87846247 -17.3605957 7.22705078 C-11.84497405 1.23866156 -8.08576328 -0.02754945 0 0 Z " fill="#5766CD" transform="translate(122.360595703125,456.77294921875)"/>
<path d="M0 0 C5.32461071 3.0349201 9.10941759 7.68621167 12.25 12.875 C13.85580774 20.36876946 13.22297246 26.46562497 9.515625 33.23046875 C6.21328453 37.63106465 1.65574207 40.07837897 -3.1875 42.5 C-10.20709801 43.26657077 -16.15771416 43.04026411 -22.2109375 39.19921875 C-26.8771746 35.18773033 -30.66640753 29.55707711 -31.4609375 23.37109375 C-31.75003091 16.44397078 -30.38202581 11.10234367 -26.1875 5.5 C-18.70043306 -0.96431524 -9.5096857 -4.21620831 0 0 Z " fill="#FC4FB4" transform="translate(439.1875,287.5)"/>
<path d="M0 0 C5.23724692 2.96387807 8.8638854 7.84165621 10.75 13.5 C11.57438001 20.23018433 10.36566897 25.75287185 6.75 31.5 C2.92374096 35.91739456 -1.58406651 38.05626503 -7.34765625 38.75390625 C-13.14953021 39.0624107 -17.49540086 37.86351555 -22.25 34.5 C-27.29133083 29.94488889 -29.2700247 24.80082581 -29.625 18.125 C-29.47619053 13.20602015 -28.23254951 9.43266916 -25.25 5.5 C-18.02850062 -1.18388273 -9.47108421 -4.1424588 0 0 Z " fill="#7EBBD6" transform="translate(189.25,151.5)"/>
<path d="M0 0 C4.07246726 2.84287865 6.89623477 6.70715965 8.82421875 11.2734375 C9.8108839 18.01947361 8.84074152 23.72445681 4.82421875 29.2734375 C0.53024719 33.89680961 -3.7336146 36.07325991 -9.98828125 36.5859375 C-15.27675933 36.40666706 -19.93247245 35.28348189 -23.94140625 31.69140625 C-28.93343578 26.12989762 -30.71477154 21.32522223 -30.55859375 13.83984375 C-29.74251091 8.36875777 -26.60218928 4.66327096 -22.73828125 0.8984375 C-15.26693692 -3.83948817 -7.66268872 -4.24534031 0 0 Z " fill="#3D4DC3" transform="translate(61.17578125,152.7265625)"/>
<path d="M0 0 C4.77929518 3.31582792 7.56867157 7.55859235 8.82421875 13.265625 C9.43856857 19.61390652 8.49512669 23.99081267 4.82421875 29.265625 C0.27792186 34.18559012 -4.38446835 36.32000303 -10.98828125 36.703125 C-16.48721453 36.58839316 -20.02056108 34.7764013 -24.17578125 31.265625 C-28.26694251 26.95913946 -30.00320478 23.37105788 -30.48828125 17.453125 C-30.30907254 12.16646819 -29.17020556 7.54208911 -25.62890625 3.5 C-18.08128062 -3.37969416 -9.00716925 -5.02561113 0 0 Z " fill="#3F4FC5" transform="translate(61.17578125,253.734375)"/>
<path d="M0 0 C4.77929518 3.31582792 7.56867157 7.55859235 8.82421875 13.265625 C9.43856857 19.61390652 8.49512669 23.99081267 4.82421875 29.265625 C0.27792186 34.18559012 -4.38446835 36.32000303 -10.98828125 36.703125 C-16.48721453 36.58839316 -20.02056108 34.7764013 -24.17578125 31.265625 C-28.26694251 26.95913946 -30.00320478 23.37105788 -30.48828125 17.453125 C-30.30907254 12.16646819 -29.17020556 7.54208911 -25.62890625 3.5 C-18.08128062 -3.37969416 -9.00716925 -5.02561113 0 0 Z " fill="#3D4EC6" transform="translate(61.17578125,202.734375)"/>
<path d="M0 0 C5.03821674 2.63537491 8.98406295 6.92484511 10.77734375 12.3046875 C11.44251849 19.76336815 11.44165479 25.29018116 6.77734375 31.3046875 C2.20734868 35.87468257 -1.53372447 37.46193407 -7.97265625 37.6171875 C-14.42979073 37.54708592 -18.05354782 36.47379593 -22.71875 31.80859375 C-27.49190185 26.38640142 -27.68721845 21.58888172 -27.6328125 14.609375 C-27.00215074 9.52804314 -24.87179646 6.75062733 -21.22265625 3.3046875 C-20.37703125 2.4796875 -19.53140625 1.6546875 -18.66015625 0.8046875 C-12.82548953 -1.74134889 -6.10878198 -1.91100737 0 0 Z " fill="#3E4EC5" transform="translate(59.22265625,302.6953125)"/>
<path d="M0 0 C0.14857681 4.34149055 0.25731436 8.68162732 0.32958984 13.02490234 C0.35972248 14.50140156 0.40063879 15.97772232 0.45263672 17.45361328 C0.52562629 19.57889779 0.55948491 21.70181393 0.5859375 23.828125 C0.6173584 25.1059082 0.6487793 26.38369141 0.68115234 27.70019531 C0 31 0 31 -2.84912109 33.13574219 C-4.40880615 34.0585498 -4.40880615 34.0585498 -6 35 C-6.47284424 35.8974292 -6.94568848 36.7948584 -7.43286133 37.71948242 C-7.95001709 38.47205322 -8.46717285 39.22462402 -9 40 C-12.1862793 40.56762695 -12.1862793 40.56762695 -16.07421875 40.48828125 C-16.7580513 40.48120651 -17.44188385 40.47413177 -18.1464386 40.46684265 C-20.32791159 40.43888004 -22.50680494 40.37615064 -24.6875 40.3125 C-26.1672806 40.28741897 -27.64710149 40.26460544 -29.12695312 40.24414062 C-32.75213863 40.18905135 -36.37581753 40.10277108 -40 40 C-37.54288205 26.45708902 -32.40179591 16.61206423 -21.359375 7.921875 C-15.0675484 3.64343291 -7.79499733 0 0 0 Z " fill="#8B95DC" transform="translate(220,180)"/>
<path d="M0 0 C11.74170117 -0.13816795 19.64785934 4.85235482 27.94140625 12.87890625 C35.18671718 20.62497301 38.15459371 28.72719666 40 39 C35.65850945 39.14857681 31.31837268 39.25731436 26.97509766 39.32958984 C25.49859844 39.35972248 24.02227768 39.40063879 22.54638672 39.45263672 C20.42110221 39.52562629 18.29818607 39.55948491 16.171875 39.5859375 C14.8940918 39.6173584 13.61630859 39.6487793 12.29980469 39.68115234 C9 39 9 39 6.86425781 36.15087891 C6.24905273 35.11108887 5.63384766 34.07129883 5 33 C4.1025708 32.52264404 3.2051416 32.04528809 2.28051758 31.5534668 C1.52794678 31.04082275 0.77537598 30.52817871 0 30 C-0.56762695 26.90551758 -0.56762695 26.90551758 -0.48828125 23.14453125 C-0.47766914 22.15207649 -0.47766914 22.15207649 -0.46684265 21.13957214 C-0.43888507 19.02939015 -0.37615847 16.9218774 -0.3125 14.8125 C-0.28741824 13.38089775 -0.26460483 11.94925383 -0.24414062 10.51757812 C-0.18905847 7.0108535 -0.10278289 3.50568729 0 0 Z " fill="#8B95DC" transform="translate(230,181)"/>
<path d="M0 0 C4.19907045 -0.14860594 8.39673979 -0.25732637 12.59765625 -0.32958984 C14.02566186 -0.35971791 15.45348306 -0.40063103 16.88085938 -0.45263672 C18.9366601 -0.52564914 20.99001213 -0.55948862 23.046875 -0.5859375 C24.28276367 -0.6173584 25.51865234 -0.6487793 26.79199219 -0.68115234 C30 0 30 0 32.12207031 2.84912109 C32.74178711 3.88891113 33.36150391 4.92870117 34 6 C35.3461438 6.70926636 35.3461438 6.70926636 36.71948242 7.43286133 C37.84833862 8.20859497 37.84833862 8.20859497 39 9 C39.56762695 12.1862793 39.56762695 12.1862793 39.48828125 16.07421875 C39.48120651 16.7580513 39.47413177 17.44188385 39.46684265 18.1464386 C39.43888004 20.32791159 39.37615064 22.50680494 39.3125 24.6875 C39.28741897 26.1672806 39.26460544 27.64710149 39.24414062 29.12695312 C39.18905135 32.75213863 39.10277108 36.37581753 39 40 C24.78131522 37.42027503 14.0496715 31.57101185 5.5625 19.4375 C1.47729056 12.78312202 -0.06475286 7.83509666 0 0 Z " fill="#8B95DC" transform="translate(181,230)"/>
<path d="M0 0 C3.09448242 -0.56762695 3.09448242 -0.56762695 6.85546875 -0.48828125 C7.51710526 -0.48120651 8.17874176 -0.47413177 8.86042786 -0.46684265 C10.97060985 -0.43888507 13.0781226 -0.37615847 15.1875 -0.3125 C16.61910225 -0.28741824 18.05074617 -0.26460483 19.48242188 -0.24414062 C22.9891465 -0.18905847 26.49431271 -0.10278289 30 0 C30.12616176 10.72139905 26.16946232 18.14425513 19 26 C12.35186859 32.74139178 3.63383018 38.90220398 -6.1796875 39.046875 C-7.57574219 39.02367187 -7.57574219 39.02367187 -9 39 C-9.14860594 34.80092955 -9.25732637 30.60326021 -9.32958984 26.40234375 C-9.35971791 24.97433814 -9.40063103 23.54651694 -9.45263672 22.11914062 C-9.52564914 20.0633399 -9.55948862 18.00998787 -9.5859375 15.953125 C-9.6173584 14.71723633 -9.6487793 13.48134766 -9.68115234 12.20800781 C-9 9 -9 9 -6.15087891 6.87792969 C-5.11108887 6.25821289 -4.07129883 5.63849609 -3 5 C-2.28396606 3.6538562 -2.28396606 3.6538562 -1.5534668 2.28051758 C-1.04082275 1.52794678 -0.52817871 0.77537598 0 0 Z " fill="#8B95DC" transform="translate(239,230)"/>
<path d="M0 0 C3.3 0 6.6 0 10 0 C10.06942729 12.72576589 10.1227743 25.45148693 10.15543652 38.17740345 C10.17111058 44.0861917 10.19238073 49.99485064 10.22631836 55.90356445 C10.25884954 61.60289981 10.27683989 67.30211058 10.28463173 73.0015316 C10.29018646 75.17891083 10.3010331 77.35628303 10.31719017 79.53360939 C10.33888131 82.57700102 10.34197039 85.61987393 10.34057617 88.66333008 C10.351362 89.56891663 10.36214783 90.47450317 10.3732605 91.40753174 C10.36707451 92.65059837 10.36707451 92.65059837 10.36076355 93.91877747 C10.36352893 94.63869779 10.36629431 95.35861811 10.36914349 96.10035419 C9.88419878 98.59592358 9.02908096 99.50410979 7 101 C3.875 100.8125 3.875 100.8125 1 100 C-0.72439077 96.55121847 -0.1285325 92.57188932 -0.11352539 88.77685547 C-0.11367142 87.8207135 -0.11381744 86.86457153 -0.1139679 85.87945557 C-0.1132694 82.70867673 -0.1054799 79.53795612 -0.09765625 76.3671875 C-0.09579185 74.17286206 -0.09436805 71.97853621 -0.09336853 69.78421021 C-0.0895451 64.00065976 -0.07971628 58.2171343 -0.06866455 52.43359375 C-0.0584467 46.53515969 -0.05387011 40.6367216 -0.04882812 34.73828125 C-0.03809388 23.15884317 -0.02101953 11.57942366 0 0 Z " fill="#7EBDD6" transform="translate(220,239)"/>
<path d="M0 0 C12.72576589 -0.06942729 25.45148693 -0.1227743 38.17740345 -0.15543652 C44.0861917 -0.17111058 49.99485064 -0.19238073 55.90356445 -0.22631836 C61.60289981 -0.25884954 67.30211058 -0.27683989 73.0015316 -0.28463173 C75.17891083 -0.29018646 77.35628303 -0.3010331 79.53360939 -0.31719017 C82.57700102 -0.33888131 85.61987393 -0.34197039 88.66333008 -0.34057617 C89.56891663 -0.351362 90.47450317 -0.36214783 91.40753174 -0.3732605 C92.65059837 -0.36707451 92.65059837 -0.36707451 93.91877747 -0.36076355 C94.99865795 -0.36491162 94.99865795 -0.36491162 96.10035419 -0.36914349 C98.59592358 0.11580122 99.50410979 0.97091904 101 3 C100.8125 6.125 100.8125 6.125 100 9 C96.55121847 10.72439077 92.57188932 10.1285325 88.77685547 10.11352539 C87.8207135 10.11367142 86.86457153 10.11381744 85.87945557 10.1139679 C82.70867673 10.1132694 79.53795612 10.1054799 76.3671875 10.09765625 C74.17286206 10.09579185 71.97853621 10.09436805 69.78421021 10.09336853 C64.00065976 10.0895451 58.2171343 10.07971628 52.43359375 10.06866455 C46.53515969 10.0584467 40.6367216 10.05387011 34.73828125 10.04882812 C23.15884317 10.03809388 11.57942366 10.02101953 0 10 C0 6.7 0 3.4 0 0 Z " fill="#7EBDD6" transform="translate(239,220)"/>
<path d="M0 0 C1.43421295 -0.00021904 1.43421295 -0.00021904 2.8973999 -0.0004425 C6.06817874 0.000256 9.23889935 0.00804549 12.40966797 0.01586914 C14.60399341 0.01773354 16.79831926 0.01915734 18.99264526 0.02015686 C24.77619571 0.02398029 30.55972117 0.03380911 36.34326172 0.04486084 C42.24169578 0.0550787 48.14013387 0.05965529 54.03857422 0.06469727 C65.6180123 0.07543151 77.19743181 0.09250586 88.77685547 0.11352539 C88.77685547 3.41352539 88.77685547 6.71352539 88.77685547 10.11352539 C76.05108957 10.18295268 63.32536853 10.23629969 50.59945202 10.26896191 C44.69066377 10.28463597 38.78200483 10.30590612 32.87329102 10.33984375 C27.17395566 10.37237493 21.47474489 10.39036528 15.77532387 10.39815712 C13.59794464 10.40371185 11.42057244 10.41455849 9.24324608 10.43071556 C6.19985445 10.4524067 3.15698153 10.45549578 0.11352539 10.45410156 C-1.24485443 10.4702803 -1.24485443 10.4702803 -2.63067627 10.48678589 C-3.8737429 10.4805999 -3.8737429 10.4805999 -5.141922 10.47428894 C-6.22180248 10.47843701 -6.22180248 10.47843701 -7.32349873 10.48266888 C-9.81906811 9.99772417 -10.72725432 9.14260635 -12.22314453 7.11352539 C-12.03564453 3.98852539 -12.03564453 3.98852539 -11.22314453 1.11352539 C-7.774363 -0.61086538 -3.79503385 -0.01500711 0 0 Z " fill="#7EBDD6" transform="translate(122.22314453125,219.886474609375)"/>
<path d="M0 0 C4.36492736 2.40706674 5.93942071 4.83284673 7.8125 9.4375 C8.54520346 14.47483626 7.62027557 18.24512573 5.20703125 22.63671875 C1.89427009 26.91454198 -2.56531496 28.20982491 -7.75 28.9375 C-11.90567414 28.33303831 -15.0494453 27.21048398 -18.1875 24.4375 C-20.86230247 20.81078254 -22.03798419 17.36782061 -22.75 12.9375 C-21.99719856 8.25340213 -20.2625939 5.03050445 -17.1875 1.4375 C-11.58321258 -2.46113473 -6.19842333 -2.667967 0 0 Z " fill="#7EBCD6" transform="translate(192.1875,271.5625)"/>
<path d="M0 0 C4.36492736 2.40706674 5.93942071 4.83284673 7.8125 9.4375 C8.54520346 14.47483626 7.62027557 18.24512573 5.20703125 22.63671875 C1.9113554 26.89247944 -2.54684459 28.17382324 -7.6875 29 C-12.37661747 28.24639184 -15.64727219 26.60297396 -19.1875 23.4375 C-21.97287223 18.73718437 -22.86540686 14.86075487 -22.1875 9.4375 C-20.44294414 4.504976 -17.73316107 1.40475576 -13.0390625 -0.90234375 C-8.34602817 -2.57559861 -4.45447532 -1.90552555 0 0 Z " fill="#BFDEEA" transform="translate(232.1875,211.5625)"/>
<path d="M0 0 C-0.06960938 1.2684375 -0.06960938 1.2684375 -0.140625 2.5625 C-0.42918344 11.6314794 0.53481372 16.89648993 6.375 23.8125 C11.56507383 28.13756152 15.63907294 29.37813945 22.375 29.1875 C24.24285156 29.14689453 24.24285156 29.14689453 26.1484375 29.10546875 C27.55996094 29.05326172 27.55996094 29.05326172 29 29 C27.67895779 33.2215914 26.2471908 34.93842126 22.5 37.25 C21.7059375 37.75015625 20.911875 38.2503125 20.09375 38.765625 C14.89522708 41.83042583 9.94297837 41.6213446 4 41 C-2.69861826 38.92251627 -6.30711196 34.94453442 -9.90625 29.0859375 C-12.49118148 24.15610388 -12.68349839 19.44494787 -12 14 C-10.1450826 8.60457636 -6.73462353 0 0 0 Z " fill="#FC3C7E" transform="translate(420,289)"/>
<path d="M0 0 C1.28753174 0.00607269 1.28753174 0.00607269 2.60107422 0.01226807 C3.92147705 0.00939789 3.92147705 0.00939789 5.26855469 0.00646973 C7.13135056 0.00510755 8.99415591 0.00880625 10.85693359 0.01715088 C13.71457158 0.02785 16.57158088 0.01725675 19.42919922 0.00445557 C21.23649228 0.00577716 23.04378495 0.00833954 24.85107422 0.01226807 C25.70942871 0.0082196 26.5677832 0.00417114 27.45214844 0 C33.49615677 0.04797562 33.49615677 0.04797562 35.72607422 2.27789307 C35.99169922 4.80914307 35.99169922 4.80914307 35.97607422 7.77789307 C35.98380859 9.24742432 35.98380859 9.24742432 35.99169922 10.74664307 C35.72607422 13.27789307 35.72607422 13.27789307 33.72607422 15.27789307 C30.73645318 15.47795609 27.84145072 15.55762229 24.85107422 15.54351807 C23.53067139 15.54638824 23.53067139 15.54638824 22.18359375 15.54931641 C20.32079788 15.55067858 18.45799252 15.54697988 16.59521484 15.53863525 C13.73757686 15.52793613 10.88056756 15.53852938 8.02294922 15.55133057 C6.21565616 15.55000898 4.40836349 15.5474466 2.60107422 15.54351807 C1.74271973 15.54756653 0.88436523 15.55161499 0 15.55578613 C-6.04400833 15.50781051 -6.04400833 15.50781051 -8.27392578 13.27789307 C-8.53955078 10.74664307 -8.53955078 10.74664307 -8.52392578 7.77789307 C-8.52908203 6.79820557 -8.53423828 5.81851807 -8.53955078 4.80914307 C-7.97643016 -0.55706516 -4.59981355 0.03651201 0 0 Z " fill="#FECC70" transform="translate(430.27392578125,214.72210693359375)"/>
<path d="M0 0 C6.92334988 -0.07595711 13.84659263 -0.12856051 20.77026367 -0.16479492 C23.12642431 -0.17989747 25.48255677 -0.20038091 27.83862305 -0.22631836 C31.22191312 -0.26263656 34.60483208 -0.27971167 37.98828125 -0.29296875 C39.57277824 -0.31619453 39.57277824 -0.31619453 41.18928528 -0.33988953 C42.66047066 -0.34022942 42.66047066 -0.34022942 44.16137695 -0.34057617 C45.45710381 -0.35056892 45.45710381 -0.35056892 46.77900696 -0.36076355 C49 0 49 0 50.81413269 1.32597351 C52 3 52 3 51.8125 6.125 C51.544375 7.07375 51.27625 8.0225 51 9 C48.56032503 10.21983748 47.00095476 10.12051527 44.27490234 10.11352539 C43.29403656 10.11344986 42.31317078 10.11337433 41.30258179 10.11329651 C40.24108917 10.10813522 39.17959656 10.10297394 38.0859375 10.09765625 C37.00116119 10.0962413 35.91638489 10.09482635 34.79873657 10.09336853 C31.32413 10.08775802 27.84958719 10.07520372 24.375 10.0625 C22.02343843 10.05748635 19.67187585 10.05292321 17.3203125 10.04882812 C11.54685314 10.03778518 5.77343112 10.02103679 0 10 C0.185625 8.906875 0.37125 7.81375 0.5625 6.6875 C1.2578068 3.06375867 1.2578068 3.06375867 0 0 Z " fill="#3342AE" transform="translate(418,105)"/>
<path d="M0 0 C0.98086578 0.00007553 1.96173157 0.00015106 2.97232056 0.00022888 C4.03381317 0.00539017 5.09530579 0.01055145 6.18896484 0.01586914 C7.8161293 0.01799156 7.8161293 0.01799156 9.47616577 0.02015686 C12.95077234 0.02576737 16.42531515 0.03832167 19.89990234 0.05102539 C22.25146392 0.05603904 24.60302649 0.06060218 26.95458984 0.06469727 C32.7280492 0.07574021 38.50147122 0.0924886 44.27490234 0.11352539 C43.99646484 1.75321289 43.99646484 1.75321289 43.71240234 3.42602539 C43.01709554 7.04976672 43.01709554 7.04976672 44.27490234 10.11352539 C37.35155247 10.1894825 30.42830971 10.2420859 23.50463867 10.27832031 C21.14847803 10.29342287 18.79234557 10.3139063 16.4362793 10.33984375 C13.05298922 10.37616196 9.67007026 10.39323706 6.28662109 10.40649414 C4.7021241 10.42971992 4.7021241 10.42971992 3.08561707 10.45341492 C1.61443169 10.45375481 1.61443169 10.45375481 0.11352539 10.45410156 C-1.18220146 10.46409431 -1.18220146 10.46409431 -2.50410461 10.47428894 C-4.72509766 10.11352539 -4.72509766 10.11352539 -6.53923035 8.78755188 C-7.72509766 7.11352539 -7.72509766 7.11352539 -7.53759766 3.98852539 C-7.26947266 3.03977539 -7.00134766 2.09102539 -6.72509766 1.11352539 C-4.28542269 -0.10631209 -2.72605241 -0.00698988 0 0 Z " fill="#3342AE" transform="translate(397.72509765625,124.886474609375)"/>
<path d="M0 0 C3.43761572 2.12108204 5.77560839 4.1042085 7 8 C7.4650834 12.18575059 7.26947631 14.46104738 5.375 18.25 C2.01807126 22.13697012 -0.93016481 23.69814904 -6 24.4375 C-9.94665429 23.86194625 -11.96043437 22.56674431 -15 20 C-17.64201025 15.94891762 -18.70236884 12.8162435 -18 8 C-13.70401532 -0.11463772 -8.70805474 -2.33900563 0 0 Z " fill="#BEDCEA" transform="translate(293,256)"/>
<path d="M0 0 C3.67455865 4.47337574 4.37501829 8.01974223 4.27734375 13.84765625 C3.59987903 19.10516413 1.00594591 23.40028409 -2.9375 26.875 C-8.87231968 30.99303814 -13.84701392 31.78717072 -21 31 C-24.625 29.5 -24.625 29.5 -27 28 C-26.01 27.34 -25.02 26.68 -24 26 C-18.55135518 21.66304342 -13.58980459 16.74775796 -8.625 11.875 C-7.69627075 10.9782959 -7.69627075 10.9782959 -6.7487793 10.06347656 C-3.58025869 6.9189632 -1.24888748 4.41273576 0 0 Z " fill="#3E4EC6" transform="translate(66,208)"/>
<path d="M0 0 C1.485 0.99 1.485 0.99 3 2 C6.33127575 2.31051988 6.33127575 2.31051988 10.15234375 2.265625 C10.84888565 2.26753845 11.54542755 2.2694519 12.26307678 2.27142334 C13.73487713 2.272783 15.20668956 2.26910182 16.6784668 2.26074219 C18.92589427 2.25005519 21.17251951 2.260636 23.41992188 2.2734375 C24.85156426 2.27211555 26.28320614 2.26955242 27.71484375 2.265625 C29.66571899 2.26224121 29.66571899 2.26224121 31.65600586 2.25878906 C34.73727615 2.02033199 36.43053873 1.63581318 39 0 C37.36775519 6.9953349 35.04593191 11.02772848 29 15 C24.22677858 17.69258644 19.1758262 17.65542379 13.91796875 16.5703125 C8.43635863 14.8723759 5.01101681 11.86318833 2 7 C1.0467679 4.63983399 0.51217287 2.50964708 0 0 Z " fill="#3D4EC6" transform="translate(31,172)"/>
<path d="M0 0 C5.49923749 -0.07411371 10.99818479 -0.12858464 16.49780273 -0.16479492 C18.36894799 -0.17988873 20.24005783 -0.20036589 22.11108398 -0.22631836 C24.79940526 -0.26267593 27.48725913 -0.27972015 30.17578125 -0.29296875 C31.43217155 -0.31619453 31.43217155 -0.31619453 32.71394348 -0.33988953 C38.54744263 -0.34158292 38.54744263 -0.34158292 40.75675964 1.32597351 C42 3 42 3 41.8125 6.125 C41.544375 7.07375 41.27625 8.0225 41 9 C37.66844749 10.66577625 33.93463941 10.12007856 30.2734375 10.09765625 C28.97921371 10.09553383 28.97921371 10.09553383 27.65884399 10.09336853 C24.8975277 10.08776188 22.13629188 10.07520827 19.375 10.0625 C17.5052095 10.05748586 15.63541774 10.0529228 13.765625 10.04882812 C9.17705223 10.03779029 4.58853977 10.0205212 0 10 C0.185625 8.906875 0.37125 7.81375 0.5625 6.6875 C1.2578068 3.06375867 1.2578068 3.06375867 0 0 Z " fill="#3342AE" transform="translate(428,145)"/>
<path d="M0 0 C0.66 0.66 1.32 1.32 2 2 C1.82460272 7.17760132 0.10192302 9.5379831 -3.48046875 13.14453125 C-4.39763672 14.06814453 -5.31480469 14.99175781 -6.25976562 15.94335938 C-6.74098877 16.41410889 -7.22221191 16.8848584 -7.71801758 17.36987305 C-9.18357065 18.80864246 -10.62051498 20.27215659 -12.05664062 21.74023438 C-12.98025391 22.65740234 -13.90386719 23.57457031 -14.85546875 24.51953125 C-15.69746826 25.35589111 -16.53946777 26.19225098 -17.40698242 27.05395508 C-20.37195197 29.27914783 -22.32585681 29.79846202 -26 30 C-27.9375 28.9375 -27.9375 28.9375 -29 27 C-28.72824726 21.74504436 -27.0876351 19.47890758 -23.37890625 15.85546875 C-22.44369141 14.93185547 -21.50847656 14.00824219 -20.54492188 13.05664062 C-19.5508361 12.10020341 -18.55669485 11.14382384 -17.5625 10.1875 C-16.57117601 9.21269538 -15.58092949 8.23679375 -14.59179688 7.25976562 C-5.60508484 -1.54139833 -5.60508484 -1.54139833 0 0 Z " fill="#24307E" transform="translate(64,205)"/>
<path d="M0 0 C1.12347839 0.00607269 1.12347839 0.00607269 2.26965332 0.01226807 C3.03894165 0.01035461 3.80822998 0.00844116 4.60083008 0.00646973 C6.22823412 0.00510799 7.85564902 0.00880368 9.48303223 0.01715088 C11.97855963 0.02785086 14.47336714 0.01725555 16.96887207 0.00445557 C18.54830075 0.00577716 20.12772898 0.00833956 21.70715332 0.01226807 C22.45613892 0.0082196 23.20512451 0.00417114 23.97680664 0 C29.25848089 0.04797064 29.25848089 0.04797064 31.48840332 2.27789307 C31.86340332 4.71539307 31.86340332 4.71539307 31.48840332 7.27789307 C29.07939339 9.79004448 27.63289859 10.2611195 24.14440918 10.66607666 C22.84382568 10.66946045 21.54324219 10.67284424 20.20324707 10.67633057 C19.15699913 10.68063583 19.15699913 10.68063583 18.08961487 10.68502808 C16.6195901 10.68706416 15.14953795 10.68156609 13.67956543 10.66900635 C11.42968299 10.65292009 9.1815901 10.66888093 6.9317627 10.68804932 C5.50142019 10.68606728 4.0710788 10.68222441 2.64074707 10.67633057 C1.3412915 10.67294678 0.04183594 10.66956299 -1.29699707 10.66607666 C-4.51159668 10.27789307 -4.51159668 10.27789307 -6.43908691 8.91314697 C-7.95818256 6.5969843 -7.85881999 4.98623485 -7.51159668 2.27789307 C-4.99454863 -0.23915498 -3.43486769 0.03119707 0 0 Z " fill="#242F7D" transform="translate(38.5115966796875,164.72210693359375)"/>
<path d="M0 0 C0.72252457 -0.00570007 1.44504913 -0.01140015 2.18946838 -0.01727295 C3.71850113 -0.02672218 5.24755424 -0.03325663 6.77661133 -0.03710938 C9.11640866 -0.04682312 11.45533048 -0.07784877 13.79492188 -0.109375 C15.2799427 -0.11590437 16.7649698 -0.1211551 18.25 -0.125 C18.95007675 -0.1373468 19.6501535 -0.1496936 20.3714447 -0.16241455 C23.25926703 -0.14916287 25.23242422 -0.10456359 27.66821289 1.52832031 C28.69140625 3.203125 28.69140625 3.203125 28.50390625 6.328125 C28.23578125 7.276875 27.96765625 8.225625 27.69140625 9.203125 C24.71118813 10.69323406 21.65216434 10.38646033 18.3828125 10.40625 C17.66028793 10.41195007 16.93776337 10.41765015 16.19334412 10.42352295 C14.66431137 10.43297218 13.13525826 10.43950663 11.60620117 10.44335938 C9.26640384 10.45307312 6.92748202 10.48409877 4.58789062 10.515625 C3.1028698 10.52215437 1.6178427 10.5274051 0.1328125 10.53125 C-0.56726425 10.5435968 -1.267341 10.5559436 -1.9886322 10.56866455 C-4.87645453 10.55541287 -6.84961172 10.51081359 -9.28540039 8.87792969 C-10.30859375 7.203125 -10.30859375 7.203125 -10.12109375 4.078125 C-9.85296875 3.129375 -9.58484375 2.180625 -9.30859375 1.203125 C-6.32837563 -0.28698406 -3.26935184 0.01978967 0 0 Z " fill="#3D4EC6" transform="translate(41.30859375,349.796875)"/>
<path d="M0 0 C0.72252457 -0.00570007 1.44504913 -0.01140015 2.18946838 -0.01727295 C3.71850113 -0.02672218 5.24755424 -0.03325663 6.77661133 -0.03710938 C9.11640866 -0.04682312 11.45533048 -0.07784877 13.79492188 -0.109375 C15.2799427 -0.11590437 16.7649698 -0.1211551 18.25 -0.125 C18.95007675 -0.1373468 19.6501535 -0.1496936 20.3714447 -0.16241455 C23.25926703 -0.14916287 25.23242422 -0.10456359 27.66821289 1.52832031 C28.69140625 3.203125 28.69140625 3.203125 28.50390625 6.328125 C28.23578125 7.276875 27.96765625 8.225625 27.69140625 9.203125 C24.71118813 10.69323406 21.65216434 10.38646033 18.3828125 10.40625 C17.66028793 10.41195007 16.93776337 10.41765015 16.19334412 10.42352295 C14.66431137 10.43297218 13.13525826 10.43950663 11.60620117 10.44335938 C9.26640384 10.45307312 6.92748202 10.48409877 4.58789062 10.515625 C3.1028698 10.52215437 1.6178427 10.5274051 0.1328125 10.53125 C-0.56726425 10.5435968 -1.267341 10.5559436 -1.9886322 10.56866455 C-4.87645453 10.55541287 -6.84961172 10.51081359 -9.28540039 8.87792969 C-10.30859375 7.203125 -10.30859375 7.203125 -10.12109375 4.078125 C-9.85296875 3.129375 -9.58484375 2.180625 -9.30859375 1.203125 C-6.32837563 -0.28698406 -3.26935184 0.01978967 0 0 Z " fill="#232E7B" transform="translate(41.30859375,129.796875)"/>
<path d="M0 0 C0.72252457 -0.00570007 1.44504913 -0.01140015 2.18946838 -0.01727295 C3.71850113 -0.02672218 5.24755424 -0.03325663 6.77661133 -0.03710938 C9.11640866 -0.04682312 11.45533048 -0.07784877 13.79492188 -0.109375 C15.2799427 -0.11590437 16.7649698 -0.1211551 18.25 -0.125 C18.95007675 -0.1373468 19.6501535 -0.1496936 20.3714447 -0.16241455 C23.25926703 -0.14916287 25.23242422 -0.10456359 27.66821289 1.52832031 C28.69140625 3.203125 28.69140625 3.203125 28.50390625 6.328125 C28.23578125 7.276875 27.96765625 8.225625 27.69140625 9.203125 C24.71118813 10.69323406 21.65216434 10.38646033 18.3828125 10.40625 C17.66028793 10.41195007 16.93776337 10.41765015 16.19334412 10.42352295 C14.66431137 10.43297218 13.13525826 10.43950663 11.60620117 10.44335938 C9.26640384 10.45307312 6.92748202 10.48409877 4.58789062 10.515625 C3.1028698 10.52215437 1.6178427 10.5274051 0.1328125 10.53125 C-0.56726425 10.5435968 -1.267341 10.5559436 -1.9886322 10.56866455 C-4.87645453 10.55541287 -6.84961172 10.51081359 -9.28540039 8.87792969 C-10.30859375 7.203125 -10.30859375 7.203125 -10.12109375 4.078125 C-9.85296875 3.129375 -9.58484375 2.180625 -9.30859375 1.203125 C-6.32837563 -0.28698406 -3.26935184 0.01978967 0 0 Z " fill="#232E7B" transform="translate(41.30859375,109.796875)"/>
<path d="M0 0 C0.72252457 -0.00570007 1.44504913 -0.01140015 2.18946838 -0.01727295 C3.71850113 -0.02672218 5.24755424 -0.03325663 6.77661133 -0.03710938 C9.11640866 -0.04682312 11.45533048 -0.07784877 13.79492188 -0.109375 C15.2799427 -0.11590437 16.7649698 -0.1211551 18.25 -0.125 C18.95007675 -0.1373468 19.6501535 -0.1496936 20.3714447 -0.16241455 C23.25926703 -0.14916287 25.23242422 -0.10456359 27.66821289 1.52832031 C28.69140625 3.203125 28.69140625 3.203125 28.50390625 6.328125 C28.23578125 7.276875 27.96765625 8.225625 27.69140625 9.203125 C24.71118813 10.69323406 21.65216434 10.38646033 18.3828125 10.40625 C17.66028793 10.41195007 16.93776337 10.41765015 16.19334412 10.42352295 C14.66431137 10.43297218 13.13525826 10.43950663 11.60620117 10.44335938 C9.26640384 10.45307312 6.92748202 10.48409877 4.58789062 10.515625 C3.1028698 10.52215437 1.6178427 10.5274051 0.1328125 10.53125 C-0.56726425 10.5435968 -1.267341 10.5559436 -1.9886322 10.56866455 C-4.87645453 10.55541287 -6.84961172 10.51081359 -9.28540039 8.87792969 C-10.30859375 7.203125 -10.30859375 7.203125 -10.12109375 4.078125 C-9.85296875 3.129375 -9.58484375 2.180625 -9.30859375 1.203125 C-6.32837563 -0.28698406 -3.26935184 0.01978967 0 0 Z " fill="#232E7B" transform="translate(41.30859375,89.796875)"/>
<path d="M0 0 C3.67123639 0.01977327 4.15668193 0.29756585 7.1875 2.8125 C8.2084375 4.0809375 8.2084375 4.0809375 9.25 5.375 C9.58 5.705 9.91 6.035 10.25 6.375 C10.63387346 11.36535504 10.33713243 14.37316167 7.25 18.375 C3.58476845 20.8184877 0.51029643 21.22207648 -3.75 20.375 C-6.6875 17.9375 -6.6875 17.9375 -8.75 15.375 C-9.08 15.045 -9.41 14.715 -9.75 14.375 C-10.04322866 11.44271337 -10.25004247 9.23008117 -9.75 6.375 C-7.3125 3.4375 -7.3125 3.4375 -4.75 1.375 C-3.75 0.375 -3.75 0.375 0 0 Z " fill="#BDDDEA" transform="translate(179.75,159.625)"/>
<path d="M0 0 C3.95403662 0.26360244 5.65370756 0.86143155 8.75 3.25 C11.19605705 6.91908557 11.58946402 9.98618769 10.75 14.25 C7.58248649 18.16771408 5.44173433 20.05848291 0.4375 20.625 C-3.25 20.25 -3.25 20.25 -6.125 17.875 C-9.39890672 13.83076228 -9.78202646 11.48159355 -9.25 6.25 C-6.8125 3.375 -6.8125 3.375 -4.25 1.25 C-3.25 0.25 -3.25 0.25 0 0 Z " fill="#FB3D80" transform="translate(50.25,310.75)"/>
<path d="M0 0 C3.35957738 0.06634713 4.23790314 0.36702122 7.1875 2.3125 C9.8399214 6.2509439 10.87001018 9.6215886 10.25 14.375 C7.875 17.375 7.875 17.375 5.25 19.375 C4.92 19.705 4.59 20.035 4.25 20.375 C1.31771337 20.66822866 -0.89491883 20.87504247 -3.75 20.375 C-6.6875 17.9375 -6.6875 17.9375 -8.75 15.375 C-9.08 15.045 -9.41 14.715 -9.75 14.375 C-10.04322866 11.44271337 -10.25004247 9.23008117 -9.75 6.375 C-7.3125 3.4375 -7.3125 3.4375 -4.75 1.375 C-3.75 0.375 -3.75 0.375 0 0 Z " fill="#7CB9D6" transform="translate(259.75,149.625)"/>
<path d="M0 0 C2.16015625 0.47265625 2.16015625 0.47265625 5.22265625 2.41015625 C7.82325194 6.52077524 8.2164708 9.73212265 7.16015625 14.47265625 C4.64181152 18.13570313 2.95731814 19.22626076 -1.27734375 20.53515625 C-5.72054309 20.45720538 -7.50129846 19.34535801 -10.83984375 16.47265625 C-12.94841828 13.8140188 -12.84007989 12.48564418 -12.77734375 9.03515625 C-10.91516333 1.95887064 -7.04575111 -0.45873839 0 0 Z " fill="#F7A616" transform="translate(52.83984375,260.52734375)"/>
<path d="M0 0 C0.78503906 0.00773438 1.57007813 0.01546875 2.37890625 0.0234375 C3.55646484 0.01183594 3.55646484 0.01183594 4.7578125 0 C10.62559838 0.02012963 10.62559838 0.02012963 12.87890625 2.2734375 C13.14453125 4.8046875 13.14453125 4.8046875 13.12890625 7.7734375 C13.1340625 8.753125 13.13921875 9.7328125 13.14453125 10.7421875 C12.87890625 13.2734375 12.87890625 13.2734375 10.87890625 15.2734375 C8.00548564 15.47200722 5.25028637 15.55172696 2.37890625 15.5234375 C1.20134766 15.53503906 1.20134766 15.53503906 0 15.546875 C-5.86778588 15.52674537 -5.86778588 15.52674537 -8.12109375 13.2734375 C-8.38671875 10.7421875 -8.38671875 10.7421875 -8.37109375 7.7734375 C-8.37625 6.79375 -8.38140625 5.8140625 -8.38671875 4.8046875 C-7.83108895 -0.49013765 -4.57265297 0.01568663 0 0 Z " fill="#FDBF4E" transform="translate(402.12109375,214.7265625)"/>
<path d="M0 0 C0.85078125 0.00322266 1.7015625 0.00644531 2.578125 0.00976562 C3.46757812 0.01814453 4.35703125 0.02652344 5.2734375 0.03515625 C6.170625 0.03966797 7.0678125 0.04417969 7.9921875 0.04882812 C10.21100398 0.06063034 12.42968768 0.0770947 14.6484375 0.09765625 C14.4628125 1.19078125 14.2771875 2.28390625 14.0859375 3.41015625 C13.3906307 7.03389758 13.3906307 7.03389758 14.6484375 10.09765625 C11.54444772 10.18475914 8.44077202 10.23807934 5.3359375 10.28515625 C4.45486328 10.31029297 3.57378906 10.33542969 2.66601562 10.36132812 C1.39467773 10.37583008 1.39467773 10.37583008 0.09765625 10.390625 C-0.68262939 10.40633545 -1.46291504 10.4220459 -2.2668457 10.43823242 C-4.90738755 10.00685218 -5.79804199 9.25039629 -7.3515625 7.09765625 C-7.1640625 3.97265625 -7.1640625 3.97265625 -6.3515625 1.09765625 C-4.00303722 -0.07660639 -2.61382185 -0.01742548 0 0 Z " fill="#3342AE" transform="translate(397.3515625,144.90234375)"/>
<path d="M0 0 C2.5625 1.5625 2.5625 1.5625 4 4 C3.93957505 7.44422213 3.60093625 9.90417507 1.9375 12.9375 C-1.2764875 14.70000928 -4.49656662 14.74571072 -8 14 C-10.5625 11.875 -10.5625 11.875 -12 9 C-11.93689022 5.84451076 -11.48864121 3.86230802 -9.9375 1.125 C-6.75706022 -0.72170697 -3.51918753 -0.62186446 0 0 Z " fill="#A3CEE2" transform="translate(462,191)"/>
<path d="M0 0 C1.91015625 0.44921875 1.91015625 0.44921875 4.47265625 2.57421875 C6.25212063 6.13314751 6.13291975 7.69941069 4.91015625 11.44921875 C3.84765625 13.32421875 3.84765625 13.32421875 1.91015625 14.44921875 C-1.18272933 14.84196613 -3.13673547 15.0849986 -6.08984375 14.44921875 C-8.85370557 12.03083965 -9.88819952 10.48264541 -10.58984375 6.88671875 C-9.38319042 1.00428374 -5.473377 -0.29668773 0 0 Z " fill="#A3CEE2" transform="translate(404.08984375,190.55078125)"/>
<path d="M0 0 C1.91015625 0.44921875 1.91015625 0.44921875 4.47265625 2.57421875 C6.25212063 6.13314751 6.13291975 7.69941069 4.91015625 11.44921875 C3.84765625 13.32421875 3.84765625 13.32421875 1.91015625 14.44921875 C-1.18272933 14.84196613 -3.13673547 15.0849986 -6.08984375 14.44921875 C-8.85370557 12.03083965 -9.88819952 10.48264541 -10.58984375 6.88671875 C-9.38319042 1.00428374 -5.473377 -0.29668773 0 0 Z " fill="#F7EDF0" transform="translate(118.08984375,104.55078125)"/>
<path d="M0 0 C2.5625 2.125 2.5625 2.125 4 5 C3.93689022 8.15548924 3.48864121 10.13769198 1.9375 12.875 C-1.2524713 14.7272414 -4.48206723 14.74879693 -8 14 C-10.5625 11.875 -10.5625 11.875 -12 9 C-11.93689022 5.84451076 -11.48864121 3.86230802 -9.9375 1.125 C-6.7475287 -0.7272414 -3.51793277 -0.74879693 0 0 Z " fill="#F9F190" transform="translate(434,191)"/>
<path d="M0 0 C1.24652344 -0.02578125 2.49304688 -0.0515625 3.77734375 -0.078125 C7.0625 0.25 7.0625 0.25 9.015625 1.5703125 C10.0625 3.25 10.0625 3.25 9.875 6.375 C9.606875 7.32375 9.33875 8.2725 9.0625 9.25 C6.10861864 10.72694068 3.41088118 10.45930797 0.125 10.5 C-1.74478516 10.53867188 -1.74478516 10.53867188 -3.65234375 10.578125 C-6.9375 10.25 -6.9375 10.25 -8.890625 8.9296875 C-9.9375 7.25 -9.9375 7.25 -9.75 4.125 C-9.481875 3.17625 -9.21375 2.2275 -8.9375 1.25 C-5.98361864 -0.22694068 -3.28588118 0.04069203 0 0 Z " fill="#A3CEE1" transform="translate(419.9375,144.75)"/>
<path d="M0 0 C1.24652344 -0.02578125 2.49304688 -0.0515625 3.77734375 -0.078125 C7.0625 0.25 7.0625 0.25 9.015625 1.5703125 C10.0625 3.25 10.0625 3.25 9.875 6.375 C9.606875 7.32375 9.33875 8.2725 9.0625 9.25 C6.10861864 10.72694068 3.41088118 10.45930797 0.125 10.5 C-1.74478516 10.53867188 -1.74478516 10.53867188 -3.65234375 10.578125 C-6.9375 10.25 -6.9375 10.25 -8.890625 8.9296875 C-9.9375 7.25 -9.9375 7.25 -9.75 4.125 C-9.481875 3.17625 -9.21375 2.2275 -8.9375 1.25 C-5.98361864 -0.22694068 -3.28588118 0.04069203 0 0 Z " fill="#A3CEE1" transform="translate(449.9375,124.75)"/>
<path d="M0 0 C1.24652344 -0.02578125 2.49304688 -0.0515625 3.77734375 -0.078125 C7.0625 0.25 7.0625 0.25 9.015625 1.5703125 C10.0625 3.25 10.0625 3.25 9.875 6.375 C9.606875 7.32375 9.33875 8.2725 9.0625 9.25 C6.10861864 10.72694068 3.41088118 10.45930797 0.125 10.5 C-1.74478516 10.53867188 -1.74478516 10.53867188 -3.65234375 10.578125 C-6.9375 10.25 -6.9375 10.25 -8.890625 8.9296875 C-9.9375 7.25 -9.9375 7.25 -9.75 4.125 C-9.481875 3.17625 -9.21375 2.2275 -8.9375 1.25 C-5.98361864 -0.22694068 -3.28588118 0.04069203 0 0 Z " fill="#A3CEE1" transform="translate(409.9375,104.75)"/>
<path d="M0 0 C2.5625 2.125 2.5625 2.125 4 5 C3.93689022 8.15548924 3.48864121 10.13769198 1.9375 12.875 C-1.2524713 14.7272414 -4.48206723 14.74879693 -8 14 C-10.5625 11.875 -10.5625 11.875 -12 9 C-11.93689022 5.84451076 -11.48864121 3.86230802 -9.9375 1.125 C-6.7475287 -0.7272414 -3.51793277 -0.74879693 0 0 Z " fill="#BBD9E7" transform="translate(148,105)"/>
<path d="M0 0 C4.99754367 -0.29397316 7.98418348 -0.0979156 12 3 C14.67927341 7.01891012 14.15601248 9.24161923 14 14 C8.01345291 14.59865471 8.01345291 14.59865471 5.234375 12.95703125 C3.06489524 11.16141815 1.26928036 9.53856072 0 7 C-0.04022391 4.6670134 -0.04320247 2.33293334 0 0 Z " fill="#F84FB4" transform="translate(47,311)"/>
<path d="M0 0 C7.09774436 -0.60150376 7.09774436 -0.60150376 11 2 C13.68652977 6.02979465 13.40344574 8.23934031 13 13 C5.90225564 13.60150376 5.90225564 13.60150376 2 11 C-0.68652977 6.97020535 -0.40344574 4.76065969 0 0 Z " fill="#FDBF4F" transform="translate(47,261)"/>
<path d="M0 0 C1.21816406 0.03480469 1.21816406 0.03480469 2.4609375 0.0703125 C3.68683594 0.09738281 3.68683594 0.09738281 4.9375 0.125 C5.87722656 0.15980469 5.87722656 0.15980469 6.8359375 0.1953125 C5.8459375 0.6903125 5.8459375 0.6903125 4.8359375 1.1953125 C4.80888021 2.96606167 4.78951555 4.73692961 4.7734375 6.5078125 C4.76183594 7.49394531 4.75023437 8.48007813 4.73828125 9.49609375 C4.71263888 12.29495099 4.71263888 12.29495099 5.8359375 15.1953125 C-0.21875 15.390625 -0.21875 15.390625 -2.1640625 15.1953125 C-4.1640625 13.1953125 -4.1640625 13.1953125 -4.4296875 10.6640625 C-4.42453125 9.684375 -4.419375 8.7046875 -4.4140625 7.6953125 C-4.41921875 6.715625 -4.424375 5.7359375 -4.4296875 4.7265625 C-4.08801622 1.4706362 -3.3476828 0.30213744 0 0 Z " fill="#FCA80F" transform="translate(398.1640625,214.8046875)"/>
<path d="M0 0 C2.01822917 0.06510417 4.03645833 0.13020833 6.0546875 0.1953125 C5.7246875 0.8553125 5.3946875 1.5153125 5.0546875 2.1953125 C4.95860142 4.02660021 4.92486171 5.86151209 4.9296875 7.6953125 C4.92710937 8.675 4.92453125 9.6546875 4.921875 10.6640625 C4.88528697 13.18962304 4.88528697 13.18962304 6.0546875 15.1953125 C0 15.390625 0 15.390625 -1.9453125 15.1953125 C-3.9453125 13.1953125 -3.9453125 13.1953125 -4.2109375 10.6640625 C-4.20578125 9.684375 -4.200625 8.7046875 -4.1953125 7.6953125 C-4.20046875 6.715625 -4.205625 5.7359375 -4.2109375 4.7265625 C-3.88685268 1.63822478 -3.22884414 0.32418114 0 0 Z " fill="#FCC051" transform="translate(425.9453125,214.8046875)"/>
<path d="M0 0 C1.22589844 0.01353516 1.22589844 0.01353516 2.4765625 0.02734375 C3.41628906 0.04474609 3.41628906 0.04474609 4.375 0.0625 C4.189375 1.155625 4.00375 2.24875 3.8125 3.375 C3.1171932 6.99874133 3.1171932 6.99874133 4.375 10.0625 C2.93844146 10.14381463 1.5005517 10.20183559 0.0625 10.25 C-1.13826172 10.30220703 -1.13826172 10.30220703 -2.36328125 10.35546875 C-4.625 10.0625 -4.625 10.0625 -6.4296875 8.74609375 C-7.625 7.0625 -7.625 7.0625 -7.4375 3.9375 C-7.169375 2.98875 -6.90125 2.04 -6.625 1.0625 C-4.21954362 -0.14022819 -2.67503047 -0.03821472 0 0 Z " fill="#3443AF" transform="translate(397.625,104.9375)"/>
<path d="M0 0 C1.43655854 -0.08131463 2.8744483 -0.13933559 4.3125 -0.1875 C5.51326172 -0.23970703 5.51326172 -0.23970703 6.73828125 -0.29296875 C9 0 9 0 10.8046875 1.31640625 C12 3 12 3 11.8125 6.125 C11.544375 7.07375 11.27625 8.0225 11 9 C8.59454362 10.20272819 7.05003047 10.10071472 4.375 10.0625 C3.14910156 10.04896484 3.14910156 10.04896484 1.8984375 10.03515625 C0.95871094 10.01775391 0.95871094 10.01775391 0 10 C0.185625 8.906875 0.37125 7.81375 0.5625 6.6875 C1.2578068 3.06375867 1.2578068 3.06375867 0 0 Z " fill="#3443AE" transform="translate(458,125)"/>
<path d="M0 0 C1.32278481 5.41139241 1.32278481 5.41139241 -0.0625 7.9375 C-2.91093248 9.49954362 -4.93504903 8.74921024 -8 8 C-9.32278481 2.58860759 -9.32278481 2.58860759 -7.9375 0.0625 C-5.08906752 -1.49954362 -3.06495097 -0.74921024 0 0 Z " fill="#BCDDE9" transform="translate(189,281)"/>
<path d="M0 0 C1.32278481 5.41139241 1.32278481 5.41139241 -0.0625 7.9375 C-2.91093248 9.49954362 -4.93504903 8.74921024 -8 8 C-9.32278481 2.58860759 -9.32278481 2.58860759 -7.9375 0.0625 C-5.08906752 -1.49954362 -3.06495097 -0.74921024 0 0 Z " fill="#7AB7D4" transform="translate(139,251)"/>
<path d="M0 0 C1.32278481 5.41139241 1.32278481 5.41139241 -0.0625 7.9375 C-2.91093248 9.49954362 -4.93504903 8.74921024 -8 8 C-9.32278481 2.58860759 -9.32278481 2.58860759 -7.9375 0.0625 C-5.08906752 -1.49954362 -3.06495097 -0.74921024 0 0 Z " fill="#7AB7D4" transform="translate(299,161)"/>
</svg>
