<?xml version="1.0" encoding="UTF-8"?>
<svg version="1.1" xmlns="http://www.w3.org/2000/svg" width="512" height="512">
<path d="M0 0 C1.01823853 0.00215515 2.03647705 0.0043103 3.08557129 0.00653076 C17.70394496 0.05621405 32.01132916 0.34890333 46.375 3.3125 C47.39819336 3.51649414 48.42138672 3.72048828 49.47558594 3.93066406 C70.05959461 8.1181719 89.51619001 14.14972357 108.56640625 23.00390625 C109.30029068 23.3428038 110.03417511 23.68170135 110.79029846 24.03086853 C113.375 25.3125 113.375 25.3125 115.83595276 26.8258667 C125.00831093 32.19184608 133.10407814 32.13008193 143.3984375 32.01171875 C145.11570118 32.01536045 146.8329608 32.02207464 148.55020142 32.0316925 C153.03610294 32.0506262 157.52122284 32.03684191 162.00708008 32.01318359 C169.20571096 31.97858403 176.40415616 31.98463845 183.60280228 32.0093174 C186.10570216 32.01167844 188.60787837 31.99393659 191.11068726 31.9740448 C192.64849858 31.97379663 194.18631018 31.97419443 195.72412109 31.9753418 C196.4130545 31.96448044 197.10198792 31.95361908 197.8117981 31.94242859 C203.05735232 31.97377164 207.10849201 33.2451863 211.01953125 36.8125 C214.87659433 41.76605258 215.49558191 44.77170598 215.40576172 50.9609375 C215.38965002 52.3548132 215.37395334 53.74869374 215.35861206 55.14257812 C215.34907375 55.88193604 215.33953545 56.62129395 215.3297081 57.38305664 C215.27775945 62.16762346 215.28391209 66.95256213 215.27834892 71.73736572 C215.27019575 75.91979583 215.24305473 80.10034475 215.17285156 84.28222656 C214.57392651 110.52241832 214.57392651 110.52241832 226.07397461 133.58538818 C227.86257514 135.95975623 229.18648679 138.48548903 230.50390625 141.14453125 C230.91366699 141.96638916 231.32342773 142.78824707 231.74560547 143.63500977 C241.85979734 164.7645966 249.1414822 187.2691909 253.375 210.3125 C253.53581055 211.11848633 253.69662109 211.92447266 253.86230469 212.75488281 C259.32172136 240.88494934 259.00552421 274.24587977 253.375 302.3125 C253.07698486 303.80040039 253.07698486 303.80040039 252.77294922 305.31835938 C242.72024904 353.6616816 220.68862232 397.68577852 186.375 433.3125 C185.74287598 433.97185547 185.11075195 434.63121094 184.45947266 435.31054688 C175.31502521 444.79880305 166.01765991 453.5387044 155.375 461.3125 C154.22394983 462.17056152 153.07290823 463.02863451 151.921875 463.88671875 C143.73224019 469.92427396 135.22961724 475.30707302 126.375 480.3125 C125.66778809 480.7146875 124.96057617 481.116875 124.23193359 481.53125 C98.02919713 496.28361537 69.08869203 505.81885806 39.375 510.3125 C38.25254883 510.48910156 37.13009766 510.66570312 35.97363281 510.84765625 C24.36052257 512.5045586 12.84320055 512.71123513 1.125 512.6875 C-0.39302216 512.68668427 -0.39302216 512.68668427 -1.94171143 512.68585205 C-18.47030572 512.64511956 -34.40413999 511.74174222 -50.625 508.3125 C-51.66688477 508.09287598 -52.70876953 507.87325195 -53.78222656 507.64697266 C-95.03449434 498.64890931 -133.61111405 479.92831216 -165.625 452.3125 C-166.37007813 451.67828125 -167.11515625 451.0440625 -167.8828125 450.390625 C-181.38779833 438.57948485 -194.05918743 425.82889772 -204.625 411.3125 C-205.48149066 410.16255169 -206.33826433 409.01281411 -207.1953125 407.86328125 C-213.23534209 399.67315742 -218.61867614 391.16870382 -223.625 382.3125 C-224.0271875 381.60528809 -224.429375 380.89807617 -224.84375 380.16943359 C-239.59720851 353.96475553 -249.12670334 325.02703614 -253.625 295.3125 C-253.80232666 294.19367432 -253.97965332 293.07484863 -254.16235352 291.92211914 C-255.84376341 280.20014053 -255.98234341 268.57751024 -255.9375 256.75 C-255.93426727 255.21939438 -255.93426727 255.21939438 -255.93096924 253.65786743 C-255.88133352 239.03039476 -255.63419712 224.67986162 -252.625 210.3125 C-252.42632324 209.33764648 -252.22764648 208.36279297 -252.02294922 207.35839844 C-246.23824897 179.70449809 -236.87961365 141.10398141 -217.07357788 119.63046265 C-215.06692103 116.41948195 -215.24633714 114.02458008 -215.24023438 110.25244141 C-215.2348616 109.54948441 -215.22948883 108.8465274 -215.22395325 108.12226868 C-215.21418767 106.59943003 -215.21122743 105.07653582 -215.21430969 103.55366898 C-215.2187942 101.14027702 -215.20476961 98.72761588 -215.18591309 96.31430054 C-215.14914929 91.18871225 -215.13542808 86.0632007 -215.125 80.9375 C-215.11290888 75.00325998 -215.09129247 69.06937614 -215.04499817 63.13529587 C-215.03145958 60.76328166 -215.03559334 58.39172131 -215.04040527 56.01968384 C-215.03106022 54.55689931 -215.02089028 53.09411974 -215.00976562 51.63134766 C-215.00771118 50.35989899 -215.00565674 49.08845032 -215.00354004 47.7784729 C-214.51997246 43.35085111 -213.14066738 39.97420825 -210.125 36.66796875 C-205.05300238 32.71867894 -201.54204843 32.17539498 -195.30224609 32.25 C-193.76028595 32.25944886 -192.21832417 32.26863216 -190.67636108 32.27758789 C-189.85815258 32.28388214 -189.03994408 32.29017639 -188.19694138 32.29666138 C-183.8344281 32.32377383 -179.47194902 32.31374243 -175.109375 32.30859375 C-169.57086905 32.30241885 -164.03337847 32.3072202 -158.49511719 32.36376953 C-154.0106515 32.40856262 -149.52805022 32.40829132 -145.0434761 32.37963867 C-143.34933446 32.37659571 -141.65507863 32.38908823 -139.96119308 32.41870117 C-127.43025275 32.6253858 -119.04728835 29.91241135 -108.38761425 23.34976864 C-104.34254609 20.96931452 -99.93965447 19.34576735 -95.5625 17.6875 C-94.60625732 17.32052002 -93.65001465 16.95354004 -92.66479492 16.57543945 C-78.51330066 11.26416754 -63.99698674 7.03136927 -49.1875 4 C-48.46860596 3.85264404 -47.74971191 3.70528809 -47.0090332 3.5534668 C-31.36274321 0.57960898 -15.88931915 -0.06049808 0 0 Z " fill="#5766CD" transform="translate(255.625,-0.3125)"/>
<path d="M0 0 C0.33 0 0.66 0 1 0 C1.00238835 1.00460077 1.00477671 2.00920155 1.00723743 3.04424477 C1.06601525 27.48116797 1.14188746 51.91799245 1.23571491 76.3548069 C1.28069273 88.1722385 1.32010285 99.98963984 1.34643555 111.80712891 C1.36939949 122.1064797 1.40277963 132.40573485 1.44870156 142.70500982 C1.47265532 148.15909395 1.49137002 153.61308323 1.49761391 159.06721878 C1.50365496 164.20048036 1.52361956 169.3334992 1.55427551 174.46667099 C1.56307141 176.35082566 1.56677511 178.23501203 1.56500816 180.1191864 C1.563357 182.69225693 1.58004103 185.26458608 1.60127258 187.83755493 C1.59642501 188.58270375 1.59157743 189.32785257 1.58658296 190.09558165 C1.65079241 194.81250523 2.28579506 198.11179216 5 202 C9.86982609 205.52759642 13.16338001 206.50085764 19.25767517 206.51898193 C19.95377649 206.52648319 20.64987782 206.53398444 21.36707312 206.541713 C23.68114162 206.56188502 25.99422044 206.55390884 28.30834961 206.54589844 C29.97439537 206.55463922 31.64043275 206.56512676 33.30645752 206.57722473 C37.81629679 206.60504366 42.32586158 206.60849032 46.83577418 206.60750484 C51.5537101 206.61063748 56.27152304 206.63626299 60.98939514 206.65948486 C69.91752576 206.70002154 78.84558339 206.7203801 87.77379185 206.73345876 C97.94069437 206.74933669 108.10747282 206.78775568 118.27430332 206.82805204 C139.18282793 206.91041908 160.09134668 206.96453117 181 207 C181.44279297 207.80419876 181.88558594 208.60839752 182.34179688 209.43696594 C184.02612614 212.49522141 185.71110361 215.55311803 187.39648438 218.61079407 C188.11808803 219.92024727 188.83945215 221.22983251 189.56054688 222.53956604 C196.27019774 234.72570001 203.09195315 246.84554063 209.96875 258.93823242 C211 261 211 261 211 263 C213.64 263 216.28 263 219 263 C219.26772217 262.29472168 219.53544434 261.58944336 219.8112793 260.86279297 C221.05628988 257.86443723 222.48820076 255.05788393 224.01953125 252.1953125 C224.62394043 251.06456299 225.22834961 249.93381348 225.85107422 248.76879883 C226.5046124 247.5540537 227.15842684 246.33945716 227.8125 245.125 C228.14203674 244.51127533 228.47157349 243.89755066 228.81109619 243.26522827 C233.57512652 234.3962067 238.42392395 225.57873039 243.375 216.8125 C243.92776611 215.83361816 244.48053223 214.85473633 245.05004883 213.84619141 C248.86580743 207.13419257 248.86580743 207.13419257 250 206 C252.17822245 205.89732751 254.35983001 205.86644164 256.54046631 205.86196899 C257.23199681 205.85914771 257.9235273 205.85632643 258.63601327 205.85341966 C260.97056944 205.84503701 263.30507841 205.84373229 265.63964844 205.84228516 C267.30654027 205.83761956 268.97343083 205.83247643 270.64031982 205.82688904 C274.23894889 205.81558698 277.83756956 205.80716296 281.43621063 205.80076981 C287.12533171 205.79011326 292.81439281 205.76987429 298.503479 205.74765015 C314.68425752 205.68564839 330.86503309 205.63171295 347.04589844 205.59863281 C355.97553185 205.58029656 364.90506543 205.55137154 373.83462548 205.5106281 C378.56264516 205.48953814 383.2905389 205.47409806 388.01860809 205.47182083 C392.46735585 205.46967576 396.9158416 205.45382081 401.36450958 205.42743111 C402.99752864 205.42023077 404.63057943 205.4181407 406.26361084 205.42153358 C408.49325096 205.42542602 410.72205335 205.41098206 412.95159912 205.39199829 C414.1993298 205.38868814 415.44706047 205.385378 416.73260117 205.38196754 C420.38803823 204.95463731 422.16505023 204.33472779 425 202 C428.0717315 197.39931426 428.43376826 193.22388463 428.39872742 187.83755493 C428.40537424 187.03205212 428.41202107 186.22654931 428.41886932 185.39663732 C428.43747245 182.70651527 428.43489586 180.01683905 428.43237305 177.32666016 C428.44139185 175.39475884 428.45171936 173.46286326 428.46325684 171.53097534 C428.49083904 166.2918132 428.50011305 161.0527596 428.50611091 155.81353426 C428.51549135 150.33620685 428.5416945 144.85896062 428.56611633 139.38168335 C428.60979402 129.01210403 428.63833323 118.64254046 428.66143972 108.27289712 C428.68848454 96.46640629 428.73239653 84.65999707 428.77772844 72.8535645 C428.87059293 48.56908724 428.94226546 24.28458439 429 0 C429.66 0 430.32 0 431 0 C432.06225586 1.37915039 432.06225586 1.37915039 433.21484375 3.34765625 C433.64804932 4.08540283 434.08125488 4.82314941 434.52758789 5.58325195 C435.22549438 6.81047974 435.22549438 6.81047974 435.9375 8.0625 C436.42404053 8.91739014 436.91058105 9.77228027 437.41186523 10.65307617 C452.07933101 36.80537762 462.57328034 64.46201661 468 94 C468.16081055 94.80598633 468.32162109 95.61197266 468.48730469 96.44238281 C473.94672136 124.57244934 473.63052421 157.93337977 468 186 C467.80132324 186.99193359 467.60264648 187.98386719 467.39794922 189.00585938 C457.34524904 237.3491816 435.31362232 281.37327852 401 317 C400.36787598 317.65935547 399.73575195 318.31871094 399.08447266 318.99804688 C389.94002521 328.48630305 380.64265991 337.2262044 370 345 C368.84894983 345.85806152 367.69790823 346.71613451 366.546875 347.57421875 C358.35724019 353.61177396 349.85461724 358.99457302 341 364 C340.29278809 364.4021875 339.58557617 364.804375 338.85693359 365.21875 C312.65419713 379.97111537 283.71369203 389.50635806 254 394 C252.87754883 394.17660156 251.75509766 394.35320312 250.59863281 394.53515625 C238.98552257 396.1920586 227.46820055 396.39873513 215.75 396.375 C214.23197784 396.37418427 214.23197784 396.37418427 212.68328857 396.37335205 C196.15469428 396.33261956 180.22086001 395.42924222 164 392 C162.95811523 391.78037598 161.91623047 391.56075195 160.84277344 391.33447266 C119.59050566 382.33640931 81.01388595 363.61581216 49 336 C48.25492187 335.36578125 47.50984375 334.7315625 46.7421875 334.078125 C33.23720167 322.26698485 20.56581257 309.51639772 10 295 C9.14350934 293.85005169 8.28673567 292.70031411 7.4296875 291.55078125 C1.38965791 283.36065742 -3.99367614 274.85620382 -9 266 C-9.4021875 265.29278809 -9.804375 264.58557617 -10.21875 263.85693359 C-24.97220851 237.65225553 -34.50170334 208.71453614 -39 179 C-39.17732666 177.88117432 -39.35465332 176.76234863 -39.53735352 175.60961914 C-41.21876341 163.88764053 -41.35734341 152.26501024 -41.3125 140.4375 C-41.30926727 138.90689438 -41.30926727 138.90689438 -41.30596924 137.34536743 C-41.25633352 122.71789476 -41.00919712 108.36736162 -38 94 C-37.80132324 93.02514648 -37.60264648 92.05029297 -37.39794922 91.04589844 C-31.16479989 61.24817634 -20.91994868 23.27050471 0 0 Z " fill="#19305C" transform="translate(41,116)"/>
<path d="M0 0 C0.33 0 0.66 0 1 0 C1.00238835 1.00460077 1.00477671 2.00920155 1.00723743 3.04424477 C1.06601525 27.48116797 1.14188746 51.91799245 1.23571491 76.3548069 C1.28069273 88.1722385 1.32010285 99.98963984 1.34643555 111.80712891 C1.36939949 122.1064797 1.40277963 132.40573485 1.44870156 142.70500982 C1.47265532 148.15909395 1.49137002 153.61308323 1.49761391 159.06721878 C1.50365496 164.20048036 1.52361956 169.3334992 1.55427551 174.46667099 C1.56307141 176.35082566 1.56677511 178.23501203 1.56500816 180.1191864 C1.563357 182.69225693 1.58004103 185.26458608 1.60127258 187.83755493 C1.59642501 188.58270375 1.59157743 189.32785257 1.58658296 190.09558165 C1.65053376 194.79350476 2.49478905 198.02139615 5 202 C10.90666456 206.68941398 16.21163838 206.50887249 23.54394531 206.32373047 C24.68797318 206.31158005 25.83200104 206.29942963 27.01069641 206.28691101 C29.48797011 206.25947116 31.96516165 206.22359111 34.44220734 206.18020248 C38.36938273 206.11651845 42.29545418 206.08630199 46.2230835 206.06668091 C57.38705433 206.00992746 68.54984432 205.92784453 79.71240234 205.73632812 C86.54850207 205.61942031 93.38218639 205.57685483 100.21926117 205.57529068 C102.81730873 205.56164032 105.41535707 205.52247565 108.01261139 205.45684433 C129.41629632 204.93064823 129.41629632 204.93064823 134.97898865 210.05937195 C137.90838863 213.42422365 139.92934024 217.06245293 142 221 C143.14844079 222.50179469 144.32685575 223.98263459 145.56640625 225.41015625 C146.06591797 226.01988281 146.56542969 226.62960937 147.08007812 227.2578125 C147.56927734 227.85335937 148.05847656 228.44890625 148.5625 229.0625 C153.28995484 234.84733822 157.87672623 240.71492661 162.40625 246.65625 C165.3621134 250.49887241 168.43117322 254.24743114 171.5 258 C176.27243701 263.83822113 180.93022436 269.74435697 185.5 275.7421875 C187.33128394 278.1409324 189.18980335 280.51625633 191.0625 282.8828125 C191.82796143 283.85033447 191.82796143 283.85033447 192.60888672 284.83740234 C193.60332746 286.09190295 194.5996834 287.34488827 195.59814453 288.59619141 C199 292.8907411 199 292.8907411 199 294 C198.14222458 294.01030746 197.28444916 294.02061493 196.40068054 294.03123474 C188.3223837 294.12915653 180.24416092 294.23166345 172.16598797 294.33933926 C168.0127852 294.39453599 163.85957535 294.44795082 159.70629883 294.49731445 C155.6992001 294.54500591 151.69218686 294.59735049 147.6851902 294.65294075 C146.1553847 294.67334263 144.62555577 294.69205929 143.09570885 294.70907402 C140.95523988 294.73316605 138.81493207 294.76321392 136.67456055 294.79467773 C135.45544479 294.81022202 134.23632904 294.8257663 132.98027039 294.84178162 C129.94558057 294.87064557 129.94558057 294.87064557 127 296 C125.7937748 299.61867559 125.89183082 302.92506251 125.9375 306.6875 C125.94426758 307.7403418 125.94426758 307.7403418 125.95117188 308.81445312 C125.96293073 310.54300538 125.98086546 312.27151365 126 314 C125.39003174 314.00410889 124.78006348 314.00821777 124.15161133 314.01245117 C121.37094208 314.04547575 118.59243843 314.11612568 115.8125 314.1875 C114.85279297 314.19330078 113.89308594 314.19910156 112.90429688 314.20507812 C111.50727539 314.24858398 111.50727539 314.24858398 110.08203125 314.29296875 C109.22843018 314.3086792 108.3748291 314.32438965 107.49536133 314.34057617 C103.63775643 315.35998629 102.30527388 316.73217316 100 320 C99.25858756 323.73377279 99.27869201 327.40969128 99.29296875 331.20703125 C99.27028679 332.82782845 99.27028679 332.82782845 99.24714661 334.48136902 C99.20423242 337.92529102 99.19542756 341.36833713 99.1875 344.8125 C99.16435875 347.15041397 99.1389942 349.48830707 99.11132812 351.82617188 C99.04843903 357.55078952 99.01353435 363.27506438 99 369 C90.4652638 364.89973696 82.33710318 360.60084976 74.5 355.25 C73.60418213 354.64438232 72.70836426 354.03876465 71.78540039 353.41479492 C59.70479225 345.16761312 48.53904013 336.15060122 38 326 C37.34064453 325.36787598 36.68128906 324.73575195 36.00195312 324.08447266 C26.51369695 314.94002521 17.7737956 305.64265991 10 295 C9.14193848 293.84894983 8.28386549 292.69790823 7.42578125 291.546875 C1.38822604 283.35724019 -3.99457302 274.85461724 -9 266 C-9.4021875 265.29278809 -9.804375 264.58557617 -10.21875 263.85693359 C-24.97220851 237.65225553 -34.50170334 208.71453614 -39 179 C-39.17732666 177.88117432 -39.35465332 176.76234863 -39.53735352 175.60961914 C-41.21876341 163.88764053 -41.35734341 152.26501024 -41.3125 140.4375 C-41.30926727 138.90689438 -41.30926727 138.90689438 -41.30596924 137.34536743 C-41.25633352 122.71789476 -41.00919712 108.36736162 -38 94 C-37.80132324 93.02514648 -37.60264648 92.05029297 -37.39794922 91.04589844 C-31.16479989 61.24817634 -20.91994868 23.27050471 0 0 Z " fill="#19305C" transform="translate(41,116)"/>
<path d="M0 0 C0.44279297 -0.4846875 0.88558594 -0.969375 1.34179688 -1.46875 C3.3729941 -3.6669239 5.43554298 -5.83305221 7.5 -8 C8.19609375 -8.763125 8.8921875 -9.52625 9.609375 -10.3125 C14.82198887 -15.71817364 14.82198887 -15.71817364 18.24609375 -16.53735352 C21.12320836 -16.57604889 23.44324369 -16.29577679 26 -14.9375 C27.7025482 -11.63881286 27.60203783 -9.67243079 27 -6 C24.40496459 -2.03064677 20.9257561 1.12479221 17.49609375 4.3671875 C16.67238281 5.15351562 15.84867188 5.93984375 15 6.75 C13.824375 7.82507813 13.824375 7.82507813 12.625 8.921875 C10.79115342 10.81388537 10.79115342 10.81388537 11.046875 12.9296875 C12.25544237 15.55485433 13.70886861 17.92929149 15.25 20.375 C22.88547049 33.23143902 26.40414437 46.94778331 26.3125 61.8125 C26.30686035 62.77881348 26.3012207 63.74512695 26.29541016 64.74072266 C26.16948743 72.17515049 25.34513972 78.91168295 23 86 C22.79600586 86.63099609 22.59201172 87.26199219 22.38183594 87.91210938 C17.81830767 101.79533219 11.14481048 112.40067292 1 123 C0.13761719 123.95712891 0.13761719 123.95712891 -0.7421875 124.93359375 C-13.93722321 139.10720866 -35.25149198 147.27631789 -54.31640625 148.2578125 C-75.09395726 148.94632224 -91.34693295 142.69042629 -109 132 C-114.05406167 136.15556181 -118.70185183 140.62247991 -123.2668457 145.30395508 C-126.41336174 148.50846113 -127.84080255 149.87120028 -132.375 150.375 C-136 150 -136 150 -138.5 147.875 C-140.37987111 144.2719137 -140.04353247 142.87352887 -139 139 C-137.32592773 136.75830078 -137.32592773 136.75830078 -135.18359375 134.6953125 C-134.41982422 133.94765625 -133.65605469 133.2 -132.86914062 132.4296875 C-132.06669922 131.66914063 -131.26425781 130.90859375 -130.4375 130.125 C-129.22803711 128.949375 -129.22803711 128.949375 -127.99414062 127.75 C-126.0069052 125.82155852 -124.00895569 123.90576135 -122 122 C-123.56912407 118.74203668 -125.39842119 116.10640787 -127.625 113.25 C-141.47260502 94.35773013 -146.72626999 71.95903171 -143.69970703 48.69140625 C-139.69890879 26.47041221 -127.46726447 6.83830717 -109.375 -6.625 C-73.22946884 -30.514937 -33.71337592 -25.56895619 0 0 Z " fill="#B8A0D2" transform="translate(244,120)"/>
<path d="M0 0 C0.68748666 -0.00568326 1.37497332 -0.01136651 2.0832929 -0.01722199 C4.38072951 -0.0301134 6.67639994 -0.00734868 8.97373962 0.0153656 C10.62314218 0.01350129 12.2725435 0.0094641 13.92193604 0.00341797 C18.3972141 -0.00655849 22.87185902 0.01461576 27.34704518 0.04189801 C32.02968073 0.06572526 36.71230365 0.06278304 41.39498901 0.0632019 C49.2576113 0.06783008 57.11999145 0.0914736 64.98252869 0.12767029 C74.07516795 0.16941833 83.16758921 0.186986 92.26031882 0.19029003 C101.93841349 0.19388867 111.61642962 0.21276157 121.29449153 0.23741031 C124.0845631 0.24364086 126.8746287 0.24727595 129.66470528 0.25044441 C134.04697987 0.25634259 138.42909849 0.272649 142.81130791 0.29704857 C144.42056447 0.30449258 146.02984067 0.30856076 147.63911438 0.30902863 C149.8337081 0.31028531 152.02788985 0.32382218 154.22241211 0.34057617 C155.45112062 0.34522668 156.67982912 0.34987719 157.94577122 0.35466862 C160.94480937 0.60610345 162.59243702 0.9228209 165.04771423 2.61473083 C167.53890376 6.35151513 167.25423684 8.35924903 167.17271423 12.80223083 C167.15466736 14.07453552 167.13662048 15.34684021 167.11802673 16.65769958 C167.09482361 17.6335199 167.07162048 18.60934021 167.04771423 19.61473083 C167.62738953 19.62931335 168.20706482 19.64389587 168.80430603 19.65892029 C171.44858976 19.73371612 174.09165425 19.83026981 176.73521423 19.92723083 C177.64722595 19.94978943 178.55923767 19.97234802 179.49888611 19.99559021 C184.41927283 20.19240568 188.10639701 20.34196051 192.04771423 23.61473083 C194.20961276 26.85757862 194.29398178 27.71569305 194.27476501 31.45335388 C194.27453842 32.92453926 194.27453842 32.92453926 194.27430725 34.42544556 C194.26398468 35.48177689 194.25366211 36.53810822 194.24302673 37.62644958 C194.24019684 38.70981094 194.23736694 39.7931723 194.23445129 40.90936279 C194.22324515 44.37376391 194.19813958 47.83790769 194.17271423 51.30223083 C194.162685 53.64923231 194.15355906 55.99623784 194.14537048 58.34324646 C194.1233044 64.10049591 194.0898225 69.85759499 194.04771423 75.61473083 C184.88045779 80.34232454 175.80006336 84.82026613 166.04771423 88.23973083 C164.98721863 88.61380066 163.92672302 88.98787048 162.83409119 89.37327576 C151.73098731 93.19759601 140.5478221 96.24754469 129.04771423 98.61473083 C127.54603699 98.93014832 127.54603699 98.93014832 126.01402283 99.25193787 C94.29408134 105.60397308 58.67396483 105.30081737 27.04771423 98.61473083 C26.00582947 98.39510681 24.9639447 98.17548279 23.89048767 97.94920349 C-26.63957599 86.92744061 -26.63957599 86.92744061 -37.95228577 75.61473083 C-38.06625204 74.10713848 -38.11184423 72.5942975 -38.12928772 71.08250427 C-38.14212296 70.11770142 -38.15495819 69.15289856 -38.16818237 68.15885925 C-38.17556931 67.10789062 -38.18295624 66.056922 -38.19056702 64.97410583 C-38.19863876 63.89977295 -38.20671051 62.82544006 -38.21502686 61.71855164 C-38.22888817 59.43868127 -38.23960111 57.15878998 -38.24745178 54.87889099 C-38.26464484 51.39330047 -38.30851134 47.90866291 -38.35267639 44.42332458 C-38.36280449 42.211092 -38.37132022 39.99885132 -38.37806702 37.78660583 C-38.3955751 36.74373413 -38.41308319 35.70086243 -38.43112183 34.62638855 C-38.40939768 27.3685048 -38.40939768 27.3685048 -36.05067444 23.47898865 C-33.04952053 20.81269299 -31.30470364 20.47211644 -27.38197327 20.29832458 C-26.48607483 20.25643005 -25.59017639 20.21453552 -24.66712952 20.17137146 C-23.26140686 20.11239685 -23.26140686 20.11239685 -21.82728577 20.05223083 C-20.88240295 20.00904724 -19.93752014 19.96586365 -18.96400452 19.92137146 C-16.62691485 19.81514011 -14.28971746 19.71309907 -11.95228577 19.61473083 C-12.01029358 18.66211365 -12.06830139 17.70949646 -12.12806702 16.72801208 C-12.1731842 15.47375427 -12.21830139 14.21949646 -12.26478577 12.92723083 C-12.32279358 11.68586365 -12.38080139 10.44449646 -12.44056702 9.16551208 C-11.43833218 1.87726036 -6.8087829 -0.01114218 0 0 Z " fill="#1FB6A0" transform="translate(177.95228576660156,409.38526916503906)"/>
<path d="M0 0 C2.42422833 1.9258678 4.70955852 3.91315332 7 6 C5.61370756 9.12324544 4.00488429 11.24190707 1.5859375 13.64453125 C0.90660156 14.32193359 0.22726563 14.99933594 -0.47265625 15.69726562 C-1.53806641 16.74430664 -1.53806641 16.74430664 -2.625 17.8125 C-3.31207031 18.49892578 -3.99914062 19.18535156 -4.70703125 19.89257812 C-7.9455299 23.10373485 -11.22660056 26.20489809 -14.68286133 29.18066406 C-19.41913693 33.30577086 -23.85096434 37.7070938 -28.28515625 42.15234375 C-29.14507675 43.01130753 -30.00499725 43.8702713 -30.89097595 44.75526428 C-32.69815861 46.56177015 -34.50409392 48.36952462 -36.30883789 50.1784668 C-39.05438393 52.9293681 -41.80522546 55.67489221 -44.55664062 58.41992188 C-46.3206332 60.18457532 -48.0843155 61.94953897 -49.84765625 63.71484375 C-51.06824486 64.93239601 -51.06824486 64.93239601 -52.31349182 66.17454529 C-55.7886096 69.66380692 -59.19343652 73.16411486 -62.40039062 76.90258789 C-66.91481353 82.14302313 -71.84473475 86.96900391 -76.74609375 91.84375 C-77.76764047 92.86342709 -78.78896326 93.88332856 -79.81007385 94.90344238 C-82.47266437 97.56225061 -85.13824599 100.21803958 -87.80450439 102.87316895 C-90.53492671 105.59328393 -93.26245074 108.31630185 -95.99023438 111.0390625 C-101.324022 116.36218863 -106.66097916 121.68212218 -112 127 C-116.36976405 123.47171204 -119.59251238 120.19706604 -122.5625 115.375 C-122.94744629 114.75963379 -123.33239258 114.14426758 -123.72900391 113.51025391 C-135.09102123 95.00804012 -139.53667593 71.95248836 -134.87329102 50.52661133 C-129.15129321 27.97223979 -116.2061255 8.10720292 -96 -4 C-65.46579619 -21.67184161 -29.03180629 -20.75000575 0 0 Z " fill="#B8A0D2" transform="translate(236,114)"/>
<path d="M0 0 C0.88471985 -0.00701431 1.7694397 -0.01402863 2.68096924 -0.02125549 C3.64886887 -0.01361176 4.61676849 -0.00596802 5.61399841 0.00190735 C6.63534882 -0.00174332 7.65669922 -0.00539398 8.70899963 -0.00915527 C12.09213274 -0.01727534 15.47478912 -0.00363919 18.8578949 0.01094055 C21.20294189 0.01145894 23.54798933 0.01094206 25.89303589 0.00942993 C30.81001768 0.00951972 35.72683573 0.01996314 40.64378357 0.03804016 C46.95817971 0.0607399 53.27233671 0.06126983 59.58676243 0.05452251 C64.42934305 0.0511873 69.27186878 0.05780396 74.11443901 0.06765175 C76.44334056 0.07151084 78.77224821 0.07264905 81.10115242 0.0710659 C84.35034532 0.07069662 87.59922708 0.08327663 90.84837341 0.0995636 C91.81829727 0.09708618 92.78822113 0.09460876 93.78753662 0.09205627 C94.66943665 0.09914108 95.55133667 0.10622589 96.45996094 0.11352539 C97.228527 0.11557826 97.99709307 0.11763113 98.78894901 0.11974621 C100.66648865 0.3742218 100.66648865 0.3742218 102.66648865 2.3742218 C102.87024592 5.06855247 102.9496776 7.6605268 102.94114685 10.35639954 C102.94625778 11.18092621 102.95136871 12.00545288 102.95663452 12.85496521 C102.97057131 15.58932184 102.96957068 18.32342756 102.9672699 21.05781555 C102.97115465 22.95349217 102.97548885 24.84916792 102.98025513 26.74484253 C102.98772618 30.72199828 102.98741971 34.69906528 102.98216248 38.67622375 C102.97636731 43.77881701 102.99329569 48.88104736 103.01650715 53.98358059 C103.0312226 57.89974093 103.03211917 61.81581344 103.02899742 65.73199654 C103.02951176 67.61350791 103.03477048 69.49502405 103.04480934 71.37650871 C103.05711389 74.00546374 103.0504183 76.63370634 103.0388031 79.26264954 C103.04644684 80.04353439 103.05409058 80.82441925 103.06196594 81.62896729 C103.01027368 86.90877715 103.01027368 86.90877715 101.41115093 89.07380199 C99.23536545 90.69556832 98.07410888 90.75116116 95.37767029 90.75517273 C94.50280975 90.7636322 93.62794922 90.77209167 92.72657776 90.7808075 C91.76959991 90.7747348 90.81262207 90.76866211 89.8266449 90.7624054 C88.31165909 90.77029083 88.31165909 90.77029083 86.7660675 90.77833557 C83.42021825 90.79156303 80.07484293 90.78278756 76.72898865 90.7726593 C74.4087566 90.77467924 72.08852516 90.77759001 69.76829529 90.78135681 C64.9025926 90.7857839 60.03705498 90.77933661 55.17137146 90.76533508 C48.92651226 90.74824316 42.68203983 90.75808226 36.43719482 90.77605247 C31.64517794 90.78687983 26.85325314 90.78344876 22.06123352 90.7756691 C19.75827489 90.7736642 17.45530796 90.77613648 15.15235901 90.78310776 C11.9367907 90.79070484 8.72185356 90.77914205 5.5063324 90.7624054 C4.54935455 90.76847809 3.59237671 90.77455078 2.60639954 90.7808075 C1.29410873 90.76811829 1.29410873 90.76811829 -0.04469299 90.75517273 C-1.18509789 90.75347611 -1.18509789 90.75347611 -2.34854126 90.75174522 C-4.91151833 90.26429008 -5.79302677 89.45573228 -7.33351135 87.3742218 C-7.62960785 84.6308639 -7.74333754 82.11440223 -7.72169495 79.37031555 C-7.7269519 78.55539642 -7.73220886 77.74047729 -7.73762512 76.90086365 C-7.75084036 74.20428867 -7.74208179 71.5083029 -7.73194885 68.8117218 C-7.73396915 66.93989447 -7.73688022 65.06806791 -7.74064636 63.19624329 C-7.74507178 59.27209484 -7.73863167 55.34815115 -7.72462463 51.42402649 C-7.70753262 46.38981833 -7.71737264 41.35608996 -7.73534203 36.32189941 C-7.74617399 32.45633824 -7.74273622 28.59089112 -7.73495865 24.72532654 C-7.73295502 22.86894169 -7.73542162 21.01254653 -7.74239731 19.15617371 C-7.75000217 16.56321211 -7.73842149 13.97103137 -7.72169495 11.37812805 C-7.72776764 10.60816498 -7.73384033 9.8382019 -7.74009705 9.04490662 C-7.67778823 3.84056308 -7.67778823 3.84056308 -6.08054638 1.67701435 C-3.89104851 0.04427004 -2.71428434 -0.00059211 0 0 Z " fill="#707ED5" transform="translate(314.33351135253906,175.6257781982422)"/>
<path d="M0 0 C1.16337891 0.00322266 2.32675781 0.00644531 3.52539062 0.00976562 C4.74033203 0.01814453 5.95527344 0.02652344 7.20703125 0.03515625 C8.43357422 0.03966797 9.66011719 0.04417969 10.92382812 0.04882812 C13.95577793 0.0606256 16.98763031 0.07708704 20.01953125 0.09765625 C19.11074219 0.76474609 19.11074219 0.76474609 18.18359375 1.4453125 C14.27156004 4.43229853 10.86097701 7.4737616 9.01953125 12.09765625 C8.75834704 14.15212584 8.57539682 16.21753634 8.45703125 18.28515625 C8.11850297 23.99868453 8.11850297 23.99868453 7.01953125 25.09765625 C6.91857561 27.75221818 6.87982127 30.38020801 6.88671875 33.03515625 C6.88576202 33.83042725 6.8848053 34.62569824 6.88381958 35.44506836 C6.88313782 37.12972085 6.88499182 38.81437596 6.88916016 40.49902344 C6.8945085 43.08664822 6.88921506 45.67409941 6.8828125 48.26171875 C6.88347328 49.89453164 6.88475445 51.52734441 6.88671875 53.16015625 C6.88469452 53.93931396 6.88267029 54.71847168 6.88058472 55.52124023 C6.56113545 59.10559825 6.56113545 59.10559825 8.01953125 62.09765625 C8.11864734 64.23428651 8.14585492 66.37425572 8.14651489 68.51318359 C8.14807488 69.19120214 8.14963487 69.8692207 8.15124214 70.56778526 C8.15525416 72.85640973 8.15206173 75.14496871 8.14892578 77.43359375 C8.15027973 79.06756632 8.15205963 80.70153858 8.15423584 82.33551025 C8.1588109 86.78579704 8.15702032 91.23606075 8.15385675 95.68634796 C8.15133353 100.33305424 8.15367059 104.97975849 8.15524292 109.62646484 C8.15706473 117.43131873 8.15465802 125.23616317 8.14990234 133.04101562 C8.1444597 142.07792862 8.14622235 151.11481905 8.15172875 160.15173149 C8.15625957 167.89607881 8.15691058 175.64041932 8.15429008 183.38476753 C8.15272713 188.01650487 8.15253402 192.64823159 8.15582657 197.27996826 C8.15870483 201.63339042 8.15673043 205.98678335 8.15093231 210.34020233 C8.14960447 211.94266461 8.14999923 213.54512932 8.15219498 215.14759064 C8.15490555 217.32580382 8.15152653 219.50392187 8.14651489 221.68212891 C8.14613787 222.90404938 8.14576084 224.12596985 8.14537239 225.38491821 C8.01953125 228.09765625 8.01953125 228.09765625 7.01953125 229.09765625 C6.91857561 231.75221818 6.87982127 234.38020801 6.88671875 237.03515625 C6.88576202 237.83042725 6.8848053 238.62569824 6.88381958 239.44506836 C6.88313782 241.12972085 6.88499182 242.81437596 6.88916016 244.49902344 C6.8945085 247.08664822 6.88921506 249.67409941 6.8828125 252.26171875 C6.88347328 253.89453164 6.88475445 255.52734441 6.88671875 257.16015625 C6.88469452 257.93931396 6.88267029 258.71847168 6.88058472 259.52124023 C6.56113545 263.10559825 6.56113545 263.10559825 8.01953125 266.09765625 C8.40055077 269.40234044 8.74046856 272.70363697 9.00585938 276.01953125 C9.5045551 280.82113255 10.42485897 283.61269569 14.01953125 287.09765625 C17.36122882 289.20852324 20.05242743 289.3556679 23.96734619 289.37612915 C25.79305145 289.39287437 25.79305145 289.39287437 27.65563965 289.40995789 C29.00122039 289.41232275 30.34680148 289.41449841 31.69238281 289.41650391 C33.1116798 289.42580372 34.53097131 289.43597248 35.95025635 289.44694519 C39.80112474 289.47425334 43.65195653 289.48939698 47.50289631 289.50237322 C51.52815767 289.5180002 55.55334426 289.5447918 59.57855225 289.57040405 C67.19990708 289.61719951 74.82127598 289.6539399 82.4427011 289.68707693 C91.11982126 289.7252929 99.79686633 289.77470443 108.47392321 289.82506108 C126.32240427 289.92839234 144.17093116 290.01764886 162.01953125 290.09765625 C162.01953125 290.42765625 162.01953125 290.75765625 162.01953125 291.09765625 C140.25328319 291.21451752 118.48708694 291.3026582 96.72058868 291.35671711 C86.61374924 291.38248608 76.50710486 291.41761168 66.40039062 291.47485352 C57.5901843 291.52472843 48.78011926 291.55695677 39.96977568 291.56809872 C35.30576809 291.57461056 30.64216465 291.58988793 25.97828674 291.62630653 C21.58531954 291.66033066 17.19292166 291.67069633 12.79983521 291.66319466 C11.19060672 291.66456635 9.58135852 291.67446086 7.97224426 291.69368362 C-6.60800546 291.85926807 -6.60800546 291.85926807 -12.51160431 287.75738811 C-16.62892154 283.10505777 -17.42106685 278.43168365 -17.37919617 272.41970825 C-17.38584299 271.66500618 -17.39248982 270.91030411 -17.39933807 270.13273227 C-17.41794204 267.61064798 -17.41536379 265.0890395 -17.4128418 262.56689453 C-17.42186598 260.75181412 -17.43219481 258.9367398 -17.44372559 257.12167358 C-17.47139004 252.17518755 -17.48060394 247.22881671 -17.48657966 242.28226328 C-17.49603583 237.03081278 -17.5222899 231.77944467 -17.54658508 226.52804565 C-17.59039697 216.49923651 -17.61880338 206.47044313 -17.64190847 196.4415673 C-17.66832015 185.3207472 -17.71257314 174.20002331 -17.75814033 163.07926798 C-17.83678197 143.7808992 -17.89285945 124.48258187 -17.92919517 105.18408823 C-17.9532896 92.52523249 -17.99778244 79.86679392 -18.07334042 67.20813942 C-18.10882202 61.21085857 -18.13435929 55.21355103 -18.15642029 49.21620691 C-18.17423993 44.55213202 -18.20425885 39.88836244 -18.24395704 35.22442532 C-18.26950453 31.76405734 -18.27554612 28.30371167 -18.28442383 24.84326172 C-18.2989113 23.62391308 -18.31339878 22.40456444 -18.32832527 21.14826584 C-18.32380003 14.55759478 -18.13203727 9.55289153 -13.48046875 4.453125 C-8.78992148 0.80084991 -5.86106911 -0.02859058 0 0 Z " fill="#3D4EC5" transform="translate(58.98046875,31.90234375)"/>
<path d="M0 0 C1.84589045 0.00138269 1.84589045 0.00138269 3.72907162 0.00279331 C4.41187929 0.00193889 5.09468696 0.00108446 5.79818577 0.00020415 C8.10296819 -0.0014526 10.407679 0.00407386 12.7124548 0.00952244 C14.35790156 0.00980429 16.00334844 0.00964661 17.64879513 0.00907993 C22.13000887 0.0087919 26.61119609 0.01468961 31.09240365 0.02165389 C35.77027233 0.02788641 40.44814156 0.02849115 45.12601376 0.0296793 C53.99060296 0.03279292 62.8551799 0.04100671 71.7197637 0.05102879 C81.8090733 0.06218898 91.89838348 0.06770014 101.98769772 0.07272422 C122.7480891 0.0831893 143.50846942 0.10078933 164.26885128 0.12304783 C164.26885128 0.45304783 164.26885128 0.78304783 164.26885128 1.12304783 C163.67269418 1.11253108 163.07653708 1.10201433 162.46231461 1.09117889 C147.90402489 0.8402812 133.346829 0.68482529 118.78654099 0.63339233 C111.74452072 0.60625543 104.70546036 0.54775682 97.66460323 0.41333103 C90.86201177 0.28354493 84.0635262 0.24394042 77.25973225 0.25795269 C74.67169485 0.2488084 72.0835783 0.21004561 69.49646091 0.14044094 C56.09942878 -0.67221136 56.09942878 -0.67221136 43.91825199 3.80257893 C39.92257328 7.76752037 37.0428914 12.23155537 34.37331581 17.16106033 C32.94518788 19.69800839 31.19634698 21.85354117 29.28838253 24.04492283 C28.75011837 24.69017918 28.21185421 25.33543552 27.65727901 26.00024509 C27.13722286 26.61827 26.61716671 27.2362949 26.08135128 27.87304783 C21.18539343 33.75483262 16.45947828 39.72207537 11.82744503 45.81445408 C8.88811232 49.64922808 5.82784227 53.38354218 2.76885128 57.12304783 C-2.00306251 62.95840475 -6.66270032 68.86049644 -11.21942997 74.86523533 C-11.61033817 75.35306492 -12.00124638 75.84089451 -12.40400028 76.34350681 C-13.8369968 78.20192638 -13.8369968 78.20192638 -15.25360966 80.67016697 C-18.06976258 84.95610031 -20.15293971 87.62634001 -25.14740849 89.19824314 C-29.27288495 89.72982442 -33.20557913 89.89121428 -37.35614872 89.81054783 C-38.07457951 89.80864445 -38.79301029 89.80674107 -39.53321171 89.80478001 C-46.50204711 89.71945171 -53.07418086 89.50369555 -58.59052372 84.75586033 C-61.73586882 81.27059982 -64.16426877 77.42294335 -66.45624638 73.33691502 C-68.29166496 70.1497117 -70.49172795 67.42981799 -72.79364872 64.56054783 C-73.57868778 63.52800877 -74.36372684 62.4954697 -75.17255497 61.43164158 C-78.11188692 57.59686856 -81.17213399 53.86253274 -84.23114872 50.12304783 C-88.97748379 44.31967771 -93.58627154 38.43863579 -98.12958622 32.47461033 C-101.12314182 28.58228588 -104.24330988 24.79509569 -107.35614872 20.99804783 C-121.73114872 3.43420522 -121.73114872 3.43420522 -121.73114872 1.12304783 C-105.23114872 1.12304783 -88.73114872 1.12304783 -71.73114872 1.12304783 C-64.60614872 14.06054783 -64.60614872 14.06054783 -62.25019169 18.33886814 C-58.71200587 24.75689383 -55.15628515 31.16405315 -51.55146122 37.54492283 C-50.9070911 38.68711277 -50.26272099 39.82930271 -49.5988245 41.00610447 C-48.36909242 43.18184614 -47.13578323 45.35557052 -45.89862919 47.52710056 C-45.34836063 48.50106785 -44.79809208 49.47503513 -44.23114872 50.47851658 C-43.74646122 51.33082859 -43.26177372 52.1831406 -42.76239872 53.06128025 C-41.73114872 55.12304783 -41.73114872 55.12304783 -41.73114872 57.12304783 C-39.09114872 57.12304783 -36.45114872 57.12304783 -33.73114872 57.12304783 C-33.46342655 56.41776951 -33.19570438 55.71249119 -32.91986942 54.9858408 C-31.67485884 51.98748506 -30.24294796 49.18093176 -28.71161747 46.31836033 C-28.10720829 45.18761082 -27.50279911 44.05686131 -26.8800745 42.89184666 C-26.22653632 41.67710153 -25.57272188 40.46250499 -24.91864872 39.24804783 C-24.58911198 38.63432316 -24.25957523 38.02059849 -23.92005253 37.3882761 C-19.1560222 28.51925452 -14.30722477 19.70177822 -9.35614872 10.93554783 C-8.52699955 9.46722507 -8.52699955 9.46722507 -7.68109989 7.96923923 C-3.23341955 0.14567689 -3.23341955 0.14567689 0 0 Z " fill="#2B3894" transform="translate(293.7311487197876,321.8769521713257)"/>
<path d="M0 0 C0.88471985 -0.00701431 1.7694397 -0.01402863 2.68096924 -0.02125549 C3.64886887 -0.01361176 4.61676849 -0.00596802 5.61399841 0.00190735 C6.63534882 -0.00174332 7.65669922 -0.00539398 8.70899963 -0.00915527 C12.09213274 -0.01727534 15.47478912 -0.00363919 18.8578949 0.01094055 C21.20294189 0.01145894 23.54798933 0.01094206 25.89303589 0.00942993 C30.81001768 0.00951972 35.72683573 0.01996314 40.64378357 0.03804016 C46.95817971 0.0607399 53.27233671 0.06126983 59.58676243 0.05452251 C64.42934305 0.0511873 69.27186878 0.05780396 74.11443901 0.06765175 C76.44334056 0.07151084 78.77224821 0.07264905 81.10115242 0.0710659 C84.35034532 0.07069662 87.59922708 0.08327663 90.84837341 0.0995636 C91.81829727 0.09708618 92.78822113 0.09460876 93.78753662 0.09205627 C94.66943665 0.09914108 95.55133667 0.10622589 96.45996094 0.11352539 C97.228527 0.11557826 97.99709307 0.11763113 98.78894901 0.11974621 C100.66648865 0.3742218 100.66648865 0.3742218 102.66648865 2.3742218 C102.92718506 4.68255615 102.92718506 4.68255615 102.94114685 7.60249329 C102.95067886 8.69380051 102.96021088 9.78510773 102.97003174 10.90948486 C102.96912033 12.09280899 102.96820892 13.27613312 102.9672699 14.49531555 C102.97155502 15.70615311 102.97584015 16.91699066 102.98025513 18.16452026 C102.986007 20.72928745 102.98649242 23.29407096 102.98216248 25.85884094 C102.97900449 29.79198438 103.00244543 33.7243747 103.02781677 37.65742493 C103.03008979 40.14505418 103.03079325 42.63268547 103.0297699 45.12031555 C103.03897964 46.30161545 103.04818939 47.48291534 103.05767822 48.70001221 C103.05144943 49.79447159 103.04522064 50.88893097 103.0388031 52.01655579 C103.03943253 52.98093063 103.04006195 53.94530548 103.04071045 54.93890381 C102.58998219 57.87210183 101.96750135 58.56523345 99.66648865 60.3742218 C97.68151855 60.75174522 97.68151855 60.75174522 95.37767029 60.75517273 C94.06537949 60.76786194 94.06537949 60.76786194 92.72657776 60.7808075 C91.29111099 60.77169846 91.29111099 60.77169846 89.8266449 60.7624054 C88.31165909 60.77029083 88.31165909 60.77029083 86.7660675 60.77833557 C83.42021825 60.79156303 80.07484293 60.78278756 76.72898865 60.7726593 C74.4087566 60.77467924 72.08852516 60.77759001 69.76829529 60.78135681 C64.9025926 60.7857839 60.03705498 60.77933661 55.17137146 60.76533508 C48.92651226 60.74824316 42.68203983 60.75808226 36.43719482 60.77605247 C31.64517794 60.78687983 26.85325314 60.78344876 22.06123352 60.7756691 C19.75827489 60.7736642 17.45530796 60.77613648 15.15235901 60.78310776 C11.9367907 60.79070484 8.72185356 60.77914205 5.5063324 60.7624054 C4.54935455 60.76847809 3.59237671 60.77455078 2.60639954 60.7808075 C1.731539 60.77234802 0.85667847 60.76388855 -0.04469299 60.75517273 C-1.18509789 60.75347611 -1.18509789 60.75347611 -2.34854126 60.75174522 C-4.88268209 60.26977448 -5.77334268 59.39389186 -7.33351135 57.3742218 C-7.71446228 54.9835968 -7.71446228 54.9835968 -7.72169495 52.1242218 C-7.73115143 51.05301086 -7.74060791 49.98179993 -7.75035095 48.87812805 C-7.74427826 47.72183899 -7.73820557 46.56554993 -7.73194885 45.3742218 C-7.73481903 44.18699524 -7.73768921 42.99976868 -7.74064636 41.77656555 C-7.74268912 39.26484195 -7.73714458 36.75310253 -7.72462463 34.2414093 C-7.70857495 30.38948608 -7.72446723 26.53861225 -7.7436676 22.6867218 C-7.74168521 20.24921948 -7.73784162 17.81171781 -7.73194885 15.3742218 C-7.73802155 14.21793274 -7.74409424 13.06164368 -7.75035095 11.87031555 C-7.74089447 10.79910461 -7.73143799 9.72789368 -7.72169495 8.6242218 C-7.71930817 7.68062805 -7.71692139 6.7370343 -7.71446228 5.7648468 C-6.98151403 1.16529271 -4.38828767 -0.00095729 0 0 Z " fill="#707ED5" transform="translate(314.33351135253906,95.62577819824219)"/>
<path d="M0 0 C1.41945419 -0.01058945 1.41945419 -0.01058945 2.86758423 -0.02139282 C42.14111676 -0.24789585 42.14111676 -0.24789585 58.8671875 3.203125 C59.89038086 3.40711914 60.91357422 3.61111328 61.96777344 3.82128906 C89.24304082 9.37003312 114.64370023 18.45585394 138.8671875 32.203125 C138.8671875 32.533125 138.8671875 32.863125 138.8671875 33.203125 C56.0371875 33.203125 -26.7928125 33.203125 -112.1328125 33.203125 C-107.62091842 28.69123092 -107.62091842 28.69123092 -104.02734375 26.94140625 C-103.22192139 26.54920898 -102.41649902 26.15701172 -101.58666992 25.75292969 C-100.71502197 25.34461914 -99.84337402 24.93630859 -98.9453125 24.515625 C-98.02403564 24.08282227 -97.10275879 23.65001953 -96.15356445 23.20410156 C-71.65810074 11.95302799 -45.85336265 4.63268797 -19.1328125 1.203125 C-18.13200401 1.07213158 -18.13200401 1.07213158 -17.11097717 0.93849182 C-11.3946077 0.24225008 -5.75538623 0.02856352 0 0 Z " fill="#1A305D" transform="translate(243.1328125,-0.203125)"/>
<path d="M0 0 C0.33 0 0.66 0 1 0 C2.65116037 6.99687476 3.35678712 13.62912973 3.3125 20.8125 C3.30686035 21.77881348 3.3012207 22.74512695 3.29541016 23.74072266 C3.16948743 31.17515049 2.34513972 37.91168295 0 45 C-0.20399414 45.63099609 -0.40798828 46.26199219 -0.61816406 46.91210938 C-5.18169233 60.79533219 -11.85518952 71.40067292 -22 82 C-22.57492188 82.63808594 -23.14984375 83.27617187 -23.7421875 83.93359375 C-36.93722321 98.10720866 -58.25149198 106.27631789 -77.31640625 107.2578125 C-98.09395726 107.94632224 -114.34693295 101.69042629 -132 91 C-129.52731024 85.05789801 -124.38332351 80.54394011 -119.99194336 75.9621582 C-118.87872878 74.78583072 -117.78195666 73.59370669 -116.70288086 72.38598633 C-107.6426663 62.26377875 -107.6426663 62.26377875 -101.03271484 61.60400391 C-98.37822409 61.76233546 -96.02648819 62.1989328 -93.39916992 62.7434082 C-88.9182987 63.08165396 -87.41494288 61.82181813 -84 59 C-82.45459144 57.53203305 -80.95463646 56.0147256 -79.50390625 54.453125 C-78.69759766 53.60878906 -77.89128906 52.76445312 -77.06054688 51.89453125 C-75.38919843 50.12517567 -73.72775988 48.34640858 -72.07617188 46.55859375 C-65.20842821 39.42227911 -65.20842821 39.42227911 -61.05859375 39.29296875 C-58 40 -58 40 -55.5 42.0625 C-53.52641117 45.9274448 -53.79807199 47.86837247 -55 52 C-56.29233607 53.37310707 -57.62437146 54.71034824 -59 56 C-59.64866013 58.56520493 -59.64866013 58.56520493 -60 61 C-39.06161891 55.71323268 -20.98179314 43.02904758 -9.73828125 24.35546875 C-5.28249061 16.54748574 -2.23623646 8.72426462 0 0 Z " fill="#A789C8" transform="translate(267,161)"/>
<path d="M0 0 C1.875 1.0625 1.875 1.0625 3 3 C3.89684578 7.89188607 3.89684578 7.89188607 3 11 C1.5092926 12.62452698 1.5092926 12.62452698 -0.46264648 14.19360352 C-5.34954017 18.25144464 -9.80137785 22.65738365 -14.28515625 27.15234375 C-15.14507675 28.01130753 -16.00499725 28.8702713 -16.89097595 29.75526428 C-18.69815861 31.56177015 -20.50409392 33.36952462 -22.30883789 35.1784668 C-25.05438393 37.9293681 -27.80522546 40.67489221 -30.55664062 43.41992188 C-32.3206332 45.18457532 -34.0843155 46.94953897 -35.84765625 48.71484375 C-37.06824486 49.93239601 -37.06824486 49.93239601 -38.31349182 51.17454529 C-41.7886096 54.66380692 -45.19343652 58.16411486 -48.40039062 61.90258789 C-52.91481353 67.14302313 -57.84473475 71.96900391 -62.74609375 76.84375 C-63.76764047 77.86342709 -64.78896326 78.88332856 -65.81007385 79.90344238 C-68.47266437 82.56225061 -71.13824599 85.21803958 -73.80450439 87.87316895 C-76.53492671 90.59328393 -79.26245074 93.31630185 -81.99023438 96.0390625 C-87.324022 101.36218863 -92.66097916 106.68212218 -98 112 C-102.36976405 108.47171204 -105.59251238 105.19706604 -108.5625 100.375 C-108.94744629 99.75963379 -109.33239258 99.14426758 -109.72900391 98.51025391 C-118.53205437 84.1751304 -122.17546436 69.45314988 -122.1875 52.6875 C-122.19974609 51.80126953 -122.21199219 50.91503906 -122.22460938 50.00195312 C-122.23821999 43.78190397 -121.43843502 38.04794689 -120 32 C-117.73115778 36.43719262 -116.05910473 41.04553153 -114.31640625 45.7109375 C-112.11987993 52.12338694 -112.11987993 52.12338694 -107.3125 56.3125 C-98.97165536 55.52562786 -91.88252991 44.93012207 -86.2629509 39.15472412 C-83.57653963 36.3987113 -80.87263382 33.65990985 -78.171875 30.91796875 C-74.75431325 27.44634278 -71.34224494 23.9697746 -67.94824219 20.47509766 C-65.1855398 17.63136776 -62.40612864 14.80497131 -59.61467361 11.98947144 C-58.55819324 10.91756428 -57.50803107 9.83939107 -56.46445847 8.75491333 C-55.00950801 7.24452502 -53.53421116 5.75726033 -52.05224609 4.2734375 C-51.21921967 3.42185059 -50.38619324 2.57026367 -49.52792358 1.69287109 C-47 0 -47 0 -43.74673462 0.17041016 C-41 1 -41 1 -40 2 C-40.19269569 8.00702258 -42.12703451 10.95685961 -46.36181641 14.93188477 C-46.91952225 15.47922272 -47.47722809 16.02656067 -48.05183411 16.59048462 C-49.25880739 17.77137092 -50.47262007 18.94529901 -51.69246292 20.11288643 C-53.62247737 21.96143834 -55.53244567 23.82872622 -57.43832397 25.70213318 C-62.17212051 30.34787309 -66.93615828 34.9621522 -71.70391846 39.57299805 C-75.73819628 43.4758124 -79.75829321 47.39214934 -83.75944138 51.32893181 C-85.64232956 53.17015423 -87.54470457 54.98954916 -89.44839478 56.80921936 C-90.59897726 57.93757316 -91.74855869 59.06694896 -92.89697266 60.19750977 C-93.43198898 60.69793289 -93.96700531 61.19835602 -94.51823425 61.71394348 C-96.17560955 63.296828 -96.17560955 63.296828 -98 66 C-97.9050932 69.40943929 -97.59452859 71.20889341 -95.546875 73.93359375 C-94.95390625 74.42988281 -94.3609375 74.92617187 -93.75 75.4375 C-93.16734375 75.95183594 -92.5846875 76.46617187 -91.984375 76.99609375 C-89.25613698 78.3763244 -87.89891788 77.8405409 -85 77 C-83.12618418 75.7056561 -83.12618418 75.7056561 -81.4889679 73.96325684 C-80.5111586 72.99152779 -80.5111586 72.99152779 -79.51359558 72.00016785 C-78.46526299 70.92790703 -78.46526299 70.92790703 -77.39575195 69.83398438 C-76.64720947 69.08441971 -75.89866699 68.33485504 -75.12744141 67.56257629 C-72.65493016 65.08217906 -70.19677788 62.58803218 -67.73828125 60.09375 C-66.02480582 58.37027464 -64.31037099 56.64775261 -62.59501648 54.92614746 C-58.08095336 50.39113831 -53.5785917 45.84469126 -49.07897949 41.29534912 C-41.86876495 34.0098923 -34.63982794 26.7429988 -27.4130764 19.47395325 C-24.88504614 16.92816776 -22.36124905 14.37824687 -19.83821106 11.82751465 C-18.29754389 10.27363368 -16.75683088 8.71979817 -15.21606445 7.16601562 C-14.51110336 6.45117508 -13.80614227 5.73633453 -13.07981873 4.99983215 C-12.11469864 4.0281031 -12.11469864 4.0281031 -11.13008118 3.03674316 C-10.57059438 2.4711393 -10.01110758 1.90553543 -9.43466663 1.32279205 C-6.26255771 -1.60195742 -4.03701378 -0.98865644 0 0 Z " fill="#A78AC8" transform="translate(222,129)"/>
<path d="M0 0 C0.81959198 -0.00014603 1.63918396 -0.00029205 2.48361206 -0.0004425 C5.19987612 0.00025565 7.9160721 0.00804351 10.63232422 0.01586914 C12.51276614 0.01773367 14.39320854 0.01915741 16.27365112 0.02015686 C21.22863094 0.02397932 26.18358155 0.03380731 31.1385498 0.04486084 C36.19246017 0.05508078 41.24637525 0.05965573 46.30029297 0.06469727 C56.22087873 0.0754298 66.1414428 0.09250299 76.06201172 0.11352539 C76.06201172 0.44352539 76.06201172 0.77352539 76.06201172 1.11352539 C75.45615234 1.19989258 74.85029297 1.28625977 74.22607422 1.37524414 C61.93243356 3.43679311 52.18362762 9.32237788 44.42919922 19.19165039 C37.75921558 29.33641593 35.49521248 41.18507384 37.59326172 53.14086914 C39.75746436 62.46811204 43.35419577 69.50310412 49.06201172 77.11352539 C31.09372539 74.4950314 -0.74426717 68.30724651 -13.93798828 55.11352539 C-14.05195455 53.60593303 -14.09754674 52.09309205 -14.11499023 50.58129883 C-14.12782547 49.61649597 -14.14066071 48.65169312 -14.15388489 47.65765381 C-14.16127182 46.60668518 -14.16865875 45.55571655 -14.17626953 44.47290039 C-14.18434128 43.3985675 -14.19241302 42.32423462 -14.20072937 41.21734619 C-14.21459068 38.93747583 -14.22530363 36.65758453 -14.2331543 34.37768555 C-14.25034736 30.89209502 -14.29421385 27.40745746 -14.33837891 23.92211914 C-14.348507 21.70988655 -14.35702274 19.49764588 -14.36376953 17.28540039 C-14.38127762 16.24252869 -14.39878571 15.19965698 -14.41682434 14.12518311 C-14.3951002 6.86729936 -14.3951002 6.86729936 -12.03637695 2.9777832 C-8.21277538 -0.41919429 -4.89050983 -0.02259203 0 0 Z " fill="#199A8E" transform="translate(153.93798828125,429.886474609375)"/>
<path d="M0 0 C0.68748666 -0.00568326 1.37497332 -0.01136651 2.0832929 -0.01722199 C4.38072951 -0.0301134 6.67639994 -0.00734868 8.97373962 0.0153656 C10.62314218 0.01350129 12.2725435 0.0094641 13.92193604 0.00341797 C18.3972141 -0.00655849 22.87185902 0.01461576 27.34704518 0.04189801 C32.02968073 0.06572526 36.71230365 0.06278304 41.39498901 0.0632019 C49.2576113 0.06783008 57.11999145 0.0914736 64.98252869 0.12767029 C74.07516795 0.16941833 83.16758921 0.186986 92.26031882 0.19029003 C101.93841349 0.19388867 111.61642962 0.21276157 121.29449153 0.23741031 C124.0845631 0.24364086 126.8746287 0.24727595 129.66470528 0.25044441 C134.04697987 0.25634259 138.42909849 0.272649 142.81130791 0.29704857 C144.42056447 0.30449258 146.02984067 0.30856076 147.63911438 0.30902863 C149.8337081 0.31028531 152.02788985 0.32382218 154.22241211 0.34057617 C155.45112062 0.34522668 156.67982912 0.34987719 157.94577122 0.35466862 C160.94480937 0.60610345 162.59243702 0.9228209 165.04771423 2.61473083 C167.52370957 6.32872384 167.28510749 8.32190993 167.23521423 12.73973083 C167.22554626 14.63078552 167.22554626 14.63078552 167.21568298 16.56004333 C167.04771423 19.61473083 167.04771423 19.61473083 166.04771423 20.61473083 C163.77177581 20.71402146 161.49268748 20.74105532 159.21458435 20.74171448 C158.49164672 20.74327447 157.7687091 20.74483446 157.02386427 20.74644172 C154.58322627 20.75045426 152.14264965 20.74726111 149.70201111 20.74412537 C147.95966556 20.7454793 146.2173203 20.74725918 144.47497559 20.74943542 C139.72924415 20.75401076 134.98353434 20.75221979 130.23780251 20.74905634 C125.28279688 20.74653325 120.32779317 20.74887013 115.37278748 20.7504425 C107.05007086 20.75226435 98.7273631 20.7498575 90.40464783 20.74510193 C80.767888 20.73965928 71.13114933 20.74142193 61.49439001 20.74692833 C53.23624664 20.75145904 44.97810966 20.75211022 36.71996546 20.74948967 C31.7808259 20.74792665 26.8416963 20.74773378 21.90255737 20.75102615 C17.2602228 20.75390425 12.61791563 20.75193032 7.97558403 20.7461319 C6.26669294 20.74480396 4.55779957 20.74519897 2.84890938 20.74739456 C0.52618929 20.75010478 -1.79644156 20.74672655 -4.11915588 20.74171448 C-5.42219414 20.74133745 -6.72523239 20.74096043 -8.06775665 20.74057198 C-10.95228577 20.61473083 -10.95228577 20.61473083 -11.95228577 19.61473083 C-12.15789427 17.37066084 -12.26652964 15.11738121 -12.32728577 12.86473083 C-12.37627014 11.63238708 -12.42525452 10.40004333 -12.47572327 9.13035583 C-11.39566883 1.87625889 -6.80040073 -0.01112846 0 0 Z " fill="#34E198" transform="translate(177.95228576660156,409.38526916503906)"/>
<path d="M0 0 C2 1.0625 2 1.0625 3 3 C3.625 6.1875 3.625 6.1875 3 10 C-2.6046232 18.30394291 -11.18629605 25.32682871 -18.25708008 32.38647461 C-19.70333181 33.83408296 -21.14937107 35.28190362 -22.59521484 36.72991943 C-26.50363549 40.64288089 -30.41519069 44.55269453 -34.32747102 48.46179652 C-38.42397174 52.55575922 -42.51802504 56.65216823 -46.61247253 60.7481842 C-53.48098073 67.61850864 -60.35158828 74.48672834 -67.22338867 81.35375977 C-75.1750738 89.29999032 -83.12313251 97.24983448 -91.06934243 105.20153993 C-97.89394713 112.0306758 -104.72049005 118.8578696 -111.54867095 125.68342978 C-115.62638368 129.75958143 -119.70341274 133.8364107 -123.77869606 137.91499138 C-127.60382051 141.74299502 -131.43136477 145.56856223 -135.26082611 149.39222717 C-136.66862818 150.79870247 -138.07557161 152.2060378 -139.48161125 153.61427498 C-141.39408201 155.52946009 -143.30957666 157.44156734 -145.22590637 159.35289001 C-145.78727525 159.91648961 -146.34864413 160.48008922 -146.92702419 161.06076759 C-151.75220141 165.86135571 -151.75220141 165.86135571 -156.375 166.375 C-160 166 -160 166 -162.5 163.875 C-164.42622071 160.18307697 -164.21233649 158.96583915 -163 155 C-161.11066485 152.41384989 -158.86735162 150.24547594 -156.57177734 148.02001953 C-155.90012543 147.34924377 -155.22847351 146.67846802 -154.53646851 145.98736572 C-152.31445287 143.773926 -150.07536293 141.5786246 -147.8359375 139.3828125 C-146.28355651 137.84230606 -144.7323544 136.30061082 -143.18228149 134.75778198 C-139.09561554 130.69587354 -134.99462222 126.64874801 -130.89001465 122.60498047 C-125.12503362 116.92030569 -119.37946621 111.21600197 -113.63198853 105.51364136 C-110.57313914 102.47887221 -107.5088699 99.44974679 -104.44003296 96.42507935 C-103.02819093 95.02967072 -101.61637521 93.63423548 -100.20458984 92.23876953 C-99.57677612 91.62240631 -98.9489624 91.00604309 -98.30212402 90.3710022 C-94.55105132 86.65668301 -91.03025781 82.8053623 -87.58028412 78.81031799 C-85.65447426 76.60417785 -83.63790056 74.51089655 -81.56860352 72.43920898 C-80.77410294 71.64155624 -79.97960236 70.8439035 -79.161026 70.02207947 C-78.32542648 69.18850418 -77.48982697 68.35492889 -76.62890625 67.49609375 C-75.74774643 66.6139772 -74.86658661 65.73186066 -73.95872498 64.82301331 C-71.6342325 62.49767191 -69.30734093 60.17476382 -66.97961426 57.85266113 C-65.56355322 56.43855176 -64.14945679 55.02250879 -62.73608398 53.60571289 C-59.99471744 50.8581328 -57.24986966 48.11407894 -54.50390625 45.37109375 C-53.67033096 44.53549423 -52.83675568 43.69989471 -51.97792053 42.838974 C-47.73458625 38.6124085 -43.41031109 34.57100766 -38.87168884 30.66490173 C-35.79671749 27.92965802 -32.98811943 24.95539368 -30.15625 21.97265625 C-28.89820329 20.67279376 -27.63905633 19.37399537 -26.37890625 18.07617188 C-24.42679933 16.06218331 -22.48171597 14.04317215 -20.55419922 12.00561523 C-18.66917046 10.01750268 -16.75947829 8.05614465 -14.84375 6.09765625 C-14.27579712 5.48527603 -13.70784424 4.87289581 -13.12268066 4.24195862 C-8.78292932 -0.12780064 -6.12595053 -0.74147301 0 0 Z " fill="#ACE8DB" transform="translate(268,104)"/>
<path d="M0 0 C0.4021875 1.670625 0.4021875 1.670625 0.8125 3.375 C1.65809019 7.21840951 1.65809019 7.21840951 5 9 C8.12521833 9.16699232 8.12521833 9.16699232 11 9 C7.0479633 13.73127685 2.93335142 18.21170222 -1.43261719 22.56201172 C-2.04475571 23.17590256 -2.65689423 23.7897934 -3.2875824 24.42228699 C-5.28819181 26.42725683 -7.29238765 28.42859524 -9.296875 30.4296875 C-10.69612999 31.82961676 -12.09523655 33.22969439 -13.49420166 34.62991333 C-16.41427196 37.55145235 -19.33612959 40.47118867 -22.25927734 43.38964844 C-26.01100486 47.13565265 -29.75818963 50.88616403 -33.50407028 54.63801384 C-36.38636097 57.52390993 -39.27101902 60.40743015 -42.15641022 63.29022598 C-43.53988351 64.67303132 -44.92261193 66.05658229 -46.30458832 67.44088364 C-48.22897507 69.3677994 -50.15651971 71.29149857 -52.08496094 73.21435547 C-52.65744064 73.78885941 -53.22992035 74.36336334 -53.81974792 74.95527649 C-58.75238291 79.86137588 -58.75238291 79.86137588 -63.375 80.375 C-67 80 -67 80 -69.5 77.875 C-71.42661002 74.18233079 -71.2121405 72.96702215 -70 69 C-68.10927855 66.40360955 -65.86485181 64.22249214 -63.56835938 61.98486328 C-62.89682327 61.31099075 -62.22528717 60.63711823 -61.53340149 59.94282532 C-59.31531494 57.72312647 -57.07994215 55.52175795 -54.84375 53.3203125 C-53.29956057 51.78291191 -51.7564017 50.24447558 -50.2142334 48.70504761 C-46.98342237 45.48490949 -43.7447747 42.27295494 -40.49951172 39.06738281 C-36.32924522 34.94811129 -32.17205792 30.81595958 -28.01976776 26.67857552 C-24.06916447 22.74272401 -20.1133354 18.81214562 -16.15625 14.8828125 C-15.01647957 13.75040823 -15.01647957 13.75040823 -13.85368347 12.59512711 C-11.71582771 10.47346282 -9.57442202 8.35545765 -7.43164062 6.23876953 C-6.79160599 5.60299484 -6.15157135 4.96722015 -5.49214172 4.31217957 C-1.1151145 0 -1.1151145 0 0 0 Z " fill="#A5D1E2" transform="translate(175,190)"/>
<path d="M0 0 C1.15141731 -0.00503792 1.15141731 -0.00503792 2.32609558 -0.01017761 C4.87040818 -0.01969802 7.41465506 -0.02163115 9.95898438 -0.02270508 C11.72253446 -0.02591646 13.48608427 -0.02928044 15.24963379 -0.03279114 C18.94849262 -0.03878483 22.64732806 -0.04063075 26.34619141 -0.04003906 C31.09456682 -0.03993733 35.84279309 -0.05360035 40.59113312 -0.07081127 C44.2335886 -0.08190779 47.87600773 -0.08395901 51.51847839 -0.08342934 C53.26963313 -0.08461259 55.02078871 -0.08905358 56.77192688 -0.0967617 C59.21654847 -0.10651614 61.66084233 -0.10370195 64.10546875 -0.09765625 C64.83384445 -0.10327576 65.56222015 -0.10889526 66.31266785 -0.11468506 C71.32441737 -0.08305333 71.32441737 -0.08305333 73.55273438 2.14526367 C73.86523438 5.14526367 73.86523438 5.14526367 73.55273438 8.14526367 C69.9313793 10.55950039 67.2837173 10.43444265 63.09960938 10.41992188 C61.96501282 10.42758827 61.96501282 10.42758827 60.80749512 10.43540955 C58.30582785 10.44931614 55.80443571 10.4483482 53.30273438 10.44604492 C51.56542864 10.44993088 49.82812386 10.45426535 48.09082031 10.45903015 C44.44918742 10.46649437 40.80765147 10.46619935 37.16601562 10.4609375 C32.49502441 10.45513844 27.82442914 10.47208328 23.15350342 10.49528217 C19.56589429 10.50999898 15.97838103 10.5108941 12.39074707 10.50777245 C10.66832697 10.50828656 8.94590163 10.51354111 7.22351074 10.52358437 C4.8173634 10.5358938 2.41199386 10.52919105 0.00585938 10.51757812 C-0.70799927 10.52522186 -1.42185791 10.5328656 -2.15734863 10.54074097 C-5.03597278 10.50996548 -6.99887109 10.4463696 -9.42480469 8.81730652 C-10.44726562 7.14526367 -10.44726562 7.14526367 -10.25976562 4.02026367 C-9.99164063 3.07151367 -9.72351563 2.12276367 -9.44726562 1.14526367 C-6.42918302 -0.36377763 -3.31045249 -0.00205972 0 0 Z " fill="#7EBCD6" transform="translate(328.447265625,225.854736328125)"/>
<path d="M0 0 C2 1.0625 2 1.0625 3 3 C3.625 6.1875 3.625 6.1875 3 10 C-2.06008896 17.46821705 -9.63174518 23.78405952 -16.00878906 30.13916016 C-17.89506822 32.02001047 -19.77585667 33.90623592 -21.65625 35.79296875 C-22.85124139 36.98730054 -24.04654231 38.18132273 -25.2421875 39.375 C-25.80565887 39.94049561 -26.36913025 40.50599121 -26.94967651 41.08862305 C-30.88500598 45 -30.88500598 45 -32 45 C-32.28875 43.88625 -32.5775 42.7725 -32.875 41.625 C-33.69241329 37.99708908 -33.69241329 37.99708908 -36 36 C-37.98821313 35.60235737 -39.98944339 35.26224651 -42 35 C-36.29366851 28.21470527 -30.23075247 21.83556183 -24.02392578 15.5090332 C-22.75343238 14.20668763 -21.49107249 12.89635972 -20.23681641 11.57836914 C-18.40866761 9.65897966 -16.555587 7.76711238 -14.6953125 5.87890625 C-14.14295929 5.28839981 -13.59060608 4.69789337 -13.02151489 4.0894928 C-8.7219524 -0.18920503 -6.02590379 -0.70531096 0 0 Z " fill="#A5D1E2" transform="translate(268,104)"/>
<path d="M0 0 C0.79273315 0.00091141 1.58546631 0.00182281 2.40222168 0.00276184 C3.2159021 -0.00152328 4.02958252 -0.00580841 4.86791992 -0.01022339 C6.58946806 -0.01597027 8.31104049 -0.01646431 10.03259277 -0.01213074 C12.67314847 -0.00896927 15.31258575 -0.03242955 17.95300293 -0.05778503 C19.62357443 -0.06005777 21.29414895 -0.06076164 22.96472168 -0.05973816 C23.75745483 -0.06894791 24.55018799 -0.07815765 25.36694336 -0.08764648 C27.5916748 -0.06877136 27.5916748 -0.06877136 31.18347168 0.30354309 C33.6171897 3.95412012 33.48960691 6.70593727 33.48425293 10.92854309 C33.48853806 11.67184875 33.49282318 12.41515442 33.49723816 13.1809845 C33.50297619 14.75112388 33.50348559 16.32128985 33.49914551 17.89143372 C33.49598307 20.29488858 33.51945785 22.6971152 33.5447998 25.10041809 C33.5470726 26.6264582 33.54777638 28.15250163 33.54675293 29.67854309 C33.55596268 30.39735657 33.56517242 31.11617004 33.57466125 31.85676575 C33.54730078 34.8032924 33.51404594 36.82115701 31.82092285 39.29182434 C30.18347168 40.30354309 30.18347168 40.30354309 27.62097168 40.11604309 C25.18347168 39.30354309 25.18347168 39.30354309 23.18347168 37.30354309 C22.9564209 34.59797668 22.9564209 34.59797668 22.98815918 31.20198059 C22.99460449 29.99026184 23.0010498 28.77854309 23.00769043 27.53010559 C23.02444824 26.25908997 23.04120605 24.98807434 23.05847168 23.67854309 C23.06749512 22.39979309 23.07651855 21.12104309 23.08581543 19.80354309 C23.10944865 16.63669142 23.14239539 13.47020885 23.18347168 10.30354309 C22.350979 10.31925354 21.51848633 10.33496399 20.6607666 10.35115051 C17.56899312 10.40230951 14.4774355 10.4399079 11.38537598 10.46833801 C9.39019467 10.49082642 7.39520955 10.52894507 5.40026855 10.56721497 C4.14665527 10.57688293 2.89304199 10.5865509 1.60144043 10.59651184 C0.444104 10.61222229 -0.71323242 10.62793274 -1.90563965 10.64411926 C-4.81652832 10.30354309 -4.81652832 10.30354309 -6.69812012 8.94538879 C-8.27503496 6.63044613 -8.16739989 5.04034135 -7.81652832 2.30354309 C-5.24597626 -0.26700897 -3.50565332 0.04551579 0 0 Z " fill="#7EBBD6" transform="translate(412.8165283203125,54.69645690917969)"/>
<path d="M0 0 C2.574325 2.574325 2.24775746 4.30712646 2.27789307 7.81652832 C2.2738446 8.60926147 2.26979614 9.40199463 2.265625 10.21875 C2.26849518 11.43927063 2.26849518 11.43927063 2.27142334 12.68444824 C2.27278527 14.406009 2.26908828 16.12758003 2.26074219 17.84912109 C2.25004258 20.4894917 2.260637 23.12918189 2.2734375 25.76953125 C2.27211591 27.44010567 2.26955352 29.11067967 2.265625 30.78125 C2.26967346 31.57398315 2.27372192 32.36671631 2.27789307 33.18347168 C2.22992027 38.77007973 2.22992027 38.77007973 0 41 C-2.62940196 41.19965373 -5.15120163 41.2798411 -7.78125 41.265625 C-8.55053833 41.26753845 -9.31982666 41.2694519 -10.11242676 41.27142334 C-11.7398308 41.27278508 -13.3672457 41.26908939 -14.99462891 41.26074219 C-17.49015631 41.25004221 -19.98496382 41.26063751 -22.48046875 41.2734375 C-24.05989743 41.2721159 -25.63932566 41.2695535 -27.21875 41.265625 C-27.9677356 41.26967346 -28.71672119 41.27372192 -29.48840332 41.27789307 C-34.77007757 41.22992243 -34.77007757 41.22992243 -37 39 C-37.25 36 -37.25 36 -37 33 C-35 31 -35 31 -32.29443359 30.77294922 C-31.17375488 30.78342285 -30.05307617 30.79389648 -28.8984375 30.8046875 C-27.08085937 30.81435547 -27.08085937 30.81435547 -25.2265625 30.82421875 C-23.95554687 30.84097656 -22.68453125 30.85773438 -21.375 30.875 C-20.09625 30.88402344 -18.8175 30.89304687 -17.5 30.90234375 C-14.33314833 30.92597697 -11.16666576 30.95892371 -8 31 C-8.01571045 30.16750732 -8.0314209 29.33501465 -8.04760742 28.47729492 C-8.09876642 25.38552144 -8.1363648 22.29396382 -8.16479492 19.2019043 C-8.18728333 17.20672299 -8.22540198 15.21173787 -8.26367188 13.21679688 C-8.27333984 11.96318359 -8.28300781 10.70957031 -8.29296875 9.41796875 C-8.3086792 8.26063232 -8.32438965 7.1032959 -8.34057617 5.91088867 C-8 3 -8 3 -6.6418457 1.1184082 C-4.32690304 -0.45850664 -2.73679826 -0.35087157 0 0 Z " fill="#7DBBD6" transform="translate(443,258)"/>
<path d="M0 0 C2.5625 0.3125 2.5625 0.3125 4.2043457 1.44458008 C6.17101605 4.14941467 5.90216724 6.19612616 5.85546875 9.51171875 C5.84580078 10.72021484 5.83613281 11.92871094 5.82617188 13.17382812 C5.80103516 14.43646484 5.77589844 15.69910156 5.75 17 C5.73646484 18.27423828 5.72292969 19.54847656 5.70898438 20.86132812 C5.67358199 24.01214057 5.6241979 27.16211045 5.5625 30.3125 C6.40022949 30.30202637 7.23795898 30.29155273 8.10107422 30.28076172 C11.20588164 30.24669981 14.31059392 30.22161089 17.41552734 30.20263672 C19.4216136 30.18761893 21.42761324 30.16221019 23.43359375 30.13671875 C24.69042969 30.13027344 25.94726562 30.12382812 27.2421875 30.1171875 C28.40476074 30.10671387 29.56733398 30.09624023 30.76513672 30.08544922 C33.5625 30.3125 33.5625 30.3125 35.5625 32.3125 C35.8125 35.3125 35.8125 35.3125 35.5625 38.3125 C33.01684588 40.85815412 31.37074286 40.5597401 27.8984375 40.59039307 C26.74214844 40.58432037 26.74214844 40.58432037 25.5625 40.578125 C24.77101563 40.58003845 23.97953125 40.5819519 23.1640625 40.58392334 C21.4895801 40.58528518 19.81508715 40.58158882 18.140625 40.57324219 C15.57267619 40.5625424 13.00542697 40.57313725 10.4375 40.5859375 C8.81249845 40.5846159 7.18749734 40.58205351 5.5625 40.578125 C4.40621094 40.58419769 4.40621094 40.58419769 3.2265625 40.59039307 C-2.20757868 40.54242132 -2.20757868 40.54242132 -4.4375 38.3125 C-4.63723733 35.61114677 -4.71731573 33.01452789 -4.703125 30.3125 C-4.70503845 29.52101563 -4.7069519 28.72953125 -4.70892334 27.9140625 C-4.71028518 26.2395801 -4.70658882 24.56508715 -4.69824219 22.890625 C-4.6875424 20.32267619 -4.69813725 17.75542697 -4.7109375 15.1875 C-4.7096159 13.56249845 -4.70705351 11.93749734 -4.703125 10.3125 C-4.70717346 9.54164063 -4.71122192 8.77078125 -4.71539307 7.9765625 C-4.65024025 0.59618465 -4.65024025 0.59618465 0 0 Z " fill="#7DBBD6" transform="translate(69.4375,258.6875)"/>
<path d="M0 0 C1.15628906 0.00607269 1.15628906 0.00607269 2.3359375 0.01226807 C3.12742187 0.01035461 3.91890625 0.00844116 4.734375 0.00646973 C6.4088574 0.00510789 8.08335035 0.00880425 9.7578125 0.01715088 C12.32576131 0.02785067 14.89301053 0.01725582 17.4609375 0.00445557 C19.08593905 0.00577716 20.71094016 0.00833956 22.3359375 0.01226807 C23.10679688 0.0082196 23.87765625 0.00417114 24.671875 0 C30.10601618 0.04797174 30.10601618 0.04797174 32.3359375 2.27789307 C32.68780455 5.02245602 32.79883019 6.6065639 31.20385742 8.91973877 C28.49902283 10.88640912 26.45231134 10.6175603 23.13671875 10.57086182 C21.92822266 10.56119385 20.71972656 10.55152588 19.47460938 10.54156494 C18.21197266 10.51642822 16.94933594 10.4912915 15.6484375 10.46539307 C13.73708008 10.44509033 13.73708008 10.44509033 11.78710938 10.42437744 C8.63629693 10.38897505 5.48632705 10.33959096 2.3359375 10.27789307 C2.34641113 11.11562256 2.35688477 11.95335205 2.36767578 12.81646729 C2.40173769 15.9212747 2.42682661 19.02598699 2.44580078 22.13092041 C2.46081857 24.13700667 2.48622731 26.14300631 2.51171875 28.14898682 C2.51816406 29.40582275 2.52460937 30.66265869 2.53125 31.95758057 C2.54172363 33.12015381 2.55219727 34.28272705 2.56298828 35.48052979 C2.3359375 38.27789307 2.3359375 38.27789307 0.3359375 40.27789307 C-2.6640625 40.52789307 -2.6640625 40.52789307 -5.6640625 40.27789307 C-8.20971662 37.73223894 -7.9113026 36.08613592 -7.94195557 32.61383057 C-7.9379071 31.84297119 -7.93385864 31.07211182 -7.9296875 30.27789307 C-7.93160095 29.48640869 -7.9335144 28.69492432 -7.93548584 27.87945557 C-7.93684768 26.20497317 -7.93315132 24.53048022 -7.92480469 22.85601807 C-7.9141049 20.28806925 -7.92469975 17.72082003 -7.9375 15.15289307 C-7.9361784 13.52789152 -7.93361601 11.9028904 -7.9296875 10.27789307 C-7.93373596 9.50703369 -7.93778442 8.73617432 -7.94195557 7.94195557 C-7.88279826 1.24073741 -6.70121815 0.0591573 0 0 Z " fill="#7EBCD6" transform="translate(72.6640625,54.72210693359375)"/>
<path d="M0 0 C1.03454819 -0.00637985 2.06909637 -0.0127597 3.13499451 -0.01933289 C4.26099564 -0.02044571 5.38699677 -0.02155853 6.54711914 -0.02270508 C7.69515518 -0.02603348 8.84319122 -0.02936188 10.02601624 -0.03279114 C12.45972288 -0.03786534 14.89343651 -0.04019931 17.32714844 -0.04003906 C21.06269731 -0.04222487 24.79795074 -0.06037379 28.53344727 -0.0793457 C30.89217021 -0.08227958 33.25089456 -0.08426441 35.60961914 -0.08520508 C36.73359604 -0.09239059 37.85757294 -0.09957611 39.01560974 -0.10697937 C40.05331009 -0.10390274 41.09101044 -0.10082611 42.16015625 -0.09765625 C43.07647324 -0.09908127 43.99279022 -0.10050629 44.93687439 -0.10197449 C47.14477539 0.14526367 47.14477539 0.14526367 49.14477539 2.14526367 C49.50245112 4.93513439 49.63606215 6.48343651 47.93041992 8.78115845 C45.58889943 10.56991331 44.19197092 10.52543235 41.26196289 10.53344727 C40.27083496 10.54290375 39.27970703 10.55236023 38.25854492 10.56210327 C37.18975098 10.55603058 36.12095703 10.54995789 35.01977539 10.54370117 C33.37211182 10.54800644 33.37211182 10.54800644 31.69116211 10.55239868 C29.36775192 10.55444103 27.04432461 10.5488993 24.72094727 10.53637695 C21.15870827 10.52032645 17.59760397 10.53622065 14.03540039 10.55541992 C11.78018955 10.55343752 9.52497941 10.54959391 7.26977539 10.54370117 C6.20098145 10.54977386 5.1321875 10.55584656 4.03100586 10.56210327 C2.54431396 10.54791855 2.54431396 10.54791855 1.02758789 10.53344727 C0.15505371 10.53106049 -0.71748047 10.52867371 -1.61645508 10.5262146 C-3.85522461 10.14526367 -3.85522461 10.14526367 -5.67602539 8.8163147 C-6.85522461 7.14526367 -6.85522461 7.14526367 -6.60522461 4.02026367 C-5.42748073 -0.49442119 -4.40863399 0.01835547 0 0 Z " fill="#7EBCD6" transform="translate(324.855224609375,245.854736328125)"/>
<path d="M0 0 C0.85113373 -0.00960754 1.70226746 -0.01921509 2.57919312 -0.02911377 C3.50519318 -0.03336365 4.43119324 -0.03761353 5.38525391 -0.04199219 C6.33115387 -0.04769226 7.27705383 -0.05339233 8.25161743 -0.05926514 C10.25741451 -0.06873083 12.26322725 -0.07525532 14.26904297 -0.07910156 C17.34190966 -0.08880433 20.41410697 -0.11981176 23.48681641 -0.15136719 C25.43212492 -0.15789715 27.37743823 -0.16314765 29.32275391 -0.16699219 C30.24470551 -0.17933899 31.1666571 -0.19168579 32.11654663 -0.20440674 C32.97398468 -0.20140564 33.83142273 -0.19840454 34.71484375 -0.1953125 C35.46905609 -0.19895813 36.22326843 -0.20260376 37.00033569 -0.20635986 C39.54390642 0.26419271 40.45494685 1.10672268 41.98681641 3.16113281 C41.74228517 6.50305974 41.38138083 7.76656839 38.98681641 10.16113281 C37.17201233 10.42182922 37.17201233 10.42182922 34.9519043 10.43579102 C34.12086685 10.44532303 33.28982941 10.45485504 32.43360901 10.4646759 C31.53464401 10.4637645 30.63567902 10.46285309 29.70947266 10.46191406 C28.78718369 10.46619919 27.86489471 10.47048431 26.91465759 10.47489929 C24.96191225 10.4806484 23.00914549 10.4811386 21.05639648 10.47680664 C18.06473306 10.47364908 15.07406041 10.49709011 12.08251953 10.52246094 C10.18733849 10.52473407 8.29215478 10.52543736 6.39697266 10.52441406 C5.50003189 10.53362381 4.60309113 10.54283356 3.67897034 10.55232239 C2.84478073 10.5460936 2.01059113 10.53986481 1.15112305 10.53344727 C0.4176918 10.53407669 -0.31573944 10.53470612 -1.07139587 10.53535461 C-3.59412486 10.04917367 -4.50739866 9.21792958 -6.01318359 7.16113281 C-5.57885066 1.73197113 -5.43597676 0.0493168 0 0 Z " fill="#ABE7DB" transform="translate(324.01318359375,185.8388671875)"/>
<path d="M0 0 C1.61165039 0.03383789 1.61165039 0.03383789 3.25585938 0.06835938 C5.9011685 0.12714402 8.54361413 0.20926043 11.1875 0.3125 C9.9809375 1.488125 9.9809375 1.488125 8.75 2.6875 C5.38151336 6.13814485 5.0487571 7.57054182 5.0625 12.25 C5.05992187 13.12527344 5.05734375 14.00054687 5.0546875 14.90234375 C5.08927997 17.45709056 5.08927997 17.45709056 6.1875 20.3125 C2.54168313 20.34137512 -1.10410463 20.35925585 -4.75 20.375 C-6.31137695 20.38756836 -6.31137695 20.38756836 -7.90429688 20.40039062 C-8.89365234 20.40361328 -9.88300781 20.40683594 -10.90234375 20.41015625 C-12.27700806 20.41801147 -12.27700806 20.41801147 -13.67944336 20.42602539 C-15.8125 20.3125 -15.8125 20.3125 -16.8125 19.3125 C-17.01810851 17.06843001 -17.12674387 14.81515037 -17.1875 12.5625 C-17.23648438 11.33015625 -17.28546875 10.0978125 -17.3359375 8.828125 C-16.8125 5.3125 -16.8125 5.3125 -15.02734375 2.37890625 C-10.15135967 -0.75523175 -5.66122514 -0.22478903 0 0 Z " fill="#23D1B4" transform="translate(182.8125,409.6875)"/>
<path d="M0 0 C3 0.25 3 0.25 5 2.25 C5.19965373 4.87940196 5.2798411 7.40120163 5.265625 10.03125 C5.26753845 10.80053833 5.2694519 11.56982666 5.27142334 12.36242676 C5.27278508 13.9898308 5.26908939 15.6172457 5.26074219 17.24462891 C5.25004221 19.74015631 5.26063751 22.23496382 5.2734375 24.73046875 C5.2721159 26.30989743 5.2695535 27.88932566 5.265625 29.46875 C5.26967346 30.2177356 5.27372192 30.96672119 5.27789307 31.73840332 C5.22992243 37.02007757 5.22992243 37.02007757 3 39.25 C-0.5625 39 -0.5625 39 -4 38.25 C-5.52264109 35.20471781 -5.16285537 32.02854754 -5.16796875 28.6875 C-5.17129715 27.94040771 -5.17462555 27.19331543 -5.17805481 26.42358398 C-5.18311966 24.84326799 -5.18546327 23.26294129 -5.18530273 21.68261719 C-5.18749134 19.25958757 -5.20565701 16.83701164 -5.22460938 14.4140625 C-5.22754292 12.8802099 -5.22952798 11.34635512 -5.23046875 9.8125 C-5.23765427 9.08538818 -5.24483978 8.35827637 -5.25224304 7.60913086 C-5.21949968 0.43495831 -5.21949968 0.43495831 0 0 Z " fill="#ABE8DB" transform="translate(402,104.75)"/>
<path d="M0 0 C3 0.25 3 0.25 5 2.25 C5.39800538 6.36767518 5.32904717 10.49088662 5.31567383 14.6262207 C5.31251696 16.67648614 5.3359576 18.72530405 5.36132812 20.77539062 C5.36229492 22.70995117 5.36229492 22.70995117 5.36328125 24.68359375 C5.36626221 25.87009521 5.36924316 27.05659668 5.37231445 28.27905273 C5 31.25 5 31.25 3.63745117 33.13696289 C1.30206635 34.72441173 -0.24503853 34.67384023 -3 34.25 C-5.40212156 30.64681767 -5.25748287 28.96606185 -5.265625 24.68359375 C-5.26820313 23.39388672 -5.27078125 22.10417969 -5.2734375 20.77539062 C-5.26924805 20.10483643 -5.26505859 19.43428223 -5.26074219 18.7434082 C-5.2500197 16.69126945 -5.26065635 14.64000252 -5.2734375 12.58789062 C-5.27085937 11.29947266 -5.26828125 10.01105469 -5.265625 8.68359375 C-5.26336914 7.49822021 -5.26111328 6.31284668 -5.25878906 5.09155273 C-4.89131587 1.05662773 -4.01823641 0.33485303 0 0 Z " fill="#ABE9DB" transform="translate(342,109.75)"/>
<path d="M0 0 C2 2 2 2 2.04296875 5.1640625 C0.65036595 10.28592001 -1.92093903 12.77353803 -5.6875 16.375 C-6.30044922 17.00277344 -6.91339844 17.63054687 -7.54492188 18.27734375 C-11.19025343 21.85695883 -13.66374605 23.81966577 -19 24 C-20.5625 22.25 -20.5625 22.25 -22 20 C-21.44231947 14.60908823 -16.8845578 11.37176006 -13.25 7.75 C-12.17492187 6.63238281 -12.17492187 6.63238281 -11.078125 5.4921875 C-10.376875 4.78835937 -9.675625 4.08453125 -8.953125 3.359375 C-8.31536133 2.71452148 -7.67759766 2.06966797 -7.02050781 1.40527344 C-4.47566229 -0.36467953 -3.03943201 -0.42814176 0 0 Z " fill="#A88AC8" transform="translate(240,161)"/>
<path d="M0 0 C2.56988681 2.56988681 2.25706775 3.58910053 2.265625 7.15625 C2.26820313 8.17847656 2.27078125 9.20070313 2.2734375 10.25390625 C2.26570313 11.32511719 2.25796875 12.39632812 2.25 13.5 C2.25773437 14.57121094 2.26546875 15.64242187 2.2734375 16.74609375 C2.27085937 17.76832031 2.26828125 18.79054687 2.265625 19.84375 C2.26336914 20.78412109 2.26111328 21.72449219 2.25878906 22.69335938 C2 25 2 25 0 27 C-3.5625 26.75 -3.5625 26.75 -7 26 C-8.88077284 22.23845432 -8.22802645 17.70176726 -8.25 13.5625 C-8.270625 12.59505859 -8.29125 11.62761719 -8.3125 10.63085938 C-8.31765625 9.70208984 -8.3228125 8.77332031 -8.328125 7.81640625 C-8.3374707 6.96506104 -8.34681641 6.11371582 -8.35644531 5.23657227 C-7.57834632 0.35426753 -4.54685976 -0.58293074 0 0 Z " fill="#7EBCD6" transform="translate(365,117)"/>
<path d="M0 0 C2.56988681 2.56988681 2.25706775 3.58910053 2.265625 7.15625 C2.26820313 8.17847656 2.27078125 9.20070313 2.2734375 10.25390625 C2.26570313 11.32511719 2.25796875 12.39632812 2.25 13.5 C2.25773437 14.57121094 2.26546875 15.64242187 2.2734375 16.74609375 C2.27085937 17.76832031 2.26828125 18.79054687 2.265625 19.84375 C2.26336914 20.78412109 2.26111328 21.72449219 2.25878906 22.69335938 C2 25 2 25 0 27 C-3.5625 26.75 -3.5625 26.75 -7 26 C-8.88077284 22.23845432 -8.22802645 17.70176726 -8.25 13.5625 C-8.270625 12.59505859 -8.29125 11.62761719 -8.3125 10.63085938 C-8.31765625 9.70208984 -8.3228125 8.77332031 -8.328125 7.81640625 C-8.3374707 6.96506104 -8.34681641 6.11371582 -8.35644531 5.23657227 C-7.57834632 0.35426753 -4.54685976 -0.58293074 0 0 Z " fill="#7EBCD6" transform="translate(325,117)"/>
<path d="M0 0 C2.76386182 2.4183791 3.79835577 3.96657334 4.5 7.5625 C3.81155271 10.91868055 2.77794303 12.00557936 0 14 C-3.4375 15.125 -3.4375 15.125 -7 15 C-10 12.4375 -10 12.4375 -12 9 C-12 5.76037732 -11.5220343 3.92123699 -9.9375 1.125 C-6.75095272 -0.72525326 -3.51451518 -0.75664613 0 0 Z " fill="#F6EDF3" transform="translate(288,55)"/>
<path d="M0 0 C3 2.125 3 2.125 5 5 C5.125 8.0625 5.125 8.0625 4 11 C1.58177563 13.55257017 -0.06377684 14.78934979 -3.5 15.5625 C-7.29082295 14.70956484 -8.74689043 13.11459264 -11 10 C-11 6.45638757 -10.65850044 4.13408409 -8.875 1.0625 C-5.76581435 -0.69937187 -3.49155423 -0.48159369 0 0 Z " fill="#F6EEF3" transform="translate(231,55)"/>
<path d="M0 0 C3 2.125 3 2.125 5 5 C5.125 8.0625 5.125 8.0625 4 11 C1.58177563 13.55257017 -0.06377684 14.78934979 -3.5 15.5625 C-7.29082295 14.70956484 -8.74689043 13.11459264 -11 10 C-11 6.45638757 -10.65850044 4.13408409 -8.875 1.0625 C-5.76581435 -0.69937187 -3.49155423 -0.48159369 0 0 Z " fill="#9DF7BC" transform="translate(259,55)"/>
<path d="M0 0 C0.99 0.33 1.98 0.66 3 1 C3.7890625 3.66015625 3.7890625 3.66015625 4 7 C2.0859375 9.80859375 2.0859375 9.80859375 -0.625 12.4375 C-1.50414062 13.32308594 -2.38328125 14.20867187 -3.2890625 15.12109375 C-6 17 -6 17 -8.7109375 16.91015625 C-11 16 -11 16 -13 14 C-13.22190119 9.34007493 -11.37620034 6.88359572 -8.375 3.5625 C-5.17451244 0.51799288 -4.59908076 0 0 0 Z " fill="#A88AC8" transform="translate(150,115)"/>
<path d="M0 0 C2 2 2 2 2.265625 5.1875 C2.26046875 6.445625 2.2553125 7.70375 2.25 9 C2.25515625 10.258125 2.2603125 11.51625 2.265625 12.8125 C2 16 2 16 0 18 C-3.5625 17.75 -3.5625 17.75 -7 17 C-8.35281371 14.29437257 -8.20609362 12.08106345 -8.25 9.0625 C-8.27578125 8.00160156 -8.3015625 6.94070312 -8.328125 5.84765625 C-8 3 -8 3 -6.64453125 1.140625 C-4.33053147 -0.46433447 -2.75058079 -0.35263856 0 0 Z " fill="#7EBBD6" transform="translate(385,126)"/>
</svg>
