<?xml version="1.0" encoding="UTF-8"?>
<svg version="1.1" xmlns="http://www.w3.org/2000/svg" width="512" height="512">
<path d="M0 0 C4.91084135 2.28003348 7.47820794 5.236615 10 10 C11.88902462 16.67455365 10.08993307 22.22741409 6.80499268 28.15713501 C5.38158589 30.3898598 3.89872263 32.56731047 2.3828125 34.73828125 C1.54259048 35.97036568 1.54259048 35.97036568 0.68539429 37.2273407 C-0.52508459 39.00030287 -1.74028094 40.77005168 -2.9597168 42.53686523 C-6.27348213 47.33918493 -9.55182854 52.16565612 -12.8359375 56.98828125 C-13.51561584 57.98425323 -14.19529419 58.98022522 -14.89556885 60.00637817 C-21.88319262 70.25950881 -28.69781891 80.62334444 -35.5 91 C-45.65502878 106.47217974 -55.93727466 121.85198733 -66.3125 137.17724609 C-75.47689097 150.71891755 -84.5250735 164.33209604 -93.5 178 C-103.6583019 193.47006483 -113.93724019 208.85193641 -124.3125 224.17724609 C-133.47689097 237.71891755 -142.5250735 251.33209604 -151.5 265 C-161.65697129 280.46803845 -171.93432395 295.84806573 -182.30847168 311.17120361 C-191.55867263 324.83912665 -200.68801834 338.58165904 -209.75 352.375 C-218.57473797 365.79503704 -227.40797143 379.20927618 -236.35656738 392.54718018 C-237.44035155 394.16472584 -238.5213903 395.78411483 -239.5994873 397.40545654 C-241.07946671 399.62974386 -242.56949526 401.8469421 -244.0625 404.0625 C-244.49137512 404.71135162 -244.92025024 405.36020325 -245.36212158 406.02871704 C-248.2851955 410.33203114 -251.31041496 413.65520748 -256 416 C-261.53042052 416.50502343 -266.41030524 416.73807257 -271.5 414.375 C-275.98216709 410.11694127 -278.26719945 406.85495562 -278.875 400.625 C-278.59038447 395.07944433 -276.78812004 391.36575472 -273.78125 386.828125 C-273.33864838 386.14096405 -272.89604675 385.4538031 -272.44003296 384.74581909 C-270.97583981 382.48638634 -269.49119537 380.24169381 -268 378 C-267.49486877 377.23878845 -266.98973755 376.4775769 -266.46929932 375.69329834 C-263.15562705 370.71377164 -259.80725198 365.75825889 -256.4473877 360.80981445 C-253.27827002 356.14094353 -250.12021636 351.46459412 -246.9609375 346.7890625 C-246.31092773 345.8274823 -245.66091797 344.8659021 -244.99121094 343.87518311 C-238.34098335 334.03341082 -231.71895026 324.17291209 -225.11981201 314.29681396 C-223.8767064 312.4374104 -222.63228763 310.57888405 -221.38653564 308.72125244 C-219.65536261 306.13931887 -217.92863785 303.5544685 -216.203125 300.96875 C-215.68787262 300.20202972 -215.17262024 299.43530945 -214.64175415 298.64535522 C-214.17377411 297.94189972 -213.70579407 297.23844421 -213.22363281 296.51367188 C-212.81590637 295.90390503 -212.40817993 295.29413818 -211.98809814 294.66589355 C-210.83321194 292.85294328 -210.83321194 292.85294328 -210 290 C-210.60457031 289.74992187 -211.20914063 289.49984375 -211.83203125 289.2421875 C-214.32786487 287.81214229 -215.22224043 286.57480307 -216.6875 284.125 C-217.10386719 283.44695312 -217.52023438 282.76890625 -217.94921875 282.0703125 C-220.54468875 276.9565612 -220.84108947 271.35830686 -219.45703125 265.83203125 C-213.46987076 249.95059615 -195.39967499 240.79308003 -180.921875 233.82421875 C-180.32449524 233.53585144 -179.72711548 233.24748413 -179.1116333 232.95037842 C-177 232 -177 232 -174.89352417 231.27767944 C-167.92681352 228.73607282 -164.93521102 224.70998205 -161.0234375 218.58984375 C-160.40908844 217.66716202 -159.79473938 216.74448029 -159.16177368 215.7938385 C-157.21199743 212.85488425 -155.29343736 209.89698169 -153.375 206.9375 C-152.08011806 204.97589644 -150.78325994 203.01559587 -149.484375 201.05664062 C-143.561438 192.09767408 -137.75134784 183.06997513 -132 174 C-176.04063633 175.01710477 -212.36589989 190.86412345 -244.6875 220.4609375 C-245.47125 221.17507813 -246.255 221.88921875 -247.0625 222.625 C-247.71347656 223.23601562 -248.36445313 223.84703125 -249.03515625 224.4765625 C-254.71493562 228.88036758 -261.11746098 228.71506899 -268 228 C-273.88354259 226.30245329 -277.57662095 223.08616316 -281 218 C-284.17149 211.72096134 -285.08017348 205.88977638 -282.9375 199.0625 C-280.93227442 194.19935946 -277.6242444 190.7342923 -274 187 C-273.42507813 186.37480469 -272.85015625 185.74960938 -272.2578125 185.10546875 C-240.4983117 151.64213207 -191.07728092 131.55991567 -145.44384766 129.86816406 C-139.36043617 129.73938938 -133.27959699 129.72866263 -127.1953125 129.796875 C-126.03926514 129.79373291 -124.88321777 129.79059082 -123.69213867 129.78735352 C-120.81523554 129.953047 -118.60926267 130.28838817 -115.86450195 130.97631836 C-111.39552211 131.95320215 -107.3739115 132.67871956 -103 131 C-96.37351703 125.50492169 -92.26221823 117.3656551 -87.9375 110.0625 C-86.67177951 108.03090284 -85.40034489 106.00285383 -84.12304688 103.97851562 C-81.01470749 99.02483645 -77.98070792 94.031392 -75 89 C-120.77699573 69.74236814 -182.69157231 81.67616604 -226.85058594 99.12646484 C-258.5562513 112.22228314 -284.38200181 132.07271596 -309.3515625 155.17578125 C-310.03992188 155.79839844 -310.72828125 156.42101562 -311.4375 157.0625 C-312.01371094 157.58972656 -312.58992188 158.11695313 -313.18359375 158.66015625 C-318.87445547 162.85793167 -325.21588089 162.70484354 -332 162 C-337.88354259 160.30245329 -341.57662095 157.08616316 -345 152 C-348.17149 145.72096134 -349.08017348 139.88977638 -346.9375 133.0625 C-344.90232037 128.17993603 -341.65908512 124.74975271 -338 121 C-336.64455078 119.58654297 -336.64455078 119.58654297 -335.26171875 118.14453125 C-328.88985219 111.58142463 -322.22238801 105.62848169 -315 100 C-313.99324219 99.19949219 -312.98648438 98.39898437 -311.94921875 97.57421875 C-275.09872877 68.48501851 -232.137382 49.78658161 -186.1875 40.75 C-185.4253418 40.59877686 -184.66318359 40.44755371 -183.87792969 40.29174805 C-168.5699598 37.45711665 -153.36342959 36.6502865 -137.82495117 36.68432617 C-134.83279651 36.68747862 -131.84164245 36.66394284 -128.84960938 36.63867188 C-110.84729379 36.5793018 -93.16126802 38.53883894 -75.5625 42.375 C-74.58023437 42.58342529 -73.59796875 42.79185059 -72.5859375 43.0065918 C-64.22081225 44.83612123 -56.08953027 47.20435351 -48 50 C-47.7241658 49.26113052 -47.4483316 48.52226105 -47.16413879 47.76100159 C-46.08862385 45.21019021 -44.90892166 43.11745671 -43.3737793 40.82397461 C-42.84950851 40.03643295 -42.32523773 39.2488913 -41.78507996 38.43748474 C-41.22049576 37.60088821 -40.65591156 36.76429169 -40.07421875 35.90234375 C-39.4896138 35.03106339 -38.90500885 34.15978302 -38.3026886 33.26210022 C-37.06694249 31.42398693 -35.8286995 29.58755013 -34.58813477 27.75268555 C-32.69592751 24.94998267 -30.81735505 22.13847332 -28.93945312 19.32617188 C-27.73519695 17.53850852 -26.53014503 15.75138091 -25.32421875 13.96484375 C-24.76570724 13.12622299 -24.20719574 12.28760223 -23.63175964 11.42356873 C-17.0352785 1.72908455 -11.75565216 -1.09247553 0 0 Z " fill="white" transform="translate(390,48)"/>
<path d="M0 0 C3.69129381 1.15262135 7.00026382 2.39361213 10.328125 4.36328125 C11.11888428 4.8312915 11.90964355 5.29930176 12.72436523 5.78149414 C13.55782471 6.28672607 14.39128418 6.79195801 15.25 7.3125 C16.125354 7.84157959 17.00070801 8.37065918 17.90258789 8.91577148 C31.83223721 17.45823589 44.76367633 27.18765987 57 38 C58.32064453 39.15435547 58.32064453 39.15435547 59.66796875 40.33203125 C64.01939356 44.18422282 68.2623114 48.14504861 72.4375 52.1875 C73.24058594 52.96480469 74.04367187 53.74210937 74.87109375 54.54296875 C78.94954751 59.25002823 80.70478814 64.04788136 81.3125 70.125 C80.76499827 76.9140214 78.73449321 82.88134231 73.5625 87.5 C67.29265201 92.50424062 60.7431234 92.75097134 53 92 C46.40124113 90.52824756 42.16277239 85.39366398 37.63720703 80.70703125 C32.77382142 75.67415245 27.4941738 71.33147234 22 67 C21.24847656 66.36964844 20.49695313 65.73929687 19.72265625 65.08984375 C6.60865533 54.1727182 -8.22740047 45.45217087 -23 37 C-21.39910601 32.35740742 -18.91214203 28.5672211 -16.2109375 24.51171875 C-15.74765045 23.80852005 -15.2843634 23.10532135 -14.80703735 22.3808136 C-13.33389106 20.14690247 -11.85455334 17.91717149 -10.375 15.6875 C-9.37198372 14.16889191 -8.36937498 12.65001456 -7.3671875 11.13085938 C-4.91616737 7.41743788 -2.4595881 3.70775147 0 0 Z " fill="white" transform="translate(389,118)"/>
<path d="M0 0 C3.22170796 0.55287859 5.89333088 1.2630021 8.78515625 2.78515625 C9.47448242 3.14665771 10.16380859 3.50815918 10.87402344 3.88061523 C11.5962207 4.27063721 12.31841797 4.66065918 13.0625 5.0625 C14.19413574 5.66976929 14.19413574 5.66976929 15.34863281 6.28930664 C32.4312418 15.58810241 60.66354827 32.68690831 68.5 51.625 C69.64455765 59.35076411 68.85126422 65.16456905 65 72 C60.95452145 76.66859729 56.38008907 79.5990515 50.16796875 80.3359375 C42.10618322 80.44159655 36.79670801 79.65634912 30.88671875 73.96484375 C29.25654347 72.27987267 27.62775614 70.59355819 26 68.90625 C12.26180808 55.20569696 -5.52675622 45.13022397 -23 37 C-21.39910601 32.35740742 -18.91214203 28.5672211 -16.2109375 24.51171875 C-15.74765045 23.80852005 -15.2843634 23.10532135 -14.80703735 22.3808136 C-13.33389106 20.14690247 -11.85455334 17.91717149 -10.375 15.6875 C-9.37198372 14.16889191 -8.36937498 12.65001456 -7.3671875 11.13085938 C-4.91616737 7.41743788 -2.4595881 3.70775147 0 0 Z " fill="white" transform="translate(337,196)"/>
<path d="M0 0 C6.90437551 5.60005817 11.11592958 13.15737445 12.09375 21.9765625 C12.36009225 33.22952263 10.18845786 41.51855931 2.5625 50.25 C-5.00777695 57.00858423 -14.03833979 59.14280626 -23.984375 58.7265625 C-33.69543681 57.51837875 -40.5697282 52.86383595 -46.84765625 45.515625 C-52.16764825 38.5050233 -53.74485442 30.49997216 -53.13671875 21.796875 C-51.65593033 12.28393121 -46.75064752 4.73501946 -39.328125 -1.28515625 C-27.13605437 -9.76762399 -11.90347894 -8.13971227 0 0 Z " fill="white" transform="translate(276.3125,368.6875)"/>
<path d="M0 0 C8.61249092 0.95209815 8.61249092 0.95209815 11.82421875 2.34765625 C12.7685376 2.75455688 12.7685376 2.75455688 13.73193359 3.16967773 C14.37727051 3.46430908 15.02260742 3.75894043 15.6875 4.0625 C16.37666504 4.37195557 17.06583008 4.68141113 17.77587891 5.00024414 C28.46404311 9.92556894 38.11694792 16.27424696 47 24 C47.6703125 24.57492187 48.340625 25.14984375 49.03125 25.7421875 C54.64032853 30.89968768 57.53788614 36.36085334 58.5 43.9375 C58.08359327 50.66717007 55.61702136 56.97521014 50.5625 61.5 C44.30620375 66.49342439 37.73097366 66.77815029 30 66 C24.6994025 64.60214331 21.19757895 61.35937503 17.25 57.6875 C4.83142118 46.16002531 -9.50377153 42.05190403 -26 40 C-21.40347579 31.19081549 -15.78832235 23.1251864 -10.1875 14.9375 C-9.19821666 13.48526512 -8.20928143 12.03279304 -7.22070312 10.58007812 C-4.81780796 7.05063706 -2.41022058 3.52444222 0 0 Z " fill="white" transform="translate(284,276)"/>
</svg>
