<?xml version="1.0" encoding="UTF-8"?>
<svg version="1.1" xmlns="http://www.w3.org/2000/svg" width="512" height="512">
<path d="M0 0 C0.89203125 0.74121094 1.7840625 1.48242188 2.703125 2.24609375 C10.95834429 9.37672478 18.98739851 17.19622317 20.03125 28.4921875 C19.96192248 34.05572064 18.11424974 38.99435048 15.4375 43.8125 C10.36484129 48.36488603 4.69814784 51.27923877 -2.1875 51.5 C-12.70221856 50.86025893 -18.93420413 44.22922934 -25.8125 37 C-39.1086237 23.57403134 -57.02772114 17.75020084 -75.5 17.625 C-99.56637358 17.84498513 -116.56214238 28.25285074 -133.24829102 44.95776367 C-134.12432983 45.82708527 -135.00036865 46.69640686 -135.9029541 47.59207153 C-138.28075202 49.95424121 -140.65400811 52.32077736 -143.02464032 54.69012618 C-144.51229712 56.17635155 -146.00137333 57.66113966 -147.49094963 59.14544106 C-152.70531005 64.34135793 -157.91454028 69.54235413 -163.11889648 74.74829102 C-167.94208309 79.57267819 -172.77630825 84.38580283 -177.61586052 89.19376773 C-181.79489942 93.3465158 -185.96604852 97.50708106 -190.13132614 101.67363149 C-192.60841808 104.15122922 -195.08839731 106.62574008 -197.57641792 109.09236717 C-200.35601969 111.84871233 -203.1191069 114.62127276 -205.88110352 117.39526367 C-206.68911911 118.19204025 -207.4971347 118.98881683 -208.32963562 119.80973816 C-221.62096961 133.24707683 -229.38106102 149.1637734 -231 168 C-231.10634766 169.09248047 -231.10634766 169.09248047 -231.21484375 170.20703125 C-232.12273534 189.20012335 -224.4178572 207.96331324 -212 222 C-197.99243966 236.93348382 -178.98099315 244.42514193 -158.6875 245.3125 C-132.37778215 244.53868477 -114.28418299 230.60003449 -96.5546875 212.546875 C-94.80106953 210.77575619 -93.04715452 209.00493144 -91.29296875 207.234375 C-88.57332402 204.48371894 -85.85610801 201.73078711 -83.14404297 198.97265625 C-80.49607158 196.28222955 -77.8386333 193.60145031 -75.1796875 190.921875 C-73.97625198 189.69050812 -73.97625198 189.69050812 -72.74850464 188.43426514 C-66.06516537 181.72086377 -59.65728681 175.95132362 -49.8125 175.6875 C-43.39103125 175.77221595 -38.95027927 177.22713173 -34.24609375 181.6484375 C-29.74983613 186.61057242 -27.71395146 191.02550334 -27.625 197.8125 C-27.59664062 198.78832031 -27.56828125 199.76414062 -27.5390625 200.76953125 C-28.91205284 210.39209912 -35.73466654 216.32695624 -42.328125 222.859375 C-43.36083193 223.89478515 -44.39294521 224.9307877 -45.42449951 225.96734619 C-47.58678377 228.13550754 -49.75607747 230.29632819 -51.93066406 232.45214844 C-54.67400474 235.17292676 -57.39910569 237.9111559 -60.11954594 240.65480614 C-86.82027954 267.54852074 -115.72050355 289.72413522 -155.28466797 290.24169922 C-188.88774991 290.33195872 -218.3482421 279.41458041 -242.625 255.875 C-263.67127594 234.62103055 -275.15557336 205.87447252 -275.24023438 176.12670898 C-275.24982727 174.09901069 -275.28084804 172.07237816 -275.3125 170.04492188 C-275.55667803 139.97578176 -262.69365063 112.25813859 -242.25952148 90.67016602 C-241.61009551 89.98116746 -240.96066954 89.2921689 -240.29156399 88.5822916 C-232.47833267 80.33489415 -224.44875091 72.30406886 -216.41015625 64.27734375 C-214.76909611 62.63560759 -213.12818423 60.99372322 -211.4874115 59.35169983 C-208.08135988 55.94418857 -204.67354362 52.5384552 -201.2644043 49.1340332 C-196.91154429 44.78690603 -192.56323997 40.4352538 -188.21622562 36.08228207 C-184.84217831 32.70461298 -181.46574293 29.32933917 -178.08859062 25.95477486 C-176.48400093 24.35084807 -174.88014216 22.74618969 -173.27705574 21.14076042 C-171.03876768 18.89991508 -168.79726913 16.66232939 -166.55493164 14.42553711 C-165.90595413 13.77453537 -165.25697662 13.12353363 -164.58833313 12.45280457 C-145.98037596 -6.07057372 -125.63702981 -18.831432 -100 -25 C-98.34677734 -25.39832031 -98.34677734 -25.39832031 -96.66015625 -25.8046875 C-62.46573717 -32.36498341 -26.46420093 -22.19704427 0 0 Z " fill="white" transform="translate(298,200)"/>
<path d="M0 0 C24.32917591 20.08171047 39.87419383 48.02537573 43.39599609 79.54150391 C46.04810138 109.61711459 38.55970103 139.45254725 20.60693359 163.93359375 C18.47474394 166.47625841 16.28410611 168.93235213 14.01318359 171.3515625 C12.10420097 173.40000002 10.2707117 175.47601251 8.44578552 177.59764099 C4.71752689 181.86462962 0.7904317 185.89123062 -3.22094727 189.89086914 C-4.34437279 191.01692314 -4.34437279 191.01692314 -5.49049377 192.16572571 C-7.94380618 194.62340562 -10.40071851 197.07744902 -12.85791016 199.53125 C-14.57766571 201.25168006 -16.29727287 202.97225847 -18.01673889 204.69297791 C-21.61183137 208.28954045 -25.20871536 211.88429903 -28.80688477 215.4777832 C-33.4043351 220.06953669 -37.99728105 224.66576535 -42.58888912 229.26336002 C-46.13623428 232.81432946 -49.68597106 236.36290041 -53.23642159 239.91076469 C-54.93032665 241.60400566 -56.62349744 243.29798154 -58.3159008 244.99272346 C-60.6867771 247.366157 -63.06086599 249.73633151 -65.43579102 252.10571289 C-66.1253891 252.79733521 -66.81498718 253.48895752 -67.52548218 254.20153809 C-91.74955271 278.32166893 -120.78122499 292.94719176 -155.39306641 293.18359375 C-184.85644934 293.00966261 -211.01796652 282.92551702 -233.39306641 263.93359375 C-234.10205078 263.35867188 -234.81103516 262.78375 -235.54150391 262.19140625 C-242.96664324 256.01801454 -249.79398816 248.78323526 -251.39306641 238.93359375 C-251.55471935 231.97097036 -249.68998349 226.68989425 -245.20556641 221.30859375 C-239.4350138 216.43568266 -234.40792704 214.24803949 -226.77197266 214.62109375 C-217.56740676 215.83023213 -211.66903343 222.53449065 -205.58056641 228.93359375 C-192.28444271 242.35956241 -174.36534526 248.18339291 -155.89306641 248.30859375 C-131.76623549 248.08805599 -114.80415471 237.62101493 -98.05297852 220.91577148 C-97.16718613 220.03990891 -96.28139374 219.16404633 -95.36875916 218.26164246 C-92.96397662 215.88087961 -90.56375991 213.49572337 -88.16649699 211.10740161 C-86.66185417 209.60866509 -85.15606308 208.11109133 -83.64993477 206.61384773 C-78.9179126 201.90909568 -74.18985554 197.20041254 -69.46757025 192.48588699 C-64.05291609 187.08018466 -58.62544839 181.68780235 -53.18636507 176.306683 C-48.95710037 172.1209034 -44.73968111 167.92341958 -40.53077322 163.71717221 C-38.02826489 161.21674145 -35.52132802 158.72121781 -33.00184441 156.23788261 C-18.04914948 141.67208386 -18.04914948 141.67208386 -7.39306641 123.93359375 C-6.88295517 122.78140854 -6.37284393 121.62922333 -5.84727478 120.44212341 C1.74002685 102.55551121 1.48234512 82.71213579 -5.65014648 64.71972656 C-13.52837566 46.2374674 -27.08349602 33.43439123 -45.50244141 25.61328125 C-65.38309368 18.5130483 -85.42125689 19.83931914 -104.61181641 28.36328125 C-122.08138365 37.05647067 -135.40982941 53.87678116 -148.93701172 67.57348633 C-151.51952864 70.18620396 -154.10823375 72.79266342 -156.69775391 75.3984375 C-157.87445145 76.59532448 -157.87445145 76.59532448 -159.07492065 77.81639099 C-164.911245 83.67930497 -169.98966302 88.3929698 -178.39306641 89.93359375 C-185.25174522 89.93359375 -191.11884362 89.06244935 -196.24072266 84.16796875 C-201.00175038 79.04522023 -203.13599231 75.12131249 -203.70556641 68.05859375 C-203.18947097 54.43367412 -191.27874921 45.66595985 -182.32666016 36.62890625 C-181.48949966 35.78367401 -180.65233917 34.93844177 -179.78981018 34.06759644 C-178.02906086 32.29312333 -176.2668301 30.52011906 -174.50317383 28.74853516 C-172.72944596 26.96330326 -170.96018776 25.17361874 -169.19555664 23.37939453 C-123.65679736 -22.91983102 -55.84636122 -44.30443485 0 0 Z " fill="white" transform="translate(445.39306640625,46.06640625)"/>
<path d="M0 0 C1.10988281 -0.02578125 2.21976563 -0.0515625 3.36328125 -0.078125 C9.18854653 0.49687181 13.18427536 3.38232799 17.39501953 7.28271484 C18.25806702 8.08151062 19.1211145 8.8803064 20.01031494 9.70330811 C24.51718445 13.99050073 28.95866598 18.33840233 33.3671875 22.7265625 C33.84948948 23.2060371 34.33179146 23.6855117 34.82870865 24.17951584 C37.37120682 26.70719546 39.91095386 29.23759892 42.44824219 31.77050781 C45.05041095 34.36715419 47.66176827 36.95435516 50.27528191 39.53957558 C52.30503478 41.55064491 54.3279904 43.56844949 56.34918594 45.58811569 C57.7713205 47.00579991 59.20050808 48.41639779 60.62985229 49.82681274 C67.37411009 56.59437919 72.28552951 62.22044262 72.9375 72 C72.81386422 77.55330733 71.67607201 82.05912738 67.8828125 86.23828125 C61.2258511 92.30490834 55.88399255 93.81719601 46.890625 93.60546875 C38.04982699 92.6243558 32.67177348 85.48593208 26.8125 79.3828125 C24.62495596 77.13640677 22.35069485 75.06078289 19.96972656 73.02124023 C15.83668848 69.4238658 11.92366402 65.64745574 8.046875 61.77734375 C7.35740784 61.09120499 6.66794067 60.40506622 5.95758057 59.69813538 C4.51436416 58.25994136 3.0724624 56.820427 1.63183594 55.37963867 C-0.56556091 53.18444216 -2.77085639 50.99739033 -4.9765625 48.81054688 C-6.38590579 47.4041358 -7.79477653 45.99725101 -9.203125 44.58984375 C-9.85734436 43.94280991 -10.51156372 43.29577606 -11.18560791 42.62913513 C-17.43590815 36.34754344 -21.42026695 31.25393638 -21.625 22.0625 C-21.55379802 16.23688345 -21.0709036 11.83087973 -17.3125 7.25 C-11.8137207 2.20484234 -7.5304326 0.10422744 0 0 Z " fill="white" transform="translate(71.3125,49.75)"/>
<path d="M0 0 C10.59395739 8.60763129 20.03251094 18.73828815 29.70581055 28.35571289 C31.77902367 30.41553464 33.85929444 32.46781124 35.94604492 34.51391602 C38.49762093 37.01585427 41.03639838 39.53014679 43.5668087 42.05348396 C44.97939246 43.45623437 46.40406687 44.8467764 47.82905579 46.23692322 C53.91476169 52.34260482 58.88085839 58.48075502 60.62890625 67.1015625 C60.44256628 74.18248137 59.297145 79.49190023 54.3515625 84.75390625 C48.59024539 89.97431367 43.50578049 91.49738948 35.765625 91.30078125 C26.94500094 90.34147609 21.10754733 83.91217377 15 78 C14.4342627 77.45472656 13.86852539 76.90945313 13.28564453 76.34765625 C11.47346155 74.59452905 9.6720572 72.83112197 7.875 71.0625 C7.00355347 70.2108728 7.00355347 70.2108728 6.11450195 69.34204102 C4.70329437 67.93338189 3.3463081 66.47080994 2 65 C2 64.34 2 63.68 2 63 C1.34 63 0.68 63 0 63 C-1.29589844 61.66967773 -1.29589844 61.66967773 -2.859375 59.74609375 C-5.99617267 56.05263638 -9.33901775 52.64217097 -12.828125 49.28515625 C-13.88552385 48.25857393 -14.94281389 47.23187952 -16 46.20507812 C-17.62770074 44.62676867 -19.25929135 43.0536872 -20.90429688 41.4934082 C-27.96513806 34.77994193 -33.44225755 29.32163722 -34.21484375 19.1796875 C-33.20866785 10.81850745 -30.47837783 5.51815925 -23.85546875 0.22265625 C-16.61434599 -4.54886253 -7.38352099 -4.20890193 0 0 Z " fill="white" transform="translate(402,371)"/>
<path d="M0 0 C0.92459518 -0.0066568 1.84919037 -0.0133136 2.80180359 -0.02017212 C4.75253317 -0.03026722 6.70329706 -0.03499011 8.65405273 -0.03466797 C11.61696173 -0.03903339 14.57837049 -0.07536491 17.54101562 -0.11328125 C19.44400537 -0.11915186 21.34700213 -0.12311962 23.25 -0.125 C24.56294792 -0.14655655 24.56294792 -0.14655655 25.90242004 -0.16854858 C32.76308441 -0.11834269 39.00582564 1.32949702 44.2101593 6.04458618 C49.18550666 11.38803379 50.78458417 16.81494914 50.56640625 24.0390625 C49.88231889 30.52685873 47.35111496 35.4247655 42.44067383 39.75390625 C34.24942614 45.87679067 23.05500887 44.79745332 13.34667969 44.72705078 C10.69804717 44.71093037 8.05093068 44.72697923 5.40234375 44.74609375 C3.69661126 44.74411181 1.99087971 44.74026914 0.28515625 44.734375 C-0.49526031 44.74044769 -1.27567688 44.74652039 -2.07974243 44.7527771 C-8.86588882 44.66697598 -15.25885231 43.14213021 -20.48828125 38.5234375 C-21.03097656 38.06324219 -21.57367188 37.60304687 -22.1328125 37.12890625 C-27.04098008 31.42549126 -27.20173055 25.90324088 -27.01953125 18.68359375 C-26.3103204 11.77684715 -22.76970527 8.02381017 -17.65234375 3.59765625 C-12.08180164 0.04175684 -6.38086265 0.01611301 0 0 Z " fill="white" transform="translate(26.67578125,166.6640625)"/>
<path d="M0 0 C5.32818888 3.16838765 9.48978446 7.31036967 11.59448242 13.21533203 C12.60719218 17.64401868 12.7863357 21.68390386 12.78125 26.20703125 C12.78553513 27.06362335 12.78982025 27.92021545 12.79423523 28.80276489 C12.79995137 30.60629395 12.80049894 32.40984605 12.79614258 34.21337891 C12.79298593 36.94995081 12.81646404 39.68543664 12.84179688 42.421875 C12.84407072 44.1835924 12.84477297 45.94531268 12.84375 47.70703125 C12.85295975 48.51357147 12.86216949 49.32011169 12.87165833 50.15109253 C12.81615565 57.07963958 11.64485481 63.45748232 7.16796875 68.90234375 C0.30972484 74.48463531 -4.58442547 76.99794888 -13.51953125 76.08984375 C-20.33252281 74.38345912 -25.40315193 71.36304147 -29.1328125 65.2890625 C-32.93050969 57.50185104 -32.1892148 48.86783879 -32.06152344 40.40332031 C-32.01953084 37.46481539 -32.0204775 34.5285996 -32.02734375 31.58984375 C-32.01685321 29.70180716 -32.00391584 27.81378225 -31.98828125 25.92578125 C-31.98807983 25.05786957 -31.98787842 24.18995789 -31.9876709 23.29574585 C-31.8632456 16.82098425 -30.94796965 10.95210995 -26.6171875 5.84765625 C-25.94558594 5.30882812 -25.27398437 4.77 -24.58203125 4.21484375 C-23.91300781 3.66054687 -23.24398437 3.10625 -22.5546875 2.53515625 C-16.04413473 -2.08846088 -7.56320078 -2.732133 0 0 Z " fill="white" transform="translate(198.51953125,0.91015625)"/>
<path d="M0 0 C6.08040104 6.3567829 7.35660739 13.32992593 7.24609375 21.87890625 C7.24754898 22.80162827 7.24900421 23.72435028 7.25050354 24.67503357 C7.24885438 26.61208273 7.23740435 28.54914635 7.21655273 30.48608398 C7.18754084 33.43335149 7.19597667 36.37882202 7.20898438 39.32617188 C7.20274714 41.21875865 7.19435631 43.1113398 7.18359375 45.00390625 C7.18652939 45.87495499 7.18946503 46.74600372 7.19248962 47.64344788 C7.09340152 54.1370427 6.19246057 59.99620663 1.84765625 65.1171875 C1.17605469 65.65601563 0.50445312 66.19484375 -0.1875 66.75 C-0.85652344 67.30429687 -1.52554688 67.85859375 -2.21484375 68.4296875 C-8.48924868 72.88559887 -14.71342674 72.69364234 -22.25 71.875 C-27.94003336 69.81953059 -31.9021936 65.79824471 -35.25 60.875 C-37.20850406 55.38406367 -37.55721922 50.47062592 -37.55078125 44.72265625 C-37.55720894 43.43421059 -37.55720894 43.43421059 -37.56376648 42.11973572 C-37.5694821 40.31201047 -37.57003058 38.50426224 -37.56567383 36.6965332 C-37.5625132 33.9489781 -37.58600966 31.20250052 -37.61132812 28.45507812 C-37.61360153 26.69010551 -37.61430442 24.92513003 -37.61328125 23.16015625 C-37.622491 22.34845474 -37.63170074 21.53675323 -37.64118958 20.70045471 C-37.57354645 12.25556383 -35.01178413 5.78557904 -29.203125 -0.42578125 C-20.35035602 -8.12769026 -9.07767965 -5.93540593 0 0 Z " fill="white" transform="translate(338.25,440.125)"/>
<path d="M0 0 C0.85613388 -0.00287018 1.71226776 -0.00574036 2.59434509 -0.00869751 C4.39013334 -0.01072412 6.18594439 -0.00529339 7.98168945 0.00732422 C10.71160711 0.02341842 13.44004905 0.00741759 16.16992188 -0.01171875 C17.92578448 -0.00973646 19.68164617 -0.00589306 21.4375 0 C22.2429274 -0.00607269 23.0483548 -0.01214539 23.87818909 -0.0184021 C30.73997075 0.06573986 37.16882322 1.53343032 42.46484375 6.2109375 C43.00753906 6.67113281 43.55023438 7.13132812 44.109375 7.60546875 C49.01754258 13.30888374 49.17829305 18.83113412 48.99609375 26.05078125 C48.2868829 32.95752785 44.74626777 36.71056483 39.62890625 41.13671875 C34.07886334 44.67953271 28.37210461 44.73069326 22.01171875 44.76953125 C20.62838348 44.78307396 20.62838348 44.78307396 19.21710205 44.79689026 C17.27058131 44.81135561 15.32401237 44.82027023 13.37744141 44.82397461 C10.42525629 44.83584537 7.47518065 44.88504551 4.5234375 44.93554688 C-14.38615191 45.10107484 -14.38615191 45.10107484 -21.34765625 39.3984375 C-23.6015625 37.08203125 -23.6015625 37.08203125 -24.91015625 34.8359375 C-25.36519531 34.09214844 -25.82023437 33.34835937 -26.2890625 32.58203125 C-29.09876601 26.78636977 -29.2148109 20.43269912 -27.28515625 14.3359375 C-25.12642997 9.23531912 -21.66602441 4.80913149 -16.48246765 2.60551453 C-10.86573798 0.61280895 -5.93705818 -0.04487651 0 0 Z " fill="white" transform="translate(463.34765625,300.6015625)"/>
</svg>
