<?xml version="1.0" encoding="UTF-8"?>
<svg version="1.1" xmlns="http://www.w3.org/2000/svg" width="512" height="512">
<path d="M0 0 C5.82650959 3.51456717 8.77871523 7.70635981 11 14 C11.99 14.99 11.99 14.99 13 16 C18.85982836 15.66774169 24.01263615 13.7149121 29.5 11.75 C37.06575997 9.14715921 44.62058442 6.96096389 52.4375 5.25 C53.26765625 5.06405273 54.0978125 4.87810547 54.953125 4.68652344 C72.88542631 0.92934337 90.64587411 -0.5268925 108.9375 -0.375 C109.9429184 -0.37034729 110.94833679 -0.36569458 111.98422241 -0.36090088 C138.01963874 -0.21982672 161.99503655 3.66005989 187 11 C187.04898437 10.37351562 187.09796875 9.74703125 187.1484375 9.1015625 C187.22320312 8.28429688 187.29796875 7.46703125 187.375 6.625 C187.44460938 5.81289062 187.51421875 5.00078125 187.5859375 4.1640625 C188 2 188 2 190 0 C193 -0.25 193 -0.25 196 0 C198.77042109 2.77042109 198.39796106 4.76533805 198.625 8.625 C198.73714844 10.40777344 198.73714844 10.40777344 198.8515625 12.2265625 C198.90054687 13.14179688 198.94953125 14.05703125 199 15 C199.65258789 15.27561768 200.30517578 15.55123535 200.97753906 15.83520508 C232.77045041 29.34023248 261.03517987 45.95531182 286 70 C286.9890332 70.94818604 286.9890332 70.94818604 287.99804688 71.91552734 C297.48630305 81.05997479 306.2262044 90.35734009 314 101 C314.85806152 102.15105017 315.71613451 103.30209177 316.57421875 104.453125 C322.61177396 112.64275981 327.99457302 121.14538276 333 130 C333.4021875 130.70721191 333.804375 131.41442383 334.21875 132.14306641 C347.2441741 155.27845836 355.99301461 180.44962409 361.3125 206.4375 C361.45985596 207.15639404 361.60721191 207.87528809 361.7590332 208.6159668 C364.73289088 224.26225609 365.37300362 239.73568046 365.3125 255.625 C365.31034485 256.64290619 365.3081897 257.66081238 365.30596924 258.70956421 C365.25629854 273.31863523 365.00540191 287.65075853 362 302 C361.70198486 303.46228027 361.70198486 303.46228027 361.39794922 304.95410156 C351.27732806 353.3359774 329.3608123 397.32428269 295 433 C294.36787598 433.65935547 293.73575195 434.31871094 293.08447266 434.99804688 C283.94002521 444.48630305 274.64265991 453.2262044 264 461 C262.84894983 461.85806152 261.69790823 462.71613451 260.546875 463.57421875 C252.35724019 469.61177396 243.85461724 474.99457302 235 480 C234.29278809 480.4021875 233.58557617 480.804375 232.85693359 481.21875 C206.65359344 495.97145525 177.71395458 505.50491108 148 510 C146.87537354 510.17732666 145.75074707 510.35465332 144.59204102 510.53735352 C133.03809556 512.18875708 121.59534453 512.35670897 109.9375 512.3125 C108.94143738 512.31067719 107.94537476 512.30885437 106.91912842 512.30697632 C92.40669713 512.26223255 78.27690481 511.80469043 64 509 C63.10442383 508.83902832 62.20884766 508.67805664 61.28613281 508.51220703 C17.67936949 500.62297508 -23.45856217 480.93350867 -57 452 C-57.74507813 451.36578125 -58.49015625 450.7315625 -59.2578125 450.078125 C-72.76279833 438.26698485 -85.43418743 425.51639772 -96 411 C-96.85649066 409.85005169 -97.71326433 408.70031411 -98.5703125 407.55078125 C-104.61034209 399.36065742 -109.99367614 390.85620382 -115 382 C-115.4021875 381.29278809 -115.804375 380.58557617 -116.21875 379.85693359 C-129.2441741 356.72154164 -137.99301461 331.55037591 -143.3125 305.5625 C-143.45985596 304.84360596 -143.60721191 304.12471191 -143.7590332 303.3840332 C-146.73289088 287.73774391 -147.37300362 272.26431954 -147.3125 256.375 C-147.31034485 255.35709381 -147.3081897 254.33918762 -147.30596924 253.29043579 C-147.25629854 238.68136477 -147.00540191 224.34924147 -144 210 C-143.80132324 209.02514648 -143.60264648 208.05029297 -143.39794922 207.04589844 C-133.03913481 157.52533399 -110.0880545 113.39934897 -75 77 C-74.46584473 76.44393066 -73.93168945 75.88786133 -73.38134766 75.31494141 C-66.32347031 68.00537155 -59.08584352 61.17792156 -51 55 C-50.33258789 54.48324707 -49.66517578 53.96649414 -48.97753906 53.43408203 C-37.50908863 44.59182097 -25.72027196 36.91170361 -13 30 C-12.24477051 29.58927246 -11.48954102 29.17854492 -10.71142578 28.75537109 C-6.49151515 26.4700847 -2.25479282 24.21961539 2 22 C1.49210938 21.72027344 0.98421875 21.44054687 0.4609375 21.15234375 C-4.51449657 18.25466585 -9.18435614 15.16934614 -12 10 C-12.06058205 6.36507704 -11.67511708 4.23109585 -9.9375 1.0625 C-6.61798958 -0.75787668 -3.5863681 -0.88701987 0 0 Z " fill="#717ED5" transform="translate(147,0)"/>
<path d="M0 0 C2.06493601 4.30943166 0.73010035 6.47821527 -0.5625 11 C-1.48063477 11.0093457 -2.39876953 11.01869141 -3.34472656 11.02832031 C-6.75955278 11.07239931 -10.17313108 11.13403732 -13.58740234 11.20751953 C-15.06352196 11.23570088 -16.53979169 11.25692966 -18.01611328 11.27099609 C-20.14173057 11.29246698 -22.26554879 11.33913043 -24.390625 11.390625 C-25.6684082 11.41157227 -26.94619141 11.43251953 -28.26269531 11.45410156 C-32.08491077 12.08642427 -33.3002113 12.90416316 -35.5625 16 C-36.19581338 19.36023236 -36.19581338 19.36023236 -36.0625 23 C-36.0728125 24.216875 -36.083125 25.43375 -36.09375 26.6875 C-35.45427733 30.67480021 -34.76394627 31.60640692 -31.5625 34 C-28.90516263 34.38473834 -26.6649877 34.52791752 -24.01171875 34.48583984 C-23.25678131 34.48963654 -22.50184387 34.49343323 -21.72402954 34.49734497 C-19.23226168 34.50474542 -16.74166396 34.48337628 -14.25 34.4609375 C-12.51652158 34.45855263 -10.78304054 34.45764784 -9.04956055 34.4581604 C-5.41796671 34.45503327 -1.7867679 34.43847501 1.84472656 34.41162109 C6.49872979 34.37764136 11.152299 34.36999259 15.80641174 34.37151146 C19.38549947 34.37096748 22.9644924 34.35999575 26.54354858 34.34550858 C28.25954471 34.33914629 29.97555156 34.33520301 31.69155884 34.33372116 C34.09013135 34.32938207 36.48824496 34.3118683 38.88671875 34.29052734 C39.59541107 34.29143372 40.30410339 34.29234009 41.03427124 34.29327393 C44.63787329 34.24641786 47.42995386 34.09287588 50.4375 32 C51.58564997 29.70370006 51.74519809 27.92301914 52 25.375 C52.08378906 24.55773437 52.16757813 23.74046875 52.25390625 22.8984375 C52.31449219 22.27195312 52.37507812 21.64546875 52.4375 21 C57.76617983 19.89058633 62.90031855 19.88451931 68.3125 19.9375 C69.19164062 19.94201172 70.07078125 19.94652344 70.9765625 19.95117188 C73.13023803 19.96287663 75.28387817 19.98080931 77.4375 20 C77.35048828 18.57107422 77.35048828 18.57107422 77.26171875 17.11328125 C77.21660156 15.85902344 77.17148438 14.60476563 77.125 13.3125 C77.03798828 11.45044922 77.03798828 11.45044922 76.94921875 9.55078125 C77.57847202 4.97485148 78.83239299 3.82014328 82.4375 1 C85.22587973 0.55996858 87.37802053 0.40914568 90.14453125 0.51171875 C91.23262337 0.52233086 91.23262337 0.52233086 92.34269714 0.53315735 C94.64620703 0.56101594 96.94723251 0.62372809 99.25 0.6875 C100.81702203 0.71259437 102.3840824 0.73540556 103.95117188 0.75585938 C107.78089656 0.81081319 111.60877797 0.89701774 115.4375 1 C114.46075896 2.98036486 113.48104018 4.95926133 112.5 6.9375 C111.95472656 8.03964844 111.40945312 9.14179688 110.84765625 10.27734375 C109.4375 13 109.4375 13 108.4375 14 C107.41628211 20.2874984 110.67577207 24.59792437 113.8125 29.75 C114.32039062 30.61238281 114.82828125 31.47476563 115.3515625 32.36328125 C118.03246102 36.9562156 118.03246102 36.9562156 121.4375 41 C124.04030568 40.67958603 124.04030568 40.67958603 126.4375 40 C127.43003695 37.45910541 127.7421936 35.71809698 126.66015625 33.16796875 C125.46834284 31.07714038 124.22448536 29.03366199 122.9375 27 C118.42842721 19.87487623 118.42842721 19.87487623 118.46484375 16.36328125 C119.63707296 13.5150938 120.9818889 10.8684196 122.5 8.1875 C123.32177734 6.72376953 123.32177734 6.72376953 124.16015625 5.23046875 C124.58167969 4.49441406 125.00320312 3.75835937 125.4375 3 C137.90852044 1.57474052 137.90852044 1.57474052 143.4375 3 C147.29760521 6.40597519 149.19663832 10.02444731 150.4375 15 C150.24415154 20.85459125 147.21493546 25.10704424 144.14453125 29.87695312 C142.36515041 32.78837734 141.39155638 34.47721725 141.6953125 37.93359375 C141.94023437 38.61550781 142.18515625 39.29742187 142.4375 40 C144.0875 40.33 145.7375 40.66 147.4375 41 C150.13567483 38.07941597 151.69296932 35.54342326 152.85546875 31.79296875 C154.71784998 26.55000345 156.69021598 22.16582683 161.4375 19 C171.4651775 16.61197148 182.27263156 18.01310408 192.44750977 18.84997559 C196.37542027 19.14609888 200.31099515 19.25513331 204.24682617 19.39501953 C207.98155383 19.53742734 211.70773277 19.76238115 215.4375 20 C215.53546875 20.67546875 215.6334375 21.3509375 215.734375 22.046875 C215.95867187 23.38492187 215.95867187 23.38492187 216.1875 24.75 C216.32671875 25.63171875 216.4659375 26.5134375 216.609375 27.421875 C217.65967281 30.69167006 218.71442704 31.89681552 221.4375 34 C224.09483737 34.38473834 226.3350123 34.52791752 228.98828125 34.48583984 C229.74321869 34.48963654 230.49815613 34.49343323 231.27597046 34.49734497 C233.76773832 34.50474542 236.25833604 34.48337628 238.75 34.4609375 C240.48347842 34.45855263 242.21695946 34.45764784 243.95043945 34.4581604 C247.58203329 34.45503327 251.2132321 34.43847501 254.84472656 34.41162109 C259.49872979 34.37764136 264.152299 34.36999259 268.80641174 34.37151146 C272.38549947 34.37096748 275.9644924 34.35999575 279.54354858 34.34550858 C281.25954471 34.33914629 282.97555156 34.33520301 284.69155884 34.33372116 C287.09013135 34.32938207 289.48824496 34.3118683 291.88671875 34.29052734 C292.59541107 34.29143372 293.30410339 34.29234009 294.03427124 34.29327393 C297.63787329 34.24641786 300.42995386 34.09287588 303.4375 32 C304.91444068 29.04611864 304.64680797 26.34838118 304.6875 23.0625 C304.71328125 21.81597656 304.7390625 20.56945312 304.765625 19.28515625 C304.72612811 16.05462565 304.72612811 16.05462565 303.046875 14.12109375 C299.57405434 11.70192013 296.88865097 11.80738679 292.6796875 11.68359375 C291.68511032 11.6524221 291.68511032 11.6524221 290.67044067 11.62062073 C288.55123306 11.55520769 286.431901 11.49627895 284.3125 11.4375 C282.87628919 11.39430691 281.44009098 11.35069236 280.00390625 11.30664062 C276.48190406 11.19953501 272.95976175 11.09824425 269.4375 11 C267.484375 5.23828125 267.484375 5.23828125 267.4375 3 C268.97631836 0.22631836 268.97631836 0.22631836 271.4375 -2 C274.47875977 -2.33764648 274.47875977 -2.33764648 278.06640625 -1.93359375 C278.71903946 -1.86756454 279.37167267 -1.80153534 280.04408264 -1.73350525 C281.44905501 -1.58792111 282.85280556 -1.43013115 284.25518799 -1.26141357 C286.43883591 -0.99983998 288.62359621 -0.77297729 290.81201172 -0.55517578 C294.57275857 -0.17503796 298.32823783 0.24167688 302.08325195 0.67456055 C304.39660905 0.93997927 306.71090619 1.19579224 309.02539062 1.45117188 C310.52610722 1.62182035 312.02676079 1.79302412 313.52734375 1.96484375 C314.20457993 2.03887924 314.8818161 2.11291473 315.57957458 2.18919373 C327.75887553 3.6226671 327.75887553 3.6226671 331.875 7 C334.70971822 10.62843932 334.76553829 13.53715353 334.4375 18 C333.86076235 22.01710309 333.17150005 26.00887472 332.4375 30 C333.33726562 30.03738281 334.23703125 30.07476562 335.1640625 30.11328125 C347.02608667 30.71945683 358.69116301 32.27345738 370.4375 34 C368.45534509 40.61711865 365.84485042 46.64521485 362.625 52.75 C362.14998047 53.65177979 361.67496094 54.55355957 361.18554688 55.48266602 C350.24382656 75.80124348 336.43025604 94.39523994 320.4375 111 C319.80537598 111.65935547 319.17325195 112.31871094 318.52197266 112.99804688 C309.37752521 122.48630305 300.08015991 131.2262044 289.4375 139 C288.28644983 139.85806152 287.13540823 140.71613451 285.984375 141.57421875 C277.79474019 147.61177396 269.29211724 152.99457302 260.4375 158 C259.37668213 158.60328125 259.37668213 158.60328125 258.29443359 159.21875 C232.09109344 173.97145525 203.15145458 183.50491108 173.4375 188 C172.31287354 188.17732666 171.18824707 188.35465332 170.02954102 188.53735352 C158.47559556 190.18875708 147.03284453 190.35670897 135.375 190.3125 C134.37893738 190.31067719 133.38287476 190.30885437 132.35662842 190.30697632 C117.84419713 190.26223255 103.71440481 189.80469043 89.4375 187 C88.54192383 186.83902832 87.64634766 186.67805664 86.72363281 186.51220703 C43.11686949 178.62297508 1.97893783 158.93350867 -31.5625 130 C-32.30757813 129.36578125 -33.05265625 128.7315625 -33.8203125 128.078125 C-47.32529833 116.26698485 -59.99668743 103.51639772 -70.5625 89 C-71.41899066 87.85005169 -72.27576433 86.70031411 -73.1328125 85.55078125 C-81.44384834 74.2812317 -88.40677653 62.33959994 -95 50 C-95.63808594 48.81627808 -95.63808594 48.81627808 -96.2890625 47.60864258 C-96.68738281 46.85091553 -97.08570313 46.09318848 -97.49609375 45.3125 C-97.84728271 44.64863281 -98.19847168 43.98476563 -98.56030273 43.30078125 C-99.87662526 40.27885104 -100.70563918 37.17857648 -101.5625 34 C-96.97322392 33.42567222 -92.38338389 32.85616724 -87.79296875 32.29101562 C-86.23323638 32.09831237 -84.67366274 31.90431967 -83.11425781 31.70898438 C-80.86564532 31.42754884 -78.61649241 31.15084014 -76.3671875 30.875 C-75.6763205 30.78750488 -74.98545349 30.70000977 -74.27365112 30.60986328 C-70.34521458 30.13336231 -66.51873028 29.91387798 -62.5625 30 C-62.81 28.4221875 -62.81 28.4221875 -63.0625 26.8125 C-63.50679803 22.98470156 -63.82064593 19.16205072 -64 15.3125 C-64.06058594 14.23613281 -64.12117188 13.15976562 -64.18359375 12.05078125 C-63.47507717 8.57058344 -62.30291615 7.28826726 -59.54527283 5.1197052 C-55.58548037 2.88354373 -51.17857555 2.67044109 -46.72265625 2.19921875 C-45.68233749 2.07311722 -44.64201874 1.94701569 -43.57017517 1.8170929 C-40.25709187 1.42087442 -36.94145098 1.05433527 -33.625 0.6875 C-31.39886979 0.42305899 -29.17295456 0.15680155 -26.94726562 -0.11132812 C-3.66316981 -2.85905936 -3.66316981 -2.85905936 0 0 Z " fill="#FECC70" transform="translate(121.5625,322)"/>
<path d="M0 0 C6.78376359 5.55035203 12.85522968 11.76442027 19 18 C17.46372401 21.90927373 15.77190277 25.71661514 14 29.5234375 C8.74977828 42.52593974 10.12258104 56.0891851 15 69 C21.00853442 80.95757839 30.16273283 90.06924154 42.91162109 94.69335938 C46.91122914 95.97877111 50.91332607 96.97833152 55 98 C55 104.6 55 111.2 55 118 C52.29570801 118.01458252 49.59141602 118.02916504 46.80517578 118.04418945 C37.84445095 118.09465144 28.88389778 118.16126686 19.92334175 118.23571491 C14.49350612 118.28033673 9.0637441 118.31961084 3.63378906 118.34643555 C-1.61184943 118.37255026 -6.85720338 118.41301023 -12.10266495 118.46318626 C-14.09836396 118.47979985 -16.09411213 118.49134828 -18.08987045 118.49761391 C-20.89728995 118.50731515 -23.70399046 118.53544554 -26.51123047 118.56762695 C-27.73367714 118.56547432 -27.73367714 118.56547432 -28.9808197 118.5632782 C-39.97302099 118.74010102 -50.08893 122.59618469 -58.23046875 130.0390625 C-64.19377034 136.37157413 -68.52606823 143.26780308 -69.875 151.9375 C-70.26953125 154.17578125 -70.26953125 154.17578125 -71 156 C-73.30965848 157.05352843 -75.6429774 158.05719096 -78 159 C-79.19577428 162.65375475 -79.53983228 164.75163786 -78 168.3125 C-75.98111739 170.29124113 -75.98111739 170.29124113 -72.5625 170.6875 C-69 172 -69 172 -67.9375 173.875 C-67.64875 174.638125 -67.36 175.40125 -67.0625 176.1875 C-63.22013849 186.23551649 -52.28472306 191.72374774 -42.91113281 195.93945312 C-38.63165245 197.77647995 -34.31201966 199.50540095 -29.97802734 201.20898438 C-26.96020953 202.41581352 -23.98140865 203.70610762 -21 205 C-18.99688958 214.15707621 -18.99688958 214.15707621 -21.17578125 218.16015625 C-23.02214715 220.22723715 -24.97740792 222.10518901 -27 224 C-28.51359365 225.6543313 -30.01317281 227.32157137 -31.5 229 C-32.25796875 229.84046875 -33.0159375 230.6809375 -33.796875 231.546875 C-35.79391704 233.77053174 -37.77824575 236.00391472 -39.75 238.25 C-40.59884766 239.20712891 -40.59884766 239.20712891 -41.46484375 240.18359375 C-42.99986895 241.94061601 -42.99986895 241.94061601 -44.19140625 243.72265625 C-47.3671405 248.22622364 -50.54463346 248.94774355 -55.62109375 250.21875 C-59.00357057 251.32957983 -60.81638719 253.25287421 -63 256 C-65.30644521 260.61289042 -64.41635851 266.59479002 -63 271.375 C-59.68584714 275.72482563 -55.25213326 277.39963026 -50.0546875 278.78515625 C-46.30118232 280.27791854 -44.5789905 282.15250696 -41.9375 285.1875 C-41.12152344 286.10917969 -40.30554688 287.03085937 -39.46484375 287.98046875 C-37.66504651 290.18529168 -35.9873378 292.37191564 -34.34594727 294.6887207 C-33.90412613 295.31116165 -33.46230499 295.9336026 -33.00709534 296.5749054 C-32.67475388 297.04518661 -32.34241241 297.51546783 -32 298 C-38.08285056 298.83852558 -44.16602878 299.67461958 -50.24951172 300.50854492 C-52.31535685 300.79207014 -54.38111384 301.07623848 -56.44677734 301.36108398 C-59.43042956 301.77239867 -62.41440006 302.18133433 -65.3984375 302.58984375 C-66.30927094 302.71592514 -67.22010437 302.84200653 -68.15853882 302.97190857 C-73.39338262 303.68591426 -78.61499387 304.27208026 -83.88194275 304.69502258 C-86.23580857 304.9350625 -86.23580857 304.9350625 -89.10546875 306.390625 C-92.13667038 310.56555837 -91.52925486 314.7412953 -91.3125 319.75 C-91.27866211 321.22533203 -91.27866211 321.22533203 -91.24414062 322.73046875 C-91.18528805 325.1551947 -91.10313431 327.57681983 -91 330 C-94.92722245 330.57969796 -98.85582846 331.14884005 -102.78588867 331.70898438 C-104.76623658 331.9933567 -106.74544236 332.285647 -108.72460938 332.578125 C-116.20913122 333.63922177 -123.44022893 334.28389804 -131 334 C-139.48532002 311.78059152 -145.96778637 289.62470582 -149 266 C-149.08732895 265.33279434 -149.1746579 264.66558868 -149.26463318 263.97816467 C-149.96087491 258.26179524 -150.17456164 252.62257368 -150.203125 246.8671875 C-150.21018463 245.92083939 -150.21724426 244.97449127 -150.22451782 243.99946594 C-150.45241099 204.48347888 -150.45241099 204.48347888 -147 188 C-146.80132324 187.02514648 -146.60264648 186.05029297 -146.39794922 185.04589844 C-136.03913481 135.52533399 -113.0880545 91.39934897 -78 55 C-77.46584473 54.44393066 -76.93168945 53.88786133 -76.38134766 53.31494141 C-69.32347031 46.00537155 -62.08584352 39.17792156 -54 33 C-53.33258789 32.48324707 -52.66517578 31.96649414 -51.97753906 31.43408203 C-35.69727347 18.8818755 -18.49585019 8.90351961 0 0 Z " fill="#232E7A" transform="translate(150,22)"/>
<path d="M0 0 C2.06493601 4.30943166 0.73010035 6.47821527 -0.5625 11 C-1.48063477 11.0093457 -2.39876953 11.01869141 -3.34472656 11.02832031 C-6.75955278 11.07239931 -10.17313108 11.13403732 -13.58740234 11.20751953 C-15.06352196 11.23570088 -16.53979169 11.25692966 -18.01611328 11.27099609 C-20.14173057 11.29246698 -22.26554879 11.33913043 -24.390625 11.390625 C-25.6684082 11.41157227 -26.94619141 11.43251953 -28.26269531 11.45410156 C-32.08491077 12.08642427 -33.3002113 12.90416316 -35.5625 16 C-36.19581338 19.36023236 -36.19581338 19.36023236 -36.0625 23 C-36.0728125 24.216875 -36.083125 25.43375 -36.09375 26.6875 C-35.45427733 30.67480021 -34.76394627 31.60640692 -31.5625 34 C-28.90516263 34.38473834 -26.6649877 34.52791752 -24.01171875 34.48583984 C-23.25678131 34.48963654 -22.50184387 34.49343323 -21.72402954 34.49734497 C-19.23226168 34.50474542 -16.74166396 34.48337628 -14.25 34.4609375 C-12.51652158 34.45855263 -10.78304054 34.45764784 -9.04956055 34.4581604 C-5.41796671 34.45503327 -1.7867679 34.43847501 1.84472656 34.41162109 C6.49872979 34.37764136 11.152299 34.36999259 15.80641174 34.37151146 C19.38549947 34.37096748 22.9644924 34.35999575 26.54354858 34.34550858 C28.25954471 34.33914629 29.97555156 34.33520301 31.69155884 34.33372116 C34.09013135 34.32938207 36.48824496 34.3118683 38.88671875 34.29052734 C39.59541107 34.29143372 40.30410339 34.29234009 41.03427124 34.29327393 C44.63787329 34.24641786 47.42995386 34.09287588 50.4375 32 C51.58564997 29.70370006 51.74519809 27.92301914 52 25.375 C52.08378906 24.55773437 52.16757813 23.74046875 52.25390625 22.8984375 C52.31449219 22.27195312 52.37507812 21.64546875 52.4375 21 C57.76617983 19.89058633 62.90031855 19.88451931 68.3125 19.9375 C69.19164062 19.94201172 70.07078125 19.94652344 70.9765625 19.95117188 C73.13023803 19.96287663 75.28387817 19.98080931 77.4375 20 C77.35048828 18.57107422 77.35048828 18.57107422 77.26171875 17.11328125 C77.21660156 15.85902344 77.17148438 14.60476563 77.125 13.3125 C77.03798828 11.45044922 77.03798828 11.45044922 76.94921875 9.55078125 C77.57847202 4.97485148 78.83239299 3.82014328 82.4375 1 C85.22587973 0.55996858 87.37802053 0.40914568 90.14453125 0.51171875 C91.23262337 0.52233086 91.23262337 0.52233086 92.34269714 0.53315735 C94.64620703 0.56101594 96.94723251 0.62372809 99.25 0.6875 C100.81702203 0.71259437 102.3840824 0.73540556 103.95117188 0.75585938 C107.78089656 0.81081319 111.60877797 0.89701774 115.4375 1 C114.46075896 2.98036486 113.48104018 4.95926133 112.5 6.9375 C111.95472656 8.03964844 111.40945312 9.14179688 110.84765625 10.27734375 C109.4375 13 109.4375 13 108.4375 14 C108.20569965 17.32247164 108.31653321 19.68054565 109.50268555 22.81298828 C110.58064276 26.48800878 110.28577139 28.56113125 109.58203125 32.3046875 C107.9507401 42.41058574 108.10170645 52.55570099 108.12182617 62.76757812 C108.12497447 66.0979933 108.10149085 69.42750716 108.07617188 72.7578125 C108.0208279 91.62748426 110.45041961 109.59156501 114.4375 128 C115.613125 127.566875 115.613125 127.566875 116.8125 127.125 C138.36080697 120.43759439 165.46021215 121.32543744 185.75 131.4375 C189.57668304 133.87540655 192.15050394 136.03587349 194.4375 140 C195.03075168 144.02253577 194.58517435 147.3719891 192.21484375 150.734375 C177.10685437 165.1370774 152.44339063 163.41469533 133.3215332 163.16113281 C130.5979621 163.00896512 128.09233826 162.60971777 125.4375 162 C125.83130859 162.81267334 126.22511719 163.62534668 126.63085938 164.46264648 C128.08603074 167.46791977 129.53945974 170.47402242 130.99169922 173.48071289 C131.62153168 174.78378651 132.25206416 176.08652202 132.88330078 177.38891602 C133.78861209 179.25709768 134.69142869 181.12646648 135.59375 182.99609375 C136.13837891 184.12200928 136.68300781 185.2479248 137.24414062 186.40795898 C138.4375 189 138.4375 189 138.4375 190 C121.8312049 190.39104306 105.81559166 189.86680659 89.4375 187 C88.51437012 186.83902832 87.59124023 186.67805664 86.64013672 186.51220703 C43.06958501 178.60341116 1.95345908 158.9115302 -31.5625 130 C-32.30757813 129.36578125 -33.05265625 128.7315625 -33.8203125 128.078125 C-47.32529833 116.26698485 -59.99668743 103.51639772 -70.5625 89 C-71.41899066 87.85005169 -72.27576433 86.70031411 -73.1328125 85.55078125 C-81.44384834 74.2812317 -88.40677653 62.33959994 -95 50 C-95.63808594 48.81627808 -95.63808594 48.81627808 -96.2890625 47.60864258 C-96.68738281 46.85091553 -97.08570313 46.09318848 -97.49609375 45.3125 C-97.84728271 44.64863281 -98.19847168 43.98476563 -98.56030273 43.30078125 C-99.87662526 40.27885104 -100.70563918 37.17857648 -101.5625 34 C-96.97322392 33.42567222 -92.38338389 32.85616724 -87.79296875 32.29101562 C-86.23323638 32.09831237 -84.67366274 31.90431967 -83.11425781 31.70898438 C-80.86564532 31.42754884 -78.61649241 31.15084014 -76.3671875 30.875 C-75.6763205 30.78750488 -74.98545349 30.70000977 -74.27365112 30.60986328 C-70.34521458 30.13336231 -66.51873028 29.91387798 -62.5625 30 C-62.81 28.4221875 -62.81 28.4221875 -63.0625 26.8125 C-63.50679803 22.98470156 -63.82064593 19.16205072 -64 15.3125 C-64.06058594 14.23613281 -64.12117188 13.15976562 -64.18359375 12.05078125 C-63.47507717 8.57058344 -62.30291615 7.28826726 -59.54527283 5.1197052 C-55.58548037 2.88354373 -51.17857555 2.67044109 -46.72265625 2.19921875 C-45.68233749 2.07311722 -44.64201874 1.94701569 -43.57017517 1.8170929 C-40.25709187 1.42087442 -36.94145098 1.05433527 -33.625 0.6875 C-31.39886979 0.42305899 -29.17295456 0.15680155 -26.94726562 -0.11132812 C-3.66316981 -2.85905936 -3.66316981 -2.85905936 0 0 Z " fill="#FEC04E" transform="translate(121.5625,322)"/>
<path d="M0 0 C28.43927955 11.37571182 53.65490735 25.0512072 77 45 C78.12341797 45.95519531 78.12341797 45.95519531 79.26953125 46.9296875 C92.76520621 58.74702468 105.43558025 71.48551588 116 86 C116.85649066 87.14994831 117.71326433 88.29968589 118.5703125 89.44921875 C124.61034209 97.63934258 129.99367614 106.14379618 135 115 C135.60328125 116.06081787 135.60328125 116.06081787 136.21875 117.14306641 C149.2441741 140.27845836 157.99301461 165.44962409 163.3125 191.4375 C163.45985596 192.15639404 163.60721191 192.87528809 163.7590332 193.6159668 C166.73289088 209.26225609 167.37300362 224.73568046 167.3125 240.625 C167.30926727 242.15185928 167.30926727 242.15185928 167.30596924 243.70956421 C167.25629854 258.31863523 167.00540191 272.65075853 164 287 C163.70198486 288.46228027 163.70198486 288.46228027 163.39794922 289.95410156 C159.75699598 307.35976715 154.69274366 324.5137125 148 341 C139.47963774 341.36182016 131.29159965 340.23577058 122.875 339 C121.52352849 338.80665458 120.17196631 338.61394181 118.8203125 338.421875 C115.5459325 337.95410643 112.27260429 337.48000749 109 337 C108.96076159 332.80149055 109.17955234 329.1022383 110 325 C110.38412659 319.14465668 110.38412659 319.14465668 108 314 C104.74053699 311.99428473 101.6932936 311.51804055 97.92578125 311.03515625 C96.71164551 310.8762793 95.49750977 310.71740234 94.24658203 310.55371094 C92.94833496 310.39161133 91.65008789 310.22951172 90.3125 310.0625 C88.97242627 309.89017034 87.63242023 309.71731356 86.29248047 309.54394531 C73.87204061 307.94650591 61.4385288 306.44921383 49 305 C63.46878614 285.42968208 63.46878614 285.42968208 73 284 C77.83529143 281.44550641 80.20031723 279.19908357 82 274 C82.70614477 269.64108164 82.36366047 266.75641378 80.4375 262.75 C76.69489797 258.5275772 73.07750718 256.47960737 67.58203125 255.2109375 C63.39672675 253.79605812 61.83141651 252.21867936 59 248.875 C58.14535156 247.88371094 57.29070312 246.89242187 56.41015625 245.87109375 C55.61480469 244.92363281 54.81945312 243.97617187 54 243 C52.81554404 241.64316999 51.62840855 240.28867003 50.4375 238.9375 C49.62732422 237.99390625 49.62732422 237.99390625 48.80078125 237.03125 C47.44034474 235.49670122 46.0332805 234.00331693 44.60546875 232.53125 C38.27960746 225.9164911 38.27960746 225.9164911 36.875 221.3125 C37.00692106 217.81659195 37.4832011 214.45763075 38 211 C39.0415625 210.6596875 40.083125 210.319375 41.15625 209.96875 C65.43580337 202.12762695 65.43580337 202.12762695 83.5 185.25 C84.97343458 182.19193145 84.97343458 182.19193145 85.8125 179.6875 C87.76024635 176.91964992 90.8386173 176.84679894 94 176 C96.3343558 173.11538937 96.3343558 173.11538937 95.9375 169.5 C95.628125 168.345 95.31875 167.19 95 166 C94.20464844 165.57847656 93.40929687 165.15695313 92.58984375 164.72265625 C88.98534046 162.32509071 88.74119349 160.06238047 87.625 155.9375 C84.39813511 145.16401849 78.84869506 136.84086647 69 131 C65.39797449 129.4162676 61.7613308 128.14689759 58 127 C57.01 126.67 56.02 126.34 55 126 C53.66548737 125.88764839 52.32645611 125.82424351 50.98754883 125.79467773 C50.18694534 125.77473251 49.38634186 125.75478729 48.56147766 125.73423767 C47.70201035 125.71752518 46.84254303 125.70081268 45.95703125 125.68359375 C45.0734343 125.66281265 44.18983734 125.64203156 43.27946472 125.62062073 C40.45722215 125.55524246 37.63488665 125.49629472 34.8125 125.4375 C32.89907894 125.39430363 30.98566727 125.35068898 29.07226562 125.30664062 C24.38160563 125.19957305 19.69085217 125.09827248 15 125 C14.99635437 124.40166855 14.99270874 123.8033371 14.98895264 123.18687439 C14.9470346 116.94068013 14.87762387 110.69521431 14.79248047 104.44946289 C14.76431265 102.12076108 14.74307736 99.7919644 14.72900391 97.46313477 C14.70751711 94.10904521 14.66083491 90.75609123 14.609375 87.40234375 C14.60814636 86.36665756 14.60691772 85.33097137 14.60565186 84.26390076 C14.48010425 78.02117747 14.12075843 73.83827441 10 69 C6.7 67.68 3.4 66.36 0 65 C0 43.55 0 22.1 0 0 Z " fill="#232E7A" transform="translate(345,15)"/>
<path d="M0 0 C5.2589959 3.1722413 7.83288871 6.50120205 10.09545898 12.16479492 C11.73788973 15.49708964 14.30430851 17.98483036 16.875 20.625 C17.65037109 21.44484375 17.65037109 21.44484375 18.44140625 22.28125 C21.5715827 25.57700253 24.77424298 28.79804931 28 32 C31.35364089 30.40264972 34.46033437 28.50388459 37.625 26.5625 C49.39328314 19.76493573 61.2820068 18.15044646 74.6328125 20.69140625 C88.04018029 24.47906689 98.75795906 32.01681326 106.3125 43.8125 C113.49499955 56.85703958 115.39695722 70.45983325 111.4375 84.875 C106.08742514 99.91152619 96.04867979 110.15219754 81.8671875 117.03515625 C76.71240343 119.20825149 74.2744926 119 68 119 C68 125.93 68 132.86 68 140 C72.68473511 139.97643433 72.68473511 139.97643433 77.46411133 139.95239258 C87.8096983 139.90257247 98.15529071 139.86950143 108.50096607 139.84456348 C114.77048426 139.82894087 121.03987901 139.80776474 127.30932617 139.77368164 C133.36530958 139.74096691 139.42117462 139.7231214 145.47723961 139.71536827 C147.78197784 139.70984649 150.08670995 139.69906401 152.39139748 139.68280983 C155.63192113 139.66087473 158.87196229 139.65803981 162.11254883 139.65942383 C163.05482834 139.648638 163.99710785 139.63785217 164.96794128 139.6267395 C177.04305698 139.68215601 189.19368978 143.42543479 198 152 C204.55239942 160.46839122 208.3835545 167.24408878 209 178 C209.7425 178.0825 210.485 178.165 211.25 178.25 C214.67535784 179.1841885 215.9919613 180.06517421 218 183 C217.94130298 186.34573031 217.73573885 188.80879855 215.95580196 191.69061375 C212.81366012 193.7942405 209.42524821 193.4152168 205.76966858 193.38768005 C204.49598873 193.39575836 204.49598873 193.39575836 203.19657797 193.40399987 C200.34062295 193.41835032 197.48512682 193.41115833 194.62915039 193.40405273 C192.58595912 193.4097526 190.54277104 193.41671537 188.49958801 193.42485046 C182.94177743 193.44283943 177.38412422 193.44160271 171.82629323 193.43590808 C167.1913709 193.43282448 162.55647917 193.43889943 157.92156118 193.44494683 C146.98975529 193.45900932 136.05802752 193.45741645 125.1262207 193.44604492 C113.83754418 193.43456186 102.54910518 193.44863871 91.26045996 193.4754414 C81.57802212 193.49757218 71.89565899 193.50424169 62.21319765 193.49836498 C56.42606607 193.49498794 50.63908678 193.49745998 44.85197639 193.51461601 C39.41087888 193.53004128 33.97013418 193.52617873 28.52905083 193.50731087 C26.52954553 193.50361271 24.53001436 193.50676894 22.53053284 193.51719666 C19.80571562 193.53032456 17.08208058 193.51893236 14.35731506 193.50120544 C13.56169554 193.51081045 12.76607602 193.52041546 11.94634682 193.53031152 C8.41224709 193.48284121 6.38830312 193.28847173 3.51282406 191.15226841 C2 189 2 189 1.4375 186.0625 C2.1803208 182.01825343 3.85223841 180.54818796 7 178 C7.66 178 8.32 178 9 178 C9.00257813 177.40574219 9.00515625 176.81148437 9.0078125 176.19921875 C9.4372528 166.99488162 13.5675076 158.62168335 20 152 C31.88514738 141.87364125 42.5936726 139.70372447 58 140 C58 133.4 58 126.8 58 120 C55.9375 119.649375 53.875 119.29875 51.75 118.9375 C38.04679235 115.96455384 27.43895976 108.03118512 19.6875 96.375 C13.24377695 84.76193925 10.80750247 70.63132842 13.765625 57.63671875 C15.1886564 53.10221791 16.86218518 49.0341789 19.375 45 C19.91125 44.01 20.4475 43.02 21 42 C19.31228843 37.25900598 15.41446526 34.04627616 11.9375 30.5625 C11.30650391 29.90701172 10.67550781 29.25152344 10.02539062 28.57617188 C5.99666345 24.52305281 2.05216639 21.71852698 -3.01245117 19.08862305 C-6.9546253 16.92940987 -9.76712811 13.87080094 -12 10 C-12.12234499 6.26847771 -11.71181202 4.29801016 -9.9375 1.0625 C-6.61798958 -0.75787668 -3.5863681 -0.88701987 0 0 Z " fill="#8B95DC" transform="translate(147,0)"/>
<path d="M0 0 C1.0054184 0.00465271 2.01083679 0.00930542 3.04672241 0.01409912 C29.20002075 0.15581203 54.40726101 3.12928538 79.0625 12.375 C79.0625 34.815 79.0625 57.255 79.0625 80.375 C76.0925 81.365 73.1225 82.355 70.0625 83.375 C55.58431502 98.21513961 64.50318887 118.34055647 64.0625 140.375 C29.4125 140.375 -5.2375 140.375 -40.9375 140.375 C-40.9375 133.445 -40.9375 126.515 -40.9375 119.375 C-35.9875 118.385 -35.9875 118.385 -30.9375 117.375 C-19.15939454 113.96597359 -9.42509002 106.03699125 -3.2421875 95.48046875 C3.35273369 82.8163085 5.75579071 68.84599467 1.4375 54.9375 C-3.76265332 41.64619903 -11.96684283 31.62013123 -24.9375 25.375 C-37.38895113 20.02917698 -51.39685794 19.15425916 -64.1484375 24.01953125 C-68.20078884 25.9889513 -71.88936659 28.38257217 -75.5625 30.984375 C-77.9375 32.375 -77.9375 32.375 -81.9375 32.375 C-83.58496094 31.21337891 -83.58496094 31.21337891 -85.171875 29.6015625 C-86.03232422 28.7353125 -86.03232422 28.7353125 -86.91015625 27.8515625 C-87.49667969 27.24054687 -88.08320313 26.62953125 -88.6875 26 C-89.28949219 25.39671875 -89.89148438 24.7934375 -90.51171875 24.171875 C-94.9375 19.65577168 -94.9375 19.65577168 -94.9375 17.375 C-82.15393857 12.85785614 -69.39019852 8.38333096 -56.125 5.5 C-55.31861084 5.32186768 -54.51222168 5.14373535 -53.68139648 4.96020508 C-50.77491591 4.36479298 -47.86486188 3.85891973 -44.9375 3.375 C-44.18920929 3.25078674 -43.44091858 3.12657349 -42.66995239 2.99859619 C-28.3933138 0.68680962 -14.44956184 -0.11998824 0 0 Z " fill="#232E7A" transform="translate(255.9375,-0.375)"/>
<path d="M0 0 C1.39300182 1.95890881 2.72245446 3.9639118 4 6 C8.00901163 8.93342314 10.57431186 8.98970101 15.3125 8.5 C18.9460536 8.41697525 20.43197238 8.51097622 23.21875 10.91015625 C25.10754004 13.30285855 26.88179915 15.75308978 28.6484375 18.23632812 C31.79708184 22.34503599 35.53964587 25.97385217 39.12817383 29.69555664 C42.5296113 33.27120591 45.39707256 36.8031812 48 41 C47.2575 41.9590625 47.2575 41.9590625 46.5 42.9375 C44.51657155 46.98699975 44.25652682 50.5610278 45 55 C45.94071211 57.02856124 46.93163118 59.03567109 48 61 C47.31035156 61.73863281 46.62070312 62.47726562 45.91015625 63.23828125 C44.96091471 64.26299973 44.01169782 65.28774103 43.0625 66.3125 C42.56105469 66.8477832 42.05960938 67.38306641 41.54296875 67.93457031 C39.07193571 70.60472848 36.74257418 73.2651246 34.65234375 76.24609375 C29.27401764 83.75232384 29.27401764 83.75232384 25.20703125 84.54296875 C23.30762824 84.47375973 21.40926809 84.34022887 19.51953125 84.13671875 C16.72491369 83.77659097 16.72491369 83.77659097 13.5 85.75 C9.05912117 89.74679095 7.87884964 92.08187487 7 98 C5.12054688 98.03867187 5.12054688 98.03867187 3.203125 98.078125 C1.55204877 98.13441169 -0.09899155 98.1917589 -1.75 98.25 C-2.575 98.26417969 -3.4 98.27835937 -4.25 98.29296875 C-9.21075044 98.48650433 -9.21075044 98.48650433 -13.515625 100.796875 C-14.97527204 102.96329851 -15.45093755 104.48905974 -16 107 C-34.35173359 107.1766477 -52.66199919 106.62808237 -71 106 C-71.23944336 105.35933594 -71.47888672 104.71867187 -71.72558594 104.05859375 C-73.8108001 98.6406704 -76.09139609 93.86658973 -79.25 89 C-83 83.19708029 -83 83.19708029 -83 81 C-86.3 80.67 -89.6 80.34 -93 80 C-93 68.12 -93 56.24 -93 44 C-90.03 42.68 -87.06 41.36 -84 40 C-78.27993064 36.44084573 -76.06705933 31.201178 -74 25 C-73.77202438 22.26710707 -73.58331813 19.54957796 -73.4375 16.8125 C-73.39431641 16.06291016 -73.35113281 15.31332031 -73.30664062 14.54101562 C-73.20077315 12.69421625 -73.0999024 10.84713166 -73 9 C-59.10222649 7.1522055 -59.10222649 7.1522055 -52.31640625 6.59765625 C-40.12632845 5.59445836 -28.16378442 3.81336259 -16.12841797 1.67651367 C-14.9013916 1.46099854 -13.67436523 1.2454834 -12.41015625 1.0234375 C-10.77252319 0.72832275 -10.77252319 0.72832275 -9.10180664 0.42724609 C-5.97726844 -0.00313107 -3.14545355 -0.27680217 0 0 Z " fill="#232E7A" transform="translate(354,235)"/>
<path d="M0 0 C4.66747421 -0.3712403 8.75144939 0.24526645 13.28515625 1.30078125 C24.86235861 3.80602758 36.68146777 4.85787586 48.4375 6.1875 C50.82623769 6.46231914 53.21491022 6.73770536 55.60351562 7.01367188 C61.40160894 7.68231818 67.20046633 8.34397034 73 9 C73.0767395 10.64222534 73.0767395 10.64222534 73.1550293 12.31762695 C73.23185967 13.77036623 73.30911178 15.22308325 73.38671875 16.67578125 C73.41922729 17.39544067 73.45173584 18.1151001 73.48522949 18.85656738 C73.92276895 26.71208349 76.34015781 33.34015781 82 39 C85.51299817 41.42701279 88.82622444 42.95655611 93 44 C93 55.88 93 67.76 93 80 C89.7 80.66 86.4 81.32 83 82 C80.77674321 84.93662672 80.77674321 84.93662672 80 88 C78.99098633 88.0093457 77.98197266 88.01869141 76.94238281 88.02832031 C73.19226224 88.0682477 69.44295971 88.13401281 65.69335938 88.20751953 C64.07172163 88.23571347 62.44994687 88.25693594 60.828125 88.27099609 C58.49407895 88.29244872 56.16167739 88.33910575 53.828125 88.390625 C53.10506165 88.39185364 52.38199829 88.39308228 51.63702393 88.39434814 C48.23596934 88.49291339 46.3101993 88.76938968 43.54882812 90.82226562 C41.34005519 93.92791736 41.38965726 96.47925404 41.25 100.25 C41.1675 102.4775 41.085 104.705 41 107 C33.08 107 25.16 107 17 107 C16.01 105.02 15.02 103.04 14 101 C10.47792605 98.1320255 5.6047807 98.5483246 1.25 98.375 C0.45722656 98.33632813 -0.33554688 98.29765625 -1.15234375 98.2578125 C-3.10119416 98.163892 -5.05056451 98.08087178 -7 98 C-7.29261719 96.90300781 -7.58523437 95.80601562 -7.88671875 94.67578125 C-9.28284551 90.06611358 -10.99196578 87.24025643 -15.125 84.6875 C-17.86426593 83.82984138 -17.86426593 83.82984138 -20.12109375 84.37890625 C-23.16269478 84.84122961 -25.02022583 84.87494754 -28 84 C-32.20948612 80.56844209 -35.38619731 76.03214123 -38.64306641 71.7265625 C-40.3990643 69.49223052 -42.37311508 67.51368385 -44.375 65.5 C-45.99609375 63.64453125 -45.99609375 63.64453125 -47 62 C-46.4375 59.1875 -46.4375 59.1875 -45 56 C-44.4570368 49.86175498 -44.85004916 44.80145465 -47 39 C-46.38253906 38.33355469 -45.76507813 37.66710937 -45.12890625 36.98046875 C-40.72468896 32.18744689 -36.41852602 27.36715961 -32.3125 22.3125 C-31.57515625 21.4153125 -30.8378125 20.518125 -30.078125 19.59375 C-28.75331494 17.94022767 -27.46692643 16.25464049 -26.234375 14.53125 C-22.21145288 9.19241877 -22.21145288 9.19241877 -18.58984375 8.6171875 C-16.86794353 8.66393592 -15.14666148 8.75623395 -13.4296875 8.89453125 C-9.47769903 9.06608059 -7.39202145 8.03521287 -4 6 C-3.34 4.948125 -2.68 3.89625 -2 2.8125 C-1.34 1.884375 -0.68 0.95625 0 0 Z " fill="#232E7A" transform="translate(158,235)"/>
<path d="M0 0 C5.2589959 3.1722413 7.83288871 6.50120205 10.09545898 12.16479492 C11.73788973 15.49708964 14.30430851 17.98483036 16.875 20.625 C17.65037109 21.44484375 17.65037109 21.44484375 18.44140625 22.28125 C21.5715827 25.57700253 24.77424298 28.79804931 28 32 C31.35364089 30.40264972 34.46033437 28.50388459 37.625 26.5625 C49.39328314 19.76493573 61.2820068 18.15044646 74.6328125 20.69140625 C88.04018029 24.47906689 98.75795906 32.01681326 106.3125 43.8125 C113.49499955 56.85703958 115.39695722 70.45983325 111.4375 84.875 C106.43756157 98.92745853 97.20370178 109.25050388 84 116 C78.8008838 118.43768085 73.74906679 119.67062638 68 120 C67.0925 120.05285156 66.185 120.10570313 65.25 120.16015625 C51.51868402 120.57138056 40.08556741 116.69450205 29.45703125 107.89453125 C18.07187964 97.11963902 12.98104712 83.96256618 12.5 68.3125 C12.7500933 59.78253218 14.85827056 52.25134794 19.375 45 C19.91125 44.01 20.4475 43.02 21 42 C19.31228843 37.25900598 15.41446526 34.04627616 11.9375 30.5625 C11.30650391 29.90701172 10.67550781 29.25152344 10.02539062 28.57617188 C5.99666345 24.52305281 2.05216639 21.71852698 -3.01245117 19.08862305 C-6.9546253 16.92940987 -9.76712811 13.87080094 -12 10 C-12.12234499 6.26847771 -11.71181202 4.29801016 -9.9375 1.0625 C-6.61798958 -0.75787668 -3.5863681 -0.88701987 0 0 Z " fill="#79F3AB" transform="translate(147,0)"/>
<path d="M0 0 C3 0.25 3 0.25 5 2.25 C5.1877701 4.74962246 5.25194071 7.13744197 5.22705078 9.63720703 C5.22734283 10.39827759 5.22763489 11.15934814 5.22793579 11.94348145 C5.22653981 14.46504016 5.21096618 16.98630525 5.1953125 19.5078125 C5.19158332 21.25373167 5.1887359 22.99965294 5.18673706 24.74557495 C5.17909311 29.3454972 5.15943813 33.94529357 5.1373291 38.54516602 C5.11688704 43.2371246 5.10773886 47.92910349 5.09765625 52.62109375 C5.07619292 61.83078454 5.04204783 71.04038181 5 80.25 C5.92425781 80.38019531 6.84851563 80.51039062 7.80078125 80.64453125 C11.75333456 81.39257247 13.89893754 82.70023753 17 85.25 C20.76060483 90.78150683 20.38866627 96.1217599 20.29296875 102.5546875 C20.28872391 103.63380402 20.28447906 104.71292053 20.28010559 105.82473755 C20.2633642 109.25841624 20.22571944 112.69149983 20.1875 116.125 C20.17244734 118.45832483 20.15875995 120.7916589 20.14648438 123.125 C20.11347554 128.83353507 20.06332105 134.54172501 20 140.25 C21.14887695 140.22905273 22.29775391 140.20810547 23.48144531 140.18652344 C27.79772169 140.11340101 32.11394487 140.06794114 36.43066406 140.03027344 C38.28883105 140.01032083 40.14693659 139.98314866 42.00488281 139.94824219 C58.37915864 139.64860528 71.28025349 141.26060984 83.77734375 152.90625 C89.24446101 158.8046157 92.76407811 165.81950123 94 173.75 C94.34129966 176.19128701 94.34129966 176.19128701 95 178.25 C97.40132774 179.79488317 97.40132774 179.79488317 100 180.25 C102 183.25 102 183.25 101.8125 186.75 C100.73623178 191.38623235 100.73623178 191.38623235 98 193.25 C95.4474452 193.53041229 93.14189342 193.62936916 90.59106445 193.59057617 C89.83960144 193.59101425 89.08813843 193.59145233 88.31390381 193.59190369 C85.83009863 193.58981367 83.3469685 193.56647326 80.86328125 193.54296875 C79.14121367 193.53737354 77.41914132 193.53310309 75.69706726 193.53010559 C71.16448788 193.51865091 66.63219688 193.48917845 62.09973145 193.45599365 C57.47473044 193.42530615 52.84968284 193.41160308 48.22460938 193.39648438 C39.14961288 193.36430928 30.07483042 193.31310545 21 193.25 C21.72703125 192.09177734 21.72703125 192.09177734 22.46875 190.91015625 C24.18041186 187.93658042 24.68851362 186.60650391 24 183.25 C21.39110249 180.71161323 19.45779049 179.40259683 16 178.25 C15.26171875 175.87890625 15.26171875 175.87890625 14.6875 172.8125 C12.71672659 164.14522429 8.7414091 157.12712588 2 151.25 C1.236875 150.569375 0.47375 149.88875 -0.3125 149.1875 C-5.17542646 145.68166929 -9.78900828 143.46264918 -15.65332031 142.19189453 C-16.46649719 142.01465851 -17.27967407 141.83742249 -18.11749268 141.65481567 C-19.0493338 141.45443192 -19.0493338 141.45443192 -20 141.25 C-20.10156178 134.09680328 -20.17153366 126.94379305 -20.21972656 119.79003906 C-20.23982071 117.35735119 -20.26710088 114.92471149 -20.30175781 112.4921875 C-20.3503706 108.99206645 -20.37299139 105.49258498 -20.390625 101.9921875 C-20.41127014 100.90759247 -20.43191528 99.82299744 -20.45318604 98.70553589 C-20.45500807 92.55052945 -20.16304068 88.90541297 -16 84.25 C-12.10710957 81.10255667 -9.93843028 80.03274249 -5 80.25 C-5.00444122 79.27725128 -5.00888245 78.30450256 -5.01345825 77.30227661 C-5.0539449 68.1494724 -5.08395575 58.99668628 -5.10362434 49.84381294 C-5.11407597 45.13786217 -5.12826022 40.43198349 -5.15087891 35.72607422 C-5.17255826 31.18735924 -5.18455823 26.64871376 -5.18975449 22.10995102 C-5.19345909 20.37553691 -5.20069294 18.64112674 -5.21146011 16.9067421 C-5.22590995 14.48347914 -5.2279807 12.06050591 -5.22705078 9.63720703 C-5.23424133 8.91503998 -5.24143188 8.19287292 -5.24884033 7.44882202 C-5.2195811 0.43496509 -5.2195811 0.43496509 0 0 Z " fill="#707DD5" transform="translate(340,-0.25)"/>
<path d="M0 0 C23.76 0 47.52 0 72 0 C72.99 3.3 73.98 6.6 75 10 C76.92196619 13.39580555 79.35936246 16.13496046 82 19 C82.59039062 19.65613281 83.18078125 20.31226563 83.7890625 20.98828125 C101.80369132 38.89525293 130.08518928 44.06757029 154 49 C154 49.33 154 49.66 154 50 C142.40746207 50.51154694 131.21076086 49.12606808 119.7421875 47.60131836 C116.63926576 47.18939383 113.53475699 46.79185799 110.4296875 46.39648438 C99.20697881 44.9472342 88.08988414 43.26077847 77 41 C76.71898437 41.77859375 76.43796875 42.5571875 76.1484375 43.359375 C74.50097177 47.14742545 71.95351111 49.21859556 68.125 50.75 C63.87079643 51.25049454 60.0797882 51.3599294 56 50 C55.78730469 50.53109375 55.57460937 51.0621875 55.35546875 51.609375 C53.47751908 54.92149372 50.91953708 57.50926872 48.3125 60.25 C47.22452358 61.41076815 46.13728103 62.57222458 45.05078125 63.734375 C44.52564941 64.29447266 44.00051758 64.85457031 43.45947266 65.43164062 C41.04735722 68.0237165 38.70547463 70.67145731 36.41015625 73.3671875 C35.14141206 74.83625972 33.79343248 76.235996 32.4375 77.625 C31.963125 78.40875 31.48875 79.1925 31 80 C31.75675853 82.7750792 31.75675853 82.7750792 33 86 C33.51397666 92.1493636 33.15509024 97.18467713 31 103 C31.6290625 103.67804688 32.258125 104.35609375 32.90625 105.0546875 C33.7621875 105.98539062 34.618125 106.91609375 35.5 107.875 C36.18449219 108.61133667 36.18449219 108.61133667 36.8828125 109.36254883 C39.88842252 112.6383909 42.45106848 116.03646899 45 119.6875 C47.60534028 123.11653237 47.60534028 123.11653237 51.5078125 124.515625 C54.1180587 124.46929007 54.1180587 124.46929007 56.67578125 124.17578125 C60.19922359 123.90930242 62.14678793 125.00938693 65 127 C67.13235924 128.91742648 68.36397275 130.54595912 70 133 C70.1328125 136.19921875 70.1328125 136.19921875 70 139 C71.16917969 138.96519531 72.33835937 138.93039062 73.54296875 138.89453125 C75.09113141 138.86638284 76.63930968 138.83908381 78.1875 138.8125 C78.95642578 138.78736328 79.72535156 138.76222656 80.51757812 138.73632812 C85.16140479 138.67653637 88.2723164 138.90315516 92 142 C93.3125 145.1875 93.3125 145.1875 94 148 C95.65 148 97.3 148 99 148 C99 148.33 99 148.66 99 149 C97.02 149 95.04 149 93 149 C93.04640625 149.60328125 93.0928125 150.2065625 93.140625 150.828125 C93.43813387 157.4158215 93.43813387 157.4158215 91.125 160.5 C87.28855442 163.20807923 84.25804957 163.16564132 79.69213867 163.19287109 C78.56258003 163.20513733 78.56258003 163.20513733 77.41020203 163.21765137 C74.91279905 163.24250731 72.41545292 163.25902178 69.91796875 163.2734375 C68.63927131 163.28142302 68.63927131 163.28142302 67.33474159 163.28956985 C62.8226982 163.31630227 58.31068249 163.33567688 53.79858398 163.35009766 C49.13767921 163.36674628 44.47748142 163.41152505 39.81684399 163.4624691 C36.23345628 163.49612217 32.65023679 163.5076729 29.0667057 163.51332474 C27.34868275 163.52004259 25.63067107 163.53527864 23.91280174 163.55921555 C21.50662982 163.59083032 19.10236994 163.59091035 16.69604492 163.58349609 C15.98780579 163.59990143 15.27956665 163.61630676 14.54986572 163.63320923 C10.71854906 163.58494122 9.10244234 163.08104539 6.0605011 160.67446899 C3.43625518 157.26827603 3.32904604 155.26452718 3.375 151 C3.36210938 149.80375 3.34921875 148.6075 3.3359375 147.375 C4.19056768 143.03146778 5.56074992 141.7387742 9 139 C12.41333008 138.43237305 12.41333008 138.43237305 16.26953125 138.51171875 C17.29103523 138.52233086 17.29103523 138.52233086 18.33317566 138.53315735 C20.49409995 138.56099931 22.65236822 138.62370473 24.8125 138.6875 C26.28316552 138.71259668 27.75387193 138.73540747 29.22460938 138.75585938 C32.81725957 138.81078812 36.40837028 138.89698353 40 139 C41.32044081 133.40742766 41.32044081 133.40742766 39.375 128.3125 C38.59125 127.549375 37.8075 126.78625 37 126 C36.17113281 125.16082031 35.34226563 124.32164062 34.48828125 123.45703125 C33.66714844 122.64621094 32.84601563 121.83539063 32 121 C30.71467033 119.575447 29.44224324 118.13906571 28.1875 116.6875 C27.33671875 115.7284375 27.33671875 115.7284375 26.46875 114.75 C25 113 25 113 23.1875 110.1875 C20.25450916 107.25450916 17.3562731 106.83725749 13.41015625 105.80859375 C9.31549137 104.43485691 7.05478468 101.77667632 4.8984375 98.14453125 C3.2449113 94.1976361 3.48259152 90.19233537 4 86 C6.5456099 80.27237772 10.40501292 78.19020846 16 76 C17.47533203 75.59394531 17.47533203 75.59394531 18.98046875 75.1796875 C22.51970094 73.7969603 24.00171501 72.26218734 26.4375 69.375 C27.20964844 68.47523438 27.98179688 67.57546875 28.77734375 66.6484375 C29.51082031 65.77445312 30.24429688 64.90046875 31 64 C32.16347482 62.66388053 33.32987756 61.33030161 34.5 60 C35.04914063 59.36191406 35.59828125 58.72382813 36.1640625 58.06640625 C37.53837834 56.51956991 38.95777657 55.0125854 40.3984375 53.52734375 C45.28330749 48.5156561 45.28330749 48.5156561 48.125 42.25 C48.00310669 39.08077407 47.54888964 36.11908718 47 33 C45.8140625 32.59910156 44.628125 32.19820312 43.40625 31.78515625 C28.26700136 26.52746789 9.83219021 19.97291154 0.9375 5.6875 C0 3 0 3 0 0 Z " fill="#5665CD" transform="translate(81,194)"/>
<path d="M0 0 C23.43 0 46.86 0 71 0 C69.63878124 8.16731259 66.51339797 11.32926498 60.01953125 16.265625 C49.03261421 23.89389759 36.25317625 29.83129843 23 32 C22.13806447 39.34651565 22.13806447 39.34651565 24.2421875 46.2265625 C26.06776147 48.27086883 27.99889607 50.12740733 30 52 C31.51347047 53.65444399 33.01300967 55.32171589 34.5 57 C35.63501953 58.25876953 35.63501953 58.25876953 36.79296875 59.54296875 C38.81104402 61.78964015 40.81811227 64.04479147 42.8125 66.3125 C43.37710938 66.95058594 43.94171875 67.58867187 44.5234375 68.24609375 C46 70 46 70 47.9375 72.875 C50.51563604 75.53126137 52.43994428 75.77175451 55.9765625 76.48828125 C60.51534397 77.63611981 63.3849189 80.28780083 66.375 83.75 C68.37698302 87.75396605 68.71932787 90.61385443 68 95 C66.00565094 100.45821847 63.03356793 103.17985924 58.125 106.125 C56 107 56 107 52.8125 107.5 C47.02894169 109.06044614 43.65157323 114.58714472 40 119 C38.71223872 120.46178308 37.42095105 121.92047266 36.125 123.375 C35.07049378 124.57214474 34.02811345 125.78011409 33 127 C32.41992188 127.56976563 31.83984375 128.13953125 31.2421875 128.7265625 C29.29581684 132.28878804 30.27921071 135.06842206 31 139 C32.32390747 138.97643433 32.32390747 138.97643433 33.67456055 138.95239258 C36.96400886 138.90112002 40.25302961 138.86358083 43.54272461 138.83520508 C44.96369141 138.8201624 46.38461213 138.79972296 47.80541992 138.77368164 C49.85346886 138.73709653 51.9009015 138.72022903 53.94921875 138.70703125 C55.79519653 138.68346558 55.79519653 138.68346558 57.6784668 138.65942383 C61.27920391 139.02862841 63.13533543 139.83081837 66 142 C67.46861889 144.93723778 67.24793404 147.60592357 67.3125 150.875 C67.36857422 152.72738281 67.36857422 152.72738281 67.42578125 154.6171875 C67 158 67 158 65.10546875 160.3828125 C61.33275629 163.28059164 58.29201403 163.16543877 53.69213867 163.19287109 C52.56258003 163.20513733 52.56258003 163.20513733 51.41020203 163.21765137 C48.91279905 163.24250731 46.41545292 163.25902178 43.91796875 163.2734375 C43.06550379 163.27876118 42.21303883 163.28408485 41.33474159 163.28956985 C36.8226982 163.31630227 32.31068249 163.33567688 27.79858398 163.35009766 C23.13767921 163.36674628 18.47748142 163.41152505 13.81684399 163.4624691 C10.23345628 163.49612217 6.65023679 163.5076729 3.0667057 163.51332474 C1.34868275 163.52004259 -0.36932893 163.53527864 -2.08719826 163.55921555 C-4.49337018 163.59083032 -6.89763006 163.59091035 -9.30395508 163.58349609 C-10.01219421 163.59990143 -10.72043335 163.61630676 -11.45013428 163.63320923 C-15.33757809 163.58423412 -16.87912474 163.09987548 -19.91850281 160.58853149 C-23.23561053 156.46340568 -23.53290878 153.18884863 -23 148 C-21.84950335 143.91375327 -20.63175489 141.42116992 -17 139 C-15.00708008 138.77294922 -15.00708008 138.77294922 -12.76953125 138.8046875 C-11.56586914 138.81435547 -11.56586914 138.81435547 -10.33789062 138.82421875 C-9.08782227 138.84935547 -9.08782227 138.84935547 -7.8125 138.875 C-6.96751953 138.88402344 -6.12253906 138.89304687 -5.25195312 138.90234375 C-3.16784757 138.92589297 -1.08388783 138.96176353 1 139 C0.94328125 138.08734375 0.8865625 137.1746875 0.828125 136.234375 C1.01489161 132.71976703 1.4189263 131.7657132 3.75 129.25 C4.26046875 128.67765625 4.7709375 128.1053125 5.296875 127.515625 C7.17337587 125.84571138 8.63128137 124.85064481 11 124 C12.7341473 124.13381609 14.46431337 124.32627672 16.1875 124.5625 C19.984665 124.63300439 21.46366753 124.4655295 24.3671875 121.9453125 C25.86678286 120.06147918 27.31586735 118.13660714 28.71875 116.1796875 C31.13057102 112.81800546 33.74948598 109.83495665 36.5625 106.8125 C37.40941406 105.89082031 38.25632812 104.96914063 39.12890625 104.01953125 C39.74636719 103.35308594 40.36382812 102.68664062 41 102 C40.51273437 101.1028125 40.02546875 100.205625 39.5234375 99.28125 C38.1412406 96.30421052 37.59022618 94.69919128 37.625 91.5 C37.61339844 90.43265625 37.61339844 90.43265625 37.6015625 89.34375 C38.13340945 86.21523856 39.49443987 83.77214246 41 81 C40.28714844 80.2265625 39.57429688 79.453125 38.83984375 78.65625 C34.06857144 73.47088302 29.3096181 68.2824644 24.703125 62.94921875 C23.41804857 61.47845467 22.11229125 60.02572391 20.796875 58.58203125 C20.05953125 57.77121094 19.3221875 56.96039063 18.5625 56.125 C17.54349609 55.01511719 17.54349609 55.01511719 16.50390625 53.8828125 C15 52 15 52 15 50 C13.515 50.495 13.515 50.495 12 51 C5.54173735 51.53818855 2.30830146 50.74703632 -3 47 C-6 43.70967742 -6 43.70967742 -6 41 C-6.92296875 41.16604736 -7.8459375 41.33209473 -8.796875 41.50317383 C-25.64031222 44.51263442 -42.45328359 47.31301668 -59.5 48.875 C-60.78390625 48.99464111 -62.0678125 49.11428223 -63.390625 49.23754883 C-70.94485193 49.88449904 -78.41948555 50.14174092 -86 50 C-86 49.67 -86 49.34 -86 49 C-84.9584375 48.82984375 -83.916875 48.6596875 -82.84375 48.484375 C-54.95473446 43.82034168 -24.16857896 36.46138627 -6 13 C-3.00685442 8.72407774 -1.94736776 5.19298068 0 0 Z " fill="#5665CC" transform="translate(360,194)"/>
<path d="M0 0 C0.83716696 -0.00779995 1.67433393 -0.01559991 2.53686959 -0.02363622 C5.3407883 -0.04357258 8.14335221 -0.02778549 10.94728088 -0.01205444 C12.9579701 -0.01882989 14.96865311 -0.02773261 16.97932434 -0.03860474 C22.44015529 -0.06141464 27.90051435 -0.05255419 33.36135364 -0.03670931 C39.07474723 -0.02405744 44.7881002 -0.03578861 50.50149536 -0.04364014 C60.09759276 -0.05273949 69.69349783 -0.04074196 79.28956604 -0.01693726 C90.38404305 0.01026669 101.47806055 0.00146611 112.5725264 -0.02606928 C122.09624904 -0.04876035 131.61983335 -0.05196017 141.1435743 -0.03887594 C146.83238987 -0.03108047 152.52098948 -0.03004247 158.20979118 -0.04655838 C163.55909094 -0.06100341 168.90779851 -0.05098032 174.2570343 -0.0220871 C176.22021565 -0.0154762 178.18344684 -0.017374 180.14660835 -0.02840042 C182.82708978 -0.04206752 185.50567457 -0.02492669 188.18603516 0 C189.35117029 -0.01673041 189.35117029 -0.01673041 190.5398435 -0.03379881 C194.45414004 0.03679646 197.10871507 0.58583874 200.18200779 2.9480381 C202.6565094 5.63491821 202.6565094 5.63491821 202.7190094 9.25991821 C201.26588168 13.87573567 201.26588168 13.87573567 198.6565094 15.63491821 C195.83999739 15.93193785 193.24398043 16.04382421 190.42617798 16.02259827 C189.15249813 16.03067657 189.15249813 16.03067657 187.85308737 16.03891808 C184.99713235 16.05326853 182.14163622 16.04607654 179.28565979 16.03897095 C177.24246852 16.04467082 175.19928044 16.05163358 173.15609741 16.05976868 C167.59828683 16.07775765 162.04063362 16.07652092 156.48280263 16.07082629 C151.8478803 16.06774269 147.21298857 16.07381765 142.57807058 16.07986504 C131.64626469 16.09392754 120.71453692 16.09233466 109.7827301 16.08096313 C98.49405358 16.06948008 87.20561458 16.08355693 75.91696936 16.11035961 C66.23453152 16.1324904 56.55216839 16.13915991 46.86970705 16.1332832 C41.08257547 16.12990615 35.29559618 16.1323782 29.50848579 16.14953423 C24.06738828 16.1649595 18.62664358 16.16109694 13.18556023 16.14222908 C11.18605493 16.13853093 9.18652376 16.14168715 7.18704224 16.15211487 C4.46222502 16.16524278 1.73858998 16.15385058 -0.98617554 16.13612366 C-1.78179506 16.14572866 -2.57741458 16.15533367 -3.39714378 16.16522974 C-6.93124351 16.11775942 -8.95518748 15.92338994 -11.83066654 13.78718662 C-13.3434906 11.63491821 -13.3434906 11.63491821 -13.9059906 8.69741821 C-12.49953661 1.0400576 -6.85546235 -0.09815709 0 0 Z " fill="#A5ADE4" transform="translate(162.34349060058594,177.36508178710938)"/>
<path d="M0 0 C1.04874802 0.00164658 1.04874802 0.00164658 2.11868286 0.00332642 C17.56833651 0.07281114 34.79785267 1.86134237 46.4375 13.25 C48.62790023 17.04669372 48.92020077 19.07937242 48.12890625 23.328125 C45.90629066 29.24092055 40.32193846 31.68665768 34.875 34.1875 C13.56601298 42.29275886 -13.88879899 43.2802705 -34.94921875 34.07421875 C-40.66516627 31.18262177 -44.76224152 28.35051696 -47.6875 22.5 C-48.24059615 18.4439616 -47.97887002 16.9091007 -45.5703125 13.52734375 C-42.83835943 10.41270465 -39.91935881 8.64847182 -36.1875 6.8125 C-34.53234375 5.97138672 -34.53234375 5.97138672 -32.84375 5.11328125 C-22.27895039 0.65004108 -11.33664943 -0.07350211 0 0 Z " fill="#FEA90B" transform="translate(267.6875,445.5)"/>
<path d="M0 0 C23.76 0 47.52 0 72 0 C72.99 3.3 73.98 6.6 75 10 C76.92196619 13.39580555 79.35936246 16.13496046 82 19 C82.59039062 19.65613281 83.18078125 20.31226563 83.7890625 20.98828125 C101.80369132 38.89525293 130.08518928 44.06757029 154 49 C154 49.33 154 49.66 154 50 C142.54213941 50.47983898 131.46718115 49.19470258 120.12670898 47.71118164 C117.1010363 47.31751393 114.07336316 46.94395476 111.04492188 46.57226562 C98.00941959 44.92495719 85.26747409 42.53155211 72.46951294 39.56628418 C69.39929076 38.86225132 66.32107131 38.19984396 63.23986816 37.54579163 C42.82106447 33.08786721 13.085376 24.53090987 1 6 C0.67 4.02 0.34 2.04 0 0 Z " fill="#5665CD" transform="translate(81,194)"/>
<path d="M0 0 C23.43 0 46.86 0 71 0 C69.63878124 8.16731259 66.51339797 11.32926498 60.01953125 16.265625 C51.90106957 21.90287958 43.23859423 25.7827593 34.01367188 29.24316406 C32.1836829 29.93096302 30.364565 30.64751386 28.546875 31.3671875 C11.39223668 37.91196658 -6.95467371 40.98746952 -25 44 C-26.03318359 44.17418457 -27.06636719 44.34836914 -28.13085938 44.52783203 C-47.18616377 47.70659802 -66.61847722 50.75025249 -86 50 C-86 49.67 -86 49.34 -86 49 C-84.9584375 48.82984375 -83.916875 48.6596875 -82.84375 48.484375 C-54.95473446 43.82034168 -24.16857896 36.46138627 -6 13 C-3.00685442 8.72407774 -1.94736776 5.19298068 0 0 Z " fill="#5665CD" transform="translate(360,194)"/>
<path d="M0 0 C3.37719115 2.17588623 6.4846065 4.21293336 7.63623047 8.20605469 C7.8528298 10.77096474 7.91999055 13.30111031 7.9375 15.875 C8.58073469 28.95562873 13.14816753 39.29022069 22 49 C32.12916071 57.36110166 42.83543231 62.39310032 56.0625 62.4375 C57.30181274 62.44438843 57.30181274 62.44438843 58.56616211 62.45141602 C65.5187093 62.32717944 71.06248638 60.72922115 77.41015625 57.99609375 C78.69212891 57.50302734 78.69212891 57.50302734 80 57 C80.66 57.33 81.32 57.66 82 58 C73.66135837 68.32275571 63.56789765 76.75333882 50 78.8125 C48.66829443 78.90329811 47.3342827 78.96293659 46 79 C45.09765625 79.05027344 44.1953125 79.10054688 43.265625 79.15234375 C29.53539595 79.59697552 18.07975027 75.68968571 7.45703125 66.89453125 C-3.92812036 56.11963902 -9.01895288 42.96256618 -9.5 27.3125 C-9.18326235 16.87107955 -5.89234487 8.51116481 0 0 Z " fill="#24D1B4" transform="translate(169,41)"/>
<path d="M0 0 C0.495 1.485 0.495 1.485 1 3 C2.32390747 2.97643433 2.32390747 2.97643433 3.67456055 2.95239258 C6.96400886 2.90112002 10.25302961 2.86358083 13.54272461 2.83520508 C14.96369141 2.8201624 16.38461213 2.79972296 17.80541992 2.77368164 C19.85346886 2.73709653 21.9009015 2.72022903 23.94921875 2.70703125 C25.79519653 2.68346558 25.79519653 2.68346558 27.6784668 2.65942383 C31.27920391 3.02862841 33.13533543 3.83081837 36 6 C37.46861889 8.93723778 37.24793404 11.60592357 37.3125 14.875 C37.36857422 16.72738281 37.36857422 16.72738281 37.42578125 18.6171875 C37 22 37 22 35.10546875 24.3828125 C31.33275629 27.28059164 28.29201403 27.16543877 23.69213867 27.19287109 C22.93909958 27.20104858 22.18606049 27.20922607 21.41020203 27.21765137 C18.91279905 27.24250731 16.41545292 27.25902178 13.91796875 27.2734375 C12.63927131 27.28142302 12.63927131 27.28142302 11.33474159 27.28956985 C6.8226982 27.31630227 2.31068249 27.33567688 -2.20141602 27.35009766 C-6.86232079 27.36674628 -11.52251858 27.41152505 -16.18315601 27.4624691 C-19.76654372 27.49612217 -23.34976321 27.5076729 -26.9332943 27.51332474 C-28.65131725 27.52004259 -30.36932893 27.53527864 -32.08719826 27.55921555 C-34.49337018 27.59083032 -36.89763006 27.59091035 -39.30395508 27.58349609 C-40.36631378 27.6081041 -40.36631378 27.6081041 -41.45013428 27.63320923 C-45.33757809 27.58423412 -46.87912474 27.09987548 -49.91850281 24.58853149 C-53.23561053 20.46340568 -53.53290878 17.18884863 -53 12 C-51.84950335 7.91375327 -50.63175489 5.42116992 -47 3 C-44.85493469 2.75949097 -44.85493469 2.75949097 -42.3449707 2.77294922 C-40.93384758 2.77317581 -40.93384758 2.77317581 -39.49421692 2.77340698 C-38.48163315 2.78372955 -37.46904938 2.79405212 -36.42578125 2.8046875 C-34.86732735 2.80893234 -34.86732735 2.80893234 -33.27738953 2.81326294 C-29.95564303 2.82446718 -26.63416515 2.84957236 -23.3125 2.875 C-21.06185285 2.88502948 -18.81120148 2.89415538 -16.56054688 2.90234375 C-11.04027278 2.9244073 -5.52015558 2.95788729 0 3 C0 2.01 0 1.02 0 0 Z " fill="#A6ADE4" transform="translate(390,330)"/>
<path d="M0 0 C0.495 1.485 0.495 1.485 1 3 C1.56518845 2.99333817 2.13037689 2.98667633 2.71269226 2.97981262 C8.60129095 2.91338276 14.48978297 2.86816768 20.37866211 2.83520508 C22.57564621 2.82012948 24.77260026 2.79966574 26.96948242 2.77368164 C30.12947 2.73724498 33.28905924 2.72026116 36.44921875 2.70703125 C37.91979988 2.68380547 37.91979988 2.68380547 39.42008972 2.66011047 C48.17739943 2.65795493 48.17739943 2.65795493 52 6 C53.3125 9.1875 53.3125 9.1875 54 12 C55.65 12 57.3 12 59 12 C59 12.33 59 12.66 59 13 C57.02 13 55.04 13 53 13 C53.04640625 13.60328125 53.0928125 14.2065625 53.140625 14.828125 C53.43813387 21.4158215 53.43813387 21.4158215 51.125 24.5 C47.28855442 27.20807923 44.25804957 27.16564132 39.69213867 27.19287109 C38.93909958 27.20104858 38.18606049 27.20922607 37.41020203 27.21765137 C34.91279905 27.24250731 32.41545292 27.25902178 29.91796875 27.2734375 C28.63927131 27.28142302 28.63927131 27.28142302 27.33474159 27.28956985 C22.8226982 27.31630227 18.31068249 27.33567688 13.79858398 27.35009766 C9.13767921 27.36674628 4.47748142 27.41152505 -0.18315601 27.4624691 C-3.76654372 27.49612217 -7.34976321 27.5076729 -10.9332943 27.51332474 C-12.65131725 27.52004259 -14.36932893 27.53527864 -16.08719826 27.55921555 C-18.49337018 27.59083032 -20.89763006 27.59091035 -23.30395508 27.58349609 C-24.36631378 27.6081041 -24.36631378 27.6081041 -25.45013428 27.63320923 C-29.28145094 27.58494122 -30.89755766 27.08104539 -33.9394989 24.67446899 C-36.56374482 21.26827603 -36.67095396 19.26452718 -36.625 15 C-36.63789062 13.80375 -36.65078125 12.6075 -36.6640625 11.375 C-35.80943232 7.03146778 -34.43925008 5.7387742 -31 3 C-27.58666992 2.43237305 -27.58666992 2.43237305 -23.73046875 2.51171875 C-22.70896477 2.52233086 -22.70896477 2.52233086 -21.66682434 2.53315735 C-19.50590005 2.56099931 -17.34763178 2.62370473 -15.1875 2.6875 C-13.71683448 2.71259668 -12.24612807 2.73540747 -10.77539062 2.75585938 C-7.18274043 2.81078812 -3.59162972 2.89698353 0 3 C0 2.01 0 1.02 0 0 Z " fill="#A5ADE4" transform="translate(121,330)"/>
<path d="M0 0 C1.875 2.625 1.875 2.625 2.5 5.5625 C1.67317537 9.61394066 -0.00427888 12.03296575 -3.125 14.625 C-17.38935666 23.43272126 -36.87821739 23.50219059 -52.875 20.375 C-60.40566032 18.48127343 -67.33815328 16.05732528 -72.125 9.625 C-72.875 6.1875 -72.875 6.1875 -72.125 2.625 C-66.75111877 -4.562994 -56.70800285 -7.5709372 -48.2109375 -9.05859375 C-32.1337822 -10.70701094 -13.37371802 -10.1640257 0 0 Z " fill="#FEA90B" transform="translate(394.125,394.375)"/>
<path d="M0 0 C2.11163753 2.41670481 2.93642119 3.70753746 3.625 6.875 C2.82688664 10.86556681 1.42341911 12.16596705 -1.73046875 14.61328125 C-15.38125595 22.95412369 -35.42150718 23.22524958 -50.67578125 19.76171875 C-56.45964758 17.86616592 -63.51478202 15.22782697 -67 10 C-67.6023916 6.46094937 -67.32275509 4.63014089 -65.6875 1.4375 C-49.92575981 -12.8580318 -16.76946991 -11.62990742 0 0 Z " fill="#FEA80B" transform="translate(173,414)"/>
<path d="M0 0 C3.3 0 6.6 0 10 0 C10 11.55 10 23.1 10 35 C12.64 35 15.28 35 18 35 C22.37128787 37.92206811 24.7686794 43.3068264 27.3125 47.8125 C28.01342773 48.98522461 28.01342773 48.98522461 28.72851562 50.18164062 C30.79431729 53.83417325 31.98011765 56.28184953 32.09765625 60.52734375 C30.67762782 65.01988921 28.58772857 68.75242642 26.125 72.75 C25.45404297 73.88115234 25.45404297 73.88115234 24.76953125 75.03515625 C20.74582564 81.71759359 20.74582564 81.71759359 18 84 C14.65807308 83.75546876 13.39456443 83.39456443 11 81 C11.25591398 75.13956975 14.22090672 70.89553119 17.29296875 66.12304688 C18.94531789 63.41947203 20.02117443 61.57255656 19.90234375 58.359375 C18.94074106 55.84505453 17.81549888 53.62486849 16.4375 51.3125 C14 47.20396601 14 47.20396601 14 45 C8.06 45 2.12 45 -4 45 C-4.66 46.98 -5.32 48.96 -6 51 C-6.721875 51.99 -7.44375 52.98 -8.1875 54 C-10.26432703 56.80864152 -10.26432703 56.80864152 -9.87109375 59.74609375 C-8.64966429 64.30865312 -6.23457319 67.95038714 -3.70703125 71.87695312 C-1.99475002 74.67858891 -0.97547716 76.48141398 -1.1328125 79.80859375 C-2 82 -2 82 -4 84 C-6.375 83.9375 -6.375 83.9375 -9 83 C-12.55453952 79.07364673 -15.14013177 74.6403959 -17.75 70.0625 C-18.16121094 69.37220703 -18.57242188 68.68191406 -18.99609375 67.97070312 C-21.34363743 63.85665233 -22.89621908 60.83584876 -22 56 C-20.64886272 52.97328935 -18.99090667 50.19174788 -17.25 47.375 C-16.8065625 46.62476563 -16.363125 45.87453125 -15.90625 45.1015625 C-11.07825468 37.09277027 -11.07825468 37.09277027 -8 35 C-5.36 35 -2.72 35 0 35 C0 23.45 0 11.9 0 0 Z " fill="#5967CC" transform="translate(251,280)"/>
<path d="M0 0 C1.09948975 0.05329468 1.09948975 0.05329468 2.22119141 0.10766602 C18.23022941 0.85555353 34.00523518 1.06087726 50 0 C50.78094255 17.67967157 50.78094255 17.67967157 46 25 C45.45666016 25.85658203 45.45666016 25.85658203 44.90234375 26.73046875 C41.1574629 31.87174585 35.84556057 34.05147981 30 36 C21.61174496 36.7747589 14.94694803 35.5307164 8.25 30.3125 C3.89730147 26.33743285 1.8349473 21.5048419 0 16 C-0.07051114 13.26134713 -0.09357765 10.54972412 -0.0625 7.8125 C-0.05798828 7.06291016 -0.05347656 6.31332031 -0.04882812 5.54101562 C-0.03706354 3.69397617 -0.01912865 1.84697787 0 0 Z " fill="#A4ACE4" transform="translate(231,244)"/>
<path d="M0 0 C4.34671293 1.41367259 8.6135639 2.97260641 12.875 4.625 C14.02742188 5.07101563 15.17984375 5.51703125 16.3671875 5.9765625 C17.23601562 6.31429687 18.10484375 6.65203125 19 7 C16.76414684 9.40282054 14.44282349 11.11816118 11.66796875 12.86328125 C10.79849609 13.41306641 9.92902344 13.96285156 9.03320312 14.52929688 C8.09412109 15.11775391 7.15503906 15.70621094 6.1875 16.3125 C4.18092457 17.57932412 2.17441599 18.84625411 0.16796875 20.11328125 C-0.85893066 20.75990723 -1.88583008 21.4065332 -2.94384766 22.07275391 C-7.63882174 25.03346052 -12.31907281 28.01715564 -17 31 C-18.81113103 32.15244887 -20.62232938 33.30479195 -22.43359375 34.45703125 C-26.32274658 36.93182075 -30.21054499 39.40872391 -34.09765625 41.88671875 C-35.59522461 42.84094727 -35.59522461 42.84094727 -37.12304688 43.81445312 C-39.03484562 45.03266907 -40.94632159 46.25139176 -42.85742188 47.47070312 C-43.72044922 48.02048828 -44.58347656 48.57027344 -45.47265625 49.13671875 C-46.22812744 49.61842529 -46.98359863 50.10013184 -47.76196289 50.59643555 C-48.50051514 51.05961182 -49.23906738 51.52278809 -50 52 C-50.8448999 52.54503174 -51.6897998 53.09006348 -52.56030273 53.65161133 C-55.92056084 55.5087819 -58.2215327 55.48089584 -62 55 C-64.4375 53.375 -64.4375 53.375 -66 51 C-66.5625 48.0625 -66.5625 48.0625 -66 45 C-61.7035651 39.77582339 -55.97195927 36.6660843 -50.25 33.1875 C-48.09425837 31.85936036 -45.93933727 30.52988814 -43.78515625 29.19921875 C-42.11477295 28.16933838 -42.11477295 28.16933838 -40.41064453 27.11865234 C-34.79611722 23.64232234 -29.24371782 20.06855603 -23.6875 16.5 C-22.68170898 15.85442139 -21.67591797 15.20884277 -20.63964844 14.54370117 C-18.71244192 13.30663428 -16.7861385 12.06815909 -14.86083984 10.828125 C-12.86902616 9.5553224 -10.86864312 8.29587249 -8.86181641 7.046875 C-7.8619873 6.42296875 -6.8621582 5.7990625 -5.83203125 5.15625 C-4.92815674 4.59744141 -4.02428223 4.03863281 -3.09301758 3.46289062 C-0.88487067 2.16716612 -0.88487067 2.16716612 0 0 Z " fill="#2A3793" transform="translate(106,218)"/>
<path d="M0 0 C0.77111618 -0.00043808 1.54223236 -0.00087616 2.3367157 -0.00132751 C4.88001007 0.0007589 7.42264141 0.02408252 9.96582031 0.04760742 C11.73129923 0.05320391 13.49678282 0.05747376 15.26226807 0.06047058 C19.90497745 0.07191521 24.54740448 0.10137908 29.19000244 0.13458252 C33.9290383 0.16529164 38.66811985 0.17897772 43.40722656 0.1940918 C52.70292341 0.22624916 61.99841087 0.27744091 71.29394531 0.34057617 C70.64296875 1.10241211 69.99199219 1.86424805 69.32128906 2.64916992 C67.06314683 5.19646318 67.06314683 5.19646318 66.85644531 8.40307617 C67.33854382 11.64002328 68.27553313 12.85102269 70.29394531 15.34057617 C60.06282929 15.4563924 49.83186904 15.54525203 39.60023117 15.59963703 C34.84930021 15.62573843 30.09881749 15.66114614 25.34814453 15.71777344 C20.76399579 15.77207424 16.18027834 15.80199261 11.59583282 15.81496239 C9.84626728 15.82420579 8.09672552 15.84225625 6.34734344 15.86922646 C3.89770893 15.9054927 1.44985949 15.91052278 -1 15.90820312 C-1.72432724 15.9261795 -2.44865448 15.94415588 -3.19493103 15.962677 C-6.90953798 15.92458233 -8.42835625 15.59894759 -11.18768311 13.03166199 C-12.70605469 10.34057617 -12.70605469 10.34057617 -12.70605469 6.71557617 C-11.70605469 3.34057617 -11.70605469 3.34057617 -10.12518311 1.65092468 C-6.7807711 -0.16061424 -3.70596734 -0.0551849 0 0 Z " fill="#8B95DC" transform="translate(82.7060546875,177.659423828125)"/>
<path d="M0 0 C10.08345955 -0.11588734 20.1667605 -0.204712 30.25075054 -0.25906086 C34.93327557 -0.28514676 39.61534475 -0.32052611 44.29760742 -0.37719727 C48.81692288 -0.43155345 53.33580011 -0.46142812 57.85541725 -0.47438622 C59.57903759 -0.48361968 61.30263414 -0.50165089 63.02606773 -0.52865028 C65.44197649 -0.56499028 67.85607838 -0.56994354 70.2722168 -0.56762695 C70.98359802 -0.58560333 71.69497925 -0.60357971 72.42791748 -0.62210083 C76.26668612 -0.58231495 77.9106069 -0.06919274 80.98298645 2.30891418 C83 5 83 5 83 8.625 C81.65309223 13.17081374 81.65309223 13.17081374 79 15 C76.4474452 15.28041229 74.14189342 15.37936916 71.59106445 15.34057617 C70.83960144 15.34101425 70.08813843 15.34145233 69.31390381 15.34190369 C66.83009863 15.33981367 64.3469685 15.31647326 61.86328125 15.29296875 C60.14121367 15.28737354 58.41914132 15.28310309 56.69706726 15.28010559 C52.16448788 15.26865091 47.63219688 15.23917845 43.09973145 15.20599365 C38.47473044 15.17530615 33.84968284 15.16160308 29.22460938 15.14648438 C20.14961288 15.11430928 11.07483042 15.06310545 2 15 C2.72703125 13.83984375 2.72703125 13.83984375 3.46875 12.65625 C5.19708005 9.65812645 5.67709475 8.38547376 5 5 C3.37396597 3.293668 1.70938019 1.62282929 0 0 Z " fill="#8B95DC" transform="translate(359,178)"/>
<path d="M0 0 C3.79904431 3.2689451 6.71583491 6.23378035 7.24050903 11.34124756 C7.2338472 12.63364349 7.2338472 12.63364349 7.22705078 13.95214844 C7.22689972 14.93286316 7.22674866 15.91357788 7.22659302 16.92401123 C7.21627045 17.97518127 7.20594788 19.02635132 7.1953125 20.109375 C7.1924826 21.19132141 7.18965271 22.27326782 7.18673706 23.38800049 C7.17554609 26.84211304 7.1504432 30.29596588 7.125 33.75 C7.11496881 36.09244417 7.1058432 38.43489241 7.09765625 40.77734375 C7.07561025 46.51832917 7.04108755 52.25912056 7 58 C0.4 58 -6.2 58 -13 58 C-13.14863618 50.86508242 -13.25735723 43.73107158 -13.32958984 36.5949707 C-13.35970966 34.1690297 -13.40061464 31.74319712 -13.45263672 29.31762695 C-13.52565833 25.82476008 -13.55950597 22.33333628 -13.5859375 18.83984375 C-13.61690521 17.76041 -13.64787292 16.68097626 -13.67977905 15.5688324 C-13.68257075 9.28220758 -12.98845101 5.73830738 -8.48721313 1.21266174 C-5.40829568 -1.29786303 -3.73767961 -1.21691894 0 0 Z " fill="#8B95DC" transform="translate(353,82)"/>
<path d="M0 0 C4.41692953 2.66430447 7.38652426 5.45511584 9.30444336 10.28491211 C10.8928961 14.06788178 13.05257795 16.66332578 15.890625 19.65625 C16.40119446 20.1965686 16.91176392 20.73688721 17.43780518 21.2935791 C26.88900584 31.19009933 36.76936868 40.69829722 46.56933594 50.24707031 C49.28154598 52.89301344 51.97783642 55.55432457 54.671875 58.21875 C55.50918152 59.02711304 56.34648804 59.83547607 57.20916748 60.66833496 C58.35231415 61.80607361 58.35231415 61.80607361 59.51855469 62.96679688 C60.19295593 63.62707886 60.86735718 64.28736084 61.56219482 64.96765137 C63.36726712 67.51913488 63.44222683 68.93695088 63 72 C61 74 61 74 58.20124817 74.41264343 C53.99370407 73.87028766 52.71705936 72.4208857 49.7800293 69.39770508 C49.29617767 68.90830444 48.81232605 68.41890381 48.31381226 67.91467285 C46.71983099 66.29615591 45.14776064 64.65790418 43.57421875 63.01953125 C42.46254301 61.8864843 41.34921882 60.75505258 40.23432922 59.62516785 C37.30040962 56.64568319 34.38319248 53.65043863 31.47094727 50.64978027 C26.82394248 45.86250655 22.16244383 41.08980638 17.4815464 36.33566856 C15.85891975 34.67994016 14.24991531 33.01178375 12.64152527 31.34223938 C7.7743043 26.34812062 3.164864 21.93575701 -3.20814514 18.87892151 C-7.12072306 16.95976558 -9.85066786 13.72598038 -12 10 C-12.12234499 6.26847771 -11.71181202 4.29801016 -9.9375 1.0625 C-6.61798958 -0.75787668 -3.5863681 -0.88701987 0 0 Z " fill="#8A96DB" transform="translate(147,0)"/>
<path d="M0 0 C1.22912109 0.01353516 2.45824219 0.02707031 3.72460938 0.04101562 C6.71272513 0.07589635 9.69985873 0.12490302 12.6875 0.1875 C12.6875 0.5175 12.6875 0.8475 12.6875 1.1875 C11.64851563 1.41824219 10.60953125 1.64898437 9.5390625 1.88671875 C-6.27136132 5.2510707 -6.27136132 5.2510707 -18.3125 15.1875 C-19.00393202 18.34503956 -19.00393202 21.02996044 -18.3125 24.1875 C-11.96323132 33.49976074 1.3840669 35.72841397 11.6875 38.1875 C11.6875 38.5175 11.6875 38.8475 11.6875 39.1875 C-25.60444444 40.2973793 -25.60444444 40.2973793 -41.3125 29.1875 C-44.28656491 26.07181295 -46.10333729 23.72135985 -46.6875 19.4375 C-46.20330183 15.24111587 -44.25559938 13.03495104 -41.3125 10.1875 C-38.21875 8.17578125 -38.21875 8.17578125 -34.8125 6.5 C-33.15734375 5.65888672 -33.15734375 5.65888672 -31.46875 4.80078125 C-21.25538589 0.4803962 -10.95785252 -0.23365569 0 0 Z " fill="#F29501" transform="translate(266.3125,445.8125)"/>
<path d="M0 0 C2.9375 2.0625 2.9375 2.0625 5 5 C5.5 8.3125 5.5 8.3125 4 12 C-3.00051763 18.06416826 -11.25235535 22.7910959 -19.125 27.625 C-26.1654085 31.96851372 -33.15517208 36.35275611 -40 41 C-43.61889911 39.32311085 -45.64163494 37.41809257 -48.25 34.375 C-48.95640625 33.55773437 -49.6628125 32.74046875 -50.390625 31.8984375 C-50.92171875 31.27195313 -51.4528125 30.64546875 -52 30 C-49.24565522 27.88650988 -46.43563247 25.95406891 -43.5 24.1015625 C-42.62214844 23.54549316 -41.74429687 22.98942383 -40.83984375 22.41650391 C-38.91544702 21.20250604 -36.99096521 19.98864301 -35.06640625 18.77490234 C-30.10655212 15.63790748 -25.17784663 12.46957042 -20.3125 9.1875 C-18.97058594 8.289104 -18.97058594 8.289104 -17.6015625 7.37255859 C-15.90128617 6.23042478 -14.20819027 5.07750853 -12.5234375 3.91259766 C-5.23314567 -0.95928006 -5.23314567 -0.95928006 0 0 Z " fill="#2A3793" transform="translate(445,221)"/>
<path d="M0 0 C0.85005615 -0.0093457 1.7001123 -0.01869141 2.57592773 -0.02832031 C3.77584351 -0.02203613 3.77584351 -0.02203613 5 -0.015625 C5.721875 -0.01336914 6.44375 -0.01111328 7.1875 -0.00878906 C9 0.25 9 0.25 11 2.25 C10.13117188 2.49234375 9.26234375 2.7346875 8.3671875 2.984375 C-2.30408485 5.84673364 -2.30408485 5.84673364 -10 13.25 C-10.39349043 16.68078589 -10.39349043 16.68078589 -9 20.25 C-3.28430746 26.06005539 4.242041 27.7535409 12 29.25 C9.20881721 32.04118279 7.23803285 31.53586582 3.42285156 31.57910156 C2.54081055 31.57362305 1.65876953 31.56814453 0.75 31.5625 C-0.60013184 31.55621582 -0.60013184 31.55621582 -1.97753906 31.54980469 C-14.01981989 31.34817049 -25.28497355 29.42616622 -35 21.9375 C-37 19.25 -37 19.25 -37.75 15.8125 C-36.84392436 11.50864071 -35.61414156 10.18609776 -32.18359375 7.59765625 C-22.18007287 1.42374801 -11.50889223 0.09005561 0 0 Z " fill="#F29602" transform="translate(359,384.75)"/>
<path d="M0 0 C3 0.25 3 0.25 5 2.25 C5.1877701 4.74962246 5.25194071 7.13744197 5.22705078 9.63720703 C5.22734283 10.39827759 5.22763489 11.15934814 5.22793579 11.94348145 C5.22653981 14.46504016 5.21096618 16.98630525 5.1953125 19.5078125 C5.19158332 21.25373167 5.1887359 22.99965294 5.18673706 24.74557495 C5.17909311 29.3454972 5.15943813 33.94529357 5.1373291 38.54516602 C5.11688704 43.2371246 5.10773886 47.92910349 5.09765625 52.62109375 C5.07619292 61.83078454 5.04204783 71.04038181 5 80.25 C1.7 80.25 -1.6 80.25 -5 80.25 C-5.04627451 70.11462398 -5.08184427 59.97927296 -5.10362434 49.84381294 C-5.11407597 45.13786217 -5.12826022 40.43198349 -5.15087891 35.72607422 C-5.17255826 31.18735924 -5.18455823 26.64871376 -5.18975449 22.10995102 C-5.19345909 20.37553691 -5.20069294 18.64112674 -5.21146011 16.9067421 C-5.22590995 14.48347914 -5.2279807 12.06050591 -5.22705078 9.63720703 C-5.23424133 8.91503998 -5.24143188 8.19287292 -5.24884033 7.44882202 C-5.2195811 0.43496509 -5.2195811 0.43496509 0 0 Z " fill="#5666CD" transform="translate(340,-0.25)"/>
<path d="M0 0 C-0.08121094 0.70125 -0.16242188 1.4025 -0.24609375 2.125 C-0.66359294 7.86630135 -0.66359294 7.86630135 1.2421875 13.16015625 C3.07361809 15.21524081 5.00664107 17.1017371 7 19 C8.51214646 20.65565421 10.01174301 22.32283903 11.5 24 C12.25667969 24.83917969 13.01335937 25.67835938 13.79296875 26.54296875 C15.81104402 28.78964015 17.81811227 31.04479147 19.8125 33.3125 C20.37453125 33.94929688 20.9365625 34.58609375 21.515625 35.2421875 C23 37 23 37 25.0625 39.9375 C27.56298748 42.59930925 29.42849475 42.75648828 33 43 C33 43.33 33 43.66 33 44 C32.00419922 44.18175781 32.00419922 44.18175781 30.98828125 44.3671875 C29.66376953 44.61855469 29.66376953 44.61855469 28.3125 44.875 C27.00732422 45.11863281 27.00732422 45.11863281 25.67578125 45.3671875 C22.97547329 46.00580048 20.54683238 46.90784485 18 48 C6.77099165 35.81662747 6.77099165 35.81662747 1.703125 29.94921875 C0.41804857 28.47845467 -0.88770875 27.02572391 -2.203125 25.58203125 C-2.94046875 24.77121094 -3.6778125 23.96039063 -4.4375 23.125 C-5.45650391 22.01511719 -5.45650391 22.01511719 -6.49609375 20.8828125 C-8 19 -8 19 -8 17 C-8.99 17.33 -9.98 17.66 -11 18 C-17.45826265 18.53818855 -20.69169854 17.74703632 -26 14 C-29 10.70967742 -29 10.70967742 -29 8 C-29.99 7.67 -30.98 7.34 -32 7 C-31.44127197 6.89453857 -30.88254395 6.78907715 -30.30688477 6.68041992 C-27.72416641 6.18914632 -25.14337279 5.6883751 -22.5625 5.1875 C-21.68400391 5.02185547 -20.80550781 4.85621094 -19.90039062 4.68554688 C-14.73033464 3.67442891 -9.83866388 2.39460182 -4.89038086 0.5793457 C-3 0 -3 0 0 0 Z " fill="#3C4DC4" transform="translate(383,227)"/>
<path d="M0 0 C10.34435547 2.28713583 20.68256448 4.59381362 31 7 C30.34 7.33 29.68 7.66 29 8 C28.731875 8.763125 28.46375 9.52625 28.1875 10.3125 C26.5070355 14.11565651 23.98387895 16.20644842 20.125 17.75 C15.87079643 18.25049454 12.0797882 18.3599294 8 17 C7.78730469 17.53109375 7.57460937 18.0621875 7.35546875 18.609375 C5.47748742 21.92154957 2.91937117 24.50906572 0.3125 27.25 C-0.77670436 28.41344245 -1.86524895 29.57750293 -2.953125 30.7421875 C-3.47841797 31.30260742 -4.00371094 31.86302734 -4.54492188 32.44042969 C-9.45511953 37.70323885 -13.92189883 43.06821648 -18 49 C-18.825 48.360625 -19.65 47.72125 -20.5 47.0625 C-24.23191406 44.53586919 -27.55723303 44.30639772 -32 44 C-32 43.67 -32 43.34 -32 43 C-31.10152344 42.76539063 -30.20304687 42.53078125 -29.27734375 42.2890625 C-25.58277233 40.83589376 -24.10108442 39.38403768 -21.5625 36.375 C-20.79035156 35.47523438 -20.01820312 34.57546875 -19.22265625 33.6484375 C-18.12244141 32.33746094 -18.12244141 32.33746094 -17 31 C-15.83652518 29.66388053 -14.67012244 28.33030161 -13.5 27 C-12.95085937 26.36191406 -12.40171875 25.72382813 -11.8359375 25.06640625 C-10.46162166 23.51956991 -9.04222343 22.0125854 -7.6015625 20.52734375 C-1.50259316 14.33234712 -1.50259316 14.33234712 0 6 C-0.00243902 4.00000149 -0.00279329 1.99999805 0 0 Z " fill="#3C4DC4" transform="translate(129,227)"/>
<path d="M0 0 C0.79414307 -0.00942627 1.58828613 -0.01885254 2.40649414 -0.02856445 C6.30219157 -0.00642744 8.25115293 0.04243529 11.5625 2.25 C10.76585937 2.49234375 9.96921875 2.7346875 9.1484375 2.984375 C0.7124684 5.4457318 0.7124684 5.4457318 -6.4375 10.25 C-7.85099769 13.64418221 -7.85099769 13.64418221 -7.4375 17.25 C-4.37773125 21.63566855 -0.43078718 23.39658148 4.37890625 25.35546875 C6.49955596 26.22421434 8.52569886 27.20157855 10.5625 28.25 C8.64543402 30.16706598 5.82781735 29.41672464 3.27709961 29.44067383 C-10.30187256 29.42403136 -21.75992762 28.65487485 -33.0625 20.3125 C-35.00790005 17.39439992 -34.99910527 15.68983226 -34.4375 12.25 C-31.12844415 5.78946238 -23.64972474 3.63269306 -17.12890625 1.4921875 C-11.48232217 0.10256022 -5.78492628 0.05324079 0 0 Z " fill="#F29501" transform="translate(140.4375,405.75)"/>
<path d="M0 0 C1.07314453 0.46019531 1.07314453 0.46019531 2.16796875 0.9296875 C4.89652705 1.96089436 7.45023827 2.59071114 10.3125 3.125 C11.19550781 3.29257812 12.07851563 3.46015625 12.98828125 3.6328125 C13.65214844 3.75398438 14.31601562 3.87515625 15 4 C15 4.33 15 4.66 15 5 C14.030625 5.12375 13.06125 5.2475 12.0625 5.375 C6.13342557 7.05190994 2.76953464 12.44459064 -1 17 C-2.28776128 18.46178308 -3.57904895 19.92047266 -4.875 21.375 C-5.92950622 22.57214474 -6.97188655 23.78011409 -8 25 C-8.55945313 25.56976563 -9.11890625 26.13953125 -9.6953125 26.7265625 C-11.6636573 29.7195649 -11.6636573 29.7195649 -11 37 C-20.57 37 -30.14 37 -40 37 C-40 30.21782178 -40 30.21782178 -37.25 27.25 C-36.73953125 26.67765625 -36.2290625 26.1053125 -35.703125 25.515625 C-33.82662413 23.84571138 -32.36871863 22.85064481 -30 22 C-28.2658527 22.13381609 -26.53568663 22.32627672 -24.8125 22.5625 C-21.015335 22.63300439 -19.53633247 22.4655295 -16.6328125 19.9453125 C-15.13321714 18.06147918 -13.68413265 16.13660714 -12.28125 14.1796875 C-9.86942898 10.81800546 -7.25051402 7.83495665 -4.4375 4.8125 C-3.59058594 3.89082031 -2.74367188 2.96914063 -1.87109375 2.01953125 C-1.25363281 1.35308594 -0.63617188 0.68664062 0 0 Z " fill="#3D4DC4" transform="translate(401,296)"/>
<path d="M0 0 C2.5184242 2.41768723 4.8782795 4.94717353 7.1875 7.5625 C7.79335937 8.24441406 8.39921875 8.92632812 9.0234375 9.62890625 C11 12 11 12 13.1015625 14.96484375 C16.85945159 20.60588207 16.85945159 20.60588207 22.5859375 23.59375 C25.17949244 23.53413296 25.17949244 23.53413296 27.7109375 23.2109375 C31.22319895 22.88728201 33.15841119 24.01749618 36 26 C38.13235924 27.91742648 39.36397275 29.54595912 41 32 C41 33.98 41 35.96 41 38 C31.43 38 21.86 38 12 38 C12 35.36 12 32.72 12 30 C10.35987062 27.22488329 10.35987062 27.22488329 7.9375 25 C7.11765625 24.16082031 6.2978125 23.32164062 5.453125 22.45703125 C4.64359375 21.64621094 3.8340625 20.83539063 3 20 C1.71604257 18.57421007 0.44380564 17.13771369 -0.8125 15.6875 C-1.37324219 15.05070312 -1.93398437 14.41390625 -2.51171875 13.7578125 C-3.78783484 12.25058877 -4.96747713 10.66260514 -6.125 9.0625 C-8.35439281 6.61016791 -9.74897497 6.27091875 -13 6 C-13 5.67 -13 5.34 -13 5 C-11.96939453 4.83564453 -11.96939453 4.83564453 -10.91796875 4.66796875 C-10.01691406 4.50941406 -9.11585937 4.35085938 -8.1875 4.1875 C-6.84751953 3.96126953 -6.84751953 3.96126953 -5.48046875 3.73046875 C-2.81678744 2.94604607 -1.74309678 2.11372201 0 0 Z " fill="#3D4DC4" transform="translate(110,295)"/>
<path d="M0 0 C0.99 0.66 1.98 1.32 3 2 C3.5625 4.875 3.5625 4.875 3 8 C-3.60194574 13.65881063 -10.48918113 14.34358035 -18.8125 14.3125 C-19.66392578 14.32861328 -20.51535156 14.34472656 -21.39257812 14.36132812 C-28.41182056 14.36667408 -34.82510578 13.26778159 -40.625 9.125 C-42 7 -42 7 -42.25 4.5625 C-40.3119354 0.58946757 -36.90439825 -1.1166168 -33 -3 C-22.77572457 -6.00038486 -9.19438677 -5.42944391 0 0 Z " fill="#F29501" transform="translate(120,383)"/>
<path d="M0 0 C2.9375 2.0625 2.9375 2.0625 5 5 C5.125 8.5625 5.125 8.5625 4 12 C0.82938132 14.82866893 -2.60718273 17.11936826 -6.1953125 19.3828125 C-7.15824219 19.99253906 -8.12117188 20.60226562 -9.11328125 21.23046875 C-10.60408203 22.16826172 -10.60408203 22.16826172 -12.125 23.125 C-14.10690101 24.37739819 -16.08867744 25.62999355 -18.0703125 26.8828125 C-18.94445801 27.43340332 -19.81860352 27.98399414 -20.71923828 28.55126953 C-22.49387717 29.67851286 -24.25071034 30.83380689 -26 32 C-30.05480401 32.61703539 -31.54369977 32.32038101 -34.9375 29.9375 C-37 27 -37 27 -37.4375 23.625 C-35.43141277 18.56617133 -32.43247248 16.97394584 -27.88623047 14.18994141 C-25.58413929 12.73765142 -23.34442661 11.2044229 -21.09765625 9.66796875 C-19.31564488 8.46534424 -17.53308677 7.26352948 -15.75 6.0625 C-14.88656982 5.47001465 -14.02313965 4.8775293 -13.13354492 4.26708984 C-5.146655 -1.01527337 -5.146655 -1.01527337 0 0 Z " fill="#2A3793" transform="translate(185,268)"/>
<path d="M0 0 C2.9375 2.0625 2.9375 2.0625 5 5 C5.125 8.5625 5.125 8.5625 4 12 C0.82938132 14.82866893 -2.60718273 17.11936826 -6.1953125 19.3828125 C-7.15824219 19.99253906 -8.12117188 20.60226563 -9.11328125 21.23046875 C-10.60408203 22.16826172 -10.60408203 22.16826172 -12.125 23.125 C-14.10690101 24.37739819 -16.08867744 25.62999355 -18.0703125 26.8828125 C-18.94445801 27.43340332 -19.81860352 27.98399414 -20.71923828 28.55126953 C-22.49387717 29.67851286 -24.25071034 30.83380689 -26 32 C-30.05480401 32.61703539 -31.54369977 32.32038101 -34.9375 29.9375 C-37 27 -37 27 -37.4375 23.625 C-35.43141277 18.56617133 -32.43247248 16.97394584 -27.88623047 14.18994141 C-25.58413929 12.73765142 -23.34442661 11.2044229 -21.09765625 9.66796875 C-19.31564488 8.46534424 -17.53308677 7.26352948 -15.75 6.0625 C-14.88656982 5.47001465 -14.02313965 4.8775293 -13.13354492 4.26708984 C-5.146655 -1.01527337 -5.146655 -1.01527337 0 0 Z " fill="#2A3793" transform="translate(425,88)"/>
<path d="M0 0 C4.86081461 1.37570225 4.86081461 1.37570225 6.3125 3.9375 C6.8125 7.3125 6.8125 7.3125 6.3125 10.9375 C4.09765625 13.39453125 4.09765625 13.39453125 1.3125 15.9375 C0.53777344 16.67613281 -0.23695313 17.41476563 -1.03515625 18.17578125 C-12.35844485 26.82709959 -26.13990235 24.66503803 -39.6875 23.9375 C-36.23920179 21.09360758 -32.714213 18.58210827 -28.94140625 16.1875 C-27.85666016 15.4965625 -26.77191406 14.805625 -25.65429688 14.09375 C-24.51961261 13.37487156 -23.38484636 12.65612252 -22.25 11.9375 C-20.02147281 10.52187258 -17.79395366 9.10466963 -15.56640625 7.6875 C-14.5822876 7.06359375 -13.59816895 6.4396875 -12.58422852 5.796875 C-10.53826121 4.48359333 -8.52959665 3.11131447 -6.55053711 1.69921875 C-3.6875 -0.0625 -3.6875 -0.0625 0 0 Z " fill="#2A3793" transform="translate(271.6875,116.0625)"/>
<path d="M0 0 C3.33646536 1.4163551 5.15544293 3.08171998 7.4375 5.875 C9.53457421 8.37431473 11.35203623 10.2771349 13.9375 12.3125 C14.9584375 13.1478125 14.9584375 13.1478125 16 14 C16 14.99 16 15.98 16 17 C14.171875 18.61328125 14.171875 18.61328125 11.75 20.3125 C7.81331306 23.22626829 5.38487135 25.74870759 3 30 C-1.21702942 29.52079211 -2.84193831 27.2655181 -5.5 24.125 C-8.15446725 21.00691005 -10.61614151 18.32255742 -14 16 C-12.77490777 12.32472332 -11.02727561 11.63071663 -7.921875 9.5390625 C-4.62208532 6.896548 -2.35551802 3.47719327 0 0 Z " fill="#FAB22E" transform="translate(104,80)"/>
<path d="M0 0 C1 2.75 1 2.75 1 5 C-6.4376514 11.29339734 -15.81894202 10.74890805 -25 10 C-28.48498035 9.09576246 -30.06655651 8.21504917 -33 6 C-34 3.25 -34 3.25 -34 1 C-25.64225754 -6.4025719 -8.95576351 -6.7625153 0 0 Z " fill="#F29602" transform="translate(290,378)"/>
<path d="M0 0 C1.0528418 0.01353516 1.0528418 0.01353516 2.12695312 0.02734375 C3.85561525 0.05086296 5.58410145 0.08673287 7.3125 0.125 C6.65894531 0.80304688 6.00539063 1.48109375 5.33203125 2.1796875 C2.82926354 5.82975878 2.86518859 7.87095338 3 12.25 C3.02449219 13.46945312 3.04898437 14.68890625 3.07421875 15.9453125 C3.18383151 19.14641015 3.18383151 19.14641015 4.3125 22.125 C5.3025 22.455 6.2925 22.785 7.3125 23.125 C7.3125 23.455 7.3125 23.785 7.3125 24.125 C4.91475255 24.26072155 2.52474755 24.35936868 0.125 24.4375 C-0.88530273 24.5003418 -0.88530273 24.5003418 -1.91601562 24.56445312 C-5.90586318 24.66176648 -7.4864502 24.28954409 -10.61328125 21.73046875 C-13.91061831 17.58861599 -14.22085272 14.3181712 -13.6875 9.125 C-11.4611538 1.21763245 -7.78886596 -0.18908545 0 0 Z " fill="#8D96DA" transform="translate(350.6875,332.875)"/>
<path d="M0 0 C0.69287109 0.02255859 1.38574219 0.04511719 2.09960938 0.06835938 C3.79651573 0.12687339 5.49229861 0.2165452 7.1875 0.3125 C6.8575 0.9725 6.5275 1.6325 6.1875 2.3125 C5.5275 2.3125 4.8675 2.3125 4.1875 2.3125 C3.02051563 5.81345311 3.05481713 8.6247232 3.0625 12.3125 C3.05992188 13.55 3.05734375 14.7875 3.0546875 16.0625 C3.03758698 19.32480773 3.03758698 19.32480773 4.1875 22.3125 C5.1775 22.6425 6.1675 22.9725 7.1875 23.3125 C7.1875 23.6425 7.1875 23.9725 7.1875 24.3125 C4.78975255 24.44822155 2.39974755 24.54686868 0 24.625 C-1.01030273 24.6878418 -1.01030273 24.6878418 -2.04101562 24.75195312 C-5.81636629 24.84403485 -7.65574152 24.42316526 -10.76171875 22.23046875 C-13.26964903 18.66204224 -13.48417859 16.64427344 -13.4375 12.3125 C-13.45039062 11.11625 -13.46328125 9.92 -13.4765625 8.6875 C-11.96490921 1.00474446 -7.12421455 -0.44313296 0 0 Z " fill="#8D96DB" transform="translate(97.8125,332.6875)"/>
<path d="M0 0 C6.6 0 13.2 0 20 0 C20.27772058 12.63628617 20.27772058 12.63628617 18 17 C14.56466159 19.39674773 12.57748599 20.00995665 8.375 19.9375 C4.69405342 18.91501484 3.29594453 18.002389 1 15 C-0.63356321 10.09931037 -0.05529694 5.14261524 0 0 Z " fill="#8C96DD" transform="translate(246,245)"/>
<path d="M0 0 C4.35282594 1.23918288 7.35953144 4.16920506 10.16796875 7.6171875 C11.35546875 10.7421875 11.35546875 10.7421875 11.16796875 13.6171875 C9.56385027 17.14624817 8.42637513 18.44491658 5.16796875 20.6171875 C0.40441782 20.70879425 -2.26803472 19.64106293 -5.70703125 16.4921875 C-8.07493923 13.8837471 -8.89002835 12.44014373 -10.01953125 8.9921875 C-9.83203125 5.6171875 -9.83203125 5.6171875 -8.39453125 2.6796875 C-5.56810391 0.40475818 -3.64545633 -0.23254318 0 0 Z " fill="#A5ADE4" transform="translate(144.83203125,-0.6171875)"/>
<path d="M0 0 C0.70125 0.721875 1.4025 1.44375 2.125 2.1875 C4.92770745 4.99823813 7.92262792 7.49516226 11 10 C10.74501565 13.44228876 9.8118705 14.16359087 7.125 16.5 C6.58617187 16.91636719 6.04734375 17.33273437 5.4921875 17.76171875 C3.65865009 19.28326681 2.41195495 21.09386081 1 23 C0.34 23 -0.32 23 -1 23 C-2.62109375 21.3203125 -2.62109375 21.3203125 -4.4375 19.125 C-6.58400884 16.53806278 -8.16776562 14.88815626 -11 13 C-9.49091551 9.15869402 -7.1970513 7.51196888 -4 5 C-2.62631655 3.36643049 -1.28062485 1.7074998 0 0 Z " fill="#1ED087" transform="translate(471,247)"/>
<path d="M0 0 C3.27666077 1.09222026 3.91609231 1.82718854 6 4.4375 C7.96428932 6.88774632 9.32070868 8.21380578 12 10 C10.43873668 13.83219177 7.97133075 16.17361222 5 19 C4.401875 19.598125 3.80375 20.19625 3.1875 20.8125 C2.795625 21.204375 2.40375 21.59625 2 22 C-1.83219177 20.43873668 -4.17361222 17.97133075 -7 15 C-7.598125 14.401875 -8.19625 13.80375 -8.8125 13.1875 C-9.204375 12.795625 -9.59625 12.40375 -10 12 C-8.85219363 8.55658088 -7.27862931 7.47763864 -4.5 5.2734375 C-2.67093274 3.72063561 -1.32763749 1.99145624 0 0 Z " fill="#F9F08D" transform="translate(330,268)"/>
<path d="M0 0 C3.54433654 1.41773462 4.33806119 2.67612238 6 6 C6.66 6.33 7.32 6.66 8 7 C10.49016793 8.24508396 10.98686718 9.46716796 12 12 C11.0925 12.721875 10.185 13.44375 9.25 14.1875 C6.4298006 16.52652794 4.19093342 19.05066655 2 22 C-1.27666077 20.90777974 -1.91609231 20.17281146 -4 17.5625 C-5.96428932 15.11225368 -7.32070868 13.78619422 -10 12 C-8.90777974 8.72333923 -8.17281146 8.08390769 -5.5625 6 C-3.11225368 4.03571068 -1.78619422 2.67929132 0 0 Z " fill="#1ED187" transform="translate(38,208)"/>
<path d="M0 0 C3.83219177 1.56126332 6.17361222 4.02866925 9 7 C9.598125 7.598125 10.19625 8.19625 10.8125 8.8125 C11.204375 9.204375 11.59625 9.59625 12 10 C10.90777974 13.27666077 10.17281146 13.91609231 7.5625 16 C5.11225368 17.96428932 3.78619422 19.32070868 2 22 C-1.27666077 20.90777974 -1.91609231 20.17281146 -4 17.5625 C-5.96428932 15.11225368 -7.32070868 13.78619422 -10 12 C-8.58226538 8.45566346 -7.32387762 7.66193881 -4 6 C-2.8499169 4.03327085 -2.8499169 4.03327085 -2 2 C-1.34 1.34 -0.68 0.68 0 0 Z " fill="#F9F08D" transform="translate(290,30)"/>
<path d="M0 0 C1.20527344 -0.01675781 2.41054688 -0.03351563 3.65234375 -0.05078125 C7.26324247 0.33388494 9.1449309 1.21428617 12.0625 3.3125 C11.7325 4.9625 11.4025 6.6125 11.0625 8.3125 C5.35892257 10.8474233 -0.80366547 11.08026125 -6.9375 10.3125 C-9.80859375 8.79296875 -9.80859375 8.79296875 -11.9375 7.3125 C-11.6875 4.9375 -11.6875 4.9375 -10.9375 2.3125 C-7.50229919 -0.12457951 -4.10758417 0.01315128 0 0 Z " fill="#F29704" transform="translate(434.9375,378.6875)"/>
<path d="M0 0 C3.3 0 6.6 0 10 0 C10 6.6 10 13.2 10 20 C6.7 20 3.4 20 0 20 C0 13.4 0 6.8 0 0 Z " fill="#5766CE" transform="translate(205,120)"/>
<path d="M0 0 C4.66132863 3.57729872 7.73911534 7.10867301 11 12 C7.13482908 14.8110334 4.0233287 16.82944522 -0.75 17.625 C-4 17 -4 17 -6.4375 14.8125 C-8.15670505 11.7179309 -8.77606042 10.4491574 -8 7 C-5.52552136 4.12425455 -3.1557398 2.10382653 0 0 Z " fill="#2A3793" transform="translate(384,256)"/>
<path d="M0 0 C0 1.32 0 2.64 0 4 C-5.54983016 7.69988677 -11.4696273 7.896498 -18 7 C-20.87109375 5.7265625 -20.87109375 5.7265625 -23 4 C-23 0 -23 0 -21 -2 C-14.10158546 -4.34967831 -6.11345752 -3.96548596 0 0 Z " fill="#F29601" transform="translate(223,411)"/>
<path d="M0 0 C0 3.57575896 -1.08840607 5.05295935 -3 8 C-3.99 7.01 -4.98 6.02 -6 5 C-4.02 3.35 -2.04 1.7 0 0 Z " fill="#2FC8B3" transform="translate(182,28)"/>
</svg>
