<?xml version="1.0" encoding="UTF-8"?>
<svg version="1.1" xmlns="http://www.w3.org/2000/svg" width="512" height="512">
<path d="M0 0 C1.51427582 0.00081573 1.51427582 0.00081573 3.05914307 0.00164795 C19.57229403 0.04242277 35.48017849 0.96211211 51.6875 4.375 C52.71875 4.58930664 53.75 4.80361328 54.8125 5.02441406 C102.13437914 15.18382999 144.92846672 38.90572677 179.6875 72.375 C180.21118164 72.87676758 180.73486328 73.37853516 181.27441406 73.89550781 C188.29528617 80.65554257 194.6842792 87.67938185 200.6875 95.375 C201.47640625 96.35855469 202.2653125 97.34210938 203.078125 98.35546875 C226.65128045 127.99802362 243.3162706 163.0247419 251.5 200 C251.68264404 200.81952148 251.86528809 201.63904297 252.0534668 202.48339844 C255.72721864 220.24637042 257.24333312 237.88666153 257.125 256 C257.12043793 257.49554413 257.12043793 257.49554413 257.11578369 259.02130127 C257.04215726 275.42297909 256.08990265 291.28109539 252.6875 307.375 C252.46787598 308.41688477 252.24825195 309.45876953 252.02197266 310.53222656 C241.92435215 356.82549311 219.56521242 399.23913721 186.6875 433.375 C186.05537598 434.03435547 185.42325195 434.69371094 184.77197266 435.37304688 C175.62752521 444.86130305 166.33015991 453.6012044 155.6875 461.375 C154.53644983 462.23306152 153.38540823 463.09113451 152.234375 463.94921875 C144.04474019 469.98677396 135.54211724 475.36957302 126.6875 480.375 C125.98028809 480.7771875 125.27307617 481.179375 124.54443359 481.59375 C98.34109344 496.34645525 69.40145458 505.87991108 39.6875 510.375 C38.56287354 510.55232666 37.43824707 510.72965332 36.27954102 510.91235352 C24.72559556 512.56375708 13.28284453 512.73170897 1.625 512.6875 C0.62893738 512.68567719 -0.36712524 512.68385437 -1.39337158 512.68197632 C-15.90580287 512.63723255 -30.03559519 512.17969043 -44.3125 509.375 C-45.20807617 509.21402832 -46.10365234 509.05305664 -47.02636719 508.88720703 C-95.71595832 500.07840196 -140.74129928 476.6351479 -176.3125 442.375 C-176.97185547 441.74287598 -177.63121094 441.11075195 -178.31054688 440.45947266 C-187.79880305 431.31502521 -196.5387044 422.01765991 -204.3125 411.375 C-205.17056152 410.22394983 -206.02863451 409.07290823 -206.88671875 407.921875 C-212.92427396 399.73224019 -218.30707302 391.22961724 -223.3125 382.375 C-223.7146875 381.66778809 -224.116875 380.96057617 -224.53125 380.23193359 C-237.5566741 357.09654164 -246.30551461 331.92537591 -251.625 305.9375 C-251.77235596 305.21860596 -251.91971191 304.49971191 -252.0715332 303.7590332 C-255.04539088 288.11274391 -255.68550362 272.63931954 -255.625 256.75 C-255.62284485 255.73209381 -255.6206897 254.71418762 -255.61846924 253.66543579 C-255.56879854 239.05636477 -255.31790191 224.72424147 -252.3125 210.375 C-252.11382324 209.40014648 -251.91514648 208.42529297 -251.71044922 207.42089844 C-241.58982806 159.0390226 -219.6733123 115.05071731 -185.3125 79.375 C-184.68037598 78.71564453 -184.04825195 78.05628906 -183.39697266 77.37695312 C-174.25252521 67.88869695 -164.95515991 59.1487956 -154.3125 51.375 C-153.16144983 50.51693848 -152.01040823 49.65886549 -150.859375 48.80078125 C-142.66819386 42.76263171 -134.15445895 37.40404479 -125.3125 32.375 C-124.68069824 32.01051758 -124.04889648 31.64603516 -123.39794922 31.27050781 C-85.78163763 9.74018145 -43.05984712 -0.08759735 0 0 Z " fill="#754C9F" transform="translate(255.3125,-0.375)"/>
<path d="M0 0 C6.88509749 3.71759774 11.33763621 9.20040864 13.8125 16.625 C13.8931622 18.10623547 13.92011193 19.59082204 13.91015625 21.07421875 C13.90532227 22.34555664 13.90532227 22.34555664 13.90039062 23.64257812 C13.88782227 24.96418945 13.88782227 24.96418945 13.875 26.3125 C13.87048828 27.20517578 13.86597656 28.09785156 13.86132812 29.01757812 C13.84954983 31.22011987 13.83310164 33.42252599 13.8125 35.625 C14.42665771 35.60542236 15.04081543 35.58584473 15.67358398 35.56567383 C16.48126221 35.55044678 17.28894043 35.53521973 18.12109375 35.51953125 C18.92087646 35.49995361 19.72065918 35.48037598 20.54467773 35.46020508 C22.8125 35.625 22.8125 35.625 25.875 37.3125 C27.8125 39.625 27.8125 39.625 27.8125 44.625 C39.0325 44.625 50.2525 44.625 61.8125 44.625 C62.1425 48.915 62.4725 53.205 62.8125 57.625 C65.82334943 67.21511301 69.54268517 73.07032205 78.375 78.0625 C86.61802879 81.87247489 94.64461657 82.05472801 103.1875 79 C111.98245142 74.89473905 116.10879268 69.51695848 119.8125 60.625 C120.91764766 57.30955701 121.13357631 54.42089889 121.375 50.9375 C121.45878906 49.75800781 121.54257812 48.57851563 121.62890625 47.36328125 C121.68949219 46.45964844 121.75007812 45.55601562 121.8125 44.625 C126.56297352 44.50108124 131.31249961 44.41051439 136.06420898 44.3503418 C137.67928461 44.32525041 139.29424726 44.29116874 140.90893555 44.24780273 C143.23514706 44.18690714 145.55985359 44.15873876 147.88671875 44.13671875 C148.96357185 44.09800911 148.96357185 44.09800911 150.06217957 44.05851746 C154.01941022 44.05632077 155.51675509 44.34359558 158.43066406 47.11621094 C159.60967285 48.35806152 159.60967285 48.35806152 160.8125 49.625 C163.7221996 50.3682202 163.7221996 50.3682202 166.84765625 50.25390625 C167.98654297 50.25583984 169.12542969 50.25777344 170.29882812 50.25976562 C172.0690332 50.22399414 172.0690332 50.22399414 173.875 50.1875 C175.05900391 50.19845703 176.24300781 50.20941406 177.46289062 50.22070312 C183.76358276 50.52938496 183.76358276 50.52938496 188.93920898 47.59350586 C189.55739502 46.94389893 190.17558105 46.29429199 190.8125 45.625 C205.86133665 45.38227683 219.82744793 53.8782807 230.51318359 63.80859375 C250.11778402 82.83858723 252.21967541 105.66857528 252.62304688 131.65234375 C252.64128863 133.16129444 252.65943581 134.67024628 252.67749023 136.17919922 C252.71774387 139.23194379 252.79462082 142.28047353 252.90307617 145.33154297 C253.03507231 149.05476659 253.10186751 152.77403153 253.1237812 156.49947739 C253.14258575 157.90398789 253.18347149 159.30840386 253.24812126 160.71155167 C253.710231 171.28407537 253.710231 171.28407537 250.54692459 175.18613625 C246.99520319 178.56290645 242.98860737 181.09144539 238.8125 183.625 C237.24583347 184.69051399 235.68217572 185.76050699 234.125 186.83984375 C232.69348914 187.7568136 231.25589591 188.66435453 229.8125 189.5625 C229.01618164 190.05919189 228.21986328 190.55588379 227.39941406 191.06762695 C197.77904568 209.27049055 165.22698801 221.41882041 130.8125 226.625 C129.68787354 226.80232666 128.56324707 226.97965332 127.40454102 227.16235352 C115.85059556 228.81375708 104.40784453 228.98170897 92.75 228.9375 C91.75393738 228.93567719 90.75787476 228.93385437 89.73162842 228.93197632 C75.21919713 228.88723255 61.08940481 228.42969043 46.8125 225.625 C45.91692383 225.46402832 45.02134766 225.30305664 44.09863281 225.13720703 C8.28153646 218.65726311 -28.04586695 204.22609418 -57.16975403 182.0665741 C-59.17892946 180.57034965 -59.17892946 180.57034965 -61.47813416 179.37236023 C-65.49958256 176.91239083 -67.81619249 175.07635048 -69.01194763 170.4024353 C-69.31474052 166.30430084 -69.33413657 162.29562244 -69.2421875 158.19140625 C-69.23808263 156.67032897 -69.23725732 155.14923969 -69.23953247 153.62815857 C-69.23476005 150.44069706 -69.1996482 147.25552223 -69.14111328 144.06860352 C-69.06801371 140.03066007 -69.0553974 135.99552195 -69.06446648 131.95701694 C-69.06702453 128.81215815 -69.04364099 125.66789506 -69.01233292 122.52320671 C-68.99914516 121.03765926 -68.99188273 119.55204452 -68.99123764 118.06643867 C-68.93158114 98.17461964 -62.38114113 80.67969045 -48.75 66 C-38.63486842 56.625 -38.63486842 56.625 -36.1875 56.625 C-36.20844727 55.45517578 -36.22939453 54.28535156 -36.25097656 53.08007812 C-36.32374856 48.7117146 -36.36943422 44.34340395 -36.40722656 39.97460938 C-36.42725767 38.08910084 -36.45449073 36.20365377 -36.48925781 34.31835938 C-36.53815272 31.59750138 -36.56055382 28.87746944 -36.578125 26.15625 C-36.59877014 25.32258911 -36.61941528 24.48892822 -36.64068604 23.63000488 C-36.64339219 16.46229745 -34.52556529 11.4176891 -29.9375 5.9375 C-20.58591788 -1.92633042 -11.68246894 -5.21014632 0 0 Z " fill="#35E198" transform="translate(164.1875,283.375)"/>
<path d="M0 0 C1.51427582 0.00081573 1.51427582 0.00081573 3.05914307 0.00164795 C19.57229403 0.04242277 35.48017849 0.96211211 51.6875 4.375 C52.71875 4.58930664 53.75 4.80361328 54.8125 5.02441406 C102.13437914 15.18382999 144.92846672 38.90572677 179.6875 72.375 C180.21118164 72.87676758 180.73486328 73.37853516 181.27441406 73.89550781 C188.29528617 80.65554257 194.6842792 87.67938185 200.6875 95.375 C201.47640625 96.35855469 202.2653125 97.34210938 203.078125 98.35546875 C226.65128045 127.99802362 243.3162706 163.0247419 251.5 200 C251.68264404 200.81952148 251.86528809 201.63904297 252.0534668 202.48339844 C255.72721864 220.24637042 257.24333312 237.88666153 257.125 256 C257.12043793 257.49554413 257.12043793 257.49554413 257.11578369 259.02130127 C257.04215726 275.42297909 256.08990265 291.28109539 252.6875 307.375 C252.46787598 308.41688477 252.24825195 309.45876953 252.02197266 310.53222656 C240.80330542 361.96501239 214.71680376 405.10662751 178 442.25 C177.2992334 442.96389893 176.5984668 443.67779785 175.87646484 444.41333008 C171.4612326 448.83531345 166.91536453 452.92367396 161.6875 456.375 C161.3575 456.375 161.0275 456.375 160.6875 456.375 C160.43780338 451.44983022 160.25774051 446.52843784 160.13818359 441.59838867 C160.08829613 439.92683675 160.0203514 438.25571214 159.93310547 436.58569336 C159.22892877 422.74655007 159.22892877 422.74655007 162.73168945 417.05126953 C165.25729373 414.31089732 167.90526095 411.85102597 170.6875 409.375 C172.98300798 406.64630357 175.05724657 403.77890524 177.125 400.875 C177.66793701 400.11582275 178.21087402 399.35664551 178.77026367 398.57446289 C211.8206861 351.55432394 226.29430293 292.35886078 216.6875 235.375 C213.3805042 217.7813866 208.84457653 200.81467239 201.6875 184.375 C201.37200195 183.63540039 201.05650391 182.89580078 200.73144531 182.13378906 C187.50322808 151.41416748 165.49688471 121.76096962 138.90234375 101.34765625 C136.72209417 99.40581139 135.55690558 98.15148879 134.6875 95.375 C135.42558809 93.76462599 136.16758541 92.15587572 136.93359375 90.55859375 C138.98400791 84.61982943 138.64723423 77.6193686 136 71.9375 C132.72017723 66.35137076 127.99591187 61.90816648 122.125 59.1875 C113.86909962 57.23610536 107.30580824 57.77960528 99.859375 61.9296875 C97.02555991 63.8154997 94.89953472 65.79429283 92.6875 68.375 C90.46056531 67.34106604 88.71358314 66.39838488 86.875 64.75 C84.65805333 63.06145855 84.65805333 63.06145855 81.4375 63.5625 C76.82097853 63.33167393 75.42480341 61.96642824 71.9453125 59.1484375 C59.04408171 49.0149448 41.10685 42.20268436 24.75 40.8125 C22.33175472 40.60351584 20.87037887 40.46643943 18.6875 39.375 C17.6875 37.375 16.6875 35.375 15.6875 33.375 C11.22973509 31.14611754 5.1452323 32.14507271 0.25 32.125 C-1.63041992 32.0940625 -1.63041992 32.0940625 -3.54882812 32.0625 C-4.74830078 32.05734375 -5.94777344 32.0521875 -7.18359375 32.046875 C-8.28630615 32.0375293 -9.38901855 32.02818359 -10.52514648 32.01855469 C-13.29545427 32.15390761 -13.29545427 32.15390761 -15.13305664 33.64550781 C-16.43263301 35.55115861 -16.92256005 37.11334831 -17.3125 39.375 C-18.570625 39.59414063 -19.82875 39.81328125 -21.125 40.0390625 C-39.44756879 43.37207472 -58.10768562 48.88492058 -72.8125 60.875 C-76.35570129 63.75097508 -78.76607621 63.45919303 -83.3125 63.375 C-85.65201694 64.81589454 -87.32771799 66.43862731 -89.3125 68.375 C-93.04270806 66.64697488 -96.01171681 64.35971824 -99.21484375 61.8125 C-105.19279489 57.71587799 -111.27804472 57.62587619 -118.3125 58.375 C-121.29309269 59.3229262 -123.72027191 60.6428102 -126.3125 62.375 C-127.199375 62.91125 -128.08625 63.4475 -129 64 C-133.93956375 69.07306547 -136.60515301 74.90083395 -136.8125 82 C-136.58645877 86.9870346 -135.26806064 90.81202516 -133.3125 95.375 C-133.3125 96.365 -133.3125 97.355 -133.3125 98.375 C-134.82421875 99.77734375 -134.82421875 99.77734375 -137 101.3125 C-167.47948138 124.11248764 -188.82427016 156.59337325 -203.3125 191.375 C-203.72387207 192.35992432 -203.72387207 192.35992432 -204.14355469 193.36474609 C-208.12165423 203.10598985 -210.52028678 213.3189254 -212.71289062 223.58300781 C-213.10152928 225.39264613 -213.50309318 227.19957596 -213.91992188 229.00292969 C-220.28220665 256.92397287 -219.6685994 288.52782994 -213.3125 316.375 C-213.10882813 317.31827148 -212.90515625 318.26154297 -212.6953125 319.23339844 C-205.90534798 350.17593738 -190.4922452 393.21117714 -164.54125977 413.77880859 C-160.9928443 416.93305532 -159.19083372 419.65216542 -158.74926758 424.39282227 C-158.53686903 429.22582419 -158.70103299 434.0433124 -158.875 438.875 C-158.91015591 440.57285239 -158.9420874 442.27077479 -158.97070312 443.96875 C-159.04740218 448.10591013 -159.16794163 452.23967752 -159.3125 456.375 C-176.86891948 446.118509 -192.4170956 427.6603193 -204.3125 411.375 C-205.17056152 410.22394983 -206.02863451 409.07290823 -206.88671875 407.921875 C-212.92427396 399.73224019 -218.30707302 391.22961724 -223.3125 382.375 C-223.7146875 381.66778809 -224.116875 380.96057617 -224.53125 380.23193359 C-237.5566741 357.09654164 -246.30551461 331.92537591 -251.625 305.9375 C-251.77235596 305.21860596 -251.91971191 304.49971191 -252.0715332 303.7590332 C-255.04539088 288.11274391 -255.68550362 272.63931954 -255.625 256.75 C-255.62284485 255.73209381 -255.6206897 254.71418762 -255.61846924 253.66543579 C-255.56879854 239.05636477 -255.31790191 224.72424147 -252.3125 210.375 C-252.11382324 209.40014648 -251.91514648 208.42529297 -251.71044922 207.42089844 C-241.58982806 159.0390226 -219.6733123 115.05071731 -185.3125 79.375 C-184.68037598 78.71564453 -184.04825195 78.05628906 -183.39697266 77.37695312 C-174.25252521 67.88869695 -164.95515991 59.1487956 -154.3125 51.375 C-153.16144983 50.51693848 -152.01040823 49.65886549 -150.859375 48.80078125 C-142.66819386 42.76263171 -134.15445895 37.40404479 -125.3125 32.375 C-124.68069824 32.01051758 -124.04889648 31.64603516 -123.39794922 31.27050781 C-85.78163763 9.74018145 -43.05984712 -0.08759735 0 0 Z " fill="#644189" transform="translate(255.3125,-0.375)"/>
<path d="M0 0 C0.969375 0.825 1.93875 1.65 2.9375 2.5 C3.91203125 3.32757813 3.91203125 3.32757813 4.90625 4.171875 C6.26697196 5.35996805 7.60248579 6.57779375 8.90625 7.828125 C22.84743857 21.01863419 41.21345855 30.28484945 60 34 C60.88816406 34.19207031 61.77632812 34.38414063 62.69140625 34.58203125 C70.08016079 36.07699032 77.48510112 36.56168863 85 37 C87.73188478 48.14621308 88.38216317 58.5062421 88.1875 69.9375 C88.17239942 71.50714836 88.15872068 73.07681107 88.14648438 74.64648438 C88.11396458 78.43135476 88.06249262 82.21551078 88 86 C89.85238281 86.19722656 89.85238281 86.19722656 91.7421875 86.3984375 C99.06854236 87.32431326 103.92889298 90.30840343 108.67578125 95.92578125 C112.83549095 102.44143273 113.49723646 107.77217752 113.4375 115.375 C113.45748047 116.26960938 113.47746094 117.16421875 113.49804688 118.0859375 C113.49243088 125.81355163 111.36189925 132.09015763 106.75 138.3125 C101.89913221 143.0531208 96.02463392 145.85947507 89.203125 146.09765625 C88.22859375 146.08605469 87.2540625 146.07445312 86.25 146.0625 C85.26515625 146.05347656 84.2803125 146.04445312 83.265625 146.03515625 C82.14414062 146.01775391 82.14414062 146.01775391 81 146 C80.5153125 147.09957031 80.030625 148.19914063 79.53125 149.33203125 C73.51703589 162.70823773 66.07380907 173.29888414 56 184 C55.46117187 184.60328125 54.92234375 185.2065625 54.3671875 185.828125 C46.17061136 194.64253352 35.90099139 200.86867571 25.125 206 C24.34092773 206.37366699 23.55685547 206.74733398 22.74902344 207.13232422 C17.88451247 209.36043109 13.2033365 210.76042777 8 212 C8.02094727 213.15935059 8.04189453 214.31870117 8.06347656 215.51318359 C8.1364223 219.85550357 8.18199627 224.1977705 8.21972656 228.54052734 C8.23971863 230.41236509 8.26692168 232.28414138 8.30175781 234.15576172 C8.54011842 247.3006483 8.54616893 258.1099947 -0.9296875 268.2421875 C-8.08776414 274.31979974 -16.23886401 276.49467695 -25.44140625 276.40234375 C-33.13267866 275.53274874 -39.68144948 271.81750395 -45 266.25 C-53.12007721 255.28829789 -52.49367564 244.46681854 -52.25 231.375 C-52.22990483 229.49350859 -52.2116594 227.61199646 -52.1953125 225.73046875 C-52.15155454 221.15312833 -52.08269402 216.57679581 -52 212 C-52.6297876 211.82694336 -53.2595752 211.65388672 -53.90844727 211.47558594 C-59.55377989 209.86339237 -64.72787578 207.94811192 -69.9375 205.25 C-70.96870972 204.72067871 -70.96870972 204.72067871 -72.02075195 204.18066406 C-96.68817965 191.34379812 -114.18526297 171.53126153 -125 146 C-126.23363281 146.08701172 -126.23363281 146.08701172 -127.4921875 146.17578125 C-136.43129743 146.53706167 -143.03038128 145.43264721 -149.84375 139.35546875 C-156.30745991 132.33727392 -157.56207321 125.45919403 -157.5 116.1875 C-157.49427979 115.20716797 -157.48855957 114.22683594 -157.48266602 113.21679688 C-157.27924427 105.01417452 -155.95485638 99.34940262 -150.35546875 93.19140625 C-144.78202999 87.94507676 -139.73746619 86 -132 86 C-132 79.73 -132 73.46 -132 67 C-128.0709375 65.9171875 -128.0709375 65.9171875 -124.0625 64.8125 C-122.38381346 64.34352444 -120.70538042 63.8736393 -119.02734375 63.40234375 C-116.02478421 62.56030802 -113.0190558 61.73703887 -110.00390625 60.94140625 C-75.05302979 51.49151153 -40.55497531 34.66432265 -13 11 C-11.84193646 10.02380089 -10.68301212 9.04862244 -9.5234375 8.07421875 C-6.33917245 5.39418564 -3.16700904 2.70039642 0 0 Z " fill="#FEBDA9" transform="translate(278,89)"/>
<path d="M0 0 C3.82432949 2.1554192 6.71248002 4.48747669 9.5625 7.8125 C11.82368705 6.76266316 13.53775665 5.83553691 15.375 4.125 C17.5625 2.8125 17.5625 2.8125 21.125 2.875 C24.5625 3.8125 24.5625 3.8125 26.5625 5.4375 C27.98997262 8.82774746 27.82970303 11.43518489 26.5625 14.8125 C24.16458261 18.09562988 21.35079706 20.86189415 18.4375 23.6875 C17.31601562 24.84378906 17.31601562 24.84378906 16.171875 26.0234375 C9.95326529 32.17704432 9.95326529 32.17704432 5.6953125 32.9453125 C2.5625 32.8125 2.5625 32.8125 -0.4375 30.8125 C-2.4375 27.8125 -2.4375 27.8125 -2.4375 24.1875 C-1.44491034 20.8375099 -0.82166553 20.08829437 1.5625 17.8125 C1.78542585 15.77573357 1.78542585 15.77573357 0.5625 13.8125 C-4.77043138 9.75483482 -8.72329572 8.24349964 -15.4375 8.8125 C-20.21405522 11.24760658 -23.00239342 14.03594478 -25.4375 18.8125 C-26.29740496 24.61685846 -24.85978917 29.14143095 -21.4375 33.8125 C-18.87218906 36.46292892 -16.19826496 39.00413951 -13.41503906 41.42456055 C-11.82421875 42.8828125 -11.82421875 42.8828125 -9.4375 45.8125 C-9.4609375 48.79296875 -9.4609375 48.79296875 -10.4375 51.8125 C-10.73527344 52.81667969 -11.03304687 53.82085937 -11.33984375 54.85546875 C-12.02582621 56.93930226 -12.71330824 59.02264276 -13.40234375 61.10546875 C-15.73601862 69.46266668 -16.57549953 77.23885581 -16.5703125 85.8984375 C-16.57306938 87.26452904 -16.57306938 87.26452904 -16.57588196 88.65821838 C-16.57892925 92.47117343 -16.57678288 96.28266429 -16.51660156 100.09521484 C-16.47759814 102.90583983 -16.48863863 105.71268704 -16.5078125 108.5234375 C-16.48212189 109.3818222 -16.45643127 110.24020691 -16.42996216 111.12460327 C-16.46977498 113.59729843 -16.58455449 115.48806506 -17.4375 117.8125 C-19.3464099 119.54855195 -21.18903707 120.66382836 -23.49435425 121.81338501 C-27.85293462 124.05445364 -29.96290484 128.29122464 -31.79370117 132.671875 C-33.06853023 136.91066954 -32.96654909 141.23076655 -32.9375 145.625 C-32.93250488 146.60460693 -32.92750977 147.58421387 -32.92236328 148.59350586 C-32.72815112 156.60911072 -31.45456071 162.33193228 -26.015625 168.3984375 C-19.21767816 174.72125903 -12.902574 175.12790761 -4.03515625 174.91796875 C-3.17792969 174.88316406 -2.32070312 174.84835938 -1.4375 174.8125 C-1.17646484 175.33046143 -0.91542969 175.84842285 -0.64648438 176.38208008 C16.05108436 209.32030072 37.65656272 228.25012509 71.5625 241.8125 C71.5625 250.7225 71.5625 259.6325 71.5625 268.8125 C60.3425 268.8125 49.1225 268.8125 37.5625 268.8125 C36.9025 266.8325 36.2425 264.8525 35.5625 262.8125 C32.52724514 260.78899676 31.36823798 260.49125982 27.875 260.1875 C27.06675781 260.11273438 26.25851563 260.03796875 25.42578125 259.9609375 C24.81089844 259.91195313 24.19601563 259.86296875 23.5625 259.8125 C23.52382813 257.894375 23.52382813 257.894375 23.484375 255.9375 C23.42805525 254.22913435 23.37070882 252.52080233 23.3125 250.8125 C23.29832031 249.97332031 23.28414062 249.13414062 23.26953125 248.26953125 C22.98700591 240.98037741 20.95249267 235.83513778 16.4375 230.125 C10.32879803 225.21147885 4.07652595 221.88357731 -3.91796875 222.32421875 C-10.82618167 223.6630197 -17.07520669 227.29548199 -21.4375 232.8125 C-25.125707 238.61448449 -25.96451997 243.34260531 -25.765625 250.1328125 C-25.7606237 251.90234099 -25.756751 253.67187298 -25.75390625 255.44140625 C-25.72683682 258.1980584 -25.68715106 260.95334765 -25.62646484 263.70947266 C-25.33242311 279.1727703 -25.33242311 279.1727703 -28.12695312 283.31933594 C-30.20474838 284.90704881 -32.00382582 285.88118404 -34.4375 286.8125 C-37.93252877 288.4039031 -38.86301998 289.30218388 -40.4375 292.8125 C-41.4959991 294.16563287 -42.58182062 295.49763803 -43.6875 296.8125 C-55.04261549 311.28378025 -58.0188828 327.36113229 -58.1875 345.1875 C-58.21574861 346.71357407 -58.24568791 348.23961781 -58.27734375 349.765625 C-58.3501363 353.44777436 -58.40034628 357.12979771 -58.4375 360.8125 C-61.79643745 358.09672605 -64.88852223 355.58382743 -67.515625 352.1328125 C-68.03133057 351.45976074 -68.54703613 350.78670898 -69.07836914 350.09326172 C-69.60938232 349.38186035 -70.14039551 348.67045898 -70.6875 347.9375 C-71.2539624 347.18355957 -71.8204248 346.42961914 -72.40405273 345.65283203 C-74.09601851 343.38273225 -75.77081226 341.10120761 -77.4375 338.8125 C-77.89205566 338.19052734 -78.34661133 337.56855469 -78.81494141 336.92773438 C-96.91627919 311.84395377 -108.09752626 282.92737527 -114.4375 252.8125 C-114.61539063 252.01005859 -114.79328125 251.20761719 -114.9765625 250.38085938 C-125.95392049 199.02250591 -113.5891743 139.6261775 -85.4375 95.8125 C-75.9166547 81.43022376 -65.28441758 68.32385247 -53.4375 55.8125 C-52.4784375 54.78962891 -52.4784375 54.78962891 -51.5 53.74609375 C-39.29119156 41.09706385 -39.29119156 41.09706385 -32.4375 38.8125 C-32.72625 38.14605469 -33.015 37.47960937 -33.3125 36.79296875 C-36.40884713 29.10585694 -38.09570061 22.25745682 -35.625 14.14453125 C-32.42875754 6.80871089 -27.1876258 2.0842993 -20.01171875 -1.34765625 C-13.29178282 -3.54004809 -6.34774165 -3.02182911 0 0 Z " fill="#754C9F" transform="translate(154.4375,59.1875)"/>
<path d="M0 0 C2.25036286 0.30987617 4.50027894 0.62299818 6.75 0.9375 C8.00296875 1.11152344 9.2559375 1.28554687 10.546875 1.46484375 C13.1070233 1.86160881 15.50164218 2.35741683 18 3 C20.4138176 3.22117559 22.83114597 3.40572242 25.25 3.5625 C26.44206055 3.63976318 27.63412109 3.71702637 28.86230469 3.79663086 C30.41546387 3.89729858 30.41546387 3.89729858 32 4 C34.73188478 15.14621308 35.38216317 25.5062421 35.1875 36.9375 C35.17239942 38.50714836 35.15872068 40.07681107 35.14648438 41.64648438 C35.11396458 45.43135476 35.06249262 49.21551078 35 53 C36.85238281 53.19722656 36.85238281 53.19722656 38.7421875 53.3984375 C46.06854236 54.32431326 50.92889298 57.30840343 55.67578125 62.92578125 C59.83549095 69.44143273 60.49723646 74.77217752 60.4375 82.375 C60.45748047 83.26960938 60.47746094 84.16421875 60.49804688 85.0859375 C60.49243088 92.81355163 58.36189925 99.09015763 53.75 105.3125 C48.89913221 110.0531208 43.02463392 112.85947507 36.203125 113.09765625 C34.74132812 113.08025391 34.74132812 113.08025391 33.25 113.0625 C31.77273438 113.04896484 31.77273438 113.04896484 30.265625 113.03515625 C29.51796875 113.02355469 28.7703125 113.01195312 28 113 C27.27296875 114.64935547 27.27296875 114.64935547 26.53125 116.33203125 C20.51703589 129.70823773 13.07380907 140.29888414 3 151 C2.46117187 151.60328125 1.92234375 152.2065625 1.3671875 152.828125 C-6.82938864 161.64253352 -17.09900861 167.86867571 -27.875 173 C-28.65907227 173.37366699 -29.44314453 173.74733398 -30.25097656 174.13232422 C-35.11548753 176.36043109 -39.7966635 177.76042777 -45 179 C-44.97905273 180.15935059 -44.95810547 181.31870117 -44.93652344 182.51318359 C-44.8635777 186.85550357 -44.81800373 191.1977705 -44.78027344 195.54052734 C-44.76028137 197.41236509 -44.73307832 199.28414138 -44.69824219 201.15576172 C-44.45988158 214.3006483 -44.45383107 225.1099947 -53.9296875 235.2421875 C-61.08776414 241.31979974 -69.23886401 243.49467695 -78.44140625 243.40234375 C-86.13267866 242.53274874 -92.68144948 238.81750395 -98 233.25 C-106.12007721 222.28829789 -105.49367564 211.46681854 -105.25 198.375 C-105.22990483 196.49350859 -105.2116594 194.61199646 -105.1953125 192.73046875 C-105.15155454 188.15312833 -105.08269402 183.57679581 -105 179 C-105.6297876 178.82694336 -106.2595752 178.65388672 -106.90844727 178.47558594 C-112.55377989 176.86339237 -117.72787578 174.94811192 -122.9375 172.25 C-123.96870972 171.72067871 -123.96870972 171.72067871 -125.02075195 171.18066406 C-149.68817965 158.34379812 -167.18526297 138.53126153 -178 113 C-178.82242188 113.05800781 -179.64484375 113.11601562 -180.4921875 113.17578125 C-189.43129743 113.53706167 -196.03038128 112.43264721 -202.84375 106.35546875 C-209.30745991 99.33727392 -210.56207321 92.45919403 -210.5 83.1875 C-210.49427979 82.20716797 -210.48855957 81.22683594 -210.48266602 80.21679688 C-210.27924427 72.01417452 -208.95485638 66.34940262 -203.35546875 60.19140625 C-197.78202999 54.94507676 -192.73746619 53 -185 53 C-185 46.73 -185 40.46 -185 34 C-182.298125 33.2575 -179.59625 32.515 -176.8125 31.75 C-170.02243356 29.87987811 -163.29665723 27.88766703 -156.6015625 25.69921875 C-154 25 -154 25 -150 25 C-150.13109917 26.44743843 -150.13109917 26.44743843 -150.2648468 27.92411804 C-156.41013252 82.04624633 -156.41013252 82.04624633 -137.12916279 130.55675983 C-121.90347772 147.89975158 -101.89927902 158.91782268 -78.6852417 160.54763794 C-55.32620137 161.03800021 -34.13905818 152.3797383 -17.02529907 136.70822144 C1.96813418 117.96499837 2.04994705 92.70056231 2.39428711 67.49267578 C2.50093422 44.96645592 1.5364262 22.46924846 0 0 Z " fill="#E09380" transform="translate(331,122)"/>
<path d="M0 0 C1.84851563 -0.04253906 1.84851563 -0.04253906 3.734375 -0.0859375 C13.83218671 -0.10784165 13.83218671 -0.10784165 16.9765625 2.84375 C18.625 5.5 18.625 5.5 18.625 8.5 C19.57117188 8.57476562 20.51734375 8.64953125 21.4921875 8.7265625 C39.81768583 10.4417916 57.89390701 16.63710295 72.5625 27.9375 C76.89783891 31.26846421 79.10791985 31.82453413 84.625 31.5 C86.9630508 32.93920016 88.64222954 34.56558979 90.625 36.5 C94.35520806 34.77197488 97.32421681 32.48471824 100.52734375 29.9375 C106.24538037 26.01899446 111.88729601 25.74316202 118.625 26.5 C126.87290722 28.96168308 132.18693013 33.30622025 136.609375 40.59765625 C138.48174073 44.1047413 138.86714643 47.1433198 139 51.0625 C139.04898437 52.03316406 139.09796875 53.00382812 139.1484375 54.00390625 C137.63093086 64.13949162 131.52200756 69.8360634 124.125 76.3125 C117.91410988 81.78540902 117.91410988 81.78540902 115.08203125 89.19921875 C115.82850791 92.48412912 115.82850791 92.48412912 117.23828125 95.3125 C121.48600777 105.07628828 119.73887332 117.66228949 119.6875 128.125 C119.6824755 129.910155 119.67791428 131.69531136 119.67382812 133.48046875 C119.66289651 137.8203467 119.6456841 142.16015802 119.625 146.5 C116.655 145.84 113.685 145.18 110.625 144.5 C110.60518066 143.52764404 110.58536133 142.55528809 110.56494141 141.5534668 C110.48801583 137.8947049 110.39944451 134.23629653 110.30761719 130.57788086 C110.26968216 129.00405939 110.23477234 127.43016163 110.203125 125.85620117 C110.036244 117.65556442 109.81740354 109.7203052 108.04052734 101.67504883 C107.625 99.5 107.625 99.5 107.625 95.5 C106.88121094 95.55800781 106.13742187 95.61601563 105.37109375 95.67578125 C77.47318803 96.82858727 51.14279622 84.76703638 30.625 66.5 C28.22754278 64.22388006 25.89184178 61.90610169 23.625 59.5 C18.84680612 62.96653281 14.3663808 66.59589544 9.9375 70.5 C-18.7589332 95.20083561 -70.19240964 125.5 -109.375 125.5 C-109.375 131.77 -109.375 138.04 -109.375 144.5 C-112.345 144.83 -115.315 145.16 -118.375 145.5 C-118.47555041 139.99061116 -118.54724206 134.48178189 -118.59472656 128.97167969 C-118.61456715 127.10602491 -118.64164851 125.24042991 -118.67675781 123.375 C-118.93898313 109.06058268 -117.92858804 95.62307097 -112.74267578 82.15527344 C-111.05585577 77.75601356 -111.05585577 77.75601356 -112.375 73.5 C-114.77286577 70.87308437 -117.2627253 68.51847188 -119.89453125 66.13671875 C-124.65640886 61.65426672 -126.99684883 57.57923099 -127.8125 50.9375 C-127.13169889 45.58834842 -124.72862284 42.69247726 -120.75 39.1875 C-116.72516619 36.32774966 -114.35430342 36.09844327 -109.375 36.5 C-105.12094666 38.07384391 -101.34101055 39.9997391 -98.375 43.5 C-98.5476752 46.17646566 -99.20793156 47.31365443 -101 49.3125 C-102.71155174 51.58144384 -102.71155174 51.58144384 -102.25 55.125 C-101.70769236 58.75935918 -101.70769236 58.75935918 -98.375 60.5 C-93.42943558 60.65874651 -90.80505554 59.34393687 -87.2265625 56.1484375 C-85.80196738 54.73970058 -84.39340484 53.31459505 -83 51.875 C-82.27683594 51.17503906 -81.55367187 50.47507813 -80.80859375 49.75390625 C-77.56502382 46.47382334 -75.6030093 44.26811643 -74.2734375 39.7890625 C-74.37471941 36.50908669 -74.88061717 34.40086079 -76.375 31.5 C-60.67797348 18.5543624 -38.01607528 8.05769124 -17.375 8.5 C-17.271875 7.736875 -17.16875 6.97375 -17.0625 6.1875 C-14.97290264 -1.98092606 -6.91078756 -0.01436754 0 0 Z " fill="#A65D4E" transform="translate(255.375,30.5)"/>
<path d="M0 0 C1.84174805 -0.03577148 1.84174805 -0.03577148 3.72070312 -0.07226562 C13.74808147 -0.05588994 13.74808147 -0.05588994 16.91015625 2.91015625 C18.5625 5.5625 18.5625 5.5625 18.5625 8.5625 C19.50867188 8.63726562 20.45484375 8.71203125 21.4296875 8.7890625 C39.75518583 10.5042916 57.83140701 16.69960295 72.5 28 C76.83533891 31.33096421 79.04541985 31.88703413 84.5625 31.5625 C86.9005508 33.00170016 88.57972954 34.62808979 90.5625 36.5625 C94.29270806 34.83447488 97.26171681 32.54721824 100.46484375 30 C106.18288037 26.08149446 111.82479601 25.80566202 118.5625 26.5625 C126.81040722 29.02418308 132.12443013 33.36872025 136.546875 40.66015625 C138.41924073 44.1672413 138.80464643 47.2058198 138.9375 51.125 C138.98648438 52.09566406 139.03546875 53.06632812 139.0859375 54.06640625 C137.56843086 64.20199162 131.45950756 69.8985634 124.0625 76.375 C117.85160988 81.84790902 117.85160988 81.84790902 115.01953125 89.26171875 C115.76600791 92.54662912 115.76600791 92.54662912 117.17578125 95.375 C121.42350777 105.13878828 119.67637332 117.72478949 119.625 128.1875 C119.6199755 129.972655 119.61541428 131.75781136 119.61132812 133.54296875 C119.60039651 137.8828467 119.5831841 142.22265802 119.5625 146.5625 C116.5925 145.9025 113.6225 145.2425 110.5625 144.5625 C110.532771 143.10396606 110.532771 143.10396606 110.50244141 141.6159668 C110.42551583 137.9572049 110.33694451 134.29879653 110.24511719 130.64038086 C110.20718216 129.06655939 110.17227234 127.49266163 110.140625 125.91870117 C109.973744 117.71806442 109.75490354 109.7828052 107.97802734 101.73754883 C107.5625 99.5625 107.5625 99.5625 107.5625 95.5625 C106.81871094 95.62050781 106.07492187 95.67851563 105.30859375 95.73828125 C75.87438712 96.95457078 49.69833724 83.61487088 28.23046875 64.484375 C14.66271515 51.65322449 4.63114443 34.46948724 -0.4375 16.5625 C-1.24574219 16.54832031 -2.05398437 16.53414062 -2.88671875 16.51953125 C-11.59293908 16.13095447 -11.59293908 16.13095447 -15.6875 13.375 C-17.77290051 10.02346346 -18.17916981 8.43566455 -17.4375 4.5625 C-12.88451081 -1.35591512 -6.88130127 -0.06121513 0 0 Z " fill="#B2705B" transform="translate(255.4375,30.4375)"/>
<path d="M0 0 C2.17593384 1.82189941 2.17593384 1.82189941 4.55322266 4.22851562 C5.44739899 5.12614624 6.34157532 6.02377686 7.2628479 6.9486084 C8.23000439 7.93440559 9.19707385 8.92028817 10.1640625 9.90625 C11.16173541 10.91206089 12.16014925 11.91713734 13.15927124 12.92150879 C15.78548998 15.56483514 18.40300893 18.21660355 21.01837158 20.8706665 C25.20948583 25.12101011 29.41337911 29.35870644 33.6178093 33.59587097 C35.08630924 35.07835153 36.55094093 36.56457113 38.01504517 38.0513916 C39.34685318 39.39783752 39.34685318 39.39783752 40.70556641 40.77148438 C41.87993759 41.9627594 41.87993759 41.9627594 43.07803345 43.17810059 C46.34513504 46.27510062 48.56053415 46.14936136 52.97509766 46.22460938 C54.85813095 46.25838684 54.85813095 46.25838684 56.77920532 46.29284668 C62.53770402 46.36860096 68.29631647 46.42156967 74.05517578 46.45996094 C77.09156147 46.48219541 80.12671002 46.52389798 83.16259766 46.58300781 C86.83496931 46.65436369 90.5061814 46.69083151 94.17921066 46.70307922 C95.57386766 46.71343794 96.96849258 46.73576309 98.36275101 46.77067566 C107.50273653 47.11559024 107.50273653 47.11559024 115.3347168 43.046875 C116.58491778 41.72423137 117.80561185 40.37325367 119 39 C120.49497143 37.50058374 121.99553608 36.00672979 123.50073242 34.51757812 C125.12084786 32.85729144 126.7390137 31.19510064 128.35546875 29.53125 C130.12880711 27.72582534 131.90291807 25.92115929 133.67773438 24.1171875 C136.45010611 21.29518125 139.21756906 18.46901097 141.97241211 15.62988281 C144.64898879 12.87493843 147.34399878 10.13923563 150.04296875 7.40625 C151.27904121 6.11902039 151.27904121 6.11902039 152.54008484 4.80578613 C153.31471573 4.02747437 154.08934662 3.2491626 154.88745117 2.44726562 C155.56281418 1.75556274 156.23817719 1.06385986 156.93400574 0.35119629 C159 -1 159 -1 161.5761261 -0.80358887 C164.54025119 0.17910991 167.0959372 1.5242054 169.8125 3.0625 C170.78832031 3.61035156 171.76414062 4.15820312 172.76953125 4.72265625 C173.87361328 5.35494141 173.87361328 5.35494141 175 6 C173.68037609 16.20875716 163.77176299 24.80655213 157 32 C156.46117187 32.60328125 155.92234375 33.2065625 155.3671875 33.828125 C147.17061136 42.64253352 136.90099139 48.86867571 126.125 54 C125.34092773 54.37366699 124.55685547 54.74733398 123.74902344 55.13232422 C118.88451247 57.36043109 114.2033365 58.76042777 109 60 C109.0314209 61.73902588 109.0314209 61.73902588 109.06347656 63.51318359 C109.1364223 67.85550357 109.18199627 72.1977705 109.21972656 76.54052734 C109.23971863 78.41236509 109.26692168 80.28414138 109.30175781 82.15576172 C109.54011842 95.3006483 109.54616893 106.1099947 100.0703125 116.2421875 C92.91223586 122.31979974 84.76113599 124.49467695 75.55859375 124.40234375 C67.86732134 123.53274874 61.31855052 119.81750395 56 114.25 C47.87992279 103.28829789 48.50632436 92.46681854 48.75 79.375 C48.77009517 77.49350859 48.7883406 75.61199646 48.8046875 73.73046875 C48.84844546 69.15312833 48.91730598 64.57679581 49 60 C48.0553186 59.74041504 48.0553186 59.74041504 47.09155273 59.47558594 C41.44622011 57.86339237 36.27212422 55.94811192 31.0625 53.25 C30.37502686 52.89711914 29.68755371 52.54423828 28.97924805 52.18066406 C11.57802608 43.1251129 -7.74448494 28.46996591 -16 10 C-16.015625 7.3828125 -16.015625 7.3828125 -15 5 C-12.63671875 3.1640625 -12.63671875 3.1640625 -9.6875 1.625 C-8.72199219 1.10164062 -7.75648438 0.57828125 -6.76171875 0.0390625 C-3.67479123 -1.12235577 -2.98738936 -1.17294045 0 0 Z " fill="#F9A58E" transform="translate(177,241)"/>
<path d="M0 0 C6.88509749 3.71759774 11.33763621 9.20040864 13.8125 16.625 C13.8931622 18.10623547 13.92011193 19.59082204 13.91015625 21.07421875 C13.90532227 22.34555664 13.90532227 22.34555664 13.90039062 23.64257812 C13.88782227 24.96418945 13.88782227 24.96418945 13.875 26.3125 C13.87048828 27.20517578 13.86597656 28.09785156 13.86132812 29.01757812 C13.84954983 31.22011987 13.83310164 33.42252599 13.8125 35.625 C14.73373657 35.59672119 14.73373657 35.59672119 15.67358398 35.56787109 C16.48126221 35.55320801 17.28894043 35.53854492 18.12109375 35.5234375 C19.32076782 35.49515869 19.32076782 35.49515869 20.54467773 35.46630859 C22.8125 35.625 22.8125 35.625 25.875 37.25 C27.8125 39.625 27.8125 39.625 28.4375 42.5625 C27.57925577 46.76789674 26.22221047 48.02547487 22.8125 50.625 C19.54074528 51.27735055 16.32727374 51.23401818 13 51.1875 C3.46986714 51.09511243 -2.54686269 53.12709975 -9.9375 59.25 C-13.8516216 62.47422247 -13.8516216 62.47422247 -16.328125 63.5859375 C-18.70650431 64.91503182 -19.08642438 66.17014288 -20.1875 68.625 C-21.2459991 69.97813287 -22.33182062 71.31013803 -23.4375 72.625 C-33.67514309 85.61400967 -37.27246576 100.21277488 -37.39282227 116.42773438 C-37.40767166 117.6876973 -37.40767166 117.6876973 -37.42282104 118.97311401 C-37.45415379 121.72163167 -37.4790806 124.47016654 -37.50390625 127.21875 C-37.52450022 129.13546166 -37.5454973 131.05216904 -37.56687927 132.96887207 C-37.62184778 137.9927623 -37.6713674 143.01669179 -37.71972656 148.04064941 C-37.77012672 153.17557229 -37.82571577 158.31043876 -37.88085938 163.4453125 C-37.98813207 173.50516004 -38.08964454 183.56505675 -38.1875 193.625 C-39.4717933 192.99091563 -40.75517247 192.35497952 -42.03816223 191.71826172 C-42.75294141 191.36432343 -43.46772058 191.01038513 -44.20415974 190.64572144 C-46.43422868 189.49802166 -48.47171347 188.20799242 -50.51171875 186.75 C-51.23037109 186.23953125 -51.94902344 185.7290625 -52.68945312 185.203125 C-53.41068359 184.68234375 -54.13191406 184.1615625 -54.875 183.625 C-55.60783203 183.10421875 -56.34066406 182.5834375 -57.09570312 182.046875 C-59.13871565 180.58784351 -61.17486738 179.12569667 -63.1875 177.625 C-64.04043137 177.0708844 -64.89336273 176.5167688 -65.7721405 175.94586182 C-68.1875 173.625 -68.1875 173.625 -68.82241821 170.59417725 C-68.82639618 169.40777649 -68.83037415 168.22137573 -68.83447266 166.99902344 C-68.84323425 166.34139008 -68.85199585 165.68375671 -68.86102295 165.00619507 C-68.88302199 162.83158231 -68.86844556 160.65900869 -68.8515625 158.484375 C-68.85493539 156.9590008 -68.85979195 155.43362922 -68.86605835 153.90826416 C-68.87343427 150.70355767 -68.86272007 147.49954734 -68.83935547 144.29492188 C-68.81115548 140.23351991 -68.82707962 136.1737912 -68.85721779 132.11245346 C-68.87552194 128.95485471 -68.86942406 125.79763416 -68.85657883 122.64002228 C-68.85329282 121.14605757 -68.85715813 119.65205603 -68.86897659 118.15813446 C-68.99196517 98.20708723 -62.41749196 80.71883749 -48.75 66 C-38.63486842 56.625 -38.63486842 56.625 -36.1875 56.625 C-36.20844727 55.45517578 -36.22939453 54.28535156 -36.25097656 53.08007812 C-36.32374856 48.7117146 -36.36943422 44.34340395 -36.40722656 39.97460938 C-36.42725767 38.08910084 -36.45449073 36.20365377 -36.48925781 34.31835938 C-36.53815272 31.59750138 -36.56055382 28.87746944 -36.578125 26.15625 C-36.59877014 25.32258911 -36.61941528 24.48892822 -36.64068604 23.63000488 C-36.64339219 16.46229745 -34.52556529 11.4176891 -29.9375 5.9375 C-20.58591788 -1.92633042 -11.68246894 -5.21014632 0 0 Z " fill="#20B6A0" transform="translate(164.1875,283.375)"/>
<path d="M0 0 C0 26.73 0 53.46 0 81 C-7.92 84.96 -7.92 84.96 -16 89 C-16.66 87.68 -17.32 86.36 -18 85 C-18.82242188 85.05800781 -19.64484375 85.11601562 -20.4921875 85.17578125 C-29.43129743 85.53706167 -36.03038128 84.43264721 -42.84375 78.35546875 C-49.30745991 71.33727392 -50.56207321 64.45919403 -50.5 55.1875 C-50.49427979 54.20716797 -50.48855957 53.22683594 -50.48266602 52.21679688 C-50.27924427 44.01417452 -48.95485638 38.34940262 -43.35546875 32.19140625 C-37.78202999 26.94507676 -32.73746619 25 -25 25 C-25 18.73 -25 12.46 -25 6 C-22.133125 5.195625 -19.26625 4.39125 -16.3125 3.5625 C-15.41829346 3.31056885 -14.52408691 3.0586377 -13.6027832 2.79907227 C-3.57492969 0 -3.57492969 0 0 0 Z " fill="#F9A58E" transform="translate(171,150)"/>
<path d="M0 0 C8.25 0 16.5 0 25 0 C25 7.26 25 14.52 25 22 C27.64 22.33 30.28 22.66 33 23 C40.49021329 25.34542032 45.03096571 30.30102844 48.640625 37.08203125 C50.5571953 41.75603376 50.47669255 46.38685691 50.4375 51.375 C50.4674707 52.71691406 50.4674707 52.71691406 50.49804688 54.0859375 C50.49243088 61.81355163 48.36189925 68.09015763 43.75 74.3125 C38.89913221 79.0531208 33.02463392 81.85947507 26.203125 82.09765625 C24.74132812 82.08025391 24.74132812 82.08025391 23.25 82.0625 C22.26515625 82.05347656 21.2803125 82.04445313 20.265625 82.03515625 C19.51796875 82.02355469 18.7703125 82.01195312 18 82 C17.34 83.32 16.68 84.64 16 86 C10.72 83.36 5.44 80.72 0 78 C0 52.26 0 26.52 0 0 Z " fill="#FEBDA9" transform="translate(341,153)"/>
<path d="M0 0 C6.88509749 3.71759774 11.33763621 9.20040864 13.8125 16.625 C13.8978013 19.50194671 13.92835645 22.35400182 13.91015625 25.23046875 C13.9087413 26.06967361 13.90732635 26.90887848 13.90586853 27.77351379 C13.90027215 30.45321216 13.88772035 33.1328269 13.875 35.8125 C13.86998453 37.62955608 13.86542171 39.44661348 13.86132812 41.26367188 C13.85030391 45.71748013 13.83304178 50.17122589 13.8125 54.625 C13.06991943 54.32537354 12.32733887 54.02574707 11.56225586 53.71704102 C7.86204939 52.24753702 4.12410236 50.90123247 0.375 49.5625 C-0.36298828 49.29373047 -1.10097656 49.02496094 -1.86132812 48.74804688 C-5.96064333 47.28686875 -9.84687672 46.1821957 -14.1875 45.625 C-14.47625 46.264375 -14.765 46.90375 -15.0625 47.5625 C-16.1875 49.625 -16.1875 49.625 -18.1875 50.625 C-22.45180448 50.94951599 -26.72488197 50.94951551 -31 51 C-32.18916016 51.03738281 -33.37832031 51.07476562 -34.60351562 51.11328125 C-44.40044169 51.21229566 -44.40044169 51.21229566 -47.4765625 48.29296875 C-49.57093807 45.02708173 -49.91651365 43.43207131 -49.1875 39.625 C-47.75 37.25 -47.75 37.25 -45.1875 35.625 C-42.96850586 35.46630859 -42.96850586 35.46630859 -40.52734375 35.5234375 C-39.30905884 35.54543213 -39.30905884 35.54543213 -38.06616211 35.56787109 C-37.13622437 35.5961499 -37.13622437 35.5961499 -36.1875 35.625 C-36.25710938 33.706875 -36.25710938 33.706875 -36.328125 31.75 C-36.36567027 30.04169021 -36.40206745 28.33335492 -36.4375 26.625 C-36.48777344 25.36623047 -36.48777344 25.36623047 -36.5390625 24.08203125 C-36.65422176 16.65425871 -34.6944003 11.61935314 -29.9375 5.9375 C-20.58591788 -1.92633042 -11.68246894 -5.21014632 0 0 Z " fill="#A689C7" transform="translate(369.1875,283.375)"/>
<path d="M0 0 C2.96412509 0.98269878 5.5198111 2.32779427 8.2363739 3.86608887 C9.21219421 4.41394043 10.18801453 4.96179199 11.19340515 5.52624512 C12.29748718 6.15853027 12.29748718 6.15853027 13.4238739 6.80358887 C12.10425 17.01234602 2.1956369 25.610141 -4.5761261 32.80358887 C-5.11495422 33.40687012 -5.65378235 34.01015137 -6.2089386 34.63171387 C-20.51033472 50.01110467 -44.0567729 62.27859021 -65.04316711 63.32092285 C-81.556101 63.64761441 -96.43963947 57.97173739 -110.5761261 49.80358887 C-111.2361261 49.14358887 -111.8961261 48.48358887 -112.5761261 47.80358887 C-111.81715027 47.80660507 -111.05817444 47.80962128 -110.27619934 47.81272888 C-103.0967606 47.83504466 -95.91851635 47.82365591 -88.73923492 47.77512264 C-85.04883944 47.75134445 -81.35934382 47.74025492 -77.66889954 47.75891113 C-74.10214069 47.77646276 -70.53699209 47.75970701 -66.97042847 47.71991158 C-64.95876849 47.70619775 -62.94696754 47.72732176 -60.93537903 47.74913025 C-52.98084002 47.65855765 -52.98084002 47.65855765 -46.26435852 43.83898926 C-45.0072173 42.51973533 -43.77885525 41.17263144 -42.5761261 39.80358887 C-41.08041445 38.304911 -39.57989821 36.81101758 -38.07539368 35.32116699 C-36.45527824 33.66088031 -34.8371124 31.9986895 -33.22065735 30.33483887 C-31.44731899 28.52941421 -29.67320803 26.72474816 -27.89839172 24.92077637 C-25.12601999 22.09877011 -22.35855704 19.27259984 -19.60371399 16.43347168 C-16.92713731 13.6785273 -14.23212732 10.9428245 -11.53315735 8.20983887 C-10.29708488 6.92260925 -10.29708488 6.92260925 -9.03604126 5.609375 C-8.26141037 4.83106323 -7.48677948 4.05275146 -6.68867493 3.25085449 C-6.01331192 2.55915161 -5.33794891 1.86744873 -4.64212036 1.15478516 C-2.5761261 -0.19641113 -2.5761261 -0.19641113 0 0 Z " fill="#FEBDA9" transform="translate(338.5761260986328,240.1964111328125)"/>
<path d="M0 0 C0.92281265 -0.00318237 1.84562531 -0.00636475 2.79640198 -0.00964355 C4.36834572 -0.02855652 4.36834572 -0.02855652 5.9720459 -0.04785156 C7.10332413 -0.03975464 8.23460236 -0.03165771 9.40016174 -0.02331543 C10.56282059 -0.02714233 11.72547943 -0.03096924 12.92337036 -0.03491211 C15.38382329 -0.03763587 17.84430495 -0.03024244 20.30470276 -0.0135498 C24.07350743 0.00783211 27.84040136 -0.01332784 31.60914612 -0.03894043 C33.99782221 -0.03629686 36.38649711 -0.03117128 38.77516174 -0.02331543 C40.46904274 -0.03546082 40.46904274 -0.03546082 42.19714355 -0.04785156 C43.24825821 -0.03524292 44.29937286 -0.02263428 45.38233948 -0.00964355 C46.30594772 -0.00646118 47.22955597 -0.00327881 48.18115234 0 C51.4279219 0.66688344 52.63076916 1.93038377 54.65406799 4.50793457 C55.69709361 11.95811755 53.25253491 19.62217569 49.02906799 25.75793457 C43.96134715 32.00096224 36.5634955 36.87050578 28.52516174 37.91418457 C18.57762703 38.18578961 11.17755345 36.18242136 3.49391174 29.67980957 C-2.71674467 23.19224491 -5.79603365 15.46302521 -5.77952576 6.51574707 C-5.01912172 2.99459685 -3.60721076 0.78102308 0 0 Z " fill="#FEF4F4" transform="translate(231.34593200683594,227.4920654296875)"/>
<path d="M0 0 C6.88509749 3.71759774 11.33763621 9.20040864 13.8125 16.625 C13.8931622 18.10623547 13.92011193 19.59082204 13.91015625 21.07421875 C13.90693359 21.92177734 13.90371094 22.76933594 13.90039062 23.64257812 C13.88782227 24.96418945 13.88782227 24.96418945 13.875 26.3125 C13.87048828 27.20517578 13.86597656 28.09785156 13.86132812 29.01757812 C13.84954983 31.22011987 13.83310164 33.42252599 13.8125 35.625 C14.42665771 35.60614746 15.04081543 35.58729492 15.67358398 35.56787109 C16.48126221 35.55320801 17.28894043 35.53854492 18.12109375 35.5234375 C18.92087646 35.50458496 19.72065918 35.48573242 20.54467773 35.46630859 C22.8125 35.625 22.8125 35.625 25.875 37.25 C27.8125 39.625 27.8125 39.625 28.4375 42.5625 C27.80229659 45.67499673 27.02768238 47.38478447 24.71630859 49.57543945 C20.26358255 52.03020597 14.75164166 51.33123588 9.8125 51.25 C8.636875 51.26933594 7.46125 51.28867187 6.25 51.30859375 C-3.32000517 51.25421872 -3.32000517 51.25421872 -6.46484375 48.27734375 C-8.57940215 45.02159511 -8.91680783 43.43360758 -8.1875 39.625 C-6.6875 37.25 -6.6875 37.25 -4.1875 35.625 C-1.50407737 35.41145633 1.11568544 35.5537427 3.8125 35.625 C3.75213048 32.91440855 3.6649809 30.20906023 3.5625 27.5 C3.54832031 26.73945313 3.53414062 25.97890625 3.51953125 25.1953125 C3.29208317 19.91851705 2.24523437 16.84346343 -1.1875 12.625 C-4.48324454 9.72873965 -7.09149155 8.72839702 -11.5 8.3125 C-15.9529615 8.68986962 -17.79174213 9.75747113 -21.1875 12.625 C-24.86404201 17.22445651 -25.70326894 20.36055845 -25.796875 26.2109375 C-25.81341125 26.91272125 -25.82994751 27.614505 -25.84698486 28.33755493 C-25.8952069 30.55846122 -25.91677607 32.77868428 -25.9375 35 C-25.96568161 36.51435682 -25.9956121 38.02868216 -26.02734375 39.54296875 C-26.10095568 43.23683186 -26.15068894 46.93056581 -26.1875 50.625 C-31.1375 53.1 -31.1375 53.1 -36.1875 55.625 C-36.28690554 50.21733876 -36.35922051 44.81021772 -36.40722656 39.40185547 C-36.42725373 37.56484707 -36.45448382 35.72790171 -36.48925781 33.89111328 C-36.53817065 31.23974998 -36.56055763 28.58923459 -36.578125 25.9375 C-36.59877014 25.12571289 -36.61941528 24.31392578 -36.64068604 23.47753906 C-36.64343143 16.38783701 -34.47246383 11.35426235 -29.9375 5.9375 C-20.58591788 -1.92633042 -11.68246894 -5.21014632 0 0 Z " fill="#A688C7" transform="translate(164.1875,283.375)"/>
<path d="M0 0 C7.56366561 3.87604216 12.4177247 9.12817411 15.125 17.25 C15.32188607 19.09791637 15.43704039 20.95519143 15.5 22.8125 C15.54898438 23.78316406 15.59796875 24.75382812 15.6484375 25.75390625 C14.15771489 35.71059829 7.86451028 42.18477399 0.8125 48.875 C-0.02345703 49.68839844 -0.85941406 50.50179687 -1.72070312 51.33984375 C-3.76108662 53.32193058 -5.81222324 55.29127452 -7.875 57.25 C-10.17076678 54.95423322 -10.9388375 53.34653751 -11.875 50.25 C-11.71737365 45.82895615 -9.81565853 43.84879537 -6.66796875 40.88671875 C-5.56416617 39.88631688 -4.46000479 38.88631075 -3.35546875 37.88671875 C1.40640886 33.40426672 3.74684883 29.32923099 4.5625 22.6875 C3.92691039 17.6935816 1.80547675 14.7267826 -1.9375 11.4375 C-5.91343515 9.00063652 -9.3023981 8.80023588 -13.875 9.25 C-17.51791354 10.86763479 -21.12773108 12.47095153 -22.7265625 16.27734375 C-22.80003906 17.25380859 -22.80003906 17.25380859 -22.875 18.25 C-22.215 19.013125 -21.555 19.77625 -20.875 20.5625 C-18.875 23.25 -18.875 23.25 -18.875 26.875 C-19.875 30.25 -19.875 30.25 -21.5 32.25 C-24.89024746 33.67747262 -27.49768489 33.51720303 -30.875 32.25 C-34.15812988 29.85208261 -36.92439415 27.03829706 -39.75 24.125 C-40.52085937 23.37734375 -41.29171875 22.6296875 -42.0859375 21.859375 C-48.23954432 15.64076529 -48.23954432 15.64076529 -49.0078125 11.3828125 C-48.875 8.25 -48.875 8.25 -46.875 5.25 C-43.875 3.25 -43.875 3.25 -40.3125 3.1875 C-36.70549177 4.30239345 -35.2144113 5.34912999 -32.875 8.25 C-29.14479194 6.52197488 -26.17578319 4.23471824 -22.97265625 1.6875 C-16.04024748 -3.06320098 -7.6419421 -3.24590852 0 0 Z " fill="#A688C6" transform="translate(378.875,58.75)"/>
<path d="M0 0 C3.82432949 2.1554192 6.71248002 4.48747669 9.5625 7.8125 C11.82368705 6.76266316 13.53775665 5.83553691 15.375 4.125 C17.5625 2.8125 17.5625 2.8125 21.125 2.875 C24.5625 3.8125 24.5625 3.8125 26.5625 5.4375 C27.98997262 8.82774746 27.82970303 11.43518489 26.5625 14.8125 C24.16458261 18.09562988 21.35079706 20.86189415 18.4375 23.6875 C17.68984375 24.45835938 16.9421875 25.22921875 16.171875 26.0234375 C9.95326529 32.17704432 9.95326529 32.17704432 5.6953125 32.9453125 C2.5625 32.8125 2.5625 32.8125 -0.4375 30.8125 C-2.4375 27.8125 -2.4375 27.8125 -2.4375 24.1875 C-1.44491034 20.8375099 -0.82166553 20.08829437 1.5625 17.8125 C1.78542585 15.77573357 1.78542585 15.77573357 0.5625 13.8125 C-4.77043138 9.75483482 -8.72329572 8.24349964 -15.4375 8.8125 C-20.21405522 11.24760658 -23.00239342 14.03594478 -25.4375 18.8125 C-26.29740496 24.61685846 -24.85978917 29.14143095 -21.4375 33.8125 C-18.87218906 36.46292892 -16.19826496 39.00413951 -13.41503906 41.42456055 C-11.82421875 42.8828125 -11.82421875 42.8828125 -9.4375 45.8125 C-9.53680943 49.86432457 -10.80991108 53.12329845 -12.4375 56.8125 C-35.23201597 38.16244148 -35.23201597 38.16244148 -36.7109375 25.46484375 C-36.98343788 18.1806989 -35.80590897 12.74465813 -31.4375 6.8125 C-22.57422283 -1.84241803 -11.73879721 -5.58822981 0 0 Z " fill="#A687C6" transform="translate(154.4375,59.1875)"/>
<path d="M0 0 C8.90767557 0.9484164 14.75633335 2.92081855 20.67578125 9.92578125 C24.83549095 16.44143273 25.49723646 21.77217752 25.4375 29.375 C25.4674707 30.71691406 25.4674707 30.71691406 25.49804688 32.0859375 C25.49243088 39.81355163 23.36189925 46.09015763 18.75 52.3125 C13.55971358 57.38482536 7.22602833 60.15308681 -0.0625 60.125 C-4 60 -4 60 -7 59 C-6.81824219 58.29617187 -6.63648438 57.59234375 -6.44921875 56.8671875 C-5.6131102 53.58278161 -4.8067392 50.29174275 -4 47 C-3.73703125 45.96939453 -3.4740625 44.93878906 -3.203125 43.87695312 C-0.95014201 34.3994813 -0.46082268 25.32679749 -0.3125 15.625 C-0.27921871 14.09893115 -0.24471972 12.57288836 -0.20898438 11.046875 C-0.12534554 7.36477561 -0.05797106 3.68260377 0 0 Z " fill="#F8A58E" transform="translate(366,175)"/>
<path d="M0 0 C4.708003 2.72719686 7.62183297 6.59936593 9.75 11.5625 C10.92849337 17.42777084 10.03554342 22.6145234 7.09375 27.8046875 C3.72131452 32.21630368 -0.90129731 35.08497741 -6.4140625 35.87109375 C-12.54694695 36.19234008 -16.41437036 35.11586192 -21.33203125 31.390625 C-25.7676874 27.16274908 -27.4331661 22.68846526 -27.875 16.625 C-27.61398176 10.7835918 -25.14558433 6.8035907 -21.25 2.5625 C-15.30350945 -2.80525667 -7.21538399 -2.99376353 0 0 Z " fill="#7480D4" transform="translate(217.25,145.4375)"/>
<path d="M0 0 C3.66925142 0.70262261 4.66843578 1.62393984 6.9375 4.5625 C7.41851807 7.6630249 7.41851807 7.6630249 7.39160156 11.35058594 C7.39218567 12.02416641 7.39276978 12.69774689 7.39337158 13.39173889 C7.39059232 15.61064807 7.35951114 17.82820154 7.328125 20.046875 C7.32066197 21.58814765 7.31496933 23.1294298 7.31097412 24.67071533 C7.29572246 28.72172373 7.25644539 32.77215585 7.2121582 36.82293701 C7.17119498 40.95870163 7.1529609 45.09455962 7.1328125 49.23046875 C7.08995006 57.3414099 7.02170515 65.45188321 6.9375 73.5625 C3.27577525 72.93571829 0.0556005 71.91798154 -3.375 70.5 C-4.69951172 69.95666016 -4.69951172 69.95666016 -6.05078125 69.40234375 C-7.04658203 68.98662109 -7.04658203 68.98662109 -8.0625 68.5625 C-8.17846849 60.43476579 -8.26725177 52.30737852 -8.32156086 44.17902088 C-8.34762982 40.4044499 -8.38297629 36.63044586 -8.43969727 32.85620117 C-8.49411681 29.21219519 -8.52394086 25.56873369 -8.53688622 21.92435265 C-8.54610857 20.53564573 -8.56411853 19.14696785 -8.59115028 17.75849342 C-8.62756071 15.81040256 -8.62954339 13.86176109 -8.63012695 11.91333008 C-8.64123001 10.8052449 -8.65233307 9.69715973 -8.66377258 8.55549622 C-7.67954571 3.65624191 -4.89278665 0.8986751 0 0 Z " fill="#20B7A0" transform="translate(162.0625,423.4375)"/>
<path d="M0 0 C1.00353516 0.1546875 1.00353516 0.1546875 2.02734375 0.3125 C2.69894531 0.395 3.37054688 0.4775 4.0625 0.5625 C6.72517384 1.61226053 7.49862049 2.86289714 8.96484375 5.3125 C9.3256073 8.1852417 9.3256073 8.1852417 9.30541992 11.54980469 C9.30519333 12.81080994 9.30496674 14.07181519 9.30473328 15.37103271 C9.28941457 16.74215044 9.2737666 18.11326452 9.2578125 19.484375 C9.25221461 20.89112902 9.24794542 22.29788891 9.24494934 23.70465088 C9.2335156 27.40045424 9.20406155 31.09590179 9.1708374 34.79156494 C9.14010452 38.56542142 9.12643716 42.3393356 9.11132812 46.11328125 C9.07919004 53.51318273 9.02801199 60.91279144 8.96484375 68.3125 C7.03016433 69.15236084 5.09199246 69.98418027 3.15234375 70.8125 C1.53392578 71.50859375 1.53392578 71.50859375 -0.1171875 72.21875 C-3.03515625 73.3125 -3.03515625 73.3125 -6.03515625 73.3125 C-6.12784058 64.38517023 -6.19891292 55.45800609 -6.24240494 46.53030014 C-6.26327913 42.3847733 -6.2915931 38.23957566 -6.33691406 34.09423828 C-6.38037874 30.09364843 -6.40429463 26.09337519 -6.41466522 22.09256744 C-6.42205556 20.56630723 -6.43648736 19.04006432 -6.45807648 17.5139389 C-6.48712049 15.37577386 -6.4911121 13.23891654 -6.48925781 11.10058594 C-6.49814026 9.8836908 -6.50702271 8.66679565 -6.51617432 7.4130249 C-5.89399863 3.40263246 -4.22326027 0.64848526 0 0 Z " fill="#20B7A0" transform="translate(349.03515625,423.6875)"/>
<path d="M0 0 C5.67549553 2.04317839 9.29873721 5.59747441 12 11 C12.07194869 13.88370333 12.09291708 16.74239664 12.0625 19.625 C12.05798828 20.42679687 12.05347656 21.22859375 12.04882812 22.0546875 C12.03703168 24.03649006 12.01909605 26.01825433 12 28 C9.97973633 28.22176107 7.95947266 28.44352214 5.93920898 28.6652832 C3.90641263 28.89303003 3.90641263 28.89303003 2.0625 30.1875 C0.5997944 32.68270368 0.42615914 35.16277836 0 38 C-1.04800781 38.27714844 -2.09601563 38.55429687 -3.17578125 38.83984375 C-4.55470067 39.20567952 -5.9336062 39.57156767 -7.3125 39.9375 C-8.00279297 40.11990234 -8.69308594 40.30230469 -9.40429688 40.49023438 C-12.29887844 41.2593261 -15.15784729 42.05261576 -18 43 C-18.09932276 38.55263258 -18.17168003 34.10586287 -18.21972656 29.65771484 C-18.23976791 28.14653264 -18.26700905 26.63542728 -18.30175781 25.12451172 C-18.35061109 22.94479357 -18.37304224 20.76610569 -18.390625 18.5859375 C-18.41157227 17.2767334 -18.43251953 15.9675293 -18.45410156 14.61865234 C-17.77764871 9.22812324 -15.38117239 6.21674711 -11.375 2.6875 C-7.36539316 -0.16143117 -4.95017118 -0.33001141 0 0 Z " fill="#754CA0" transform="translate(156,291)"/>
<path d="M0 0 C5.67549553 2.04317839 9.29873721 5.59747441 12 11 C12.08586809 13.32416296 12.10711043 15.65083307 12.09765625 17.9765625 C12.0962413 18.66181 12.09482635 19.3470575 12.09336853 20.05307007 C12.08776675 22.24375761 12.07521406 24.4343433 12.0625 26.625 C12.05748522 28.10937352 12.05292228 29.59374865 12.04882812 31.078125 C12.03779677 34.71878315 12.02053099 38.35938164 12 42 C6.30968953 40.74777831 0.6465689 39.43730845 -5 38 C-5.268125 36.88625 -5.53625 35.7725 -5.8125 34.625 C-6.65809019 30.78159049 -6.65809019 30.78159049 -10 29 C-12.0492094 28.54860541 -12.0492094 28.54860541 -14.1875 28.375 C-15.445625 28.25125 -16.70375 28.1275 -18 28 C-18.10861833 25.29057607 -18.18758577 22.585561 -18.25 19.875 C-18.28351563 19.11445313 -18.31703125 18.35390625 -18.3515625 17.5703125 C-18.44412851 12.20148405 -17.54244882 9.27026103 -14 5 C-9.13691505 0.71585374 -6.54615737 -0.43641049 0 0 Z " fill="#754DA0" transform="translate(361,291)"/>
<path d="M0 0 C4.25405334 1.57384391 8.03398945 3.4997391 11 7 C10.82848151 9.65853665 10.22509392 10.76624862 8.375 12.6875 C6.57449944 15.11987609 6.57449944 15.11987609 7.8125 18.8125 C9.05368068 26.20993684 3.65847353 32.92389189 0 39 C-17.17915309 24.68403909 -17.17915309 24.68403909 -18.4375 14.4375 C-17.75669889 9.08834842 -15.35362284 6.19247726 -11.375 2.6875 C-7.35016619 -0.17225034 -4.97930342 -0.40155673 0 0 Z " fill="#65428A" transform="translate(146,67)"/>
<path d="M0 0 C3.93792318 2.56821077 6.74612583 5.61725165 8.875 9.875 C9.48463338 15.97133375 8.03418298 19.81817704 4.875 24.875 C2.78642487 27.39025201 0.50191894 29.633905 -1.875 31.875 C-2.47699219 32.45894531 -3.07898438 33.04289062 -3.69921875 33.64453125 C-5.16537899 35.06414672 -6.64391344 36.47096419 -8.125 37.875 C-10.54978005 35.45021995 -11.67069748 33.01209971 -13.1875 29.9375 C-13.71472656 28.87660156 -14.24195313 27.81570312 -14.78515625 26.72265625 C-17.24933593 21.4853764 -17.24933593 21.4853764 -16.4375 17.5 C-15.71501354 13.80520619 -15.71501354 13.80520619 -18.125 11.1875 C-18.785 10.424375 -19.445 9.66125 -20.125 8.875 C-20.1875 6.8125 -20.1875 6.8125 -19.125 4.875 C-13.16953108 -0.59759306 -8.00341093 -2.88122793 0 0 Z " fill="#65428A" transform="translate(375.125,68.125)"/>
<path d="M0 0 C0.01458252 0.88558594 0.02916504 1.77117187 0.04418945 2.68359375 C0.21456203 25.54270919 0.21456203 25.54270919 4 48 C4.28488281 49.11761719 4.56976563 50.23523438 4.86328125 51.38671875 C5.53860917 53.93760192 6.24477429 56.47186854 7 59 C1.98827616 60.29613548 1.98827616 60.29613548 -1 60 C-5.70032913 56.67537696 -8.19825999 51.33893529 -10 46 C-10.53414463 41.45449131 -10.51552161 36.92118588 -10.50097656 32.34936523 C-10.50000666 30.20223711 -10.54164195 28.05872085 -10.5859375 25.91210938 C-10.66902569 16.25793352 -9.19101329 8.8895155 -2.75 1.375 C-1 0 -1 0 0 0 Z " fill="#FEBDA9" transform="translate(146,175)"/>
<path d="M0 0 C-0.08378906 0.68707031 -0.16757812 1.37414062 -0.25390625 2.08203125 C-0.35574219 2.98308594 -0.45757812 3.88414062 -0.5625 4.8125 C-0.66691406 5.70582031 -0.77132813 6.59914062 -0.87890625 7.51953125 C-1.15658709 10.13375572 -1.15658709 10.13375572 0 13 C3.3 13.33 6.6 13.66 10 14 C9.63325183 21.21271394 9.63325183 21.21271394 6.6875 24.875 C1.89942216 28.66092201 -1.47840966 29.45503747 -7.52734375 29.3125 C-11.24790999 28.84228626 -13.27268437 27.52775595 -16 25 C-19.53497954 20.05102865 -19.86128681 14.88545986 -19 9 C-14.6544576 0.14796919 -9.05194077 -0.47456777 0 0 Z " fill="#4E2E23" transform="translate(308,148)"/>
<path d="M0 0 C0.74958984 0.01804688 1.49917969 0.03609375 2.27148438 0.0546875 C4.1190371 0.10175891 5.96593159 0.17350234 7.8125 0.25 C7.32652344 0.82492188 6.84054688 1.39984375 6.33984375 1.9921875 C3.85679112 5.66278703 4.2167878 8.9662269 4.8125 13.25 C6.96306788 21.22046627 10.56160438 27.60564976 17.64453125 32.01171875 C20.33819046 33.49513313 23.0467908 34.90651493 25.8125 36.25 C25.8125 36.58 25.8125 36.91 25.8125 37.25 C14.69234997 38.13829601 6.3391208 36.77343315 -2.34765625 29.421875 C-8.55831266 22.93431034 -11.63760164 15.20509064 -11.62109375 6.2578125 C-10.1772528 -0.42808163 -6.00069825 -0.27252079 0 0 Z " fill="#C2DFEA" transform="translate(237.1875,227.75)"/>
<path d="M0 0 C1.18271484 -0.00515625 2.36542969 -0.0103125 3.58398438 -0.015625 C5.4315332 0.00757813 5.4315332 0.00757813 7.31640625 0.03125 C8.54423828 0.01578125 9.77207031 0.0003125 11.03710938 -0.015625 C12.22111328 -0.01046875 13.40511719 -0.0053125 14.625 0 C15.70450928 0.00451172 16.78401855 0.00902344 17.89624023 0.01367188 C21.57478171 0.65200436 23.26051917 1.91018472 25.87890625 4.53125 C26.50390625 7.46875 26.50390625 7.46875 25.87890625 10.53125 C24.21816443 13.08248009 23.47192102 14.10173339 20.87890625 15.53125 C16.5369231 16.28632754 12.27559027 16.22856388 7.87890625 16.15625 C6.11546875 16.18525391 6.11546875 16.18525391 4.31640625 16.21484375 C-5.25359892 16.16046872 -5.25359892 16.16046872 -8.3984375 13.18359375 C-10.5129959 9.92784511 -10.85040158 8.33985758 -10.12109375 4.53125 C-7.0693855 0.56028733 -4.91981387 0.02058346 0 0 Z " fill="#FCF3F4" transform="translate(330.12109375,318.46875)"/>
<path d="M0 0 C1.18271484 -0.00515625 2.36542969 -0.0103125 3.58398438 -0.015625 C5.4315332 0.00757813 5.4315332 0.00757813 7.31640625 0.03125 C8.54423828 0.01578125 9.77207031 0.0003125 11.03710938 -0.015625 C12.22111328 -0.01046875 13.40511719 -0.0053125 14.625 0 C15.70450928 0.00451172 16.78401855 0.00902344 17.89624023 0.01367188 C21.57478171 0.65200436 23.26051917 1.91018472 25.87890625 4.53125 C26.50390625 7.46875 26.50390625 7.46875 25.87890625 10.53125 C24.21816443 13.08248009 23.47192102 14.10173339 20.87890625 15.53125 C16.5369231 16.28632754 12.27559027 16.22856388 7.87890625 16.15625 C6.11546875 16.18525391 6.11546875 16.18525391 4.31640625 16.21484375 C-5.25359892 16.16046872 -5.25359892 16.16046872 -8.3984375 13.18359375 C-10.5129959 9.92784511 -10.85040158 8.33985758 -10.12109375 4.53125 C-7.0693855 0.56028733 -4.91981387 0.02058346 0 0 Z " fill="#FCF3F4" transform="translate(166.12109375,318.46875)"/>
<path d="M0 0 C1.84174805 -0.03577148 1.84174805 -0.03577148 3.72070312 -0.07226562 C13.74815948 -0.05588981 13.74815948 -0.05588981 16.90625 2.87109375 C18.5625 5.5625 18.5625 5.5625 18.625 9.1875 C17.43873127 12.95564772 16.8955795 13.65404604 13.5625 15.5625 C9.27435282 16.21457437 4.95748207 16.07193382 0.625 16.0625 C-0.55513672 16.09085938 -1.73527344 16.11921875 -2.95117188 16.1484375 C-12.60824241 16.17029844 -12.60824241 16.17029844 -15.71875 13.22265625 C-17.82554699 9.9619091 -18.16686752 8.37141927 -17.4375 4.5625 C-12.88451081 -1.35591512 -6.88130127 -0.06121513 0 0 Z " fill="#FDF3F3" transform="translate(255.4375,30.4375)"/>
<path d="M0 0 C4.46128037 1.77021178 7.60330192 5.53854246 10.88574219 8.92285156 C11.65660156 9.67050781 12.42746094 10.41816406 13.22167969 11.18847656 C19.37528651 17.40708627 19.37528651 17.40708627 20.14355469 21.66503906 C20.01074219 24.79785156 20.01074219 24.79785156 18.01074219 27.79785156 C14.9146713 29.86189882 13.63471837 30.24764382 10.02148438 29.59570312 C5.56020401 27.82549134 2.41818246 24.05716067 -0.86425781 20.67285156 C-1.63511719 19.92519531 -2.40597656 19.17753906 -3.20019531 18.40722656 C-9.35380213 12.18861685 -9.35380213 12.18861685 -10.12207031 7.93066406 C-9.98925781 4.79785156 -9.98925781 4.79785156 -7.98925781 1.79785156 C-4.89318693 -0.26619569 -3.61323399 -0.65194069 0 0 Z " fill="#FDF2F3" transform="translate(339.9892578125,62.2021484375)"/>
<path d="M0 0 C2 1.625 2 1.625 3 4 C3.11723827 9.15848394 1.88313621 11.53741222 -1.5703125 15.3671875 C-3.07279289 16.88553916 -4.59166244 18.38781641 -6.125 19.875 C-6.87265625 20.64585938 -7.6203125 21.41671875 -8.390625 22.2109375 C-14.60923471 28.36454432 -14.60923471 28.36454432 -18.8671875 29.1328125 C-22 29 -22 29 -25 27 C-27.05740632 23.91389052 -27.46584077 22.6174308 -26.81982422 19.01074219 C-24.99006435 14.52298093 -21.02518222 11.38796619 -17.5625 8.125 C-16.77294922 7.35414062 -15.98339844 6.58328125 -15.16992188 5.7890625 C-7.44016042 -1.69687869 -7.44016042 -1.69687869 0 0 Z " fill="#FCF2F2" transform="translate(179,63)"/>
<path d="M0 0 C0.680625 0.515625 1.36125 1.03125 2.0625 1.5625 C3.94289008 3.28449929 3.94289008 3.28449929 6.5625 2.8125 C9.21378289 2.04750731 9.21378289 2.04750731 12 0 C14.875 -0.4375 14.875 -0.4375 18 0 C21.0099077 2.29014716 22.69783903 3.79135614 23.625 7.5 C22.49964161 12.00143356 19.13581352 14.22432247 15.4375 16.75 C10.92456862 19.06432378 7.08334019 19.49193615 2 19 C-3.2549783 17.0034277 -8.07257054 15.00619044 -11 10 C-10.93416738 6.24754049 -10.81598805 3.93687517 -8.3125 1.0625 C-5.2941394 -0.32431433 -3.29029921 -0.4112874 0 0 Z " fill="#E09481" transform="translate(250,189)"/>
<path d="M0 0 C7.26 0.33 14.52 0.66 22 1 C23.1567444 6.92831504 24 11.92943542 24 18 C16.08 18 8.16 18 0 18 C0 12.06 0 6.12 0 0 Z " fill="#FEBDA9" transform="translate(341,125)"/>
<path d="M0 0 C0.66 0.33 1.32 0.66 2 1 C0.68 2.32 -0.64 3.64 -2 5 C-1.30326172 5.4031543 -0.60652344 5.80630859 0.11132812 6.22167969 C3.25002459 8.04926181 6.37494208 9.89920189 9.5 11.75 C11.14548828 12.70132813 11.14548828 12.70132813 12.82421875 13.671875 C13.86191406 14.290625 14.89960938 14.909375 15.96875 15.546875 C16.93232422 16.11245117 17.89589844 16.67802734 18.88867188 17.26074219 C19.58541016 17.83469727 20.28214844 18.40865234 21 19 C21 23 21 23 19.80664062 24.64746094 C18.98969727 25.4329834 18.98969727 25.4329834 18.15625 26.234375 C17.56972656 26.80800781 16.98320312 27.38164063 16.37890625 27.97265625 C15.75886719 28.55917969 15.13882812 29.14570312 14.5 29.75 C13.87996094 30.35199219 13.25992187 30.95398438 12.62109375 31.57421875 C11.08955179 33.05863634 9.54590226 34.53054345 8 36 C5.57521995 33.57521995 4.45430252 31.13709971 2.9375 28.0625 C2.41027344 27.00160156 1.88304687 25.94070312 1.33984375 24.84765625 C-1.12433593 19.6103764 -1.12433593 19.6103764 -0.3125 15.625 C0.40998646 11.93020619 0.40998646 11.93020619 -2 9.3125 C-2.99 8.1678125 -2.99 8.1678125 -4 7 C-3.91911632 4.24995486 -3.26262441 3.29413933 -1.4375 1.25 C-0.963125 0.8375 -0.48875 0.425 0 0 Z " fill="#754D9F" transform="translate(359,70)"/>
<path d="M0 0 C0.33 0.99 0.66 1.98 1 3 C0.34 3.70125 -0.32 4.4025 -1 5.125 C-1.66 6.07375 -2.32 7.0225 -3 8 C-2.7525 9.27875 -2.505 10.5575 -2.25 11.875 C-0.91407766 19.22881549 -6.36270977 25.95907378 -10 32 C-15.24284116 27.6309657 -20.51941304 23.16722236 -25 18 C-25 17.34 -25 16.68 -25 16 C-22.5089775 14.2834971 -20.02278714 12.68756121 -17.4375 11.125 C-16.73302734 10.69058594 -16.02855469 10.25617188 -15.30273438 9.80859375 C-13.21035986 8.5242422 -11.10816794 7.25823659 -9 6 C-8.33371582 5.60006836 -7.66743164 5.20013672 -6.98095703 4.78808594 C-2.2436674 2 -2.2436674 2 0 2 C0 1.34 0 0.68 0 0 Z " fill="#764DA0" transform="translate(156,74)"/>
<path d="M0 0 C0.72614502 0.00008057 1.45229004 0.00016113 2.20043945 0.00024414 C4.4150722 -0.00194063 6.62920561 -0.02008844 8.84375 -0.0390625 C10.245441 -0.04199669 11.64713437 -0.04398131 13.04882812 -0.04492188 C14.33072021 -0.04903076 15.6126123 -0.05313965 16.93334961 -0.05737305 C19.99023438 0.18554688 19.99023438 0.18554688 21.99023438 2.18554688 C22.34023467 4.91554919 22.44958411 6.50964078 20.87890625 8.82080078 C18.09549979 10.8320782 15.86360212 10.57422236 12.45898438 10.58398438 C11.17378906 10.58785156 9.88859375 10.59171875 8.56445312 10.59570312 C7.89591309 10.58941895 7.22737305 10.58313477 6.53857422 10.57666016 C4.49704108 10.56060042 2.4574873 10.57651359 0.41601562 10.59570312 C-0.86917969 10.59183594 -2.154375 10.58796875 -3.47851562 10.58398438 C-4.65865234 10.58060059 -5.83878906 10.5772168 -7.0546875 10.57373047 C-10.00976562 10.18554688 -10.00976562 10.18554688 -11.93359375 8.85595703 C-13.00976562 7.18554688 -13.00976562 7.18554688 -12.75976562 4.06054688 C-11.16734669 -2.04372571 -5.38790062 0.01890924 0 0 Z " fill="#20B8A0" transform="translate(211.009765625,477.814453125)"/>
<path d="M0 0 C1.02075623 -0.00287018 1.02075623 -0.00287018 2.06213379 -0.00579834 C3.50122446 -0.00715963 4.94032744 -0.00346705 6.37939453 0.00488281 C8.58524087 0.01558372 10.79027281 0.00498628 12.99609375 -0.0078125 C14.39323097 -0.00649089 15.79036768 -0.00392848 17.1875 0 C18.46302734 0.00225586 19.73855469 0.00451172 21.05273438 0.00683594 C24.09375 0.265625 24.09375 0.265625 26.09375 2.265625 C26.444902 5.00461059 26.55822035 6.59180598 24.96655273 8.90087891 C22.25132799 10.87951355 20.14996939 10.65409669 16.81640625 10.6640625 C15.58083984 10.66792969 14.34527344 10.67179687 13.07226562 10.67578125 C11.77998047 10.66417969 10.48769531 10.65257812 9.15625 10.640625 C7.22362305 10.65802734 7.22362305 10.65802734 5.25195312 10.67578125 C3.39666992 10.66998047 3.39666992 10.66998047 1.50390625 10.6640625 C0.37090088 10.66067871 -0.76210449 10.65729492 -1.92944336 10.65380859 C-5.19722625 10.22768091 -6.60104193 9.58852009 -8.90625 7.265625 C-9.28125 4.703125 -9.28125 4.703125 -8.90625 2.265625 C-6.03758116 -0.60304384 -4.00969387 0.00709142 0 0 Z " fill="#21B9A0" transform="translate(206.90625,457.734375)"/>
<path d="M0 0 C1.00897339 0.00326294 1.00897339 0.00326294 2.03833008 0.0065918 C4.08859551 0.00974867 6.13741342 -0.01369197 8.1875 -0.0390625 C9.47720703 -0.03970703 10.76691406 -0.04035156 12.09570312 -0.04101562 C13.28220459 -0.04399658 14.46870605 -0.04697754 15.69116211 -0.05004883 C18.66210938 0.32226562 18.66210938 0.32226562 20.55297852 1.68481445 C22.11970122 3.9978255 22.01207057 5.5925683 21.66210938 8.32226562 C18.21366709 11.77070791 13.22321705 10.62593546 8.56445312 10.64453125 C7.48139893 10.64126831 7.48139893 10.64126831 6.37646484 10.63793945 C4.17039704 10.6347775 1.96566769 10.65824138 -0.24023438 10.68359375 C-1.63736809 10.68586651 -3.03450543 10.68657035 -4.43164062 10.68554688 C-5.70716797 10.68852783 -6.98269531 10.69150879 -8.296875 10.69458008 C-9.30041016 10.57171631 -10.30394531 10.44885254 -11.33789062 10.32226562 C-13.33789062 7.32226562 -13.33789062 7.32226562 -13.08789062 4.75976562 C-11.13917578 -1.57355761 -5.59334962 0.03077881 0 0 Z " fill="#20B8A0" transform="translate(211.337890625,436.677734375)"/>
<path d="M0 0 C2.4375 0.8125 2.4375 0.8125 4.4375 2.8125 C4.66455078 5.60986328 4.66455078 5.60986328 4.6328125 9.1328125 C4.62314453 11.01806641 4.62314453 11.01806641 4.61328125 12.94140625 C4.59652344 14.26011719 4.57976562 15.57882813 4.5625 16.9375 C4.55246983 18.27733721 4.54334404 19.61718152 4.53515625 20.95703125 C4.51152075 24.24236573 4.47857234 27.52734465 4.4375 30.8125 C1.1375 30.8125 -2.1625 30.8125 -5.5625 30.8125 C-5.63671454 26.87989056 -5.69113136 22.94755278 -5.72729492 19.0144043 C-5.74978333 17.01922299 -5.78790198 15.02423787 -5.82617188 13.02929688 C-5.83583984 11.77568359 -5.84550781 10.52207031 -5.85546875 9.23046875 C-5.8711792 8.07313232 -5.88688965 6.9157959 -5.90307617 5.72338867 C-5.5625 2.8125 -5.5625 2.8125 -4.2043457 0.8996582 C-2.5625 -0.1875 -2.5625 -0.1875 0 0 Z " fill="#A789C7" transform="translate(256.5625,0.1875)"/>
<path d="M0 0 C3 2.125 3 2.125 5 5 C5.125 8.0625 5.125 8.0625 4 11 C1.58177563 13.55257017 -0.06377684 14.78934979 -3.5 15.5625 C-7.29082295 14.70956484 -8.74689043 13.11459264 -11 10 C-11 6.45638757 -10.65850044 4.13408409 -8.875 1.0625 C-5.76581435 -0.69937187 -3.49155423 -0.48159369 0 0 Z " fill="#F5F4F0" transform="translate(286,387)"/>
<path d="M0 0 C2.72523173 2.38457777 3.75133349 4.00533395 4.625 7.5 C3.62422905 11.50308378 1.40548404 12.85580635 -2 15 C-6.02559668 15.16102387 -7.44446153 14.49856017 -10.4375 11.8125 C-12 9 -12 9 -11.9375 5.875 C-9.94755575 -0.22749571 -6.2593232 -1.34758065 0 0 Z " fill="#F5F4F0" transform="translate(343,387)"/>
<path d="M0 0 C2.5625 2.125 2.5625 2.125 4 5 C4.08154726 8.99581592 3.50505321 10.46688828 0.75 13.375 C-2.32440362 15.19169305 -3.52839394 15.86790152 -7 15 C-9.875 12.375 -9.875 12.375 -12 9 C-12 5.76037732 -11.5220343 3.92123699 -9.9375 1.125 C-6.7475287 -0.7272414 -3.51793277 -0.74879693 0 0 Z " fill="#B9DFE7" transform="translate(315,387)"/>
<path d="M0 0 C2.5 1.5625 2.5 1.5625 4 4 C3.93913078 7.46954545 3.6274029 9.91947278 1.875 12.9375 C-1.18452459 14.6712306 -3.56817525 14.42145216 -7 14 C-9.4375 12.375 -9.4375 12.375 -11 10 C-11.60605429 6.36367425 -11.47161336 4.71685231 -9.4375 1.625 C-6.06489221 -0.62340519 -3.97487617 -0.56783945 0 0 Z " fill="#FCF1F1" transform="translate(317,148)"/>
<path d="M0 0 C-0.680625 0.680625 -1.36125 1.36125 -2.0625 2.0625 C-4.35306038 4.91850295 -4.35306038 4.91850295 -3.875 8.625 C-3.17152508 12.09819189 -3.17152508 12.09819189 -1 15 C-5.84435994 15.47493725 -8.9563259 15.72418203 -13.0625 12.875 C-15.34404561 9.48948071 -15.7652998 7.99656562 -15 4 C-11.83680841 -1.7238705 -5.71583426 -0.35477592 0 0 Z " fill="#BEDCE9" transform="translate(335,319)"/>
<path d="M0 0 C-0.680625 0.680625 -1.36125 1.36125 -2.0625 2.0625 C-4.35306038 4.91850295 -4.35306038 4.91850295 -3.875 8.625 C-3.17152508 12.09819189 -3.17152508 12.09819189 -1 15 C-5.84435994 15.47493725 -8.9563259 15.72418203 -13.0625 12.875 C-15.34404561 9.48948071 -15.7652998 7.99656562 -15 4 C-11.83680841 -1.7238705 -5.71583426 -0.35477592 0 0 Z " fill="#BEDCE9" transform="translate(171,319)"/>
<path d="M0 0 C-0.680625 0.680625 -1.36125 1.36125 -2.0625 2.0625 C-4.35306038 4.91850295 -4.35306038 4.91850295 -3.875 8.625 C-3.17152508 12.09819189 -3.17152508 12.09819189 -1 15 C-5.84435994 15.47493725 -8.9563259 15.72418203 -13.0625 12.875 C-15.34404561 9.48948071 -15.7652998 7.99656562 -15 4 C-11.83680841 -1.7238705 -5.71583426 -0.35477592 0 0 Z " fill="#BEDBE8" transform="translate(253,31)"/>
<path d="M0 0 C0.268125 1.11375 0.53625 2.2275 0.8125 3.375 C1.65809019 7.21840951 1.65809019 7.21840951 5 9 C6.65549531 9.38499891 8.3222433 9.72793135 10 10 C6.03341646 15.64937656 6.03341646 15.64937656 1.5 17.1875 C-2 17 -2 17 -5 15 C-7 12 -7 12 -7.125 8.5 C-6.15845953 5.4929852 -3.9083097 0 0 0 Z " fill="#BEDAE7" transform="translate(159,75)"/>
<path d="M0 0 C5.64937656 3.96658354 5.64937656 3.96658354 7.1875 8.5 C7 12 7 12 5 15 C2 17 2 17 -1.5 17.1875 C-6.04407649 15.64575976 -7.28126188 13.87214217 -10 10 C-8.329375 9.814375 -8.329375 9.814375 -6.625 9.625 C-2.96896323 9.3534187 -2.96896323 9.3534187 -1 7 C-0.59952556 4.67724823 -0.2602896 2.34260643 0 0 Z " fill="#C0DBE7" transform="translate(353,75)"/>
<path d="M0 0 C2.5 0.25 2.5 0.25 4.5 2.25 C4.75 4.75 4.75 4.75 4.5 7.25 C2.5 9.25 2.5 9.25 0 9.5 C-2.5 9.25 -2.5 9.25 -4.5 7.25 C-4.75 4.75 -4.75 4.75 -4.5 2.25 C-2.5 0.25 -2.5 0.25 0 0 Z " fill="#A0FEBC" transform="translate(208.5,157.75)"/>
</svg>
